<svg id="SvgjsSvg1001" width="446" height="445" xmlns="http://www.w3.org/2000/svg" version="1.1" xmlns:xlink="http://www.w3.org/1999/xlink" xmlns:svgjs="http://svgjs.com/svgjs"><circle id="SvgjsCircle18056" r="200.25" cx="223" cy="222.5" stroke="black" fill="transparent"></circle><line id="SvgjsLine18057" x1="224.91797045754362" y1="22.259185256042315" x2="423.2132598184668" y2="226.3357649645281" stroke="black"></line><line id="SvgjsLine18058" x1="226.8357649645281" y1="22.28674018153319" x2="215.32987757857043" y2="422.6030527554247" stroke="black"></line><line id="SvgjsLine18059" x1="228.75320758653564" y1="22.33266224864201" x2="23.08058074940095" y2="210.99833462044694" stroke="black"></line><line id="SvgjsLine18060" x1="230.67012242142957" y1="22.3969472445753" x2="238.32898788050827" y2="22.837573312955982" stroke="black"></line><line id="SvgjsLine18061" x1="232.5863336154914" y1="22.479589271963306" x2="422.33216936641696" y2="241.65068551457253" stroke="black"></line><line id="SvgjsLine18062" x1="234.5016653795531" y1="22.58058074940095" x2="200.0346440639703" y2="421.4287684743749" stroke="black"></line><line id="SvgjsLine18063" x1="236.41594200512364" y1="22.69991241214342" x2="24.547627963893547" y2="195.72840062224913" stroke="black"></line><line id="SvgjsLine18064" x1="238.32898788050827" y1="22.837573312955982" x2="253.56801916482962" y2="24.596845137985213" stroke="black"></line><line id="SvgjsLine18065" x1="240.24062750691857" y1="22.993550823118312" x2="420.28131848357236" y2="256.85322222708214" stroke="black"></line><line id="SvgjsLine18066" x1="242.15068551457253" y1="23.167830633583037" x2="184.87418038977518" y2="419.0870910793702" stroke="black"></line><line id="SvgjsLine18067" x1="244.05898667878245" y1="23.360396756288424" x2="27.17927260861063" y2="180.61557301445845" stroke="black"></line><line id="SvgjsLine18068" x1="245.96535593602968" y1="23.57123152562508" x2="268.6276651578533" y2="27.517491368474737" stroke="black"></line><line id="SvgjsLine18069" x1="247.86961840002476" y1="23.800315600056507" x2="417.0727423783985" y2="271.8541605716049" stroke="black"></line><line id="SvgjsLine18070" x1="249.77159937775087" y1="24.047627963893547" x2="169.9374541851185" y2="415.59176246449147" stroke="black"></line><line id="SvgjsLine18071" x1="251.67112438549" y1="24.31314592922223" x2="30.96007114634949" y2="165.74853987882915" stroke="black"></line><line id="SvgjsLine18072" x1="253.56801916482962" y1="24.596845137985213" x2="283.4195498686873" y2="31.58237249100017" stroke="black"></line><line id="SvgjsLine18073" x1="255.4621096986488" y1="24.8986995642162" x2="412.7252702513148" y2="286.56546907707434" stroke="black"></line><line id="SvgjsLine18074" x1="257.35322222708214" y1="25.218681516427637" x2="155.31212009869728" y2="410.9632946079072" stroke="black"></line><line id="SvgjsLine18075" x1="259.24118326346024" y1="25.556761640151024" x2="35.86783634792218" y2="151.2145468774171" stroke="black"></line><line id="SvgjsLine18076" x1="261.1258196102248" y1="25.912908920629803" x2="297.856868636114" y2="36.76763416680552" stroke="black"></line><line id="SvgjsLine18077" x1="263.0069583748177" y1="26.287090685664623" x2="407.26441479745915" y2="300.90081593548564" stroke="black"></line><line id="SvgjsLine18078" x1="264.8844269855415" y1="26.679272608610603" x2="141.0840054064393" y2="405.2288491994292" stroke="black"></line><line id="SvgjsLine18079" x1="266.7580532073909" y1="27.089418711526406" x2="41.87376749563896" y2="137.09888526034246" stroke="black"></line><line id="SvgjsLine18080" x1="268.6276651578533" y1="27.517491368474737" x2="311.8548975328587" y2="43.042847218548616" stroke="black"></line><line id="SvgjsLine18081" x1="270.4930913226769" y1="27.96345130897413" x2="400.72222248804866" y2="314.7760756312736" stroke="black"></line><line id="SvgjsLine18082" x1="272.35416057160495" y1="28.427257621601512" x2="127.33660634291941" y2="398.42207824491624" stroke="black"></line><line id="SvgjsLine18083" x1="274.21070217407504" y1="28.908867757745213" x2="48.942619397371374" y2="123.48439134282071" stroke="black"></line><line id="SvgjsLine18084" x1="276.0625458148815" y1="29.408237535508505" x2="325.33149055928385" y2="50.37118620081296" stroke="black"></line><line id="SvgjsLine18085" x1="277.90952160979964" y1="29.92532114376266" x2="393.1370855089433" y2="328.1098226232888" stroke="black"></line><line id="SvgjsLine18086" x1="279.7514601211708" y1="30.460071146349463" x2="114.1505981122555" y2="390.582926582923" stroke="black"></line><line id="SvgjsLine18087" x1="281.5881923734459" y1="31.012438486433012" x2="57.032909219354764" y2="110.45096038872504" stroke="black"></line><line id="SvgjsLine18088" x1="283.4195498686873" y1="31.58237249100017" x2="338.20756170877877" y2="58.709645506464796" stroke="black"></line><line id="SvgjsLine18089" x1="285.245364602026" y1="32.16982087550895" x2="384.5535164600335" y2="340.82380918225067" stroke="black"></line><line id="SvgjsLine18090" x1="287.06546907707434" y1="32.77472974868522" x2="101.60336145393082" y2="381.7573974725037" stroke="black"></line><line id="SvgjsLine18091" x1="288.8796963212919" y1="33.39704361746652" x2="66.09715992395141" y2="98.07507775341018" stroke="black"></line><line id="SvgjsLine18092" x1="290.68787990130267" y1="34.03670539209281" x2="350.4075490758936" y2="68.00929174065593" stroke="black"></line><line id="SvgjsLine18093" x1="292.48985393816383" y1="34.69365639134375" x2="375.02188713760455" y2="352.8434245795369" stroke="black"></line><line id="SvgjsLine18094" x1="294.28545312258296" y1="35.36783634792221" x2="89.76852854184557" y2="371.9972826277956" stroke="black"></line><line id="SvgjsLine18095" x1="296.074512730083" y1="36.05918341398271" x2="76.08217888378584" y2="86.42937003723361" stroke="black"></line><line id="SvgjsLine18096" x1="297.856868636114" y1="36.76763416680552" x2="361.8598582836464" y2="78.2155508814424" stroke="black"></line><line id="SvgjsLine18097" x1="299.63235733110923" y1="37.49312361461483" x2="364.5981329326062" y2="364.0981329326061" stroke="black"></line><line id="SvgjsLine18098" x1="301.40081593548564" y1="38.23558520254082" x2="78.71555088144243" y2="361.3598582836464" stroke="black"></line><line id="SvgjsLine18099" x1="303.1620822145858" y1="38.99495081872547" x2="86.92937003723355" y2="75.5821788837859" stroke="black"></line><line id="SvgjsLine18100" x1="304.9159945935608" y1="39.771150800570865" x2="372.4972826277955" y2="89.26852854184554" stroke="black"></line><line id="SvgjsLine18101" x1="306.6623921721933" y1="40.56411394112999" x2="353.34342457953693" y2="374.5218871376045" stroke="black"></line><line id="SvgjsLine18102" x1="308.40111473965754" y1="41.37376749563896" x2="68.50929174065593" y2="349.9075490758936" stroke="black"></line><line id="SvgjsLine18103" x1="310.1320027892174" y1="42.20003718819072" x2="98.57507775341011" y2="65.59715992395147" stroke="black"></line><line id="SvgjsLine18104" x1="311.8548975328587" y1="43.042847218548616" x2="382.2573974725036" y2="101.10336145393073" stroke="black"></line><line id="SvgjsLine18105" x1="313.56964091585627" y1="43.902120269100465" x2="341.3238091822507" y2="384.0535164600335" stroke="black"></line><line id="SvgjsLine18106" x1="315.2760756312736" y1="44.777777511951314" x2="59.20964550646474" y2="337.7075617087787" stroke="black"></line><line id="SvgjsLine18107" x1="316.9740451343938" y1="45.66973861615509" x2="110.95096038872495" y2="56.53290921935482" stroke="black"></line><line id="SvgjsLine18108" x1="318.66339365708063" y1="46.57792175508379" x2="391.082926582923" y2="113.65059811225547" stroke="black"></line><line id="SvgjsLine18109" x1="320.3439662220685" y1="47.502243613934326" x2="328.6098226232888" y2="392.6370855089433" stroke="black"></line><line id="SvgjsLine18110" x1="322.0156086571794" y1="48.44261939737143" x2="50.87118620081293" y2="324.8314905592838" stroke="black"></line><line id="SvgjsLine18111" x1="323.67816760946687" y1="49.39896283730681" x2="123.98439134282064" y2="48.44261939737143" stroke="black"></line><line id="SvgjsLine18112" x1="325.33149055928385" y1="50.37118620081296" x2="398.9220782449162" y2="126.83660634291934" stroke="black"></line><line id="SvgjsLine18113" x1="326.9754258342746" y1="51.35920029817183" x2="315.27607563127367" y2="400.22222248804866" stroke="black"></line><line id="SvgjsLine18114" x1="328.6098226232888" y1="52.3629144910567" x2="43.542847218548644" y2="311.35489753285873" stroke="black"></line><line id="SvgjsLine18115" x1="330.23453099021685" y1="53.38223670084736" x2="137.5988852603424" y2="41.373767495639015" stroke="black"></line><line id="SvgjsLine18116" x1="331.84940188774453" y1="54.417073417077006" x2="405.72884919942913" y2="140.58400540643916" stroke="black"></line><line id="SvgjsLine18117" x1="333.45428717102607" y1="55.46732970601079" x2="301.4008159354857" y2="406.76441479745915" stroke="black"></line><line id="SvgjsLine18118" x1="335.0490396112751" y1="56.53290921935485" x2="37.26763416680555" y2="297.356868636114" stroke="black"></line><line id="SvgjsLine18119" x1="336.6335129092706" y1="57.61371420309504" x2="151.714546877417" y2="35.36783634792221" stroke="black"></line><line id="SvgjsLine18120" x1="338.20756170877877" y1="58.709645506464796" x2="411.4632946079072" y2="154.81212009869733" stroke="black"></line><line id="SvgjsLine18121" x1="339.7710416098869" y1="59.820602591040824" x2="287.06546907707434" y2="412.2252702513148" stroke="black"></line><line id="SvgjsLine18122" x1="341.3238091822507" y1="60.94648353996649" x2="32.0823724910002" y2="282.91954986868745" stroke="black"></line><line id="SvgjsLine18123" x1="342.86572197825274" y1="62.08718506730136" x2="166.24853987882906" y2="30.46007114634952" stroke="black"></line><line id="SvgjsLine18124" x1="344.39663854606925" y1="63.24260252749633" x2="416.09176246449147" y2="169.43745418511844" stroke="black"></line><line id="SvgjsLine18125" x1="345.9164184426477" y1="64.41262992499387" x2="272.3541605716049" y2="416.5727423783985" stroke="black"></line><line id="SvgjsLine18126" x1="347.42492224658986" y1="65.59715992395147" x2="28.017491368474793" y2="268.1276651578534" stroke="black"></line><line id="SvgjsLine18127" x1="348.9220115709428" y1="66.7960838580887" x2="181.11557301445836" y2="26.67927260861063" stroke="black"></line><line id="SvgjsLine18128" x1="350.4075490758936" y1="68.00929174065593" x2="419.5870910793702" y2="184.37418038977515" stroke="black"></line><line id="SvgjsLine18129" x1="351.88139848136893" y1="69.23667227452421" x2="257.35322222708214" y2="419.78131848357236" stroke="black"></line><line id="SvgjsLine18130" x1="353.343424579537" y1="70.4781128623955" x2="25.09684513798524" y2="253.06801916482974" stroke="black"></line><line id="SvgjsLine18131" x1="354.79349324721113" y1="71.73349961713211" x2="196.22840062224904" y2="24.047627963893547" stroke="black"></line><line id="SvgjsLine18132" x1="356.2314714581545" y1="73.00271737220447" x2="421.9287684743749" y2="199.5346440639703" stroke="black"></line><line id="SvgjsLine18133" x1="357.6572272952827" y1="74.28564969225627" x2="242.15068551457261" y2="421.83216936641696" stroke="black"></line><line id="SvgjsLine18134" x1="359.0706299627664" y1="75.58217888378587" x2="23.337573312955982" y2="237.82898788050832" stroke="black"></line><line id="SvgjsLine18135" x1="360.47154979802997" y1="76.8921860059435" x2="211.49833462044685" y2="22.58058074940095" stroke="black"></line><line id="SvgjsLine18136" x1="361.8598582836464" y1="78.2155508814424" x2="423.1030527554247" y2="214.8298775785704" stroke="black"></line><line id="SvgjsLine18137" x1="363.2354280591271" y1="79.55215210758374" x2="226.83576496452812" y2="422.7132598184668" stroke="black"></line><line id="SvgjsLine18138" x1="364.5981329326061" y1="80.90186706739385" x2="22.75" y2="222.50000000000003" stroke="black"></line><line id="SvgjsLine18139" x1="365.94784789241623" y1="82.26457194087286" x2="226.8357649645281" y2="22.28674018153319" stroke="black"></line><line id="SvgjsLine18140" x1="367.28444911855763" y1="83.64014171635358" x2="423.1030527554247" y2="230.1701224214296" stroke="black"></line><line id="SvgjsLine18141" x1="368.6078139940565" y1="85.02845020197" x2="211.4983346204469" y2="422.41941925059905" stroke="black"></line><line id="SvgjsLine18142" x1="369.9178211162141" y1="86.42937003723355" x2="23.337573312955982" y2="207.17101211949176" stroke="black"></line><line id="SvgjsLine18143" x1="371.21435030774376" y1="87.8427727047173" x2="242.15068551457253" y2="23.167830633583037" stroke="black"></line><line id="SvgjsLine18144" x1="372.4972826277955" y1="89.26852854184554" x2="421.9287684743749" y2="245.46535593602968" stroke="black"></line><line id="SvgjsLine18145" x1="373.7665003828679" y1="90.70650675278884" x2="196.2284006222491" y2="420.95237203610645" stroke="black"></line><line id="SvgjsLine18146" x1="375.0218871376045" y1="92.15657542046304" x2="25.096845137985213" y2="191.93198083517035" stroke="black"></line><line id="SvgjsLine18147" x1="376.26332772547585" y1="93.6186015186311" x2="257.35322222708214" y2="25.218681516427637" stroke="black"></line><line id="SvgjsLine18148" x1="377.49070825934405" y1="95.0924509241064" x2="419.5870910793702" y2="260.6258196102249" stroke="black"></line><line id="SvgjsLine18149" x1="378.70391614191124" y1="96.57798842905716" x2="181.1155730144585" y2="418.32072739138937" stroke="black"></line><line id="SvgjsLine18150" x1="379.9028400760485" y1="98.0750777534101" x2="28.017491368474765" y2="176.87233484214664" stroke="black"></line><line id="SvgjsLine18151" x1="381.0873700750061" y1="99.58358155735233" x2="272.35416057160495" y2="28.427257621601512" stroke="black"></line><line id="SvgjsLine18152" x1="382.2573974725036" y1="101.10336145393073" x2="416.09176246449147" y2="275.56254581488145" stroke="black"></line><line id="SvgjsLine18153" x1="383.41281493269867" y1="102.63427802174726" x2="166.2485398788292" y2="414.5399288536505" stroke="black"></line><line id="SvgjsLine18154" x1="384.5535164600335" y1="104.17619081774923" x2="32.08237249100017" y2="162.08045013131266" stroke="black"></line><line id="SvgjsLine18155" x1="385.6793974089592" y1="105.72895839011312" x2="287.06546907707434" y2="32.77472974868522" stroke="black"></line><line id="SvgjsLine18156" x1="386.79035449353523" y1="107.29243829122122" x2="411.4632946079072" y2="290.1878799013026" stroke="black"></line><line id="SvgjsLine18157" x1="387.88628579690493" y1="108.86648709072932" x2="151.71454687741698" y2="409.6321636520778" stroke="black"></line><line id="SvgjsLine18158" x1="388.96709078064515" y1="110.45096038872491" x2="37.26763416680552" y2="147.64313136388608" stroke="black"></line><line id="SvgjsLine18159" x1="390.0326702939892" y1="112.0457128289739" x2="301.40081593548564" y2="38.23558520254082" stroke="black"></line><line id="SvgjsLine18160" x1="391.082926582923" y1="113.65059811225547" x2="405.72884919942913" y2="304.4159945935608" stroke="black"></line><line id="SvgjsLine18161" x1="392.1177632991526" y1="115.26546900978312" x2="137.59888526034254" y2="403.62623250436104" stroke="black"></line><line id="SvgjsLine18162" x1="393.1370855089433" y1="116.8901773767112" x2="43.542847218548616" y2="133.64510246714133" stroke="black"></line><line id="SvgjsLine18163" x1="394.1407997018282" y1="118.52457416572544" x2="315.2760756312736" y2="44.777777511951314" stroke="black"></line><line id="SvgjsLine18164" x1="395.128813799187" y1="120.16850944071616" x2="398.9220782449162" y2="318.1633936570807" stroke="black"></line><line id="SvgjsLine18165" x1="396.1010371626932" y1="121.82183239053312" x2="123.98439134282063" y2="396.55738060262854" stroke="black"></line><line id="SvgjsLine18166" x1="397.05738060262854" y1="123.4843913428206" x2="50.8711862008129" y2="120.16850944071629" stroke="black"></line><line id="SvgjsLine18167" x1="397.9977563860657" y1="125.15603377793151" x2="328.6098226232888" y2="52.3629144910567" stroke="black"></line><line id="SvgjsLine18168" x1="398.9220782449162" y1="126.83660634291934" x2="391.082926582923" y2="331.34940188774453" stroke="black"></line><line id="SvgjsLine18169" x1="399.8302613838449" y1="128.5259548656062" x2="110.95096038872495" y2="388.4670907806452" stroke="black"></line><line id="SvgjsLine18170" x1="400.72222248804866" y1="130.2239243687264" x2="59.20964550646474" y2="107.29243829122133" stroke="black"></line><line id="SvgjsLine18171" x1="401.59787973089954" y1="131.9303590841437" x2="341.3238091822507" y2="60.94648353996649" stroke="black"></line><line id="SvgjsLine18172" x1="402.4571527814513" y1="133.64510246714127" x2="382.25739747250367" y2="343.8966385460692" stroke="black"></line><line id="SvgjsLine18173" x1="403.2999628118092" y1="135.36799721078256" x2="98.57507775341018" y2="379.40284007604856" stroke="black"></line><line id="SvgjsLine18174" x1="404.12623250436104" y1="137.09888526034243" x2="68.50929174065587" y2="95.09245092410647" stroke="black"></line><line id="SvgjsLine18175" x1="404.93588605887" y1="138.83760782780672" x2="353.343424579537" y2="70.4781128623955" stroke="black"></line><line id="SvgjsLine18176" x1="405.72884919942913" y1="140.58400540643916" x2="372.4972826277956" y2="355.73147145815443" stroke="black"></line><line id="SvgjsLine18177" x1="406.50504918127456" y1="142.3379177854142" x2="86.92937003723358" y2="369.4178211162141" stroke="black"></line><line id="SvgjsLine18178" x1="407.26441479745915" y1="144.0991840645143" x2="78.71555088144237" y2="83.64014171635364" stroke="black"></line><line id="SvgjsLine18179" x1="408.00687638538517" y1="145.86764266889077" x2="364.5981329326061" y2="80.90186706739385" stroke="black"></line><line id="SvgjsLine18180" x1="408.7323658331944" y1="147.64313136388606" x2="361.8598582836464" y2="366.7844491185576" stroke="black"></line><line id="SvgjsLine18181" x1="409.44081658601726" y1="149.425487269917" x2="76.0821788837859" y2="358.5706299627665" stroke="black"></line><line id="SvgjsLine18182" x1="410.1321636520778" y1="151.21454687741704" x2="89.76852854184551" y2="73.0027173722045" stroke="black"></line><line id="SvgjsLine18183" x1="410.8063436086562" y1="153.01014606183614" x2="375.0218871376045" y2="92.15657542046304" stroke="black"></line><line id="SvgjsLine18184" x1="411.4632946079072" y1="154.81212009869733" x2="350.4075490758936" y2="376.99070825934405" stroke="black"></line><line id="SvgjsLine18185" x1="412.1029563825335" y1="156.62030367870813" x2="66.09715992395144" y2="346.92492224658986" stroke="black"></line><line id="SvgjsLine18186" x1="412.7252702513148" y1="158.43453092292566" x2="101.60336145393075" y2="63.24260252749633" stroke="black"></line><line id="SvgjsLine18187" x1="413.3301791244911" y1="160.25463539797406" x2="384.5535164600335" y2="104.17619081774923" stroke="black"></line><line id="SvgjsLine18188" x1="413.91762750899983" y1="162.08045013131272" x2="338.2075617087788" y2="386.29035449353523" stroke="black"></line><line id="SvgjsLine18189" x1="414.48756151356696" y1="163.9118076265541" x2="57.03290921935482" y2="334.549039611275" stroke="black"></line><line id="SvgjsLine18190" x1="415.0399288536505" y1="165.7485398788292" x2="114.15059811225551" y2="54.417073417077006" stroke="black"></line><line id="SvgjsLine18191" x1="415.57467885623737" y1="167.59047839020036" x2="393.1370855089433" y2="116.8901773767112" stroke="black"></line><line id="SvgjsLine18192" x1="416.09176246449147" y1="169.43745418511844" x2="325.3314905592839" y2="394.628813799187" stroke="black"></line><line id="SvgjsLine18193" x1="416.5911322422548" y1="171.2892978259249" x2="48.9426193973714" y2="321.5156086571793" stroke="black"></line><line id="SvgjsLine18194" x1="417.0727423783985" y1="173.14583942839502" x2="127.33660634291942" y2="46.577921755083764" stroke="black"></line><line id="SvgjsLine18195" x1="417.5365486910258" y1="175.00690867732308" x2="400.72222248804866" y2="130.2239243687264" stroke="black"></line><line id="SvgjsLine18196" x1="417.9825086315252" y1="176.87233484214667" x2="311.85489753285873" y2="401.9571527814513" stroke="black"></line><line id="SvgjsLine18197" x1="418.4105812884736" y1="178.7419467926091" x2="41.87376749563899" y2="307.9011147396576" stroke="black"></line><line id="SvgjsLine18198" x1="418.82072739138937" y1="180.61557301445848" x2="141.08400540643913" y2="39.771150800570894" stroke="black"></line><line id="SvgjsLine18199" x1="419.2129093143354" y1="182.49304162518226" x2="407.26441479745915" y2="144.0991840645143" stroke="black"></line><line id="SvgjsLine18200" x1="419.5870910793702" y1="184.37418038977515" x2="297.856868636114" y2="408.2323658331944" stroke="black"></line><line id="SvgjsLine18201" x1="419.943238359849" y1="186.25881673653976" x2="35.86783634792221" y2="293.78545312258296" stroke="black"></line><line id="SvgjsLine18202" x1="420.28131848357236" y1="188.14677777291786" x2="155.3121200986973" y2="34.03670539209281" stroke="black"></line><line id="SvgjsLine18203" x1="420.6013004357838" y1="190.0378903013512" x2="412.7252702513148" y2="158.43453092292566" stroke="black"></line><line id="SvgjsLine18204" x1="420.9031548620148" y1="191.93198083517038" x2="283.4195498686872" y2="413.41762750899983" stroke="black"></line><line id="SvgjsLine18205" x1="421.18685407077777" y1="193.82887561451003" x2="30.96007114634952" y2="279.2514601211709" stroke="black"></line><line id="SvgjsLine18206" x1="421.45237203610645" y1="195.72840062224915" x2="169.93745418511833" y2="29.40823753550856" stroke="black"></line><line id="SvgjsLine18207" x1="421.6996843999435" y1="197.63038159997527" x2="417.0727423783985" y2="173.14583942839502" stroke="black"></line><line id="SvgjsLine18208" x1="421.9287684743749" y1="199.5346440639703" x2="268.62766515785336" y2="417.4825086315252" stroke="black"></line><line id="SvgjsLine18209" x1="422.1396032437116" y1="201.44101332121755" x2="27.17927260861063" y2="264.3844269855416" stroke="black"></line><line id="SvgjsLine18210" x1="422.33216936641696" y1="203.34931448542744" x2="184.87418038977503" y2="25.91290892062983" stroke="black"></line><line id="SvgjsLine18211" x1="422.5064491768817" y1="205.2593724930814" x2="420.28131848357236" y2="188.14677777291786" stroke="black"></line><line id="SvgjsLine18212" x1="422.662426687044" y1="207.1710121194917" x2="253.5680191648297" y2="420.40315486201473" stroke="black"></line><line id="SvgjsLine18213" x1="422.8000875878566" y1="209.08405799487633" x2="24.547627963893547" y2="249.27159937775096" stroke="black"></line><line id="SvgjsLine18214" x1="422.91941925059905" y1="210.99833462044688" x2="200.0346440639702" y2="23.57123152562508" stroke="black"></line><line id="SvgjsLine18215" x1="423.0204107280367" y1="212.91366638450856" x2="422.33216936641696" y2="203.34931448542744" stroke="black"></line><line id="SvgjsLine18216" x1="423.1030527554247" y1="214.8298775785704" x2="238.32898788050832" y2="422.162426687044" stroke="black"></line><line id="SvgjsLine18217" x1="423.167337751358" y1="216.74679241346433" x2="23.08058074940095" y2="234.00166537955315" stroke="black"></line><line id="SvgjsLine18218" x1="423.2132598184668" y1="218.66423503547188" x2="215.32987757857035" y2="22.3969472445753" stroke="black"></line><line id="SvgjsLine18219" x1="423.2408147439577" y1="220.58202954245635" x2="423.2132598184668" y2="218.66423503547188" stroke="black"></line><line id="SvgjsLine18220" x1="423.25" y1="222.5" x2="223.00000000000003" y2="422.75" stroke="black"></line><line id="SvgjsLine18221" x1="423.2408147439577" y1="224.41797045754362" x2="22.78674018153319" y2="218.66423503547193" stroke="black"></line><line id="SvgjsLine18222" x1="423.2132598184668" y1="226.3357649645281" x2="230.67012242142957" y2="22.3969472445753" stroke="black"></line><line id="SvgjsLine18223" x1="423.167337751358" y1="228.25320758653564" x2="422.91941925059905" y2="234.0016653795531" stroke="black"></line><line id="SvgjsLine18224" x1="423.1030527554247" y1="230.1701224214296" x2="207.67101211949173" y2="422.162426687044" stroke="black"></line><line id="SvgjsLine18225" x1="423.0204107280367" y1="232.0863336154914" x2="23.667830633583037" y2="203.34931448542744" stroke="black"></line><line id="SvgjsLine18226" x1="422.91941925059905" y1="234.0016653795531" x2="245.96535593602968" y2="23.57123152562508" stroke="black"></line><line id="SvgjsLine18227" x1="422.8000875878566" y1="235.91594200512364" x2="421.45237203610645" y2="249.27159937775087" stroke="black"></line><line id="SvgjsLine18228" x1="422.662426687044" y1="237.82898788050827" x2="192.43198083517035" y2="420.4031548620148" stroke="black"></line><line id="SvgjsLine18229" x1="422.5064491768817" y1="239.74062750691857" x2="25.718681516427637" y2="188.1467777729178" stroke="black"></line><line id="SvgjsLine18230" x1="422.33216936641696" y1="241.65068551457253" x2="261.1258196102248" y2="25.912908920629803" stroke="black"></line><line id="SvgjsLine18231" x1="422.1396032437116" y1="243.55898667878245" x2="418.82072739138937" y2="264.38442698554144" stroke="black"></line><line id="SvgjsLine18232" x1="421.9287684743749" y1="245.46535593602968" x2="177.3723348421467" y2="417.48250863152526" stroke="black"></line><line id="SvgjsLine18233" x1="421.6996843999435" y1="247.36961840002476" x2="28.927257621601512" y2="173.145839428395" stroke="black"></line><line id="SvgjsLine18234" x1="421.45237203610645" y1="249.27159937775087" x2="276.0625458148815" y2="29.408237535508505" stroke="black"></line><line id="SvgjsLine18235" x1="421.18685407077777" y1="251.17112438549" x2="415.03992885365057" y2="279.25146012117074" stroke="black"></line><line id="SvgjsLine18236" x1="420.9031548620148" y1="253.06801916482962" x2="162.58045013131272" y2="413.41762750899983" stroke="black"></line><line id="SvgjsLine18237" x1="420.6013004357838" y1="254.96210969864882" x2="33.27472974868519" y2="158.43453092292572" stroke="black"></line><line id="SvgjsLine18238" x1="420.28131848357236" y1="256.85322222708214" x2="290.68787990130267" y2="34.03670539209281" stroke="black"></line><line id="SvgjsLine18239" x1="419.943238359849" y1="258.74118326346024" x2="410.1321636520778" y2="293.7854531225829" stroke="black"></line><line id="SvgjsLine18240" x1="419.5870910793702" y1="260.6258196102249" x2="148.143131363886" y2="408.2323658331944" stroke="black"></line><line id="SvgjsLine18241" x1="419.2129093143354" y1="262.50695837481766" x2="38.73558520254079" y2="144.09918406451436" stroke="black"></line><line id="SvgjsLine18242" x1="418.82072739138937" y1="264.38442698554144" x2="304.9159945935608" y2="39.771150800570865" stroke="black"></line><line id="SvgjsLine18243" x1="418.4105812884736" y1="266.25805320739084" x2="404.12623250436104" y2="307.90111473965754" stroke="black"></line><line id="SvgjsLine18244" x1="417.98250863152526" y1="268.12766515785324" x2="134.14510246714138" y2="401.95715278145144" stroke="black"></line><line id="SvgjsLine18245" x1="417.53654869102587" y1="269.99309132267683" x2="45.27777751195126" y2="130.22392436872656" stroke="black"></line><line id="SvgjsLine18246" x1="417.0727423783985" y1="271.8541605716049" x2="318.66339365708063" y2="46.57792175508379" stroke="black"></line><line id="SvgjsLine18247" x1="416.59113224225484" y1="273.71070217407504" x2="397.05738060262854" y2="321.5156086571794" stroke="black"></line><line id="SvgjsLine18248" x1="416.09176246449147" y1="275.56254581488145" x2="120.6685094407162" y2="394.62881379918707" stroke="black"></line><line id="SvgjsLine18249" x1="415.57467885623737" y1="277.40952160979964" x2="52.86291449105664" y2="116.8901773767113" stroke="black"></line><line id="SvgjsLine18250" x1="415.03992885365057" y1="279.25146012117074" x2="331.84940188774453" y2="54.417073417077006" stroke="black"></line><line id="SvgjsLine18251" x1="414.487561513567" y1="281.0881923734459" x2="388.9670907806452" y2="334.5490396112751" stroke="black"></line><line id="SvgjsLine18252" x1="413.91762750899983" y1="282.9195498686872" x2="107.79243829122123" y2="386.29035449353523" stroke="black"></line><line id="SvgjsLine18253" x1="413.3301791244911" y1="284.7453646020259" x2="61.44648353996644" y2="104.17619081774934" stroke="black"></line><line id="SvgjsLine18254" x1="412.7252702513148" y1="286.56546907707434" x2="344.39663854606925" y2="63.24260252749633" stroke="black"></line><line id="SvgjsLine18255" x1="412.1029563825335" y1="288.3796963212919" x2="379.90284007604856" y2="346.92492224658986" stroke="black"></line><line id="SvgjsLine18256" x1="411.4632946079072" y1="290.1878799013026" x2="95.59245092410644" y2="376.99070825934416" stroke="black"></line><line id="SvgjsLine18257" x1="410.8063436086562" y1="291.98985393816383" x2="70.97811286239542" y2="92.15657542046313" stroke="black"></line><line id="SvgjsLine18258" x1="410.1321636520778" y1="293.7854531225829" x2="356.2314714581545" y2="73.00271737220447" stroke="black"></line><line id="SvgjsLine18259" x1="409.44081658601726" y1="295.574512730083" x2="369.9178211162141" y2="358.5706299627664" stroke="black"></line><line id="SvgjsLine18260" x1="408.7323658331945" y1="297.3568686361139" x2="84.14014171635361" y2="366.78444911855763" stroke="black"></line><line id="SvgjsLine18261" x1="408.00687638538517" y1="299.13235733110923" x2="81.40186706739382" y2="80.90186706739388" stroke="black"></line><line id="SvgjsLine18262" x1="407.26441479745915" y1="300.90081593548564" x2="367.28444911855763" y2="83.64014171635358" stroke="black"></line><line id="SvgjsLine18263" x1="406.50504918127456" y1="302.6620822145858" x2="359.0706299627665" y2="369.4178211162141" stroke="black"></line><line id="SvgjsLine18264" x1="405.72884919942913" y1="304.4159945935608" x2="73.5027173722045" y2="355.7314714581545" stroke="black"></line><line id="SvgjsLine18265" x1="404.93588605887" y1="306.1623921721933" x2="92.65657542046304" y2="70.4781128623955" stroke="black"></line><line id="SvgjsLine18266" x1="404.12623250436104" y1="307.90111473965754" x2="377.49070825934405" y2="95.0924509241064" stroke="black"></line><line id="SvgjsLine18267" x1="403.2999628118093" y1="309.6320027892174" x2="347.42492224658986" y2="379.40284007604856" stroke="black"></line><line id="SvgjsLine18268" x1="402.4571527814514" y1="311.3548975328587" x2="63.74260252749633" y2="343.89663854606925" stroke="black"></line><line id="SvgjsLine18269" x1="401.59787973089954" y1="313.06964091585627" x2="104.67619081774926" y2="60.94648353996649" stroke="black"></line><line id="SvgjsLine18270" x1="400.72222248804866" y1="314.7760756312736" x2="386.79035449353523" y2="107.29243829122122" stroke="black"></line><line id="SvgjsLine18271" x1="399.8302613838449" y1="316.4740451343938" x2="335.0490396112751" y2="388.46709078064515" stroke="black"></line><line id="SvgjsLine18272" x1="398.9220782449162" y1="318.1633936570807" x2="54.917073417077006" y2="331.3494018877445" stroke="black"></line><line id="SvgjsLine18273" x1="397.99775638606565" y1="319.8439662220685" x2="117.39017737671124" y2="52.3629144910567" stroke="black"></line><line id="SvgjsLine18274" x1="397.05738060262854" y1="321.5156086571794" x2="395.128813799187" y2="120.16850944071616" stroke="black"></line><line id="SvgjsLine18275" x1="396.10103716269316" y1="323.178167609467" x2="322.0156086571795" y2="396.55738060262854" stroke="black"></line><line id="SvgjsLine18276" x1="395.128813799187" y1="324.8314905592839" x2="47.077921755083736" y2="318.1633936570806" stroke="black"></line><line id="SvgjsLine18277" x1="394.14079970182814" y1="326.4754258342746" x2="130.7239243687265" y2="44.777777511951285" stroke="black"></line><line id="SvgjsLine18278" x1="393.1370855089433" y1="328.1098226232888" x2="402.4571527814513" y2="133.64510246714127" stroke="black"></line><line id="SvgjsLine18279" x1="392.11776329915267" y1="329.73453099021685" x2="308.4011147396576" y2="403.62623250436104" stroke="black"></line><line id="SvgjsLine18280" x1="391.082926582923" y1="331.34940188774453" x2="40.271150800570894" y2="304.41599459356087" stroke="black"></line><line id="SvgjsLine18281" x1="390.0326702939892" y1="332.95428717102607" x2="144.59918406451428" y2="38.23558520254085" stroke="black"></line><line id="SvgjsLine18282" x1="388.9670907806452" y1="334.5490396112751" x2="408.7323658331944" y2="147.64313136388606" stroke="black"></line><line id="SvgjsLine18283" x1="387.886285796905" y1="336.1335129092706" x2="294.28545312258296" y2="409.6321636520778" stroke="black"></line><line id="SvgjsLine18284" x1="386.79035449353523" y1="337.70756170877877" x2="34.53670539209281" y2="290.1878799013027" stroke="black"></line><line id="SvgjsLine18285" x1="385.6793974089592" y1="339.2710416098869" x2="158.9345309229256" y2="32.77472974868522" stroke="black"></line><line id="SvgjsLine18286" x1="384.5535164600335" y1="340.82380918225067" x2="413.91762750899983" y2="162.08045013131272" stroke="black"></line><line id="SvgjsLine18287" x1="383.41281493269867" y1="342.3657219782526" x2="279.75146012117074" y2="414.53992885365057" stroke="black"></line><line id="SvgjsLine18288" x1="382.25739747250367" y1="343.8966385460692" x2="29.90823753550856" y2="275.5625458148817" stroke="black"></line><line id="SvgjsLine18289" x1="381.0873700750062" y1="345.4164184426476" x2="173.6458394283949" y2="28.427257621601512" stroke="black"></line><line id="SvgjsLine18290" x1="379.90284007604856" y1="346.92492224658986" x2="417.9825086315252" y2="176.87233484214667" stroke="black"></line><line id="SvgjsLine18291" x1="378.70391614191135" y1="348.4220115709428" x2="264.88442698554155" y2="418.32072739138937" stroke="black"></line><line id="SvgjsLine18292" x1="377.4907082593441" y1="349.90754907589354" x2="26.41290892062983" y2="260.625819610225" stroke="black"></line><line id="SvgjsLine18293" x1="376.26332772547585" y1="351.3813984813688" x2="188.64677777291774" y2="25.218681516427665" stroke="black"></line><line id="SvgjsLine18294" x1="375.02188713760455" y1="352.8434245795369" x2="420.9031548620148" y2="191.93198083517038" stroke="black"></line><line id="SvgjsLine18295" x1="373.7665003828679" y1="354.29349324721113" x2="249.77159937775096" y2="420.95237203610645" stroke="black"></line><line id="SvgjsLine18296" x1="372.4972826277956" y1="355.73147145815443" x2="24.07123152562508" y2="245.46535593602977" stroke="black"></line><line id="SvgjsLine18297" x1="371.21435030774376" y1="357.15722729528267" x2="203.84931448542736" y2="23.167830633583037" stroke="black"></line><line id="SvgjsLine18298" x1="369.9178211162141" y1="358.5706299627664" x2="422.662426687044" y2="207.1710121194917" stroke="black"></line><line id="SvgjsLine18299" x1="368.6078139940565" y1="359.97154979802997" x2="234.50166537955312" y2="422.41941925059905" stroke="black"></line><line id="SvgjsLine18300" x1="367.28444911855763" y1="361.3598582836464" x2="22.8969472445753" y2="230.17012242142962" stroke="black"></line><line id="SvgjsLine18301" x1="365.9478478924163" y1="362.7354280591271" x2="219.16423503547185" y2="22.28674018153319" stroke="black"></line><line id="SvgjsLine18302" x1="364.5981329326062" y1="364.0981329326061" x2="423.25" y2="222.5" stroke="black"></line><line id="SvgjsLine18303" x1="363.2354280591271" y1="365.44784789241623" x2="219.1642350354719" y2="422.7132598184668" stroke="black"></line><line id="SvgjsLine18304" x1="361.8598582836464" y1="366.7844491185576" x2="22.8969472445753" y2="214.82987757857043" stroke="black"></line><line id="SvgjsLine18305" x1="360.47154979803" y1="368.1078139940565" x2="234.5016653795531" y2="22.58058074940095" stroke="black"></line><line id="SvgjsLine18306" x1="359.0706299627665" y1="369.4178211162141" x2="422.662426687044" y2="237.82898788050827" stroke="black"></line><line id="SvgjsLine18307" x1="357.6572272952827" y1="370.71435030774376" x2="203.84931448542744" y2="421.83216936641696" stroke="black"></line><line id="SvgjsLine18308" x1="356.2314714581545" y1="371.9972826277955" x2="24.07123152562508" y2="199.5346440639703" stroke="black"></line><line id="SvgjsLine18309" x1="354.79349324721113" y1="373.2665003828679" x2="249.77159937775087" y2="24.047627963893547" stroke="black"></line><line id="SvgjsLine18310" x1="353.34342457953693" y1="374.5218871376045" x2="420.9031548620148" y2="253.06801916482962" stroke="black"></line><line id="SvgjsLine18311" x1="351.88139848136893" y1="375.76332772547585" x2="188.6467777729179" y2="419.78131848357236" stroke="black"></line><line id="SvgjsLine18312" x1="350.4075490758936" y1="376.99070825934405" x2="26.412908920629803" y2="184.37418038977512" stroke="black"></line><line id="SvgjsLine18313" x1="348.9220115709428" y1="378.2039161419113" x2="264.8844269855415" y2="26.679272608610603" stroke="black"></line><line id="SvgjsLine18314" x1="347.42492224658986" y1="379.40284007604856" x2="417.98250863152526" y2="268.12766515785324" stroke="black"></line><line id="SvgjsLine18315" x1="345.9164184426476" y1="380.58737007500616" x2="173.64583942839505" y2="416.5727423783985" stroke="black"></line><line id="SvgjsLine18316" x1="344.3966385460692" y1="381.75739747250367" x2="29.908237535508533" y2="169.43745418511844" stroke="black"></line><line id="SvgjsLine18317" x1="342.8657219782527" y1="382.91281493269867" x2="279.7514601211708" y2="30.460071146349463" stroke="black"></line><line id="SvgjsLine18318" x1="341.3238091822507" y1="384.0535164600335" x2="413.91762750899983" y2="282.9195498686872" stroke="black"></line><line id="SvgjsLine18319" x1="339.7710416098869" y1="385.1793974089592" x2="158.9345309229256" y2="412.2252702513148" stroke="black"></line><line id="SvgjsLine18320" x1="338.2075617087788" y1="386.29035449353523" x2="34.536705392092784" y2="154.8121200986974" stroke="black"></line><line id="SvgjsLine18321" x1="336.6335129092707" y1="387.38628579690493" x2="294.28545312258296" y2="35.36783634792221" stroke="black"></line><line id="SvgjsLine18322" x1="335.0490396112751" y1="388.46709078064515" x2="408.7323658331945" y2="297.3568686361139" stroke="black"></line><line id="SvgjsLine18323" x1="333.45428717102607" y1="389.5326702939892" x2="144.59918406451442" y2="406.76441479745927" stroke="black"></line><line id="SvgjsLine18324" x1="331.84940188774453" y1="390.582926582923" x2="40.27115080057084" y2="140.5840054064392" stroke="black"></line><line id="SvgjsLine18325" x1="330.2345309902169" y1="391.6177632991526" x2="308.40111473965754" y2="41.37376749563896" stroke="black"></line><line id="SvgjsLine18326" x1="328.6098226232888" y1="392.6370855089433" x2="402.4571527814514" y2="311.3548975328587" stroke="black"></line><line id="SvgjsLine18327" x1="326.97542583427463" y1="393.64079970182814" x2="130.72392436872647" y2="400.2222224880487" stroke="black"></line><line id="SvgjsLine18328" x1="325.3314905592839" y1="394.628813799187" x2="47.07792175508371" y2="126.8366063429195" stroke="black"></line><line id="SvgjsLine18329" x1="323.678167609467" y1="395.60103716269316" x2="322.0156086571794" y2="48.44261939737143" stroke="black"></line><line id="SvgjsLine18330" x1="322.0156086571795" y1="396.55738060262854" x2="395.128813799187" y2="324.8314905592839" stroke="black"></line><line id="SvgjsLine18331" x1="320.34396622206856" y1="397.49775638606565" x2="117.39017737671122" y2="392.6370855089433" stroke="black"></line><line id="SvgjsLine18332" x1="318.66339365708075" y1="398.4220782449162" x2="54.91707341707695" y2="113.65059811225558" stroke="black"></line><line id="SvgjsLine18333" x1="316.97404513439386" y1="399.3302613838449" x2="335.0490396112751" y2="56.53290921935485" stroke="black"></line><line id="SvgjsLine18334" x1="315.27607563127367" y1="400.22222248804866" x2="386.79035449353523" y2="337.70756170877877" stroke="black"></line><line id="SvgjsLine18335" x1="313.5696409158563" y1="401.09787973089954" x2="104.67619081774932" y2="384.0535164600335" stroke="black"></line><line id="SvgjsLine18336" x1="311.85489753285873" y1="401.9571527814513" x2="63.7426025274963" y2="101.10336145393082" stroke="black"></line><line id="SvgjsLine18337" x1="310.13200278921744" y1="402.7999628118092" x2="347.42492224658986" y2="65.59715992395147" stroke="black"></line><line id="SvgjsLine18338" x1="308.4011147396576" y1="403.62623250436104" x2="377.4907082593441" y2="349.90754907589354" stroke="black"></line><line id="SvgjsLine18339" x1="306.6623921721933" y1="404.43588605887" x2="92.6565754204631" y2="374.52188713760455" stroke="black"></line><line id="SvgjsLine18340" x1="304.91599459356087" y1="405.22884919942913" x2="73.50271737220442" y2="89.26852854184557" stroke="black"></line><line id="SvgjsLine18341" x1="303.16208221458584" y1="406.00504918127456" x2="359.0706299627664" y2="75.58217888378587" stroke="black"></line><line id="SvgjsLine18342" x1="301.4008159354857" y1="406.76441479745915" x2="367.28444911855763" y2="361.3598582836464" stroke="black"></line><line id="SvgjsLine18343" x1="299.63235733110923" y1="407.50687638538517" x2="81.40186706739388" y2="364.0981329326062" stroke="black"></line><line id="SvgjsLine18344" x1="297.856868636114" y1="408.2323658331944" x2="84.14014171635358" y2="78.21555088144243" stroke="black"></line><line id="SvgjsLine18345" x1="296.07451273008303" y1="408.94081658601726" x2="369.9178211162141" y2="86.42937003723355" stroke="black"></line><line id="SvgjsLine18346" x1="294.28545312258296" y1="409.6321636520778" x2="356.2314714581545" y2="371.9972826277955" stroke="black"></line><line id="SvgjsLine18347" x1="292.48985393816383" y1="410.3063436086562" x2="70.97811286239548" y2="352.843424579537" stroke="black"></line><line id="SvgjsLine18348" x1="290.68787990130267" y1="410.9632946079072" x2="95.5924509241064" y2="68.00929174065595" stroke="black"></line><line id="SvgjsLine18349" x1="288.8796963212919" y1="411.6029563825335" x2="379.9028400760485" y2="98.0750777534101" stroke="black"></line><line id="SvgjsLine18350" x1="287.06546907707434" y1="412.2252702513148" x2="344.3966385460692" y2="381.75739747250367" stroke="black"></line><line id="SvgjsLine18351" x1="285.2453646020259" y1="412.83017912449105" x2="61.44648353996649" y2="340.8238091822507" stroke="black"></line><line id="SvgjsLine18352" x1="283.4195498686872" y1="413.41762750899983" x2="107.79243829122126" y2="58.70964550646477" stroke="black"></line><line id="SvgjsLine18353" x1="281.58819237344585" y1="413.987561513567" x2="388.96709078064515" y2="110.45096038872491" stroke="black"></line><line id="SvgjsLine18354" x1="279.75146012117074" y1="414.53992885365057" x2="331.84940188774453" y2="390.582926582923" stroke="black"></line><line id="SvgjsLine18355" x1="277.90952160979964" y1="415.07467885623737" x2="52.86291449105667" y2="328.1098226232888" stroke="black"></line><line id="SvgjsLine18356" x1="276.06254581488145" y1="415.59176246449147" x2="120.6685094407162" y2="50.37118620081293" stroke="black"></line><line id="SvgjsLine18357" x1="274.21070217407504" y1="416.09113224225484" x2="397.05738060262854" y2="123.4843913428206" stroke="black"></line><line id="SvgjsLine18358" x1="272.3541605716049" y1="416.5727423783985" x2="318.66339365708075" y2="398.4220782449162" stroke="black"></line><line id="SvgjsLine18359" x1="270.49309132267683" y1="417.03654869102587" x2="45.27777751195126" y2="314.7760756312735" stroke="black"></line><line id="SvgjsLine18360" x1="268.62766515785336" y1="417.4825086315252" x2="134.14510246714127" y2="43.042847218548644" stroke="black"></line><line id="SvgjsLine18361" x1="266.75805320739096" y1="417.9105812884736" x2="404.12623250436104" y2="137.09888526034243" stroke="black"></line><line id="SvgjsLine18362" x1="264.88442698554155" y1="418.32072739138937" x2="304.91599459356087" y2="405.22884919942913" stroke="black"></line><line id="SvgjsLine18363" x1="263.00695837481777" y1="418.7129093143354" x2="38.73558520254085" y2="300.9008159354857" stroke="black"></line><line id="SvgjsLine18364" x1="261.1258196102249" y1="419.0870910793702" x2="148.143131363886" y2="36.76763416680555" stroke="black"></line><line id="SvgjsLine18365" x1="259.24118326346024" y1="419.443238359849" x2="410.1321636520778" y2="151.21454687741704" stroke="black"></line><line id="SvgjsLine18366" x1="257.35322222708214" y1="419.78131848357236" x2="290.68787990130267" y2="410.9632946079072" stroke="black"></line><line id="SvgjsLine18367" x1="255.46210969864882" y1="420.1013004357838" x2="33.27472974868522" y2="286.56546907707434" stroke="black"></line><line id="SvgjsLine18368" x1="253.5680191648297" y1="420.40315486201473" x2="162.58045013131257" y2="31.5823724910002" stroke="black"></line><line id="SvgjsLine18369" x1="251.6711243854901" y1="420.68685407077777" x2="415.0399288536505" y2="165.7485398788292" stroke="black"></line><line id="SvgjsLine18370" x1="249.77159937775096" y1="420.95237203610645" x2="276.06254581488145" y2="415.59176246449147" stroke="black"></line><line id="SvgjsLine18371" x1="247.86961840002482" y1="421.1996843999435" x2="28.927257621601512" y2="271.85416057160506" stroke="black"></line><line id="SvgjsLine18372" x1="245.96535593602977" y1="421.4287684743749" x2="177.37233484214656" y2="27.517491368474793" stroke="black"></line><line id="SvgjsLine18373" x1="244.0589866787825" y1="421.6396032437116" x2="418.82072739138937" y2="180.61557301445848" stroke="black"></line><line id="SvgjsLine18374" x1="242.15068551457261" y1="421.83216936641696" x2="261.1258196102249" y2="419.0870910793702" stroke="black"></line><line id="SvgjsLine18375" x1="240.24062750691866" y1="422.0064491768817" x2="25.718681516427665" y2="256.85322222708226" stroke="black"></line><line id="SvgjsLine18376" x1="238.32898788050832" y1="422.162426687044" x2="192.43198083517026" y2="24.59684513798524" stroke="black"></line><line id="SvgjsLine18377" x1="236.41594200512367" y1="422.3000875878566" x2="421.45237203610645" y2="195.72840062224915" stroke="black"></line><line id="SvgjsLine18378" x1="234.50166537955312" y1="422.41941925059905" x2="245.96535593602977" y2="421.4287684743749" stroke="black"></line><line id="SvgjsLine18379" x1="232.58633361549144" y1="422.5204107280367" x2="23.667830633583037" y2="241.65068551457261" stroke="black"></line><line id="SvgjsLine18380" x1="230.67012242142962" y1="422.6030527554247" x2="207.67101211949165" y2="22.837573312955982" stroke="black"></line><line id="SvgjsLine18381" x1="228.75320758653567" y1="422.667337751358" x2="422.91941925059905" y2="210.99833462044688" stroke="black"></line><line id="SvgjsLine18382" x1="226.83576496452812" y1="422.7132598184668" x2="230.67012242142962" y2="422.6030527554247" stroke="black"></line><line id="SvgjsLine18383" x1="224.91797045754365" y1="422.7408147439577" x2="22.78674018153319" y2="226.33576496452815" stroke="black"></line><line id="SvgjsLine18384" x1="223.00000000000003" y1="422.75" x2="223" y2="22.25" stroke="black"></line><line id="SvgjsLine18385" x1="221.0820295424565" y1="422.7408147439577" x2="423.2132598184668" y2="226.3357649645281" stroke="black"></line><line id="SvgjsLine18386" x1="219.1642350354719" y1="422.7132598184668" x2="215.32987757857043" y2="422.6030527554247" stroke="black"></line><line id="SvgjsLine18387" x1="217.24679241346448" y1="422.667337751358" x2="23.08058074940095" y2="210.99833462044694" stroke="black"></line><line id="SvgjsLine18388" x1="215.32987757857043" y1="422.6030527554247" x2="238.32898788050827" y2="22.837573312955982" stroke="black"></line><line id="SvgjsLine18389" x1="213.4136663845087" y1="422.5204107280367" x2="422.33216936641696" y2="241.65068551457253" stroke="black"></line><line id="SvgjsLine18390" x1="211.4983346204469" y1="422.41941925059905" x2="200.0346440639703" y2="421.4287684743749" stroke="black"></line><line id="SvgjsLine18391" x1="209.58405799487645" y1="422.3000875878566" x2="24.547627963893547" y2="195.72840062224913" stroke="black"></line><line id="SvgjsLine18392" x1="207.67101211949173" y1="422.162426687044" x2="253.56801916482962" y2="24.596845137985213" stroke="black"></line><line id="SvgjsLine18393" x1="205.7593724930815" y1="422.0064491768817" x2="420.28131848357236" y2="256.85322222708214" stroke="black"></line><line id="SvgjsLine18394" x1="203.84931448542744" y1="421.83216936641696" x2="184.87418038977518" y2="419.0870910793702" stroke="black"></line><line id="SvgjsLine18395" x1="201.9410133212176" y1="421.6396032437116" x2="27.17927260861063" y2="180.61557301445845" stroke="black"></line><line id="SvgjsLine18396" x1="200.0346440639703" y1="421.4287684743749" x2="268.6276651578533" y2="27.517491368474737" stroke="black"></line><line id="SvgjsLine18397" x1="198.1303815999753" y1="421.1996843999435" x2="417.0727423783985" y2="271.8541605716049" stroke="black"></line><line id="SvgjsLine18398" x1="196.2284006222491" y1="420.95237203610645" x2="169.9374541851185" y2="415.59176246449147" stroke="black"></line><line id="SvgjsLine18399" x1="194.32887561451005" y1="420.68685407077777" x2="30.96007114634949" y2="165.74853987882915" stroke="black"></line><line id="SvgjsLine18400" x1="192.43198083517035" y1="420.4031548620148" x2="283.4195498686873" y2="31.58237249100017" stroke="black"></line><line id="SvgjsLine18401" x1="190.53789030135124" y1="420.1013004357838" x2="412.7252702513148" y2="286.56546907707434" stroke="black"></line><line id="SvgjsLine18402" x1="188.6467777729179" y1="419.78131848357236" x2="155.31212009869728" y2="410.9632946079072" stroke="black"></line><line id="SvgjsLine18403" x1="186.75881673653979" y1="419.443238359849" x2="35.86783634792218" y2="151.2145468774171" stroke="black"></line><line id="SvgjsLine18404" x1="184.87418038977518" y1="419.0870910793702" x2="297.856868636114" y2="36.76763416680552" stroke="black"></line><line id="SvgjsLine18405" x1="182.9930416251823" y1="418.7129093143354" x2="407.26441479745915" y2="300.90081593548564" stroke="black"></line><line id="SvgjsLine18406" x1="181.1155730144585" y1="418.32072739138937" x2="141.0840054064393" y2="405.2288491994292" stroke="black"></line><line id="SvgjsLine18407" x1="179.24194679260913" y1="417.9105812884736" x2="41.87376749563896" y2="137.09888526034246" stroke="black"></line><line id="SvgjsLine18408" x1="177.3723348421467" y1="417.48250863152526" x2="311.8548975328587" y2="43.042847218548616" stroke="black"></line><line id="SvgjsLine18409" x1="175.50690867732322" y1="417.03654869102587" x2="400.72222248804866" y2="314.7760756312736" stroke="black"></line><line id="SvgjsLine18410" x1="173.64583942839505" y1="416.5727423783985" x2="127.33660634291941" y2="398.42207824491624" stroke="black"></line><line id="SvgjsLine18411" x1="171.78929782592502" y1="416.09113224225484" x2="48.942619397371374" y2="123.48439134282071" stroke="black"></line><line id="SvgjsLine18412" x1="169.9374541851185" y1="415.59176246449147" x2="325.33149055928385" y2="50.37118620081296" stroke="black"></line><line id="SvgjsLine18413" x1="168.09047839020042" y1="415.07467885623737" x2="393.1370855089433" y2="328.1098226232888" stroke="black"></line><line id="SvgjsLine18414" x1="166.2485398788292" y1="414.5399288536505" x2="114.1505981122555" y2="390.582926582923" stroke="black"></line><line id="SvgjsLine18415" x1="164.41180762655418" y1="413.987561513567" x2="57.032909219354764" y2="110.45096038872504" stroke="black"></line><line id="SvgjsLine18416" x1="162.58045013131272" y1="413.41762750899983" x2="338.20756170877877" y2="58.709645506464796" stroke="black"></line><line id="SvgjsLine18417" x1="160.75463539797408" y1="412.8301791244911" x2="384.5535164600335" y2="340.82380918225067" stroke="black"></line><line id="SvgjsLine18418" x1="158.9345309229256" y1="412.2252702513148" x2="101.60336145393082" y2="381.7573974725037" stroke="black"></line><line id="SvgjsLine18419" x1="157.12030367870818" y1="411.6029563825335" x2="66.09715992395141" y2="98.07507775341018" stroke="black"></line><line id="SvgjsLine18420" x1="155.31212009869728" y1="410.9632946079072" x2="350.4075490758936" y2="68.00929174065593" stroke="black"></line><line id="SvgjsLine18421" x1="153.51014606183617" y1="410.3063436086562" x2="375.02188713760455" y2="352.8434245795369" stroke="black"></line><line id="SvgjsLine18422" x1="151.71454687741698" y1="409.6321636520778" x2="89.76852854184557" y2="371.9972826277956" stroke="black"></line><line id="SvgjsLine18423" x1="149.92548726991703" y1="408.94081658601726" x2="76.08217888378584" y2="86.42937003723361" stroke="black"></line><line id="SvgjsLine18424" x1="148.143131363886" y1="408.2323658331944" x2="361.8598582836464" y2="78.2155508814424" stroke="black"></line><line id="SvgjsLine18425" x1="146.3676426688908" y1="407.5068763853852" x2="364.5981329326062" y2="364.0981329326061" stroke="black"></line><line id="SvgjsLine18426" x1="144.59918406451442" y1="406.76441479745927" x2="78.71555088144243" y2="361.3598582836464" stroke="black"></line><line id="SvgjsLine18427" x1="142.83791778541422" y1="406.00504918127456" x2="86.92937003723355" y2="75.5821788837859" stroke="black"></line><line id="SvgjsLine18428" x1="141.0840054064393" y1="405.2288491994292" x2="372.4972826277955" y2="89.26852854184554" stroke="black"></line><line id="SvgjsLine18429" x1="139.33760782780675" y1="404.43588605887" x2="353.34342457953693" y2="374.5218871376045" stroke="black"></line><line id="SvgjsLine18430" x1="137.59888526034254" y1="403.62623250436104" x2="68.50929174065593" y2="349.9075490758936" stroke="black"></line><line id="SvgjsLine18431" x1="135.86799721078262" y1="402.7999628118093" x2="98.57507775341011" y2="65.59715992395147" stroke="black"></line><line id="SvgjsLine18432" x1="134.14510246714138" y1="401.95715278145144" x2="382.2573974725036" y2="101.10336145393073" stroke="black"></line><line id="SvgjsLine18433" x1="132.43035908414373" y1="401.09787973089954" x2="341.3238091822507" y2="384.0535164600335" stroke="black"></line><line id="SvgjsLine18434" x1="130.72392436872647" y1="400.2222224880487" x2="59.20964550646474" y2="337.7075617087787" stroke="black"></line><line id="SvgjsLine18435" x1="129.0259548656062" y1="399.3302613838449" x2="110.95096038872495" y2="56.53290921935482" stroke="black"></line><line id="SvgjsLine18436" x1="127.33660634291941" y1="398.42207824491624" x2="391.082926582923" y2="113.65059811225547" stroke="black"></line><line id="SvgjsLine18437" x1="125.65603377793151" y1="397.49775638606565" x2="328.6098226232888" y2="392.6370855089433" stroke="black"></line><line id="SvgjsLine18438" x1="123.98439134282063" y1="396.55738060262854" x2="50.87118620081293" y2="324.8314905592838" stroke="black"></line><line id="SvgjsLine18439" x1="122.32183239053307" y1="395.60103716269316" x2="123.98439134282064" y2="48.44261939737143" stroke="black"></line><line id="SvgjsLine18440" x1="120.6685094407162" y1="394.62881379918707" x2="398.9220782449162" y2="126.83660634291934" stroke="black"></line><line id="SvgjsLine18441" x1="119.0245741657254" y1="393.64079970182814" x2="315.27607563127367" y2="400.22222248804866" stroke="black"></line><line id="SvgjsLine18442" x1="117.39017737671122" y1="392.6370855089433" x2="43.542847218548644" y2="311.35489753285873" stroke="black"></line><line id="SvgjsLine18443" x1="115.76546900978313" y1="391.61776329915267" x2="137.5988852603424" y2="41.373767495639015" stroke="black"></line><line id="SvgjsLine18444" x1="114.1505981122555" y1="390.582926582923" x2="405.72884919942913" y2="140.58400540643916" stroke="black"></line><line id="SvgjsLine18445" x1="112.54571282897393" y1="389.5326702939892" x2="301.4008159354857" y2="406.76441479745915" stroke="black"></line><line id="SvgjsLine18446" x1="110.95096038872495" y1="388.4670907806452" x2="37.26763416680555" y2="297.356868636114" stroke="black"></line><line id="SvgjsLine18447" x1="109.36648709072938" y1="387.386285796905" x2="151.714546877417" y2="35.36783634792221" stroke="black"></line><line id="SvgjsLine18448" x1="107.79243829122123" y1="386.29035449353523" x2="411.4632946079072" y2="154.81212009869733" stroke="black"></line><line id="SvgjsLine18449" x1="106.22895839011315" y1="385.1793974089592" x2="287.06546907707434" y2="412.2252702513148" stroke="black"></line><line id="SvgjsLine18450" x1="104.67619081774932" y1="384.0535164600335" x2="32.0823724910002" y2="282.91954986868745" stroke="black"></line><line id="SvgjsLine18451" x1="103.13427802174729" y1="382.91281493269867" x2="166.24853987882906" y2="30.46007114634952" stroke="black"></line><line id="SvgjsLine18452" x1="101.60336145393082" y1="381.7573974725037" x2="416.09176246449147" y2="169.43745418511844" stroke="black"></line><line id="SvgjsLine18453" x1="100.08358155735233" y1="380.5873700750061" x2="272.3541605716049" y2="416.5727423783985" stroke="black"></line><line id="SvgjsLine18454" x1="98.57507775341018" y1="379.40284007604856" x2="28.017491368474793" y2="268.1276651578534" stroke="black"></line><line id="SvgjsLine18455" x1="97.07798842905719" y1="378.20391614191124" x2="181.11557301445836" y2="26.67927260861063" stroke="black"></line><line id="SvgjsLine18456" x1="95.59245092410644" y1="376.99070825934416" x2="419.5870910793702" y2="184.37418038977515" stroke="black"></line><line id="SvgjsLine18457" x1="94.11860151863107" y1="375.7633277254758" x2="257.35322222708214" y2="419.78131848357236" stroke="black"></line><line id="SvgjsLine18458" x1="92.6565754204631" y1="374.52188713760455" x2="25.09684513798524" y2="253.06801916482974" stroke="black"></line><line id="SvgjsLine18459" x1="91.20650675278881" y1="373.2665003828679" x2="196.22840062224904" y2="24.047627963893547" stroke="black"></line><line id="SvgjsLine18460" x1="89.76852854184557" y1="371.9972826277956" x2="421.9287684743749" y2="199.5346440639703" stroke="black"></line><line id="SvgjsLine18461" x1="88.3427727047173" y1="370.7143503077437" x2="242.15068551457261" y2="421.83216936641696" stroke="black"></line><line id="SvgjsLine18462" x1="86.92937003723358" y1="369.4178211162141" x2="23.337573312955982" y2="237.82898788050832" stroke="black"></line><line id="SvgjsLine18463" x1="85.52845020196995" y1="368.1078139940564" x2="211.49833462044685" y2="22.58058074940095" stroke="black"></line><line id="SvgjsLine18464" x1="84.14014171635361" y1="366.78444911855763" x2="423.1030527554247" y2="214.8298775785704" stroke="black"></line><line id="SvgjsLine18465" x1="82.76457194087283" y1="365.44784789241623" x2="226.83576496452812" y2="422.7132598184668" stroke="black"></line><line id="SvgjsLine18466" x1="81.40186706739388" y1="364.0981329326062" x2="22.75" y2="222.50000000000003" stroke="black"></line><line id="SvgjsLine18467" x1="80.05215210758382" y1="362.73542805912723" x2="226.8357649645281" y2="22.28674018153319" stroke="black"></line><line id="SvgjsLine18468" x1="78.71555088144243" y1="361.3598582836464" x2="423.1030527554247" y2="230.1701224214296" stroke="black"></line><line id="SvgjsLine18469" x1="77.39218600594359" y1="359.9715497980301" x2="211.4983346204469" y2="422.41941925059905" stroke="black"></line><line id="SvgjsLine18470" x1="76.0821788837859" y1="358.5706299627665" x2="23.337573312955982" y2="207.17101211949176" stroke="black"></line><line id="SvgjsLine18471" x1="74.78564969225633" y1="357.1572272952827" x2="242.15068551457253" y2="23.167830633583037" stroke="black"></line><line id="SvgjsLine18472" x1="73.5027173722045" y1="355.7314714581545" x2="421.9287684743749" y2="245.46535593602968" stroke="black"></line><line id="SvgjsLine18473" x1="72.23349961713217" y1="354.29349324721125" x2="196.2284006222491" y2="420.95237203610645" stroke="black"></line><line id="SvgjsLine18474" x1="70.97811286239548" y1="352.843424579537" x2="25.096845137985213" y2="191.93198083517035" stroke="black"></line><line id="SvgjsLine18475" x1="69.73667227452424" y1="351.38139848136893" x2="257.35322222708214" y2="25.218681516427637" stroke="black"></line><line id="SvgjsLine18476" x1="68.50929174065593" y1="349.9075490758936" x2="419.5870910793702" y2="260.6258196102249" stroke="black"></line><line id="SvgjsLine18477" x1="67.29608385808876" y1="348.42201157094286" x2="181.1155730144585" y2="418.32072739138937" stroke="black"></line><line id="SvgjsLine18478" x1="66.09715992395144" y1="346.92492224658986" x2="28.017491368474765" y2="176.87233484214664" stroke="black"></line><line id="SvgjsLine18479" x1="64.9126299249939" y1="345.41641844264774" x2="272.35416057160495" y2="28.427257621601512" stroke="black"></line><line id="SvgjsLine18480" x1="63.74260252749633" y1="343.89663854606925" x2="416.09176246449147" y2="275.56254581488145" stroke="black"></line><line id="SvgjsLine18481" x1="62.58718506730139" y1="342.36572197825274" x2="166.2485398788292" y2="414.5399288536505" stroke="black"></line><line id="SvgjsLine18482" x1="61.44648353996649" y1="340.8238091822507" x2="32.08237249100017" y2="162.08045013131266" stroke="black"></line><line id="SvgjsLine18483" x1="60.32060259104085" y1="339.2710416098869" x2="287.06546907707434" y2="32.77472974868522" stroke="black"></line><line id="SvgjsLine18484" x1="59.20964550646474" y1="337.7075617087787" x2="411.4632946079072" y2="290.1878799013026" stroke="black"></line><line id="SvgjsLine18485" x1="58.11371420309507" y1="336.1335129092707" x2="151.71454687741698" y2="409.6321636520778" stroke="black"></line><line id="SvgjsLine18486" x1="57.03290921935482" y1="334.549039611275" x2="37.26763416680552" y2="147.64313136388608" stroke="black"></line><line id="SvgjsLine18487" x1="55.967329706010815" y1="332.9542871710261" x2="301.40081593548564" y2="38.23558520254082" stroke="black"></line><line id="SvgjsLine18488" x1="54.917073417077006" y1="331.3494018877445" x2="405.72884919942913" y2="304.4159945935608" stroke="black"></line><line id="SvgjsLine18489" x1="53.882236700847386" y1="329.7345309902169" x2="137.59888526034254" y2="403.62623250436104" stroke="black"></line><line id="SvgjsLine18490" x1="52.86291449105667" y1="328.1098226232888" x2="43.542847218548616" y2="133.64510246714133" stroke="black"></line><line id="SvgjsLine18491" x1="51.85920029817186" y1="326.4754258342746" x2="315.2760756312736" y2="44.777777511951314" stroke="black"></line><line id="SvgjsLine18492" x1="50.87118620081293" y1="324.8314905592838" x2="398.9220782449162" y2="318.1633936570807" stroke="black"></line><line id="SvgjsLine18493" x1="49.89896283730681" y1="323.17816760946687" x2="123.98439134282063" y2="396.55738060262854" stroke="black"></line><line id="SvgjsLine18494" x1="48.9426193973714" y1="321.5156086571793" x2="50.8711862008129" y2="120.16850944071629" stroke="black"></line><line id="SvgjsLine18495" x1="48.002243613934326" y1="319.8439662220685" x2="328.6098226232888" y2="52.3629144910567" stroke="black"></line><line id="SvgjsLine18496" x1="47.077921755083736" y1="318.1633936570806" x2="391.082926582923" y2="331.34940188774453" stroke="black"></line><line id="SvgjsLine18497" x1="46.16973861615509" y1="316.4740451343938" x2="110.95096038872495" y2="388.4670907806452" stroke="black"></line><line id="SvgjsLine18498" x1="45.27777751195126" y1="314.7760756312735" x2="59.20964550646474" y2="107.29243829122133" stroke="black"></line><line id="SvgjsLine18499" x1="44.402120269100436" y1="313.0696409158562" x2="341.3238091822507" y2="60.94648353996649" stroke="black"></line><line id="SvgjsLine18500" x1="43.542847218548644" y1="311.35489753285873" x2="382.25739747250367" y2="343.8966385460692" stroke="black"></line><line id="SvgjsLine18501" x1="42.70003718819069" y1="309.6320027892174" x2="98.57507775341018" y2="379.40284007604856" stroke="black"></line><line id="SvgjsLine18502" x1="41.87376749563899" y1="307.9011147396576" x2="68.50929174065587" y2="95.09245092410647" stroke="black"></line><line id="SvgjsLine18503" x1="41.06411394112996" y1="306.1623921721932" x2="353.343424579537" y2="70.4781128623955" stroke="black"></line><line id="SvgjsLine18504" x1="40.271150800570894" y1="304.41599459356087" x2="372.4972826277956" y2="355.73147145815443" stroke="black"></line><line id="SvgjsLine18505" x1="39.49495081872544" y1="302.6620822145857" x2="86.92937003723358" y2="369.4178211162141" stroke="black"></line><line id="SvgjsLine18506" x1="38.73558520254085" y1="300.9008159354857" x2="78.71555088144237" y2="83.64014171635364" stroke="black"></line><line id="SvgjsLine18507" x1="37.99312361461489" y1="299.13235733110935" x2="364.5981329326061" y2="80.90186706739385" stroke="black"></line><line id="SvgjsLine18508" x1="37.26763416680555" y1="297.356868636114" x2="361.8598582836464" y2="366.7844491185576" stroke="black"></line><line id="SvgjsLine18509" x1="36.559183413982765" y1="295.5745127300831" x2="76.0821788837859" y2="358.5706299627665" stroke="black"></line><line id="SvgjsLine18510" x1="35.86783634792221" y1="293.78545312258296" x2="89.76852854184551" y2="73.0027173722045" stroke="black"></line><line id="SvgjsLine18511" x1="35.19365639134381" y1="291.98985393816395" x2="375.0218871376045" y2="92.15657542046304" stroke="black"></line><line id="SvgjsLine18512" x1="34.53670539209281" y1="290.1878799013027" x2="350.4075490758936" y2="376.99070825934405" stroke="black"></line><line id="SvgjsLine18513" x1="33.89704361746655" y1="288.379696321292" x2="66.09715992395144" y2="346.92492224658986" stroke="black"></line><line id="SvgjsLine18514" x1="33.27472974868522" y1="286.56546907707434" x2="101.60336145393075" y2="63.24260252749633" stroke="black"></line><line id="SvgjsLine18515" x1="32.669820875508975" y1="284.74536460202603" x2="384.5535164600335" y2="104.17619081774923" stroke="black"></line><line id="SvgjsLine18516" x1="32.0823724910002" y1="282.91954986868745" x2="338.2075617087788" y2="386.29035449353523" stroke="black"></line><line id="SvgjsLine18517" x1="31.51243848643304" y1="281.08819237344596" x2="57.03290921935482" y2="334.549039611275" stroke="black"></line><line id="SvgjsLine18518" x1="30.96007114634952" y1="279.2514601211709" x2="114.15059811225551" y2="54.417073417077006" stroke="black"></line><line id="SvgjsLine18519" x1="30.425321143762687" y1="277.4095216097997" x2="393.1370855089433" y2="116.8901773767112" stroke="black"></line><line id="SvgjsLine18520" x1="29.90823753550856" y1="275.5625458148817" x2="325.3314905592839" y2="394.628813799187" stroke="black"></line><line id="SvgjsLine18521" x1="29.40886775774524" y1="273.7107021740751" x2="48.9426193973714" y2="321.5156086571793" stroke="black"></line><line id="SvgjsLine18522" x1="28.927257621601512" y1="271.85416057160506" x2="127.33660634291942" y2="46.577921755083764" stroke="black"></line><line id="SvgjsLine18523" x1="28.463451308974157" y1="269.99309132267695" x2="400.72222248804866" y2="130.2239243687264" stroke="black"></line><line id="SvgjsLine18524" x1="28.017491368474793" y1="268.1276651578534" x2="311.85489753285873" y2="401.9571527814513" stroke="black"></line><line id="SvgjsLine18525" x1="27.589418711526434" y1="266.25805320739096" x2="41.87376749563899" y2="307.9011147396576" stroke="black"></line><line id="SvgjsLine18526" x1="27.17927260861063" y1="264.3844269855416" x2="141.08400540643913" y2="39.771150800570894" stroke="black"></line><line id="SvgjsLine18527" x1="26.787090685664623" y1="262.50695837481777" x2="407.26441479745915" y2="144.0991840645143" stroke="black"></line><line id="SvgjsLine18528" x1="26.41290892062983" y1="260.625819610225" x2="297.856868636114" y2="408.2323658331944" stroke="black"></line><line id="SvgjsLine18529" x1="26.056761640151024" y1="258.74118326346024" x2="35.86783634792221" y2="293.78545312258296" stroke="black"></line><line id="SvgjsLine18530" x1="25.718681516427665" y1="256.85322222708226" x2="155.3121200986973" y2="34.03670539209281" stroke="black"></line><line id="SvgjsLine18531" x1="25.3986995642162" y1="254.96210969864882" x2="412.7252702513148" y2="158.43453092292566" stroke="black"></line><line id="SvgjsLine18532" x1="25.09684513798524" y1="253.06801916482974" x2="283.4195498686872" y2="413.41762750899983" stroke="black"></line><line id="SvgjsLine18533" x1="24.81314592922223" y1="251.17112438549" x2="30.96007114634952" y2="279.2514601211709" stroke="black"></line><line id="SvgjsLine18534" x1="24.547627963893547" y1="249.27159937775096" x2="169.93745418511833" y2="29.40823753550856" stroke="black"></line><line id="SvgjsLine18535" x1="24.300315600056507" y1="247.36961840002476" x2="417.0727423783985" y2="173.14583942839502" stroke="black"></line><line id="SvgjsLine18536" x1="24.07123152562508" y1="245.46535593602977" x2="268.62766515785336" y2="417.4825086315252" stroke="black"></line><line id="SvgjsLine18537" x1="23.860396756288424" y1="243.55898667878245" x2="27.17927260861063" y2="264.3844269855416" stroke="black"></line><line id="SvgjsLine18538" x1="23.667830633583037" y1="241.65068551457261" x2="184.87418038977503" y2="25.91290892062983" stroke="black"></line><line id="SvgjsLine18539" x1="23.493550823118312" y1="239.74062750691857" x2="420.28131848357236" y2="188.14677777291786" stroke="black"></line><line id="SvgjsLine18540" x1="23.337573312955982" y1="237.82898788050832" x2="253.5680191648297" y2="420.40315486201473" stroke="black"></line><line id="SvgjsLine18541" x1="23.19991241214342" y1="235.9159420051236" x2="24.547627963893547" y2="249.27159937775096" stroke="black"></line><line id="SvgjsLine18542" x1="23.08058074940095" y1="234.00166537955315" x2="200.0346440639702" y2="23.57123152562508" stroke="black"></line><line id="SvgjsLine18543" x1="22.979589271963306" y1="232.08633361549138" x2="422.33216936641696" y2="203.34931448542744" stroke="black"></line><line id="SvgjsLine18544" x1="22.8969472445753" y1="230.17012242142962" x2="238.32898788050832" y2="422.162426687044" stroke="black"></line><line id="SvgjsLine18545" x1="22.83266224864201" y1="228.25320758653558" x2="23.08058074940095" y2="234.00166537955315" stroke="black"></line><line id="SvgjsLine18546" x1="22.78674018153319" y1="226.33576496452815" x2="215.32987757857035" y2="22.3969472445753" stroke="black"></line><line id="SvgjsLine18547" x1="22.759185256042315" y1="224.41797045754356" x2="423.2132598184668" y2="218.66423503547188" stroke="black"></line><line id="SvgjsLine18548" x1="22.75" y1="222.50000000000003" x2="223.00000000000003" y2="422.75" stroke="black"></line><line id="SvgjsLine18549" x1="22.759185256042315" y1="220.5820295424565" x2="22.78674018153319" y2="218.66423503547193" stroke="black"></line><line id="SvgjsLine18550" x1="22.78674018153319" y1="218.66423503547193" x2="230.67012242142957" y2="22.3969472445753" stroke="black"></line><line id="SvgjsLine18551" x1="22.83266224864198" y1="216.74679241346448" x2="422.91941925059905" y2="234.0016653795531" stroke="black"></line><line id="SvgjsLine18552" x1="22.8969472445753" y1="214.82987757857043" x2="207.67101211949173" y2="422.162426687044" stroke="black"></line><line id="SvgjsLine18553" x1="22.979589271963306" y1="212.9136663845087" x2="23.667830633583037" y2="203.34931448542744" stroke="black"></line><line id="SvgjsLine18554" x1="23.08058074940095" y1="210.99833462044694" x2="245.96535593602968" y2="23.57123152562508" stroke="black"></line><line id="SvgjsLine18555" x1="23.19991241214342" y1="209.08405799487647" x2="421.45237203610645" y2="249.27159937775087" stroke="black"></line><line id="SvgjsLine18556" x1="23.337573312955982" y1="207.17101211949176" x2="192.43198083517035" y2="420.4031548620148" stroke="black"></line><line id="SvgjsLine18557" x1="23.493550823118284" y1="205.25937249308151" x2="25.718681516427637" y2="188.1467777729178" stroke="black"></line><line id="SvgjsLine18558" x1="23.667830633583037" y1="203.34931448542744" x2="261.1258196102248" y2="25.912908920629803" stroke="black"></line><line id="SvgjsLine18559" x1="23.860396756288395" y1="201.44101332121764" x2="418.82072739138937" y2="264.38442698554144" stroke="black"></line><line id="SvgjsLine18560" x1="24.07123152562508" y1="199.5346440639703" x2="177.3723348421467" y2="417.48250863152526" stroke="black"></line><line id="SvgjsLine18561" x1="24.300315600056507" y1="197.63038159997532" x2="28.927257621601512" y2="173.145839428395" stroke="black"></line><line id="SvgjsLine18562" x1="24.547627963893547" y1="195.72840062224913" x2="276.0625458148815" y2="29.408237535508505" stroke="black"></line><line id="SvgjsLine18563" x1="24.81314592922223" y1="193.82887561451005" x2="415.03992885365057" y2="279.25146012117074" stroke="black"></line><line id="SvgjsLine18564" x1="25.096845137985213" y1="191.93198083517035" x2="162.58045013131272" y2="413.41762750899983" stroke="black"></line><line id="SvgjsLine18565" x1="25.3986995642162" y1="190.03789030135124" x2="33.27472974868519" y2="158.43453092292572" stroke="black"></line><line id="SvgjsLine18566" x1="25.718681516427637" y1="188.1467777729178" x2="290.68787990130267" y2="34.03670539209281" stroke="black"></line><line id="SvgjsLine18567" x1="26.056761640151024" y1="186.2588167365398" x2="410.1321636520778" y2="293.7854531225829" stroke="black"></line><line id="SvgjsLine18568" x1="26.412908920629803" y1="184.37418038977512" x2="148.143131363886" y2="408.2323658331944" stroke="black"></line><line id="SvgjsLine18569" x1="26.787090685664623" y1="182.49304162518231" x2="38.73558520254079" y2="144.09918406451436" stroke="black"></line><line id="SvgjsLine18570" x1="27.17927260861063" y1="180.61557301445845" x2="304.9159945935608" y2="39.771150800570865" stroke="black"></line><line id="SvgjsLine18571" x1="27.589418711526406" y1="178.74194679260913" x2="404.12623250436104" y2="307.90111473965754" stroke="black"></line><line id="SvgjsLine18572" x1="28.017491368474765" y1="176.87233484214664" x2="134.14510246714138" y2="401.95715278145144" stroke="black"></line><line id="SvgjsLine18573" x1="28.46345130897413" y1="175.00690867732314" x2="45.27777751195126" y2="130.22392436872656" stroke="black"></line><line id="SvgjsLine18574" x1="28.927257621601512" y1="173.145839428395" x2="318.66339365708063" y2="46.57792175508379" stroke="black"></line><line id="SvgjsLine18575" x1="29.408867757745213" y1="171.28929782592496" x2="397.05738060262854" y2="321.5156086571794" stroke="black"></line><line id="SvgjsLine18576" x1="29.908237535508533" y1="169.43745418511844" x2="120.6685094407162" y2="394.62881379918707" stroke="black"></line><line id="SvgjsLine18577" x1="30.42532114376266" y1="167.59047839020036" x2="52.86291449105664" y2="116.8901773767113" stroke="black"></line><line id="SvgjsLine18578" x1="30.96007114634949" y1="165.74853987882915" x2="331.84940188774453" y2="54.417073417077006" stroke="black"></line><line id="SvgjsLine18579" x1="31.51243848643304" y1="163.9118076265541" x2="388.9670907806452" y2="334.5490396112751" stroke="black"></line><line id="SvgjsLine18580" x1="32.08237249100017" y1="162.08045013131266" x2="107.79243829122123" y2="386.29035449353523" stroke="black"></line><line id="SvgjsLine18581" x1="32.66982087550895" y1="160.25463539797403" x2="61.44648353996644" y2="104.17619081774934" stroke="black"></line><line id="SvgjsLine18582" x1="33.27472974868519" y1="158.43453092292572" x2="344.39663854606925" y2="63.24260252749633" stroke="black"></line><line id="SvgjsLine18583" x1="33.89704361746652" y1="156.62030367870807" x2="379.90284007604856" y2="346.92492224658986" stroke="black"></line><line id="SvgjsLine18584" x1="34.536705392092784" y1="154.8121200986974" x2="95.59245092410644" y2="376.99070825934416" stroke="black"></line><line id="SvgjsLine18585" x1="35.19365639134378" y1="153.0101460618361" x2="70.97811286239542" y2="92.15657542046313" stroke="black"></line><line id="SvgjsLine18586" x1="35.86783634792218" y1="151.2145468774171" x2="356.2314714581545" y2="73.00271737220447" stroke="black"></line><line id="SvgjsLine18587" x1="36.55918341398274" y1="149.42548726991697" x2="369.9178211162141" y2="358.5706299627664" stroke="black"></line><line id="SvgjsLine18588" x1="37.26763416680552" y1="147.64313136388608" x2="84.14014171635361" y2="366.78444911855763" stroke="black"></line><line id="SvgjsLine18589" x1="37.99312361461486" y1="145.8676426688907" x2="81.40186706739382" y2="80.90186706739388" stroke="black"></line><line id="SvgjsLine18590" x1="38.73558520254079" y1="144.09918406451436" x2="367.28444911855763" y2="83.64014171635358" stroke="black"></line><line id="SvgjsLine18591" x1="39.494950818725414" y1="142.33791778541433" x2="359.0706299627665" y2="369.4178211162141" stroke="black"></line><line id="SvgjsLine18592" x1="40.27115080057084" y1="140.5840054064392" x2="73.5027173722045" y2="355.7314714581545" stroke="black"></line><line id="SvgjsLine18593" x1="41.06411394112993" y1="138.83760782780683" x2="92.65657542046304" y2="70.4781128623955" stroke="black"></line><line id="SvgjsLine18594" x1="41.87376749563896" y1="137.09888526034246" x2="377.49070825934405" y2="95.0924509241064" stroke="black"></line><line id="SvgjsLine18595" x1="42.70003718819066" y1="135.36799721078268" x2="347.42492224658986" y2="379.40284007604856" stroke="black"></line><line id="SvgjsLine18596" x1="43.542847218548616" y1="133.64510246714133" x2="63.74260252749633" y2="343.89663854606925" stroke="black"></line><line id="SvgjsLine18597" x1="44.40212026910041" y1="131.93035908414384" x2="104.67619081774926" y2="60.94648353996649" stroke="black"></line><line id="SvgjsLine18598" x1="45.27777751195126" y1="130.22392436872656" x2="386.79035449353523" y2="107.29243829122122" stroke="black"></line><line id="SvgjsLine18599" x1="46.16973861615503" y1="128.52595486560628" x2="335.0490396112751" y2="388.46709078064515" stroke="black"></line><line id="SvgjsLine18600" x1="47.07792175508371" y1="126.8366063429195" x2="54.917073417077006" y2="331.3494018877445" stroke="black"></line><line id="SvgjsLine18601" x1="48.00224361393427" y1="125.1560337779316" x2="117.39017737671124" y2="52.3629144910567" stroke="black"></line><line id="SvgjsLine18602" x1="48.942619397371374" y1="123.48439134282071" x2="395.128813799187" y2="120.16850944071616" stroke="black"></line><line id="SvgjsLine18603" x1="49.898962837306755" y1="121.82183239053316" x2="322.0156086571795" y2="396.55738060262854" stroke="black"></line><line id="SvgjsLine18604" x1="50.8711862008129" y1="120.16850944071629" x2="47.077921755083736" y2="318.1633936570806" stroke="black"></line><line id="SvgjsLine18605" x1="51.8592002981718" y1="118.52457416572548" x2="130.7239243687265" y2="44.777777511951285" stroke="black"></line><line id="SvgjsLine18606" x1="52.86291449105664" y1="116.8901773767113" x2="402.4571527814513" y2="133.64510246714127" stroke="black"></line><line id="SvgjsLine18607" x1="53.88223670084736" y1="115.26546900978316" x2="308.4011147396576" y2="403.62623250436104" stroke="black"></line><line id="SvgjsLine18608" x1="54.91707341707695" y1="113.65059811225558" x2="40.271150800570894" y2="304.41599459356087" stroke="black"></line><line id="SvgjsLine18609" x1="55.96732970601076" y1="112.04571282897396" x2="144.59918406451428" y2="38.23558520254085" stroke="black"></line><line id="SvgjsLine18610" x1="57.032909219354764" y1="110.45096038872504" x2="408.7323658331944" y2="147.64313136388606" stroke="black"></line><line id="SvgjsLine18611" x1="58.113714203095014" y1="108.86648709072938" x2="294.28545312258296" y2="409.6321636520778" stroke="black"></line><line id="SvgjsLine18612" x1="59.20964550646474" y1="107.29243829122133" x2="34.53670539209281" y2="290.1878799013027" stroke="black"></line><line id="SvgjsLine18613" x1="60.320602591040796" y1="105.72895839011316" x2="158.9345309229256" y2="32.77472974868522" stroke="black"></line><line id="SvgjsLine18614" x1="61.44648353996644" y1="104.17619081774934" x2="413.91762750899983" y2="162.08045013131272" stroke="black"></line><line id="SvgjsLine18615" x1="62.58718506730136" y1="102.63427802174729" x2="279.75146012117074" y2="414.53992885365057" stroke="black"></line><line id="SvgjsLine18616" x1="63.7426025274963" y1="101.10336145393082" x2="29.90823753550856" y2="275.5625458148817" stroke="black"></line><line id="SvgjsLine18617" x1="64.91262992499387" y1="99.58358155735235" x2="173.6458394283949" y2="28.427257621601512" stroke="black"></line><line id="SvgjsLine18618" x1="66.09715992395141" y1="98.07507775341018" x2="417.9825086315252" y2="176.87233484214667" stroke="black"></line><line id="SvgjsLine18619" x1="67.2960838580887" y1="96.57798842905719" x2="264.88442698554155" y2="418.32072739138937" stroke="black"></line><line id="SvgjsLine18620" x1="68.50929174065587" y1="95.09245092410647" x2="26.41290892062983" y2="260.625819610225" stroke="black"></line><line id="SvgjsLine18621" x1="69.73667227452421" y1="93.61860151863107" x2="188.64677777291774" y2="25.218681516427665" stroke="black"></line><line id="SvgjsLine18622" x1="70.97811286239542" y1="92.15657542046313" x2="420.9031548620148" y2="191.93198083517038" stroke="black"></line><line id="SvgjsLine18623" x1="72.23349961713211" y1="90.70650675278881" x2="249.77159937775096" y2="420.95237203610645" stroke="black"></line><line id="SvgjsLine18624" x1="73.50271737220442" y1="89.26852854184557" x2="24.07123152562508" y2="245.46535593602977" stroke="black"></line><line id="SvgjsLine18625" x1="74.7856496922563" y1="87.8427727047173" x2="203.84931448542736" y2="23.167830633583037" stroke="black"></line><line id="SvgjsLine18626" x1="76.08217888378584" y1="86.42937003723361" x2="422.662426687044" y2="207.1710121194917" stroke="black"></line><line id="SvgjsLine18627" x1="77.39218600594353" y1="85.02845020196995" x2="234.50166537955312" y2="422.41941925059905" stroke="black"></line><line id="SvgjsLine18628" x1="78.71555088144237" y1="83.64014171635364" x2="22.8969472445753" y2="230.17012242142962" stroke="black"></line><line id="SvgjsLine18629" x1="80.05215210758377" y1="82.26457194087283" x2="219.16423503547185" y2="22.28674018153319" stroke="black"></line><line id="SvgjsLine18630" x1="81.40186706739382" y1="80.90186706739388" x2="423.25" y2="222.5" stroke="black"></line><line id="SvgjsLine18631" x1="82.76457194087277" y1="79.55215210758382" x2="219.1642350354719" y2="422.7132598184668" stroke="black"></line><line id="SvgjsLine18632" x1="84.14014171635358" y1="78.21555088144243" x2="22.8969472445753" y2="214.82987757857043" stroke="black"></line><line id="SvgjsLine18633" x1="85.52845020196989" y1="76.89218600594359" x2="234.5016653795531" y2="22.58058074940095" stroke="black"></line><line id="SvgjsLine18634" x1="86.92937003723355" y1="75.5821788837859" x2="422.662426687044" y2="237.82898788050827" stroke="black"></line><line id="SvgjsLine18635" x1="88.34277270471722" y1="74.28564969225633" x2="203.84931448542744" y2="421.83216936641696" stroke="black"></line><line id="SvgjsLine18636" x1="89.76852854184551" y1="73.0027173722045" x2="24.07123152562508" y2="199.5346440639703" stroke="black"></line><line id="SvgjsLine18637" x1="91.20650675278875" y1="71.73349961713217" x2="249.77159937775087" y2="24.047627963893547" stroke="black"></line><line id="SvgjsLine18638" x1="92.65657542046304" y1="70.4781128623955" x2="420.9031548620148" y2="253.06801916482962" stroke="black"></line><line id="SvgjsLine18639" x1="94.11860151863101" y1="69.23667227452424" x2="188.6467777729179" y2="419.78131848357236" stroke="black"></line><line id="SvgjsLine18640" x1="95.5924509241064" y1="68.00929174065595" x2="26.412908920629803" y2="184.37418038977512" stroke="black"></line><line id="SvgjsLine18641" x1="97.07798842905711" y1="66.79608385808876" x2="264.8844269855415" y2="26.679272608610603" stroke="black"></line><line id="SvgjsLine18642" x1="98.57507775341011" y1="65.59715992395147" x2="417.98250863152526" y2="268.12766515785324" stroke="black"></line><line id="SvgjsLine18643" x1="100.08358155735228" y1="64.4126299249939" x2="173.64583942839505" y2="416.5727423783985" stroke="black"></line><line id="SvgjsLine18644" x1="101.60336145393075" y1="63.24260252749633" x2="29.908237535508533" y2="169.43745418511844" stroke="black"></line><line id="SvgjsLine18645" x1="103.13427802174722" y1="62.08718506730139" x2="279.7514601211708" y2="30.460071146349463" stroke="black"></line><line id="SvgjsLine18646" x1="104.67619081774926" y1="60.94648353996649" x2="413.91762750899983" y2="282.9195498686872" stroke="black"></line><line id="SvgjsLine18647" x1="106.22895839011309" y1="59.82060259104088" x2="158.9345309229256" y2="412.2252702513148" stroke="black"></line><line id="SvgjsLine18648" x1="107.79243829122126" y1="58.70964550646477" x2="34.536705392092784" y2="154.8121200986974" stroke="black"></line><line id="SvgjsLine18649" x1="109.36648709072931" y1="57.6137142030951" x2="294.28545312258296" y2="35.36783634792221" stroke="black"></line><line id="SvgjsLine18650" x1="110.95096038872495" y1="56.53290921935482" x2="408.7323658331945" y2="297.3568686361139" stroke="black"></line><line id="SvgjsLine18651" x1="112.54571282897389" y1="55.467329706010815" x2="144.59918406451442" y2="406.76441479745927" stroke="black"></line><line id="SvgjsLine18652" x1="114.15059811225551" y1="54.417073417077006" x2="40.27115080057084" y2="140.5840054064392" stroke="black"></line><line id="SvgjsLine18653" x1="115.76546900978306" y1="53.382236700847386" x2="308.40111473965754" y2="41.37376749563896" stroke="black"></line><line id="SvgjsLine18654" x1="117.39017737671124" y1="52.3629144910567" x2="402.4571527814514" y2="311.3548975328587" stroke="black"></line><line id="SvgjsLine18655" x1="119.02457416572541" y1="51.35920029817186" x2="130.72392436872647" y2="400.2222224880487" stroke="black"></line><line id="SvgjsLine18656" x1="120.6685094407162" y1="50.37118620081293" x2="47.07792175508371" y2="126.8366063429195" stroke="black"></line><line id="SvgjsLine18657" x1="122.32183239053307" y1="49.39896283730681" x2="322.0156086571794" y2="48.44261939737143" stroke="black"></line><line id="SvgjsLine18658" x1="123.98439134282064" y1="48.44261939737143" x2="395.128813799187" y2="324.8314905592839" stroke="black"></line><line id="SvgjsLine18659" x1="125.65603377793151" y1="47.502243613934326" x2="117.39017737671122" y2="392.6370855089433" stroke="black"></line><line id="SvgjsLine18660" x1="127.33660634291942" y1="46.577921755083764" x2="54.91707341707695" y2="113.65059811225558" stroke="black"></line><line id="SvgjsLine18661" x1="129.0259548656062" y1="45.66973861615509" x2="335.0490396112751" y2="56.53290921935485" stroke="black"></line><line id="SvgjsLine18662" x1="130.7239243687265" y1="44.777777511951285" x2="386.79035449353523" y2="337.70756170877877" stroke="black"></line><line id="SvgjsLine18663" x1="132.43035908414373" y1="43.902120269100465" x2="104.67619081774932" y2="384.0535164600335" stroke="black"></line><line id="SvgjsLine18664" x1="134.14510246714127" y1="43.042847218548644" x2="63.7426025274963" y2="101.10336145393082" stroke="black"></line><line id="SvgjsLine18665" x1="135.86799721078262" y1="42.20003718819072" x2="347.42492224658986" y2="65.59715992395147" stroke="black"></line><line id="SvgjsLine18666" x1="137.5988852603424" y1="41.373767495639015" x2="377.4907082593441" y2="349.90754907589354" stroke="black"></line><line id="SvgjsLine18667" x1="139.33760782780678" y1="40.56411394112996" x2="92.6565754204631" y2="374.52188713760455" stroke="black"></line><line id="SvgjsLine18668" x1="141.08400540643913" y1="39.771150800570894" x2="73.50271737220442" y2="89.26852854184557" stroke="black"></line><line id="SvgjsLine18669" x1="142.83791778541425" y1="38.99495081872544" x2="359.0706299627664" y2="75.58217888378587" stroke="black"></line><line id="SvgjsLine18670" x1="144.59918406451428" y1="38.23558520254085" x2="367.28444911855763" y2="361.3598582836464" stroke="black"></line><line id="SvgjsLine18671" x1="146.36764266889065" y1="37.49312361461489" x2="81.40186706739388" y2="364.0981329326062" stroke="black"></line><line id="SvgjsLine18672" x1="148.143131363886" y1="36.76763416680555" x2="84.14014171635358" y2="78.21555088144243" stroke="black"></line><line id="SvgjsLine18673" x1="149.92548726991689" y1="36.059183413982765" x2="369.9178211162141" y2="86.42937003723355" stroke="black"></line><line id="SvgjsLine18674" x1="151.714546877417" y1="35.36783634792221" x2="356.2314714581545" y2="371.9972826277955" stroke="black"></line><line id="SvgjsLine18675" x1="153.51014606183602" y1="34.69365639134381" x2="70.97811286239548" y2="352.843424579537" stroke="black"></line><line id="SvgjsLine18676" x1="155.3121200986973" y1="34.03670539209281" x2="95.5924509241064" y2="68.00929174065595" stroke="black"></line><line id="SvgjsLine18677" x1="157.120303678708" y1="33.39704361746655" x2="379.9028400760485" y2="98.0750777534101" stroke="black"></line><line id="SvgjsLine18678" x1="158.9345309229256" y1="32.77472974868522" x2="344.3966385460692" y2="381.75739747250367" stroke="black"></line><line id="SvgjsLine18679" x1="160.75463539797394" y1="32.169820875508975" x2="61.44648353996649" y2="340.8238091822507" stroke="black"></line><line id="SvgjsLine18680" x1="162.58045013131257" y1="31.5823724910002" x2="107.79243829122126" y2="58.70964550646477" stroke="black"></line><line id="SvgjsLine18681" x1="164.411807626554" y1="31.01243848643307" x2="388.96709078064515" y2="110.45096038872491" stroke="black"></line><line id="SvgjsLine18682" x1="166.24853987882906" y1="30.46007114634952" x2="331.84940188774453" y2="390.582926582923" stroke="black"></line><line id="SvgjsLine18683" x1="168.09047839020027" y1="29.925321143762687" x2="52.86291449105667" y2="328.1098226232888" stroke="black"></line><line id="SvgjsLine18684" x1="169.93745418511833" y1="29.40823753550856" x2="120.6685094407162" y2="50.37118620081293" stroke="black"></line><line id="SvgjsLine18685" x1="171.78929782592488" y1="28.90886775774524" x2="397.05738060262854" y2="123.4843913428206" stroke="black"></line><line id="SvgjsLine18686" x1="173.6458394283949" y1="28.427257621601512" x2="318.66339365708075" y2="398.4220782449162" stroke="black"></line><line id="SvgjsLine18687" x1="175.50690867732305" y1="27.963451308974157" x2="45.27777751195126" y2="314.7760756312735" stroke="black"></line><line id="SvgjsLine18688" x1="177.37233484214656" y1="27.517491368474793" x2="134.14510246714127" y2="43.042847218548644" stroke="black"></line><line id="SvgjsLine18689" x1="179.24194679260904" y1="27.089418711526434" x2="404.12623250436104" y2="137.09888526034243" stroke="black"></line><line id="SvgjsLine18690" x1="181.11557301445836" y1="26.67927260861063" x2="304.91599459356087" y2="405.22884919942913" stroke="black"></line><line id="SvgjsLine18691" x1="182.99304162518223" y1="26.287090685664623" x2="38.73558520254085" y2="300.9008159354857" stroke="black"></line><line id="SvgjsLine18692" x1="184.87418038977503" y1="25.91290892062983" x2="148.143131363886" y2="36.76763416680555" stroke="black"></line><line id="SvgjsLine18693" x1="186.75881673653973" y1="25.556761640151024" x2="410.1321636520778" y2="151.21454687741704" stroke="black"></line><line id="SvgjsLine18694" x1="188.64677777291774" y1="25.218681516427665" x2="290.68787990130267" y2="410.9632946079072" stroke="black"></line><line id="SvgjsLine18695" x1="190.53789030135118" y1="24.8986995642162" x2="33.27472974868522" y2="286.56546907707434" stroke="black"></line><line id="SvgjsLine18696" x1="192.43198083517026" y1="24.59684513798524" x2="162.58045013131257" y2="31.5823724910002" stroke="black"></line><line id="SvgjsLine18697" x1="194.32887561450997" y1="24.31314592922223" x2="415.0399288536505" y2="165.7485398788292" stroke="black"></line><line id="SvgjsLine18698" x1="196.22840062224904" y1="24.047627963893547" x2="276.06254581488145" y2="415.59176246449147" stroke="black"></line><line id="SvgjsLine18699" x1="198.13038159997524" y1="23.800315600056507" x2="28.927257621601512" y2="271.85416057160506" stroke="black"></line><line id="SvgjsLine18700" x1="200.0346440639702" y1="23.57123152562508" x2="177.37233484214656" y2="27.517491368474793" stroke="black"></line><line id="SvgjsLine18701" x1="201.94101332121755" y1="23.360396756288424" x2="418.82072739138937" y2="180.61557301445848" stroke="black"></line><line id="SvgjsLine18702" x1="203.84931448542736" y1="23.167830633583037" x2="261.1258196102249" y2="419.0870910793702" stroke="black"></line><line id="SvgjsLine18703" x1="205.75937249308143" y1="22.993550823118312" x2="25.718681516427665" y2="256.85322222708226" stroke="black"></line><line id="SvgjsLine18704" x1="207.67101211949165" y1="22.837573312955982" x2="192.43198083517026" y2="24.59684513798524" stroke="black"></line><line id="SvgjsLine18705" x1="209.5840579948764" y1="22.69991241214342" x2="421.45237203610645" y2="195.72840062224915" stroke="black"></line><line id="SvgjsLine18706" x1="211.49833462044685" y1="22.58058074940095" x2="245.96535593602977" y2="421.4287684743749" stroke="black"></line><line id="SvgjsLine18707" x1="213.41366638450862" y1="22.479589271963306" x2="23.667830633583037" y2="241.65068551457261" stroke="black"></line><line id="SvgjsLine18708" x1="215.32987757857035" y1="22.3969472445753" x2="207.67101211949165" y2="22.837573312955982" stroke="black"></line><line id="SvgjsLine18709" x1="217.2467924134644" y1="22.33266224864201" x2="422.91941925059905" y2="210.99833462044688" stroke="black"></line><line id="SvgjsLine18710" x1="219.16423503547185" y1="22.28674018153319" x2="230.67012242142962" y2="422.6030527554247" stroke="black"></line><line id="SvgjsLine18711" x1="221.0820295424564" y1="22.259185256042315" x2="22.78674018153319" y2="226.33576496452815" stroke="black"></line></svg>