<svg id="SvgjsSvg1001" width="446" height="445" xmlns="http://www.w3.org/2000/svg" version="1.1" xmlns:xlink="http://www.w3.org/1999/xlink" xmlns:svgjs="http://svgjs.com/svgjs"><circle id="SvgjsCircle36634" r="200.25" cx="223" cy="222.5" stroke="black" fill="transparent"></circle><line id="SvgjsLine36635" x1="225.00667751108094" y1="22.260054571105826" x2="412.8832322962696" y2="286.09575923535226" stroke="black"></line><line id="SvgjsLine36636" x1="227.0131535112333" y1="22.290217274741366" x2="102.39307541628929" y2="382.35628621502224" stroke="black"></line><line id="SvgjsLine36637" x1="229.01922650976434" y1="22.3404850819623" x2="109.72190066694577" y2="57.36934048611474" stroke="black"></line><line id="SvgjsLine36638" x1="231.02469505645072" y1="22.41085294486615" x2="415.5570542398728" y2="167.52870419516483" stroke="black"></line><line id="SvgjsLine36639" x1="233.02935776176832" y1="22.501313797099016" x2="213.9728602767983" y2="422.5464277322087" stroke="black"></line><line id="SvgjsLine36640" x1="235.0330133171158" y1="22.611858554565288" x2="36.17665666570147" y2="150.40907903629738" stroke="black"></line><line id="SvgjsLine36641" x1="237.03546051502994" y1="22.7424761163399" x2="350.69053410254367" y2="68.24310387990062" stroke="black"></line><line id="SvgjsLine36642" x1="239.036498269391" y1="22.893153365783036" x2="328.718959180302" y2="392.5692922600481" stroke="black"></line><line id="SvgjsLine36643" x1="241.03592563561583" y1="23.063875171857234" x2="28.160627199403734" y2="268.7350657690705" stroke="black"></line><line id="SvgjsLine36644" x1="243.0335418308368" y1="23.25462439064711" x2="241.03592563561583" y2="23.063875171857234" stroke="black"></line><line id="SvgjsLine36645" x1="245.0291462540644" y1="23.465381867080623" x2="406.3836086626753" y2="302.9395087867571" stroke="black"></line><line id="SvgjsLine36646" x1="247.02253850633153" y1="23.696126436852808" x2="88.48547437215888" y2="370.84387380379707" stroke="black"></line><line id="SvgjsLine36647" x1="249.01351841081788" y1="23.946834928551084" x2="125.05512677288836" y2="47.83785668174963" stroke="black"></line><line id="SvgjsLine36648" x1="251.0018860329514" y1="24.217482165982176" x2="419.7255476112468" y2="185.09516853326207" stroke="black"></line><line id="SvgjsLine36649" x1="252.98744170048604" y1="24.508040970700137" x2="195.99195875692257" y2="420.92033214419394" stroke="black"></line><line id="SvgjsLine36650" x1="254.96998602355268" y1="24.818482164735883" x2="43.42897811472787" y2="133.87545148730447" stroke="black"></line><line id="SvgjsLine36651" x1="256.949319914682" y1="25.148774573526964" x2="364.0650247483153" y2="80.37075848806768" stroke="black"></line><line id="SvgjsLine36652" x1="258.9252446087968" y1="25.498885029048324" x2="312.97164759890126" y2="401.39987459005977" stroke="black"></line><line id="SvgjsLine36653" x1="260.89756168317217" y1="25.868778373142987" x2="24.788256263343243" y2="250.99854636422538" stroke="black"></line><line id="SvgjsLine36654" x1="262.8660730773609" y1="26.258417461052574" x2="258.9252446087968" y2="25.498885029048324" stroke="black"></line><line id="SvgjsLine36655" x1="264.83058111308316" y1="26.66776316514745" x2="398.3933346818535" y2="319.1293984726145" stroke="black"></line><line id="SvgjsLine36656" x1="266.79088851407676" y1="27.096774378856026" x2="75.67128688770546" y2="358.1256347180547" stroke="black"></line><line id="SvgjsLine36657" x1="268.7467984259083" y1="27.545408020792422" x2="141.184506691867" y2="39.726130000082236" stroke="black"></line><line id="SvgjsLine36658" x1="270.698114435741" y1="28.013619039082954" x2="422.29493947080243" y2="202.96568144702252" stroke="black"></line><line id="SvgjsLine36659" x1="272.6446405920585" y1="28.50136041589019" x2="178.2305945574786" y2="417.68135883409343" stroke="black"></line><line id="SvgjsLine36660" x1="274.58618142434256" y1="29.00858317213445" x2="52.14095895249304" y2="118.06221664394475" stroke="black"></line><line id="SvgjsLine36661" x1="276.5225419627019" y1="29.535236372412214" x2="376.29285550634586" y2="93.65372356676124" stroke="black"></line><line id="SvgjsLine36662" x1="278.4535277574514" y1="30.081267130111343" x2="296.49299329438617" y2="408.77625301318284" stroke="black"></line><line id="SvgjsLine36663" x1="280.3789448986389" y1="30.646620612721648" x2="23.027067519520386" y2="233.0303739324654" stroke="black"></line><line id="SvgjsLine36664" x1="282.2986000355171" y1="31.231240047341316" x2="276.5225419627019" y2="29.535236372412214" stroke="black"></line><line id="SvgjsLine36665" x1="284.2123003959606" y1="31.83506672637813" x2="388.9773600228114" y2="334.5338273016594" stroke="black"></line><line id="SvgjsLine36666" x1="286.1198538058235" y1="32.45804001344473" x2="64.0546742517291" y2="344.30495032130693" stroke="black"></line><line id="SvgjsLine36667" x1="288.02106870823786" y1="33.10009734944791" x2="157.97893129176208" y2="33.10009734944791" stroke="black"></line><line id="SvgjsLine36668" x1="289.91575418285" y1="33.761174258870625" x2="423.24434428304636" y2="220.9949808463702" stroke="black"></line><line id="SvgjsLine36669" x1="291.8037199649924" y1="34.44120435624686" x2="160.83314254328806" y2="412.85583609113974" stroke="black"></line><line id="SvgjsLine36670" x1="293.6847764647904" y1="35.14011935282781" x2="62.2417830501424" y2="103.09791382432836" stroke="black"></line><line id="SvgjsLine36671" x1="295.5587347862007" y1="35.85784906343963" x2="387.27463134183233" y2="107.984027325857" stroke="black"></line><line id="SvgjsLine36672" x1="297.4254067459806" y1="36.594321413531475" x2="279.4169445074964" y2="414.6384679663031" stroke="black"></line><line id="SvgjsLine36673" x1="299.2846048925848" y1="37.349462446413014" x2="22.891376950872086" y2="214.97660439814342" stroke="black"></line><line id="SvgjsLine36674" x1="301.1361425249901" y1="38.12319633068145" x2="293.6847764647904" y2="35.14011935282781" stroke="black"></line><line id="SvgjsLine36675" x1="302.9798337114433" y1="38.915445367836355" x2="378.212223292229" y2="349.0275789726621" stroke="black"></line><line id="SvgjsLine36676" x1="304.8154933081329" y1="39.72613000008218" x2="53.730063156919215" y2="329.4941633040767" stroke="black"></line><line id="SvgjsLine36677" x1="306.642936977781" y1="40.55516881831747" x2="175.301885564259" y2="28.013619039082954" stroke="black"></line><line id="SvgjsLine36678" x1="308.46198120815484" y1="41.40247857031011" x2="422.5660447245856" y2="239.03651393083453" stroke="black"></line><line id="SvgjsLine36679" x1="310.27244333049464" y1="42.26797416905731" x2="143.94101948586552" y2="406.48298861597425" stroke="black"></line><line id="SvgjsLine36680" x1="312.0741415378578" y1="43.151568701330206" x2="73.64934494002668" y2="89.10418172537467" stroke="black"></line><line id="SvgjsLine36681" x1="313.8668949033754" y1="44.05317343640169" x2="396.9210858907759" y2="123.2451845874803" stroke="black"></line><line id="SvgjsLine36682" x1="315.6505233984214" y1="44.97269783495676" x2="261.8823054543722" y2="418.9388679018307" stroke="black"></line><line id="SvgjsLine36683" x1="317.42484791069086" y1="45.9100495581844" x2="24.382287530530675" y2="196.98398946944852" stroke="black"></line><line id="SvgjsLine36684" x1="319.18969026218656" y1="46.86513447705033" x2="310.27244333049464" y2="42.26797416905731" stroke="black"></line><line id="SvgjsLine36685" x1="320.9448732271116" y1="47.8378566817496" x2="366.1854298834312" y2="362.49283970652573" stroke="black"></line><line id="SvgjsLine36686" x1="322.6902205496665" y1="48.828118491337676" x2="44.78137814389129" y2="313.8136644961165" stroke="black"></line><line id="SvgjsLine36687" x1="324.4255569617487" y1="49.835820463539505" x2="193.01255829951387" y2="24.508040970700165" stroke="black"></line><line id="SvgjsLine36688" x1="326.1507082005534" y1="50.860861404735914" x2="420.26555441509277" y2="256.9436284573226" stroke="black"></line><line id="SvgjsLine36689" x1="327.86550102607254" y1="51.903138380125" x2="127.69153454432603" y2="398.6146186790994" stroke="black"></line><line id="SvgjsLine36690" x1="329.5697632384919" y1="52.96254672405928" x2="86.27091721746592" y2="76.19476967159738" stroke="black"></line><line id="SvgjsLine36691" x1="331.2633236954834" y1="54.03898005055598" x2="405.1538070697423" y2="139.31314364637223" stroke="black"></line><line id="SvgjsLine36692" x1="332.94601232939135" y1="55.13233026398041" x2="244.03160804385604" y2="421.64249662764" stroke="black"></line><line id="SvgjsLine36693" x1="334.6176601643103" y1="56.24248756990096" x2="27.487680256206573" y2="179.19878375379412" stroke="black"></line><line id="SvgjsLine36694" x1="336.2780993330541" y1="57.36934048611468" x2="326.1507082005534" y2="50.860861404735914" stroke="black"></line><line id="SvgjsLine36695" x1="337.92716309401294" y1="58.51277585384233" x2="352.99474068083737" y2="374.8201559063076" stroke="black"></line><line id="SvgjsLine36696" x1="339.5646858478974" y1="59.672678849091824" x2="37.28135941292382" y2="297.3909142585963" stroke="black"></line><line id="SvgjsLine36697" x1="341.19050315436823" y1="60.8489329941888" x2="210.96698668288403" y2="22.611858554565316" stroke="black"></line><line id="SvgjsLine36698" x1="342.8044517485495" y1="62.04142016947344" x2="416.36157309934663" y2="274.57076481621925" stroke="black"></line><line id="SvgjsLine36699" x1="344.40636955742343" y1="63.25002062516202" x2="112.21677313539276" y2="389.3146850414104" stroke="black"></line><line id="SvgjsLine36700" x1="345.99609571610597" y1="64.47461299337218" x2="100.00390428389397" y2="64.47461299337223" stroke="black"></line><line id="SvgjsLine36701" x1="347.5734705840008" y1="65.71507430031076" x2="411.90587445561664" y2="156.05729463546217" stroke="black"></line><line id="SvgjsLine36702" x1="349.13833576083067" y1="66.97127997862279" x2="226.0099532939029" y2="422.7273774516575" stroke="black"></line><line id="SvgjsLine36703" x1="350.69053410254367" y1="68.24310387990062" x2="32.18231266060096" y2="161.76555591393506" stroke="black"></line><line id="SvgjsLine36704" x1="352.22990973709386" y1="69.53041828735172" x2="341.19050315436823" y2="60.8489329941888" stroke="black"></line><line id="SvgjsLine36705" x1="353.75630808009396" y1="70.83309392862415" x2="338.7473774017176" y2="385.9093238607404" stroke="black"></line><line id="SvgjsLine36706" x1="355.2695758503388" y1="72.15099998878787" x2="31.29097154862211" y2="280.35940641096124" stroke="black"></line><line id="SvgjsLine36707" x1="356.76956108519767" y1="73.48400412347146" x2="229.01922650976434" y2="22.3404850819623" stroke="black"></line><line id="SvgjsLine36708" x1="358.25611315587446" y1="74.83197247215199" x2="410.8858346446561" y2="291.7746392259169" stroke="black"></line><line id="SvgjsLine36709" x1="359.7290827825341" y1="76.19476967159741" x2="97.64252326506963" y2="378.6587830595878" stroke="black"></line><line id="SvgjsLine36710" x1="361.1883220492929" y1="77.57225886945969" x2="114.73667630451645" y2="54.03898005055606" stroke="black"></line><line id="SvgjsLine36711" x1="362.63368441907255" y1="78.96430173801761" x2="417.1224032543509" y2="173.34153120005496" stroke="black"></line><line id="SvgjsLine36712" x1="364.0650247483153" y1="80.37075848806768" x2="207.96383186475515" y2="422.1846918214029" stroke="black"></line><line id="SvgjsLine36713" x1="365.4821993015593" y1="81.79148788296163" x2="38.428023997097824" y2="144.8260135284399" stroke="black"></line><line id="SvgjsLine36714" x1="366.8850657658726" y1="83.22634725278968" x2="355.2695758503388" y2="72.15099998878787" stroke="black"></line><line id="SvgjsLine36715" x1="368.273483265144" y1="84.67519250870726" x2="323.5591510347092" y2="395.67020425921584" stroke="black"></line><line id="SvgjsLine36716" x1="369.64731237423047" y1="86.13787815740446" x2="26.858907963745622" y2="262.85758311427475" stroke="black"></line><line id="SvgjsLine36717" x1="371.0064151329574" y1="87.61425731571671" x2="247.02253850633153" y2="23.696126436852808" stroke="black"></line><line id="SvgjsLine36718" x1="372.3506550599733" y1="89.10418172537464" x2="403.88284908923174" y2="308.4154084280707" stroke="black"></line><line id="SvgjsLine36719" x1="373.6798971664548" y1="90.60750176789205" x2="84.08725304939037" y2="366.7335302023628" stroke="black"></line><line id="SvgjsLine36720" x1="374.9940079696627" y1="92.124066479591" x2="130.34947660157854" y2="44.97269783495679" stroke="black"></line><line id="SvgjsLine36721" x1="376.29285550634586" y1="93.65372356676124" x2="420.7609904370055" y2="191.02535685071814" stroke="black"></line><line id="SvgjsLine36722" x1="377.5763093459932" y1="95.19631942095388" x2="190.03993329628307" y2="420.01885100639515" stroke="black"></line><line id="SvgjsLine36723" x1="378.8442406039319" y1="96.75169913440662" x2="46.174045432864574" y2="128.51785120874627" stroke="black"></line><line id="SvgjsLine36724" x1="380.0965219542692" y1="98.31970651559955" x2="368.273483265144" y2="84.67519250870726" stroke="black"></line><line id="SvgjsLine36725" x1="381.3330276426792" y1="99.9001841049401" x2="307.553520459659" y2="404.0234548973714" stroke="black"></line><line id="SvgjsLine36726" x1="382.553633499031" y1="101.49297319057501" x2="24.021195090372515" y2="245.02770953151693" stroke="black"></line><line id="SvgjsLine36727" x1="383.7582169498576" y1="103.09791382432839" x2="264.83058111308316" y2="26.66776316514745" stroke="black"></line><line id="SvgjsLine36728" x1="384.9466570306651" y1="104.71484483776351" x2="395.4095408382916" y2="324.3578064162461" stroke="black"></line><line id="SvgjsLine36729" x1="386.11883439807974" y1="106.34360385836757" x2="71.66114773555981" y2="353.63586197254335" stroke="black"></line><line id="SvgjsLine36730" x1="387.27463134183233" y1="107.984027325857" x2="146.7153951074152" y2="37.349462446413014" stroke="black"></line><line id="SvgjsLine36731" x1="388.4139317965792" y1="109.63595050860242" x2="422.79205941662804" y2="208.96502700177842" stroke="black"></line><line id="SvgjsLine36732" x1="389.5366213535568" y1="111.29920752017081" x2="172.38395362871387" y2="416.24746024074693" stroke="black"></line><line id="SvgjsLine36733" x1="390.64258727207135" y1="112.97363133598398" x2="55.35741272792862" y2="112.97363133598408" stroke="black"></line><line id="SvgjsLine36734" x1="391.7317184908197" y1="114.65905381009131" x2="380.0965219542692" y2="98.31970651559955" stroke="black"></line><line id="SvgjsLine36735" x1="392.80390563904245" y1="116.35530569205459" x2="290.860588900886" y2="410.9011756174174" stroke="black"></line><line id="SvgjsLine36736" x1="393.85904104750693" y1="118.06221664394471" x2="22.80089953576865" y2="227.0147174122646" stroke="black"></line><line id="SvgjsLine36737" x1="394.89701875931945" y1="119.7796152574467" x2="282.2986000355171" y2="31.231240047341316" stroke="black"></line><line id="SvgjsLine36738" x1="395.9177345405652" y1="121.50732907107265" x2="385.5347859488536" y2="339.47224395795934" stroke="black"></line><line id="SvgjsLine36739" x1="396.9210858907759" y1="123.2451845874803" x2="60.46521405114646" y2="339.47224395795934" stroke="black"></line><line id="SvgjsLine36740" x1="397.9069720532224" y1="124.9930072908958" x2="163.7013999644828" y2="31.231240047341345" stroke="black"></line><line id="SvgjsLine36741" x1="398.875294025033" y1="126.75062166463844" x2="423.1991004642314" y2="227.0147174122646" stroke="black"></line><line id="SvgjsLine36742" x1="399.82595456713545" y1="128.5178512087463" x2="155.13941109911406" y2="410.9011756174174" stroke="black"></line><line id="SvgjsLine36743" x1="400.7588582140214" y1="130.2945184577" x2="65.90347804573085" y2="98.31970651559955" stroke="black"></line><line id="SvgjsLine36744" x1="401.6739112833334" y1="132.0804449982444" x2="390.64258727207135" y2="112.97363133598398" stroke="black"></line><line id="SvgjsLine36745" x1="402.57102188527205" y1="133.87545148730436" x2="273.6160463712861" y2="416.24746024074693" stroke="black"></line><line id="SvgjsLine36746" x1="403.45009993182407" y1="135.67935766999466" x2="23.207940583371993" y2="208.9650270017785" stroke="black"></line><line id="SvgjsLine36747" x1="404.3110571458086" y1="137.4919823977213" x2="299.2846048925848" y2="37.349462446413014" stroke="black"></line><line id="SvgjsLine36748" x1="405.1538070697423" y1="139.31314364637223" x2="374.3388522644402" y2="353.63586197254335" stroke="black"></line><line id="SvgjsLine36749" x1="405.9782650745211" y1="141.14265853459648" x2="50.590459161708395" y2="324.35780641624604" stroke="black"></line><line id="SvgjsLine36750" x1="406.78434836791916" y1="142.98034334216896" x2="181.16941888691687" y2="26.66776316514745" stroke="black"></line><line id="SvgjsLine36751" x1="407.57197600290215" y1="144.82601352843983" x2="421.9788049096275" y2="245.02770953151688" stroke="black"></line><line id="SvgjsLine36752" x1="408.34106888575667" y1="146.67948375086598" x2="138.44647954034104" y2="404.0234548973714" stroke="black"></line><line id="SvgjsLine36753" x1="409.09154978403257" y1="148.54056788362337" x2="77.72651673485589" y2="84.67519250870728" stroke="black"></line><line id="SvgjsLine36754" x1="409.8233433342985" y1="150.40907903629736" x2="399.82595456713545" y2="128.5178512087463" stroke="black"></line><line id="SvgjsLine36755" x1="410.5363760497102" y1="152.28482957265092" x2="255.960066703717" y2="420.01885100639515" stroke="black"></line><line id="SvgjsLine36756" x1="411.2305763273899" y1="154.1676311294666" x2="25.23900956299454" y2="191.0253568507181" stroke="black"></line><line id="SvgjsLine36757" x1="411.90587445561664" y1="156.05729463546217" x2="315.6505233984214" y2="44.97269783495676" stroke="black"></line><line id="SvgjsLine36758" x1="412.56220262082707" y1="157.9536303302772" x2="361.91274695060963" y2="366.7335302023628" stroke="black"></line><line id="SvgjsLine36759" x1="413.1994949144247" y1="159.8564477835289" x2="42.11715091076826" y2="308.41540842807075" stroke="black"></line><line id="SvgjsLine36760" x1="413.817687339399" y1="161.76555591393492" x2="198.97746149366836" y2="23.696126436852808" stroke="black"></line><line id="SvgjsLine36761" x1="414.4167178167519" y1="163.6807630085021" x2="419.1410920362544" y2="262.8575831142746" stroke="black"></line><line id="SvgjsLine36762" x1="414.9965261917314" y1="165.60187674177814" x2="122.44084896529073" y2="395.6702042592158" stroke="black"></line><line id="SvgjsLine36763" x1="415.5570542398728" y1="167.52870419516483" x2="90.73042414966105" y2="72.15099998878799" stroke="black"></line><line id="SvgjsLine36764" x1="416.0982456728454" y1="169.46105187629144" x2="407.57197600290215" y2="144.82601352843983" stroke="black"></line><line id="SvgjsLine36765" x1="416.62004614410483" y1="171.3987257384445" x2="238.03616813524488" y2="422.1846918214029" stroke="black"></line><line id="SvgjsLine36766" x1="417.1224032543509" y1="173.34153120005496" x2="28.877596745649072" y2="173.34153120005504" stroke="black"></line><line id="SvgjsLine36767" x1="417.6052665567892" y1="175.2892731642372" x2="331.2633236954834" y2="54.03898005055598" stroke="black"></line><line id="SvgjsLine36768" x1="418.0685875621972" y1="177.24175603838125" x2="348.3574767349305" y2="378.6587830595877" stroke="black"></line><line id="SvgjsLine36769" x1="418.51231974379346" y1="179.19878375379406" x2="35.11416535534397" y2="291.7746392259171" stroke="black"></line><line id="SvgjsLine36770" x1="418.9364185419097" y1="181.16015978538883" x2="216.98077349023566" y2="22.340485081962328" stroke="black"></line><line id="SvgjsLine36771" x1="419.34084136846593" y1="183.12568717141988" x2="414.7090284513779" y2="280.35940641096124" stroke="black"></line><line id="SvgjsLine36772" x1="419.7255476112468" y1="185.09516853326207" x2="107.25262259828243" y2="385.9093238607404" stroke="black"></line><line id="SvgjsLine36773" x1="420.0904986379798" y1="187.06840609523084" x2="104.80949684563181" y2="60.84893299418874" stroke="black"></line><line id="SvgjsLine36774" x1="420.43565780021515" y1="189.04520170444366" x2="413.817687339399" y2="161.76555591393492" stroke="black"></line><line id="SvgjsLine36775" x1="420.7609904370055" y1="191.02535685071814" x2="219.99004670609716" y2="422.7273774516575" stroke="black"></line><line id="SvgjsLine36776" x1="421.066463878387" y1="193.0086726865064" x2="34.0941255443833" y2="156.05729463546217" stroke="black"></line><line id="SvgjsLine36777" x1="421.35204744866" y1="194.99495004686375" x2="345.99609571610597" y2="64.47461299337218" stroke="black"></line><line id="SvgjsLine36778" x1="421.6177124694693" y1="196.98398946944855" x2="333.7832268646073" y2="389.31468504141037" stroke="black"></line><line id="SvgjsLine36779" x1="421.8634322626841" y1="198.97559121455237" x2="29.638426900653343" y2="274.5707648162193" stroke="black"></line><line id="SvgjsLine36780" x1="422.0891821530771" y1="200.96955528515787" x2="235.0330133171158" y2="22.611858554565288" stroke="black"></line><line id="SvgjsLine36781" x1="422.29493947080243" y1="202.96568144702252" x2="408.71864058707615" y2="297.3909142585963" stroke="black"></line><line id="SvgjsLine36782" x1="422.4806835536719" y1="204.96376924878624" x2="93.00525931916269" y2="374.8201559063076" stroke="black"></line><line id="SvgjsLine36783" x1="422.64639574923024" y1="206.96361804210073" x2="119.84929179944656" y2="50.860861404735914" stroke="black"></line><line id="SvgjsLine36784" x1="422.79205941662804" y1="208.96502700177842" x2="418.51231974379346" y2="179.19878375379406" stroke="black"></line><line id="SvgjsLine36785" x1="422.9176599282926" y1="210.9677951459598" x2="201.9683919561439" y2="421.64249662764" stroke="black"></line><line id="SvgjsLine36786" x1="423.0231846713973" y1="212.97172135629557" x2="40.84619293025773" y2="139.31314364637217" stroke="black"></line><line id="SvgjsLine36787" x1="423.1086230491279" y1="214.97660439814337" x2="359.7290827825341" y2="76.19476967159741" stroke="black"></line><line id="SvgjsLine36788" x1="423.17396648174656" y1="216.98224294077554" x2="318.30846545567397" y2="398.6146186790994" stroke="black"></line><line id="SvgjsLine36789" x1="423.2192084074535" y1="218.98843557759696" x2="25.734445584907263" y2="256.9436284573226" stroke="black"></line><line id="SvgjsLine36790" x1="423.24434428304636" y1="220.9949808463702" x2="252.98744170048604" y2="24.508040970700137" stroke="black"></line><line id="SvgjsLine36791" x1="423.2493715843757" y1="223.00167724944652" x2="401.2186218561087" y2="313.8136644961164" stroke="black"></line><line id="SvgjsLine36792" x1="423.2342898065991" y1="225.00832327400022" x2="79.81457011656877" y2="362.49283970652573" stroke="black"></line><line id="SvgjsLine36793" x1="423.1991004642314" y1="227.0147174122646" x2="135.72755666950522" y2="42.26797416905734" stroke="black"></line><line id="SvgjsLine36794" x1="423.1438070909928" y1="229.02065818176752" x2="421.6177124694693" y2="196.98398946944855" stroke="black"></line><line id="SvgjsLine36795" x1="423.06841523945434" y1="231.02594414556415" x2="184.11769454562784" y2="418.9388679018307" stroke="black"></line><line id="SvgjsLine36796" x1="422.9729324804796" y1="233.03037393246532" x2="49.078914109224115" y2="123.24518458748031" stroke="black"></line><line id="SvgjsLine36797" x1="422.85736840246506" y1="235.03374625725934" x2="372.3506550599733" y2="89.10418172537464" stroke="black"></line><line id="SvgjsLine36798" x1="422.72173461037687" y1="237.03585994092515" x2="302.05898051413465" y2="406.48298861597414" stroke="black"></line><line id="SvgjsLine36799" x1="422.5660447245856" y1="239.03651393083453" x2="23.433955275414377" y2="239.03651393083464" stroke="black"></line><line id="SvgjsLine36800" x1="422.39031437949865" y1="241.03550732094203" x2="270.698114435741" y2="28.013619039082954" stroke="black"></line><line id="SvgjsLine36801" x1="422.1945612219898" y1="243.0326393719601" x2="392.2699368430808" y2="329.4941633040766" stroke="black"></line><line id="SvgjsLine36802" x1="421.9788049096275" y1="245.02770953151688" x2="67.787776707771" y2="349.0275789726621" stroke="black"></line><line id="SvgjsLine36803" x1="421.7430671087008" y1="247.02051745429628" x2="152.31522353520958" y2="35.14011935282781" stroke="black"></line><line id="SvgjsLine36804" x1="421.48737149204345" y1="249.01086302215631" x2="423.1086230491279" y2="214.97660439814337" stroke="black"></line><line id="SvgjsLine36805" x1="421.2117437366568" y1="250.99854636422532" x2="166.58305549250377" y2="414.6384679663031" stroke="black"></line><line id="SvgjsLine36806" x1="420.91621152113123" y1="252.9833678769727" x2="58.725368658167554" y2="107.98402732585708" stroke="black"></line><line id="SvgjsLine36807" x1="420.6008045228667" y1="254.96512824425324" x2="383.7582169498576" y2="103.09791382432839" stroke="black"></line><line id="SvgjsLine36808" x1="420.26555441509277" y1="256.9436284573226" x2="285.166857456712" y2="412.85583609113974" stroke="black"></line><line id="SvgjsLine36809" x1="419.91049486368735" y1="258.91866983482174" x2="22.75565571695364" y2="220.9949808463702" stroke="black"></line><line id="SvgjsLine36810" x1="419.5356615237967" y1="260.8900540427286" x2="288.02106870823786" y2="33.10009734944791" stroke="black"></line><line id="SvgjsLine36811" x1="419.1410920362544" y1="262.8575831142746" x2="381.94532574827093" y2="344.30495032130693" stroke="black"></line><line id="SvgjsLine36812" x1="418.7268260238018" y1="264.82105946982483" x2="57.02263997718862" y2="334.53382730165947" stroke="black"></line><line id="SvgjsLine36813" x1="418.2929050871087" y1="266.7802859367187" x2="169.47745803729802" y2="29.53523637241227" stroke="black"></line><line id="SvgjsLine36814" x1="417.83937280059627" y1="268.73506576907033" x2="422.9729324804796" y2="233.03037393246532" stroke="black"></line><line id="SvgjsLine36815" x1="417.36627470806104" y1="270.68520266752586" x2="149.5070067056138" y2="408.7762530131828" stroke="black"></line><line id="SvgjsLine36816" x1="416.8736583181014" y1="272.6305007989754" x2="69.70714449365414" y2="93.65372356676127" stroke="black"></line><line id="SvgjsLine36817" x1="416.36157309934663" y1="274.57076481621925" x2="393.85904104750693" y2="118.06221664394471" stroke="black"></line><line id="SvgjsLine36818" x1="415.8300704754897" y1="276.5057998775841" x2="267.7694054425214" y2="417.68135883409343" stroke="black"></line><line id="SvgjsLine36819" x1="415.2792038201228" y1="278.43541166648953" x2="23.705060529197567" y2="202.96568144702263" stroke="black"></line><line id="SvgjsLine36820" x1="414.7090284513779" y1="280.35940641096124" x2="304.8154933081329" y2="39.72613000008218" stroke="black"></line><line id="SvgjsLine36821" x1="414.1196016263714" y1="282.2775909030893" x2="370.3287131122946" y2="358.1256347180546" stroke="black"></line><line id="SvgjsLine36822" x1="413.51098253545456" y1="284.1897725184307" x2="47.6066653181465" y2="319.1293984726146" stroke="black"></line><line id="SvgjsLine36823" x1="412.8832322962696" y1="286.09575923535226" x2="187.07475539120318" y2="25.498885029048353" stroke="black"></line><line id="SvgjsLine36824" x1="412.2364139476124" y1="287.9953596543137" x2="421.2117437366568" y2="250.99854636422532" stroke="black"></line><line id="SvgjsLine36825" x1="411.5705924431014" y1="289.88838301708785" x2="133.02835240109877" y2="401.3998745900598" stroke="black"></line><line id="SvgjsLine36826" x1="410.8858346446561" y1="291.7746392259169" x2="81.9349752516847" y2="80.37075848806762" stroke="black"></line><line id="SvgjsLine36827" x1="410.1822093157817" y1="293.653938862602" x2="402.57102188527205" y2="133.87545148730436" stroke="black"></line><line id="SvgjsLine36828" x1="409.45978711466444" y1="295.5260932075242" x2="250.00804124307757" y2="420.9203321441939" stroke="black"></line><line id="SvgjsLine36829" x1="408.71864058707615" y1="297.3909142585963" x2="26.274452388753218" y2="185.0951685332621" stroke="black"></line><line id="SvgjsLine36830" x1="407.9588441590888" y1="299.248214750142" x2="320.9448732271116" y2="47.8378566817496" stroke="black"></line><line id="SvgjsLine36831" x1="407.18047412960084" y1="301.0978081717006" x2="357.5145256278412" y2="370.843873803797" stroke="black"></line><line id="SvgjsLine36832" x1="406.3836086626753" y1="302.9395087867571" x2="39.616391337324785" y2="302.9395087867572" stroke="black"></line><line id="SvgjsLine36833" x1="405.56832777969043" y1="304.7731316513935" x2="204.9640743643842" y2="23.063875171857234" stroke="black"></line><line id="SvgjsLine36834" x1="404.7347133513039" y1="306.5984926328611" x2="417.83937280059627" y2="268.73506576907033" stroke="black"></line><line id="SvgjsLine36835" x1="403.88284908923174" y1="308.4154084280707" x2="117.28104081969812" y2="392.56929226004814" stroke="black"></line><line id="SvgjsLine36836" x1="403.0128205378414" y1="310.2236965820007" x2="95.3094658974563" y2="68.24310387990062" stroke="black"></line><line id="SvgjsLine36837" x1="402.12471506556153" y1="312.02317550601856" x2="409.8233433342985" y2="150.40907903629736" stroke="black"></line><line id="SvgjsLine36838" x1="401.2186218561087" y1="313.8136644961164" x2="232.02713972320174" y2="422.5464277322087" stroke="black"></line><line id="SvgjsLine36839" x1="400.2946318995315" y1="315.5949837510572" x2="30.44294576012723" y2="167.52870419516478" stroke="black"></line><line id="SvgjsLine36840" x1="399.35283798307313" y1="317.3669543904302" x2="336.2780993330541" y2="57.36934048611468" stroke="black"></line><line id="SvgjsLine36841" x1="398.3933346818535" y1="319.1293984726145" x2="343.6069245837107" y2="382.3562862150223" stroke="black"></line><line id="SvgjsLine36842" x1="397.4162183493725" y1="320.88213901264805" x2="33.116767703730346" y2="286.09575923535226" stroke="black"></line><line id="SvgjsLine36843" x1="396.42158710783383" y1="322.62499999999994" x2="223" y2="22.25" stroke="black"></line><line id="SvgjsLine36844" x1="395.4095408382916" y1="324.3578064162461" x2="412.8832322962696" y2="286.09575923535226" stroke="black"></line><line id="SvgjsLine36845" x1="394.3801811706202" y1="326.080384252644" x2="102.39307541628929" y2="382.35628621502224" stroke="black"></line><line id="SvgjsLine36846" x1="393.3336114733088" y1="327.7925605276075" x2="109.72190066694577" y2="57.36934048611474" stroke="black"></line><line id="SvgjsLine36847" x1="392.2699368430808" y1="329.4941633040766" x2="415.5570542398728" y2="167.52870419516483" stroke="black"></line><line id="SvgjsLine36848" x1="391.18926409434044" y1="331.1850217067844" x2="213.9728602767983" y2="422.5464277322087" stroke="black"></line><line id="SvgjsLine36849" x1="390.0917017484457" y1="332.8649659394161" x2="36.17665666570147" y2="150.40907903629738" stroke="black"></line><line id="SvgjsLine36850" x1="388.9773600228114" y1="334.5338273016594" x2="350.69053410254367" y2="68.24310387990062" stroke="black"></line><line id="SvgjsLine36851" x1="387.84635081984084" y1="336.19143820614624" x2="328.718959180302" y2="392.5692922600481" stroke="black"></line><line id="SvgjsLine36852" x1="386.6987877156881" y1="337.8376321952816" x2="28.160627199403734" y2="268.7350657690705" stroke="black"></line><line id="SvgjsLine36853" x1="385.5347859488536" y1="339.47224395795934" x2="241.03592563561583" y2="23.063875171857234" stroke="black"></line><line id="SvgjsLine36854" x1="384.35446240861086" y1="341.0951093461622" x2="406.3836086626753" y2="302.9395087867571" stroke="black"></line><line id="SvgjsLine36855" x1="383.1579356232693" y1="342.7060653914466" x2="88.48547437215888" y2="370.84387380379707" stroke="black"></line><line id="SvgjsLine36856" x1="381.94532574827093" y1="344.30495032130693" x2="125.05512677288836" y2="47.83785668174963" stroke="black"></line><line id="SvgjsLine36857" x1="380.71675455412475" y1="345.8916035754215" x2="419.7255476112468" y2="185.09516853326207" stroke="black"></line><line id="SvgjsLine36858" x1="379.47234541417845" y1="347.46586582177565" x2="195.99195875692257" y2="420.92033214419394" stroke="black"></line><line id="SvgjsLine36859" x1="378.212223292229" y1="349.0275789726621" x2="43.42897811472787" y2="133.87545148730447" stroke="black"></line><line id="SvgjsLine36860" x1="376.9365147299741" y1="350.57658620055605" x2="364.0650247483153" y2="80.37075848806768" stroke="black"></line><line id="SvgjsLine36861" x1="375.64534783430463" y1="352.11273195386383" x2="312.97164759890126" y2="401.39987459005977" stroke="black"></line><line id="SvgjsLine36862" x1="374.3388522644402" y1="353.63586197254335" x2="24.788256263343243" y2="250.99854636422538" stroke="black"></line><line id="SvgjsLine36863" x1="373.0171592189088" y1="355.1458233035951" x2="258.9252446087968" y2="25.498885029048324" stroke="black"></line><line id="SvgjsLine36864" x1="371.68040142237146" y1="356.64246431642175" x2="398.3933346818535" y2="319.1293984726145" stroke="black"></line><line id="SvgjsLine36865" x1="370.3287131122946" y1="358.1256347180546" x2="75.67128688770546" y2="358.1256347180547" stroke="black"></line><line id="SvgjsLine36866" x1="368.9622300254696" y1="359.5951855682464" x2="141.184506691867" y2="39.726130000082236" stroke="black"></line><line id="SvgjsLine36867" x1="367.58108938438187" y1="361.05096929442743" x2="422.29493947080243" y2="202.96568144702252" stroke="black"></line><line id="SvgjsLine36868" x1="366.1854298834312" y1="362.49283970652573" x2="178.2305945574786" y2="417.68135883409343" stroke="black"></line><line id="SvgjsLine36869" x1="364.77539167500413" y1="363.9206520116463" x2="52.14095895249304" y2="118.06221664394475" stroke="black"></line><line id="SvgjsLine36870" x1="363.35111635539954" y1="365.3342628286123" x2="376.29285550634586" y2="93.65372356676124" stroke="black"></line><line id="SvgjsLine36871" x1="361.91274695060963" y1="366.7335302023628" x2="296.49299329438617" y2="408.77625301318284" stroke="black"></line><line id="SvgjsLine36872" x1="360.46042790195736" y1="368.118313618208" x2="23.027067519520386" y2="233.0303739324654" stroke="black"></line><line id="SvgjsLine36873" x1="358.99430505159154" y1="369.48847401594" x2="276.5225419627019" y2="29.535236372412214" stroke="black"></line><line id="SvgjsLine36874" x1="357.5145256278412" y1="370.843873803797" x2="388.9773600228114" y2="334.5338273016594" stroke="black"></line><line id="SvgjsLine36875" x1="356.0212382304309" y1="372.1843768722806" x2="64.0546742517291" y2="344.30495032130693" stroke="black"></line><line id="SvgjsLine36876" x1="354.51459281555884" y1="373.5098486078234" x2="157.97893129176208" y2="33.10009734944791" stroke="black"></line><line id="SvgjsLine36877" x1="352.99474068083737" y1="374.8201559063076" x2="423.24434428304636" y2="220.9949808463702" stroke="black"></line><line id="SvgjsLine36878" x1="351.46183445010035" y1="376.11516718643054" x2="160.83314254328806" y2="412.85583609113974" stroke="black"></line><line id="SvgjsLine36879" x1="349.91602805807634" y1="377.39475240291904" x2="62.2417830501424" y2="103.09791382432836" stroke="black"></line><line id="SvgjsLine36880" x1="348.3574767349305" y1="378.6587830595877" x2="387.27463134183233" y2="107.984027325857" stroke="black"></line><line id="SvgjsLine36881" x1="346.78633699067626" y1="379.90713222224315" x2="279.4169445074964" y2="414.6384679663031" stroke="black"></line><line id="SvgjsLine36882" x1="345.20276659945864" y1="381.1396745314306" x2="22.891376950872086" y2="214.97660439814342" stroke="black"></line><line id="SvgjsLine36883" x1="343.6069245837107" y1="382.3562862150223" x2="293.6847764647904" y2="35.14011935282781" stroke="black"></line><line id="SvgjsLine36884" x1="341.9989711981842" y1="383.5568451006468" x2="378.212223292229" y2="349.0275789726621" stroke="black"></line><line id="SvgjsLine36885" x1="340.37906791385694" y1="384.74123062795775" x2="53.730063156919215" y2="329.4941633040767" stroke="black"></line><line id="SvgjsLine36886" x1="338.7473774017176" y1="385.9093238607404" x2="175.301885564259" y2="28.013619039082954" stroke="black"></line><line id="SvgjsLine36887" x1="337.1040635164308" y1="387.06100749885536" x2="422.5660447245856" y2="239.03651393083453" stroke="black"></line><line id="SvgjsLine36888" x1="335.4492912798822" y1="388.19616589001754" x2="143.94101948586552" y2="406.48298861597425" stroke="black"></line><line id="SvgjsLine36889" x1="333.7832268646073" y1="389.31468504141037" x2="73.64934494002668" y2="89.10418172537467" stroke="black"></line><line id="SvgjsLine36890" x1="332.1060375771042" y1="390.416452631133" x2="396.9210858907759" y2="123.2451845874803" stroke="black"></line><line id="SvgjsLine36891" x1="330.41789184103294" y1="391.5013580194791" x2="261.8823054543722" y2="418.9388679018307" stroke="black"></line><line id="SvgjsLine36892" x1="328.718959180302" y1="392.5692922600481" x2="24.382287530530675" y2="196.98398946944852" stroke="black"></line><line id="SvgjsLine36893" x1="327.00941020204476" y1="393.620148110685" x2="310.27244333049464" y2="42.26797416905731" stroke="black"></line><line id="SvgjsLine36894" x1="325.28941657948747" y1="394.6538200442502" x2="366.1854298834312" y2="362.49283970652573" stroke="black"></line><line id="SvgjsLine36895" x1="323.5591510347092" y1="395.67020425921584" x2="44.78137814389129" y2="313.8136644961165" stroke="black"></line><line id="SvgjsLine36896" x1="321.8187873212977" y1="396.6691986900903" x2="193.01255829951387" y2="24.508040970700165" stroke="black"></line><line id="SvgjsLine36897" x1="320.0685002069001" y1="397.6507030176672" x2="420.26555441509277" y2="256.9436284573226" stroke="black"></line><line id="SvgjsLine36898" x1="318.30846545567397" y1="398.6146186790994" x2="127.69153454432603" y2="398.6146186790994" stroke="black"></line><line id="SvgjsLine36899" x1="316.538859810636" y1="399.5608488777973" x2="86.27091721746592" y2="76.19476967159738" stroke="black"></line><line id="SvgjsLine36900" x1="314.75986097591397" y1="400.4892985931484" x2="405.1538070697423" y2="139.31314364637223" stroke="black"></line><line id="SvgjsLine36901" x1="312.97164759890126" y1="401.39987459005977" x2="244.03160804385604" y2="421.64249662764" stroke="black"></line><line id="SvgjsLine36902" x1="311.1743992523177" y1="402.29248542832056" x2="27.487680256206573" y2="179.19878375379412" stroke="black"></line><line id="SvgjsLine36903" x1="309.3682964161762" y1="403.16704147178456" x2="326.1507082005534" y2="50.860861404735914" stroke="black"></line><line id="SvgjsLine36904" x1="307.553520459659" y1="404.0234548973714" x2="352.99474068083737" y2="374.8201559063076" stroke="black"></line><line id="SvgjsLine36905" x1="305.730253622905" y1="404.86163970388566" x2="37.28135941292382" y2="297.3909142585963" stroke="black"></line><line id="SvgjsLine36906" x1="303.8986789987089" y1="405.68151172065336" x2="210.96698668288403" y2="22.611858554565316" stroke="black"></line><line id="SvgjsLine36907" x1="302.05898051413465" y1="406.48298861597414" x2="416.36157309934663" y2="274.57076481621925" stroke="black"></line><line id="SvgjsLine36908" x1="300.21134291204595" y1="407.2659899053894" x2="112.21677313539276" y2="389.3146850414104" stroke="black"></line><line id="SvgjsLine36909" x1="298.3559517325541" y1="408.0304369597641" x2="100.00390428389397" y2="64.47461299337223" stroke="black"></line><line id="SvgjsLine36910" x1="296.49299329438617" y1="408.77625301318284" x2="411.90587445561664" y2="156.05729463546217" stroke="black"></line><line id="SvgjsLine36911" x1="294.62265467617476" y1="409.5033631706591" x2="226.0099532939029" y2="422.7273774516575" stroke="black"></line><line id="SvgjsLine36912" x1="292.7451236976715" y1="410.21169441565564" x2="32.18231266060096" y2="161.76555591393506" stroke="black"></line><line id="SvgjsLine36913" x1="290.860588900886" y1="410.9011756174174" x2="341.19050315436823" y2="60.8489329941888" stroke="black"></line><line id="SvgjsLine36914" x1="288.9692395311529" y1="411.5717375381138" x2="338.7473774017176" y2="385.9093238607404" stroke="black"></line><line id="SvgjsLine36915" x1="287.0712655181271" y1="412.2233128397922" x2="31.29097154862211" y2="280.35940641096124" stroke="black"></line><line id="SvgjsLine36916" x1="285.166857456712" y1="412.85583609113974" x2="229.01922650976434" y2="22.3404850819623" stroke="black"></line><line id="SvgjsLine36917" x1="283.25620658791894" y1="413.4692437740539" x2="410.8858346446561" y2="291.7746392259169" stroke="black"></line><line id="SvgjsLine36918" x1="281.3395047796631" y1="414.0634742900213" x2="97.64252326506963" y2="378.6587830595878" stroke="black"></line><line id="SvgjsLine36919" x1="279.4169445074964" y1="414.6384679663031" x2="114.73667630451645" y2="54.03898005055606" stroke="black"></line><line id="SvgjsLine36920" x1="277.48871883527835" y1="415.1941670619274" x2="417.1224032543509" y2="173.34153120005496" stroke="black"></line><line id="SvgjsLine36921" x1="275.5550213957895" y1="415.7305157734878" x2="207.96383186475515" y2="422.1846918214029" stroke="black"></line><line id="SvgjsLine36922" x1="273.6160463712861" y1="416.24746024074693" x2="38.428023997097824" y2="144.8260135284399" stroke="black"></line><line id="SvgjsLine36923" x1="271.6719884740003" y1="416.74494855204546" x2="355.2695758503388" y2="72.15099998878787" stroke="black"></line><line id="SvgjsLine36924" x1="269.7230429265873" y1="417.2229307495146" x2="323.5591510347092" y2="395.67020425921584" stroke="black"></line><line id="SvgjsLine36925" x1="267.7694054425214" y1="417.68135883409343" x2="26.858907963745622" y2="262.85758311427475" stroke="black"></line><line id="SvgjsLine36926" x1="265.8112722064416" y1="418.12018677034837" x2="247.02253850633153" y2="23.696126436852808" stroke="black"></line><line id="SvgjsLine36927" x1="263.8488398544514" y1="418.53937049109646" x2="403.88284908923174" y2="308.4154084280707" stroke="black"></line><line id="SvgjsLine36928" x1="261.8823054543722" y1="418.9388679018307" x2="84.08725304939037" y2="366.7335302023628" stroke="black"></line><line id="SvgjsLine36929" x1="259.911866485954" y1="419.31863888494684" x2="130.34947660157854" y2="44.97269783495679" stroke="black"></line><line id="SvgjsLine36930" x1="257.93772082104414" y1="419.6786453037721" x2="420.7609904370055" y2="191.02535685071814" stroke="black"></line><line id="SvgjsLine36931" x1="255.960066703717" y1="420.01885100639515" x2="190.03993329628307" y2="420.01885100639515" stroke="black"></line><line id="SvgjsLine36932" x1="253.9791027303666" y1="420.339221829296" x2="46.174045432864574" y2="128.51785120874627" stroke="black"></line><line id="SvgjsLine36933" x1="251.99502782976344" y1="420.63972560077707" x2="368.273483265144" y2="84.67519250870726" stroke="black"></line><line id="SvgjsLine36934" x1="250.00804124307757" y1="420.9203321441939" x2="307.553520459659" y2="404.0234548973714" stroke="black"></line><line id="SvgjsLine36935" x1="248.01834250387117" y1="421.1810132809851" x2="24.021195090372515" y2="245.02770953151693" stroke="black"></line><line id="SvgjsLine36936" x1="246.02613141806157" y1="421.42174283350266" x2="264.83058111308316" y2="26.66776316514745" stroke="black"></line><line id="SvgjsLine36937" x1="244.03160804385604" y1="421.64249662764" x2="395.4095408382916" y2="324.3578064162461" stroke="black"></line><line id="SvgjsLine36938" x1="242.03497267166262" y1="421.84325249526023" x2="71.66114773555981" y2="353.63586197254335" stroke="black"></line><line id="SvgjsLine36939" x1="240.03642580397624" y1="422.0239902764217" x2="146.7153951074152" y2="37.349462446413014" stroke="black"></line><line id="SvgjsLine36940" x1="238.03616813524488" y1="422.1846918214029" x2="422.79205941662804" y2="208.96502700177842" stroke="black"></line><line id="SvgjsLine36941" x1="236.03440053171528" y1="422.32534099252484" x2="172.38395362871387" y2="416.24746024074693" stroke="black"></line><line id="SvgjsLine36942" x1="234.0313240112621" y1="422.4459236657716" x2="55.35741272792862" y2="112.97363133598408" stroke="black"></line><line id="SvgjsLine36943" x1="232.02713972320174" y1="422.5464277322087" x2="380.0965219542692" y2="98.31970651559955" stroke="black"></line><line id="SvgjsLine36944" x1="230.02204892809303" y1="422.62684309919916" x2="290.860588900886" y2="410.9011756174174" stroke="black"></line><line id="SvgjsLine36945" x1="228.01625297752608" y1="422.6871616914168" x2="22.80089953576865" y2="227.0147174122646" stroke="black"></line><line id="SvgjsLine36946" x1="226.0099532939029" y1="422.7273774516575" x2="282.2986000355171" y2="31.231240047341316" stroke="black"></line><line id="SvgjsLine36947" x1="224.0033513502107" y1="422.74748634144703" x2="385.5347859488536" y2="339.47224395795934" stroke="black"></line><line id="SvgjsLine36948" x1="221.99664864978936" y1="422.74748634144703" x2="60.46521405114646" y2="339.47224395795934" stroke="black"></line><line id="SvgjsLine36949" x1="219.99004670609716" y1="422.7273774516575" x2="163.7013999644828" y2="31.231240047341345" stroke="black"></line><line id="SvgjsLine36950" x1="217.98374702247395" y1="422.6871616914168" x2="423.1991004642314" y2="227.0147174122646" stroke="black"></line><line id="SvgjsLine36951" x1="215.97795107190692" y1="422.62684309919916" x2="155.13941109911406" y2="410.9011756174174" stroke="black"></line><line id="SvgjsLine36952" x1="213.9728602767983" y1="422.5464277322087" x2="65.90347804573085" y2="98.31970651559955" stroke="black"></line><line id="SvgjsLine36953" x1="211.96867598873797" y1="422.4459236657716" x2="390.64258727207135" y2="112.97363133598398" stroke="black"></line><line id="SvgjsLine36954" x1="209.96559946828484" y1="422.32534099252484" x2="273.6160463712861" y2="416.24746024074693" stroke="black"></line><line id="SvgjsLine36955" x1="207.96383186475515" y1="422.1846918214029" x2="23.207940583371993" y2="208.9650270017785" stroke="black"></line><line id="SvgjsLine36956" x1="205.96357419602373" y1="422.02399027642167" x2="299.2846048925848" y2="37.349462446413014" stroke="black"></line><line id="SvgjsLine36957" x1="203.96502732833744" y1="421.84325249526023" x2="374.3388522644402" y2="353.63586197254335" stroke="black"></line><line id="SvgjsLine36958" x1="201.9683919561439" y1="421.64249662764" x2="50.590459161708395" y2="324.35780641624604" stroke="black"></line><line id="SvgjsLine36959" x1="199.97386858193855" y1="421.42174283350266" x2="181.16941888691687" y2="26.66776316514745" stroke="black"></line><line id="SvgjsLine36960" x1="197.9816574961289" y1="421.1810132809851" x2="421.9788049096275" y2="245.02770953151688" stroke="black"></line><line id="SvgjsLine36961" x1="195.99195875692257" y1="420.92033214419394" x2="138.44647954034104" y2="404.0234548973714" stroke="black"></line><line id="SvgjsLine36962" x1="194.0049721702366" y1="420.63972560077707" x2="77.72651673485589" y2="84.67519250870728" stroke="black"></line><line id="SvgjsLine36963" x1="192.02089726963334" y1="420.339221829296" x2="399.82595456713545" y2="128.5178512087463" stroke="black"></line><line id="SvgjsLine36964" x1="190.03993329628307" y1="420.01885100639515" x2="255.960066703717" y2="420.01885100639515" stroke="black"></line><line id="SvgjsLine36965" x1="188.06227917895592" y1="419.6786453037721" x2="25.23900956299454" y2="191.0253568507181" stroke="black"></line><line id="SvgjsLine36966" x1="186.0881335140461" y1="419.31863888494684" x2="315.6505233984214" y2="44.97269783495676" stroke="black"></line><line id="SvgjsLine36967" x1="184.11769454562784" y1="418.9388679018307" x2="361.91274695060963" y2="366.7335302023628" stroke="black"></line><line id="SvgjsLine36968" x1="182.15116014554863" y1="418.53937049109646" x2="42.11715091076826" y2="308.41540842807075" stroke="black"></line><line id="SvgjsLine36969" x1="180.18872779355846" y1="418.12018677034837" x2="198.97746149366836" y2="23.696126436852808" stroke="black"></line><line id="SvgjsLine36970" x1="178.2305945574786" y1="417.68135883409343" x2="419.1410920362544" y2="262.8575831142746" stroke="black"></line><line id="SvgjsLine36971" x1="176.2769570734128" y1="417.2229307495147" x2="122.44084896529073" y2="395.6702042592158" stroke="black"></line><line id="SvgjsLine36972" x1="174.32801152599976" y1="416.74494855204546" x2="90.73042414966105" y2="72.15099998878799" stroke="black"></line><line id="SvgjsLine36973" x1="172.38395362871387" y1="416.24746024074693" x2="407.57197600290215" y2="144.82601352843983" stroke="black"></line><line id="SvgjsLine36974" x1="170.44497860421055" y1="415.7305157734878" x2="238.03616813524488" y2="422.1846918214029" stroke="black"></line><line id="SvgjsLine36975" x1="168.51128116472168" y1="415.1941670619274" x2="28.877596745649072" y2="173.34153120005504" stroke="black"></line><line id="SvgjsLine36976" x1="166.58305549250377" y1="414.6384679663031" x2="331.2633236954834" y2="54.03898005055598" stroke="black"></line><line id="SvgjsLine36977" x1="164.6604952203369" y1="414.0634742900213" x2="348.3574767349305" y2="378.6587830595877" stroke="black"></line><line id="SvgjsLine36978" x1="162.74379341208103" y1="413.4692437740539" x2="35.11416535534397" y2="291.7746392259171" stroke="black"></line><line id="SvgjsLine36979" x1="160.83314254328806" y1="412.85583609113974" x2="216.98077349023566" y2="22.340485081962328" stroke="black"></line><line id="SvgjsLine36980" x1="158.92873448187282" y1="412.2233128397922" x2="414.7090284513779" y2="280.35940641096124" stroke="black"></line><line id="SvgjsLine36981" x1="157.03076046884726" y1="411.5717375381138" x2="107.25262259828243" y2="385.9093238607404" stroke="black"></line><line id="SvgjsLine36982" x1="155.13941109911406" y1="410.9011756174174" x2="104.80949684563181" y2="60.84893299418874" stroke="black"></line><line id="SvgjsLine36983" x1="153.25487630232854" y1="410.2116944156557" x2="413.817687339399" y2="161.76555591393492" stroke="black"></line><line id="SvgjsLine36984" x1="151.37734532382524" y1="409.5033631706591" x2="219.99004670609716" y2="422.7273774516575" stroke="black"></line><line id="SvgjsLine36985" x1="149.5070067056138" y1="408.7762530131828" x2="34.0941255443833" y2="156.05729463546217" stroke="black"></line><line id="SvgjsLine36986" x1="147.64404826744604" y1="408.0304369597641" x2="345.99609571610597" y2="64.47461299337218" stroke="black"></line><line id="SvgjsLine36987" x1="145.7886570879541" y1="407.2659899053894" x2="333.7832268646073" y2="389.31468504141037" stroke="black"></line><line id="SvgjsLine36988" x1="143.94101948586552" y1="406.48298861597425" x2="29.638426900653343" y2="274.5707648162193" stroke="black"></line><line id="SvgjsLine36989" x1="142.10132100129118" y1="405.68151172065336" x2="235.0330133171158" y2="22.611858554565288" stroke="black"></line><line id="SvgjsLine36990" x1="140.26974637709495" y1="404.86163970388566" x2="408.71864058707615" y2="297.3909142585963" stroke="black"></line><line id="SvgjsLine36991" x1="138.44647954034104" y1="404.0234548973714" x2="93.00525931916269" y2="374.8201559063076" stroke="black"></line><line id="SvgjsLine36992" x1="136.63170358382388" y1="403.1670414717846" x2="119.84929179944656" y2="50.860861404735914" stroke="black"></line><line id="SvgjsLine36993" x1="134.8256007476824" y1="402.2924854283207" x2="418.51231974379346" y2="179.19878375379406" stroke="black"></line><line id="SvgjsLine36994" x1="133.02835240109877" y1="401.3998745900598" x2="201.9683919561439" y2="421.64249662764" stroke="black"></line><line id="SvgjsLine36995" x1="131.240139024086" y1="400.4892985931484" x2="40.84619293025773" y2="139.31314364637217" stroke="black"></line><line id="SvgjsLine36996" x1="129.46114018936404" y1="399.56084887779735" x2="359.7290827825341" y2="76.19476967159741" stroke="black"></line><line id="SvgjsLine36997" x1="127.69153454432603" y1="398.6146186790994" x2="318.30846545567397" y2="398.6146186790994" stroke="black"></line><line id="SvgjsLine36998" x1="125.93149979309995" y1="397.6507030176672" x2="25.734445584907263" y2="256.9436284573226" stroke="black"></line><line id="SvgjsLine36999" x1="124.18121267870238" y1="396.6691986900903" x2="252.98744170048604" y2="24.508040970700137" stroke="black"></line><line id="SvgjsLine37000" x1="122.44084896529073" y1="395.6702042592158" x2="401.2186218561087" y2="313.8136644961164" stroke="black"></line><line id="SvgjsLine37001" x1="120.7105834205126" y1="394.6538200442502" x2="79.81457011656877" y2="362.49283970652573" stroke="black"></line><line id="SvgjsLine37002" x1="118.99058979795527" y1="393.620148110685" x2="135.72755666950522" y2="42.26797416905734" stroke="black"></line><line id="SvgjsLine37003" x1="117.28104081969812" y1="392.56929226004814" x2="421.6177124694693" y2="196.98398946944855" stroke="black"></line><line id="SvgjsLine37004" x1="115.5821081589671" y1="391.5013580194791" x2="184.11769454562784" y2="418.9388679018307" stroke="black"></line><line id="SvgjsLine37005" x1="113.8939624228958" y1="390.416452631133" x2="49.078914109224115" y2="123.24518458748031" stroke="black"></line><line id="SvgjsLine37006" x1="112.21677313539276" y1="389.3146850414104" x2="372.3506550599733" y2="89.10418172537464" stroke="black"></line><line id="SvgjsLine37007" x1="110.5507087201178" y1="388.1961658900175" x2="302.05898051413465" y2="406.48298861597414" stroke="black"></line><line id="SvgjsLine37008" x1="108.89593648356929" y1="387.06100749885536" x2="23.433955275414377" y2="239.03651393083464" stroke="black"></line><line id="SvgjsLine37009" x1="107.25262259828243" y1="385.9093238607404" x2="270.698114435741" y2="28.013619039082954" stroke="black"></line><line id="SvgjsLine37010" x1="105.62093208614317" y1="384.74123062795775" x2="392.2699368430808" y2="329.4941633040766" stroke="black"></line><line id="SvgjsLine37011" x1="104.00102880181583" y1="383.5568451006468" x2="67.787776707771" y2="349.0275789726621" stroke="black"></line><line id="SvgjsLine37012" x1="102.39307541628929" y1="382.35628621502224" x2="152.31522353520958" y2="35.14011935282781" stroke="black"></line><line id="SvgjsLine37013" x1="100.79723340054142" y1="381.1396745314306" x2="423.1086230491279" y2="214.97660439814337" stroke="black"></line><line id="SvgjsLine37014" x1="99.2136630093238" y1="379.90713222224315" x2="166.58305549250377" y2="414.6384679663031" stroke="black"></line><line id="SvgjsLine37015" x1="97.64252326506963" y1="378.6587830595878" x2="58.725368658167554" y2="107.98402732585708" stroke="black"></line><line id="SvgjsLine37016" x1="96.08397194192369" y1="377.39475240291904" x2="383.7582169498576" y2="103.09791382432839" stroke="black"></line><line id="SvgjsLine37017" x1="94.53816554989965" y1="376.11516718643054" x2="285.166857456712" y2="412.85583609113974" stroke="black"></line><line id="SvgjsLine37018" x1="93.00525931916269" y1="374.8201559063076" x2="22.75565571695364" y2="220.9949808463702" stroke="black"></line><line id="SvgjsLine37019" x1="91.48540718444119" y1="373.50984860782347" x2="288.02106870823786" y2="33.10009734944791" stroke="black"></line><line id="SvgjsLine37020" x1="89.97876176956913" y1="372.18437687228067" x2="381.94532574827093" y2="344.30495032130693" stroke="black"></line><line id="SvgjsLine37021" x1="88.48547437215888" y1="370.84387380379707" x2="57.02263997718862" y2="334.53382730165947" stroke="black"></line><line id="SvgjsLine37022" x1="87.00569494840843" y1="369.4884740159399" x2="169.47745803729802" y2="29.53523637241227" stroke="black"></line><line id="SvgjsLine37023" x1="85.53957209804267" y1="368.11831361820805" x2="422.9729324804796" y2="233.03037393246532" stroke="black"></line><line id="SvgjsLine37024" x1="84.08725304939037" y1="366.7335302023628" x2="149.5070067056138" y2="408.7762530131828" stroke="black"></line><line id="SvgjsLine37025" x1="82.64888364460055" y1="365.3342628286124" x2="69.70714449365414" y2="93.65372356676127" stroke="black"></line><line id="SvgjsLine37026" x1="81.2246083249959" y1="363.9206520116463" x2="393.85904104750693" y2="118.06221664394471" stroke="black"></line><line id="SvgjsLine37027" x1="79.81457011656877" y1="362.49283970652573" x2="267.7694054425214" y2="417.68135883409343" stroke="black"></line><line id="SvgjsLine37028" x1="78.41891061561819" y1="361.05096929442755" x2="23.705060529197567" y2="202.96568144702263" stroke="black"></line><line id="SvgjsLine37029" x1="77.03776997453039" y1="359.5951855682464" x2="304.8154933081329" y2="39.72613000008218" stroke="black"></line><line id="SvgjsLine37030" x1="75.67128688770546" y1="358.1256347180547" x2="370.3287131122946" y2="358.1256347180546" stroke="black"></line><line id="SvgjsLine37031" x1="74.3195985776286" y1="356.64246431642187" x2="47.6066653181465" y2="319.1293984726146" stroke="black"></line><line id="SvgjsLine37032" x1="72.98284078109131" y1="355.1458233035952" x2="187.07475539120318" y2="25.498885029048353" stroke="black"></line><line id="SvgjsLine37033" x1="71.66114773555981" y1="353.63586197254335" x2="421.2117437366568" y2="250.99854636422532" stroke="black"></line><line id="SvgjsLine37034" x1="70.35465216569528" y1="352.1127319538638" x2="133.02835240109877" y2="401.3998745900598" stroke="black"></line><line id="SvgjsLine37035" x1="69.06348527002592" y1="350.5765862005561" x2="81.9349752516847" y2="80.37075848806762" stroke="black"></line><line id="SvgjsLine37036" x1="67.787776707771" y1="349.0275789726621" x2="402.57102188527205" y2="133.87545148730436" stroke="black"></line><line id="SvgjsLine37037" x1="66.52765458582167" y1="347.46586582177576" x2="250.00804124307757" y2="420.9203321441939" stroke="black"></line><line id="SvgjsLine37038" x1="65.28324544587531" y1="345.8916035754215" x2="26.274452388753218" y2="185.0951685332621" stroke="black"></line><line id="SvgjsLine37039" x1="64.0546742517291" y1="344.30495032130693" x2="320.9448732271116" y2="47.8378566817496" stroke="black"></line><line id="SvgjsLine37040" x1="62.842064376730804" y1="342.7060653914467" x2="357.5145256278412" y2="370.843873803797" stroke="black"></line><line id="SvgjsLine37041" x1="61.64553759138917" y1="341.0951093461623" x2="39.616391337324785" y2="302.9395087867572" stroke="black"></line><line id="SvgjsLine37042" x1="60.46521405114646" y1="339.47224395795934" x2="204.9640743643842" y2="23.063875171857234" stroke="black"></line><line id="SvgjsLine37043" x1="59.30121228431187" y1="337.8376321952817" x2="417.83937280059627" y2="268.73506576907033" stroke="black"></line><line id="SvgjsLine37044" x1="58.15364918015919" y1="336.19143820614624" x2="117.28104081969812" y2="392.56929226004814" stroke="black"></line><line id="SvgjsLine37045" x1="57.02263997718862" y1="334.53382730165947" x2="95.3094658974563" y2="68.24310387990062" stroke="black"></line><line id="SvgjsLine37046" x1="55.90829825155433" y1="332.86496593941615" x2="409.8233433342985" y2="150.40907903629736" stroke="black"></line><line id="SvgjsLine37047" x1="54.8107359056597" y1="331.18502170678465" x2="232.02713972320174" y2="422.5464277322087" stroke="black"></line><line id="SvgjsLine37048" x1="53.730063156919215" y1="329.4941633040767" x2="30.44294576012723" y2="167.52870419516478" stroke="black"></line><line id="SvgjsLine37049" x1="52.66638852669115" y1="327.7925605276074" x2="336.2780993330541" y2="57.36934048611468" stroke="black"></line><line id="SvgjsLine37050" x1="51.619818829379795" y1="326.0803842526441" x2="343.6069245837107" y2="382.3562862150223" stroke="black"></line><line id="SvgjsLine37051" x1="50.590459161708395" y1="324.35780641624604" x2="33.116767703730346" y2="286.09575923535226" stroke="black"></line><line id="SvgjsLine37052" x1="49.57841289216623" y1="322.6250000000001" x2="223" y2="22.25" stroke="black"></line><line id="SvgjsLine37053" x1="48.583781650627515" y1="320.8821390126481" x2="412.8832322962696" y2="286.09575923535226" stroke="black"></line><line id="SvgjsLine37054" x1="47.6066653181465" y1="319.1293984726146" x2="102.39307541628929" y2="382.35628621502224" stroke="black"></line><line id="SvgjsLine37055" x1="46.64716201692693" y1="317.3669543904303" x2="109.72190066694577" y2="57.36934048611474" stroke="black"></line><line id="SvgjsLine37056" x1="45.70536810046849" y1="315.59498375105727" x2="415.5570542398728" y2="167.52870419516483" stroke="black"></line><line id="SvgjsLine37057" x1="44.78137814389129" y1="313.8136644961165" x2="213.9728602767983" y2="422.5464277322087" stroke="black"></line><line id="SvgjsLine37058" x1="43.8752849344385" y1="312.02317550601856" x2="36.17665666570147" y2="150.40907903629738" stroke="black"></line><line id="SvgjsLine37059" x1="42.98717946215871" y1="310.2236965820008" x2="350.69053410254367" y2="68.24310387990062" stroke="black"></line><line id="SvgjsLine37060" x1="42.11715091076826" y1="308.41540842807075" x2="328.718959180302" y2="392.5692922600481" stroke="black"></line><line id="SvgjsLine37061" x1="41.26528664869605" y1="306.59849263286105" x2="28.160627199403734" y2="268.7350657690705" stroke="black"></line><line id="SvgjsLine37062" x1="40.43167222030968" y1="304.77313165139367" x2="241.03592563561583" y2="23.063875171857234" stroke="black"></line><line id="SvgjsLine37063" x1="39.616391337324785" y1="302.9395087867572" x2="406.3836086626753" y2="302.9395087867571" stroke="black"></line><line id="SvgjsLine37064" x1="38.81952587039922" y1="301.09780817170065" x2="88.48547437215888" y2="370.84387380379707" stroke="black"></line><line id="SvgjsLine37065" x1="38.041155840911216" y1="299.248214750142" x2="125.05512677288836" y2="47.83785668174963" stroke="black"></line><line id="SvgjsLine37066" x1="37.28135941292382" y1="297.3909142585963" x2="419.7255476112468" y2="185.09516853326207" stroke="black"></line><line id="SvgjsLine37067" x1="36.54021288533556" y1="295.52609320752424" x2="195.99195875692257" y2="420.92033214419394" stroke="black"></line><line id="SvgjsLine37068" x1="35.81779068421832" y1="293.653938862602" x2="43.42897811472787" y2="133.87545148730447" stroke="black"></line><line id="SvgjsLine37069" x1="35.11416535534397" y1="291.7746392259171" x2="364.0650247483153" y2="80.37075848806768" stroke="black"></line><line id="SvgjsLine37070" x1="34.42940755689861" y1="289.88838301708796" x2="312.97164759890126" y2="401.39987459005977" stroke="black"></line><line id="SvgjsLine37071" x1="33.763586052387666" y1="287.99535965431375" x2="24.788256263343243" y2="250.99854636422538" stroke="black"></line><line id="SvgjsLine37072" x1="33.116767703730346" y1="286.09575923535226" x2="258.9252446087968" y2="25.498885029048324" stroke="black"></line><line id="SvgjsLine37073" x1="32.48901746454544" y1="284.1897725184307" x2="398.3933346818535" y2="319.1293984726145" stroke="black"></line><line id="SvgjsLine37074" x1="31.88039837362868" y1="282.2775909030894" x2="75.67128688770546" y2="358.1256347180547" stroke="black"></line><line id="SvgjsLine37075" x1="31.29097154862211" y1="280.35940641096124" x2="141.184506691867" y2="39.726130000082236" stroke="black"></line><line id="SvgjsLine37076" x1="30.72079617987717" y1="278.43541166648953" x2="422.29493947080243" y2="202.96568144702252" stroke="black"></line><line id="SvgjsLine37077" x1="30.16992952451028" y1="276.5057998775842" x2="178.2305945574786" y2="417.68135883409343" stroke="black"></line><line id="SvgjsLine37078" x1="29.638426900653343" y1="274.5707648162193" x2="52.14095895249304" y2="118.06221664394475" stroke="black"></line><line id="SvgjsLine37079" x1="29.126341681898623" y1="272.63050079897545" x2="376.29285550634586" y2="93.65372356676124" stroke="black"></line><line id="SvgjsLine37080" x1="28.63372529193893" y1="270.68520266752586" x2="296.49299329438617" y2="408.77625301318284" stroke="black"></line><line id="SvgjsLine37081" x1="28.160627199403734" y1="268.7350657690705" x2="23.027067519520386" y2="233.0303739324654" stroke="black"></line><line id="SvgjsLine37082" x1="27.707094912891336" y1="266.78028593671877" x2="276.5225419627019" y2="29.535236372412214" stroke="black"></line><line id="SvgjsLine37083" x1="27.27317397619825" y1="264.82105946982483" x2="388.9773600228114" y2="334.5338273016594" stroke="black"></line><line id="SvgjsLine37084" x1="26.858907963745622" y1="262.85758311427475" x2="64.0546742517291" y2="344.30495032130693" stroke="black"></line><line id="SvgjsLine37085" x1="26.464338476203352" y1="260.8900540427287" x2="157.97893129176208" y2="33.10009734944791" stroke="black"></line><line id="SvgjsLine37086" x1="26.089505136312653" y1="258.9186698348218" x2="423.24434428304636" y2="220.9949808463702" stroke="black"></line><line id="SvgjsLine37087" x1="25.734445584907263" y1="256.9436284573226" x2="160.83314254328806" y2="412.85583609113974" stroke="black"></line><line id="SvgjsLine37088" x1="25.399195477133247" y1="254.96512824425315" x2="62.2417830501424" y2="103.09791382432836" stroke="black"></line><line id="SvgjsLine37089" x1="25.083788478868797" y1="252.98336787697275" x2="387.27463134183233" y2="107.984027325857" stroke="black"></line><line id="SvgjsLine37090" x1="24.788256263343243" y1="250.99854636422538" x2="279.4169445074964" y2="414.6384679663031" stroke="black"></line><line id="SvgjsLine37091" x1="24.512628507956578" y1="249.0108630221565" x2="22.891376950872086" y2="214.97660439814342" stroke="black"></line><line id="SvgjsLine37092" x1="24.256932891299186" y1="247.02051745429637" x2="293.6847764647904" y2="35.14011935282781" stroke="black"></line><line id="SvgjsLine37093" x1="24.021195090372515" y1="245.02770953151693" x2="378.212223292229" y2="349.0275789726621" stroke="black"></line><line id="SvgjsLine37094" x1="23.805438778010227" y1="243.0326393719601" x2="53.730063156919215" y2="329.4941633040767" stroke="black"></line><line id="SvgjsLine37095" x1="23.609685620501352" y1="241.03550732094206" x2="175.301885564259" y2="28.013619039082954" stroke="black"></line><line id="SvgjsLine37096" x1="23.433955275414377" y1="239.03651393083464" x2="422.5660447245856" y2="239.03651393083453" stroke="black"></line><line id="SvgjsLine37097" x1="23.27826538962313" y1="237.03585994092518" x2="143.94101948586552" y2="406.48298861597425" stroke="black"></line><line id="SvgjsLine37098" x1="23.142631597534944" y1="235.03374625725934" x2="73.64934494002668" y2="89.10418172537467" stroke="black"></line><line id="SvgjsLine37099" x1="23.027067519520386" y1="233.0303739324654" x2="396.9210858907759" y2="123.2451845874803" stroke="black"></line><line id="SvgjsLine37100" x1="22.93158476054569" y1="231.0259441455642" x2="261.8823054543722" y2="418.9388679018307" stroke="black"></line><line id="SvgjsLine37101" x1="22.856192909007177" y1="229.02065818176754" x2="24.382287530530675" y2="196.98398946944852" stroke="black"></line><line id="SvgjsLine37102" x1="22.80089953576865" y1="227.0147174122646" x2="310.27244333049464" y2="42.26797416905731" stroke="black"></line><line id="SvgjsLine37103" x1="22.765710193400906" y1="225.00832327400013" x2="366.1854298834312" y2="362.49283970652573" stroke="black"></line><line id="SvgjsLine37104" x1="22.750628415624277" y1="223.00167724944654" x2="44.78137814389129" y2="313.8136644961165" stroke="black"></line><line id="SvgjsLine37105" x1="22.75565571695364" y1="220.9949808463702" x2="193.01255829951387" y2="24.508040970700165" stroke="black"></line><line id="SvgjsLine37106" x1="22.78079159254645" y1="218.98843557759707" x2="420.26555441509277" y2="256.9436284573226" stroke="black"></line><line id="SvgjsLine37107" x1="22.826033518253467" y1="216.98224294077565" x2="127.69153454432603" y2="398.6146186790994" stroke="black"></line><line id="SvgjsLine37108" x1="22.891376950872086" y1="214.97660439814342" x2="86.27091721746592" y2="76.19476967159738" stroke="black"></line><line id="SvgjsLine37109" x1="22.97681532860267" y1="212.97172135629557" x2="405.1538070697423" y2="139.31314364637223" stroke="black"></line><line id="SvgjsLine37110" x1="23.082340071707392" y1="210.96779514595974" x2="244.03160804385604" y2="421.64249662764" stroke="black"></line><line id="SvgjsLine37111" x1="23.207940583371993" y1="208.9650270017785" x2="27.487680256206573" y2="179.19878375379412" stroke="black"></line><line id="SvgjsLine37112" x1="23.353604250769735" y1="206.96361804210073" x2="326.1507082005534" y2="50.860861404735914" stroke="black"></line><line id="SvgjsLine37113" x1="23.519316446328077" y1="204.9637692487864" x2="352.99474068083737" y2="374.8201559063076" stroke="black"></line><line id="SvgjsLine37114" x1="23.705060529197567" y1="202.96568144702263" x2="37.28135941292382" y2="297.3909142585963" stroke="black"></line><line id="SvgjsLine37115" x1="23.910817846922868" y1="200.96955528515792" x2="210.96698668288403" y2="22.611858554565316" stroke="black"></line><line id="SvgjsLine37116" x1="24.136567737315886" y1="198.97559121455237" x2="416.36157309934663" y2="274.57076481621925" stroke="black"></line><line id="SvgjsLine37117" x1="24.382287530530675" y1="196.98398946944852" x2="112.21677313539276" y2="389.3146850414104" stroke="black"></line><line id="SvgjsLine37118" x1="24.647952551339955" y1="194.99495004686383" x2="100.00390428389397" y2="64.47461299337223" stroke="black"></line><line id="SvgjsLine37119" x1="24.933536121613002" y1="193.00867268650643" x2="411.90587445561664" y2="156.05729463546217" stroke="black"></line><line id="SvgjsLine37120" x1="25.23900956299454" y1="191.0253568507181" x2="226.0099532939029" y2="422.7273774516575" stroke="black"></line><line id="SvgjsLine37121" x1="25.564342199784875" y1="189.0452017044438" x2="32.18231266060096" y2="161.76555591393506" stroke="black"></line><line id="SvgjsLine37122" x1="25.909501362020166" y1="187.06840609523093" x2="341.19050315436823" y2="60.8489329941888" stroke="black"></line><line id="SvgjsLine37123" x1="26.274452388753218" y1="185.0951685332621" x2="338.7473774017176" y2="385.9093238607404" stroke="black"></line><line id="SvgjsLine37124" x1="26.65915863153404" y1="183.1256871714199" x2="31.29097154862211" y2="280.35940641096124" stroke="black"></line><line id="SvgjsLine37125" x1="27.06358145809031" y1="181.16015978538874" x2="229.01922650976434" y2="22.3404850819623" stroke="black"></line><line id="SvgjsLine37126" x1="27.487680256206573" y1="179.19878375379412" x2="410.8858346446561" y2="291.7746392259169" stroke="black"></line><line id="SvgjsLine37127" x1="27.931412437802805" y1="177.24175603838125" x2="97.64252326506963" y2="378.6587830595878" stroke="black"></line><line id="SvgjsLine37128" x1="28.394733443210725" y1="175.28927316423733" x2="114.73667630451645" y2="54.03898005055606" stroke="black"></line><line id="SvgjsLine37129" x1="28.877596745649072" y1="173.34153120005504" x2="417.1224032543509" y2="173.34153120005496" stroke="black"></line><line id="SvgjsLine37130" x1="29.37995385589514" y1="171.39872573844457" x2="207.96383186475515" y2="422.1846918214029" stroke="black"></line><line id="SvgjsLine37131" x1="29.901754327154634" y1="169.46105187629138" x2="38.428023997097824" y2="144.8260135284399" stroke="black"></line><line id="SvgjsLine37132" x1="30.44294576012723" y1="167.52870419516478" x2="355.2695758503388" y2="72.15099998878787" stroke="black"></line><line id="SvgjsLine37133" x1="31.00347380826861" y1="165.60187674177817" x2="323.5591510347092" y2="395.67020425921584" stroke="black"></line><line id="SvgjsLine37134" x1="31.583282183248144" y1="163.6807630085021" x2="26.858907963745622" y2="262.85758311427475" stroke="black"></line><line id="SvgjsLine37135" x1="32.18231266060096" y1="161.76555591393506" x2="247.02253850633153" y2="23.696126436852808" stroke="black"></line><line id="SvgjsLine37136" x1="32.80050508557528" y1="159.85644778352898" x2="403.88284908923174" y2="308.4154084280707" stroke="black"></line><line id="SvgjsLine37137" x1="33.437797379172935" y1="157.95363033027726" x2="84.08725304939037" y2="366.7335302023628" stroke="black"></line><line id="SvgjsLine37138" x1="34.0941255443833" y1="156.05729463546217" x2="130.34947660157854" y2="44.97269783495679" stroke="black"></line><line id="SvgjsLine37139" x1="34.76942367261012" y1="154.16763112946654" x2="420.7609904370055" y2="191.02535685071814" stroke="black"></line><line id="SvgjsLine37140" x1="35.46362395028976" y1="152.284829572651" x2="190.03993329628307" y2="420.01885100639515" stroke="black"></line><line id="SvgjsLine37141" x1="36.17665666570147" y1="150.40907903629738" x2="46.174045432864574" y2="128.51785120874627" stroke="black"></line><line id="SvgjsLine37142" x1="36.908450215967434" y1="148.54056788362334" x2="368.273483265144" y2="84.67519250870726" stroke="black"></line><line id="SvgjsLine37143" x1="37.658931114243245" y1="146.6794837508661" x2="307.553520459659" y2="404.0234548973714" stroke="black"></line><line id="SvgjsLine37144" x1="38.428023997097824" y1="144.8260135284399" x2="24.021195090372515" y2="245.02770953151693" stroke="black"></line><line id="SvgjsLine37145" x1="39.215651632080835" y1="142.98034334216896" x2="264.83058111308316" y2="26.66776316514745" stroke="black"></line><line id="SvgjsLine37146" x1="40.02173492547885" y1="141.14265853459642" x2="395.4095408382916" y2="324.3578064162461" stroke="black"></line><line id="SvgjsLine37147" x1="40.84619293025773" y1="139.31314364637217" x2="71.66114773555981" y2="353.63586197254335" stroke="black"></line><line id="SvgjsLine37148" x1="41.68894285419137" y1="137.49198239772136" x2="146.7153951074152" y2="37.349462446413014" stroke="black"></line><line id="SvgjsLine37149" x1="42.54990006817593" y1="135.67935766999466" x2="422.79205941662804" y2="208.96502700177842" stroke="black"></line><line id="SvgjsLine37150" x1="43.42897811472787" y1="133.87545148730447" x2="172.38395362871387" y2="416.24746024074693" stroke="black"></line><line id="SvgjsLine37151" x1="44.32608871666656" y1="132.08044499824447" x2="55.35741272792862" y2="112.97363133598408" stroke="black"></line><line id="SvgjsLine37152" x1="45.241141785978556" y1="130.29451845770006" x2="380.0965219542692" y2="98.31970651559955" stroke="black"></line><line id="SvgjsLine37153" x1="46.174045432864574" y1="128.51785120874627" x2="290.860588900886" y2="410.9011756174174" stroke="black"></line><line id="SvgjsLine37154" x1="47.12470597496707" y1="126.7506216646384" x2="22.80089953576865" y2="227.0147174122646" stroke="black"></line><line id="SvgjsLine37155" x1="48.093027946777624" y1="124.99300729089585" x2="282.2986000355171" y2="31.231240047341316" stroke="black"></line><line id="SvgjsLine37156" x1="49.078914109224115" y1="123.24518458748031" x2="385.5347859488536" y2="339.47224395795934" stroke="black"></line><line id="SvgjsLine37157" x1="50.082265459434694" y1="121.50732907107275" x2="60.46521405114646" y2="339.47224395795934" stroke="black"></line><line id="SvgjsLine37158" x1="51.10298124068052" y1="119.77961525744678" x2="163.7013999644828" y2="31.231240047341345" stroke="black"></line><line id="SvgjsLine37159" x1="52.14095895249304" y1="118.06221664394475" x2="423.1991004642314" y2="227.0147174122646" stroke="black"></line><line id="SvgjsLine37160" x1="53.196094360957574" y1="116.35530569205459" x2="155.13941109911406" y2="410.9011756174174" stroke="black"></line><line id="SvgjsLine37161" x1="54.26828150918038" y1="114.65905381009124" x2="65.90347804573085" y2="98.31970651559955" stroke="black"></line><line id="SvgjsLine37162" x1="55.35741272792862" y1="112.97363133598408" x2="390.64258727207135" y2="112.97363133598398" stroke="black"></line><line id="SvgjsLine37163" x1="56.46337864644315" y1="111.29920752017084" x2="273.6160463712861" y2="416.24746024074693" stroke="black"></line><line id="SvgjsLine37164" x1="57.58606820342081" y1="109.6359505086024" x2="23.207940583371993" y2="208.9650270017785" stroke="black"></line><line id="SvgjsLine37165" x1="58.725368658167554" y1="107.98402732585708" x2="299.2846048925848" y2="37.349462446413014" stroke="black"></line><line id="SvgjsLine37166" x1="59.88116560192026" y1="106.34360385836762" x2="374.3388522644402" y2="353.63586197254335" stroke="black"></line><line id="SvgjsLine37167" x1="61.05334296933478" y1="104.71484483776366" x2="50.590459161708395" y2="324.35780641624604" stroke="black"></line><line id="SvgjsLine37168" x1="62.2417830501424" y1="103.09791382432836" x2="181.16941888691687" y2="26.66776316514745" stroke="black"></line><line id="SvgjsLine37169" x1="63.44636650096905" y1="101.49297319057494" x2="421.9788049096275" y2="245.02770953151688" stroke="black"></line><line id="SvgjsLine37170" x1="64.66697235732076" y1="99.90018410494011" x2="138.44647954034104" y2="404.0234548973714" stroke="black"></line><line id="SvgjsLine37171" x1="65.90347804573085" y1="98.31970651559955" x2="77.72651673485589" y2="84.67519250870728" stroke="black"></line><line id="SvgjsLine37172" x1="67.15575939606805" y1="96.7516991344067" x2="399.82595456713545" y2="128.5178512087463" stroke="black"></line><line id="SvgjsLine37173" x1="68.42369065400669" y1="95.19631942095397" x2="255.960066703717" y2="420.01885100639515" stroke="black"></line><line id="SvgjsLine37174" x1="69.70714449365414" y1="93.65372356676127" x2="25.23900956299454" y2="191.0253568507181" stroke="black"></line><line id="SvgjsLine37175" x1="71.0059920303373" y1="92.12406647959097" x2="315.6505233984214" y2="44.97269783495676" stroke="black"></line><line id="SvgjsLine37176" x1="72.3201028335452" y1="90.60750176789202" x2="361.91274695060963" y2="366.7335302023628" stroke="black"></line><line id="SvgjsLine37177" x1="73.64934494002668" y1="89.10418172537467" x2="42.11715091076826" y2="308.41540842807075" stroke="black"></line><line id="SvgjsLine37178" x1="74.99358486704259" y1="87.61425731571674" x2="198.97746149366836" y2="23.696126436852808" stroke="black"></line><line id="SvgjsLine37179" x1="76.35268762576945" y1="86.13787815740454" x2="419.1410920362544" y2="262.8575831142746" stroke="black"></line><line id="SvgjsLine37180" x1="77.72651673485589" y1="84.67519250870728" x2="122.44084896529073" y2="395.6702042592158" stroke="black"></line><line id="SvgjsLine37181" x1="79.11493423412742" y1="83.22634725278971" x2="90.73042414966105" y2="72.15099998878799" stroke="black"></line><line id="SvgjsLine37182" x1="80.51780069844057" y1="81.79148788296177" x2="407.57197600290215" y2="144.82601352843983" stroke="black"></line><line id="SvgjsLine37183" x1="81.9349752516847" y1="80.37075848806762" x2="238.03616813524488" y2="422.1846918214029" stroke="black"></line><line id="SvgjsLine37184" x1="83.36631558092739" y1="78.9643017380177" x2="28.877596745649072" y2="173.34153120005504" stroke="black"></line><line id="SvgjsLine37185" x1="84.81167795070706" y1="77.57225886945972" x2="331.2633236954834" y2="54.03898005055598" stroke="black"></line><line id="SvgjsLine37186" x1="86.27091721746592" y1="76.19476967159738" x2="348.3574767349305" y2="378.6587830595877" stroke="black"></line><line id="SvgjsLine37187" x1="87.74388684412543" y1="74.83197247215207" x2="35.11416535534397" y2="291.7746392259171" stroke="black"></line><line id="SvgjsLine37188" x1="89.2304389148023" y1="73.4840041234715" x2="216.98077349023566" y2="22.340485081962328" stroke="black"></line><line id="SvgjsLine37189" x1="90.73042414966105" y1="72.15099998878799" x2="414.7090284513779" y2="280.35940641096124" stroke="black"></line><line id="SvgjsLine37190" x1="92.24369191990593" y1="70.83309392862424" x2="107.25262259828243" y2="385.9093238607404" stroke="black"></line><line id="SvgjsLine37191" x1="93.77009026290622" y1="69.53041828735167" x2="104.80949684563181" y2="60.84893299418874" stroke="black"></line><line id="SvgjsLine37192" x1="95.3094658974563" y1="68.24310387990062" x2="413.817687339399" y2="161.76555591393492" stroke="black"></line><line id="SvgjsLine37193" x1="96.86166423916934" y1="66.97127997862276" x2="219.99004670609716" y2="422.7273774516575" stroke="black"></line><line id="SvgjsLine37194" x1="98.42652941599907" y1="65.71507430031082" x2="34.0941255443833" y2="156.05729463546217" stroke="black"></line><line id="SvgjsLine37195" x1="100.00390428389397" y1="64.47461299337223" x2="345.99609571610597" y2="64.47461299337218" stroke="black"></line><line id="SvgjsLine37196" x1="101.59363044257654" y1="63.25002062516202" x2="333.7832268646073" y2="389.31468504141037" stroke="black"></line><line id="SvgjsLine37197" x1="103.19554825145035" y1="62.041420169473525" x2="29.638426900653343" y2="274.5707648162193" stroke="black"></line><line id="SvgjsLine37198" x1="104.80949684563181" y1="60.84893299418874" x2="235.0330133171158" y2="22.611858554565288" stroke="black"></line><line id="SvgjsLine37199" x1="106.43531415210258" y1="59.672678849091824" x2="408.71864058707615" y2="297.3909142585963" stroke="black"></line><line id="SvgjsLine37200" x1="108.07283690598709" y1="58.51277585384233" x2="93.00525931916269" y2="374.8201559063076" stroke="black"></line><line id="SvgjsLine37201" x1="109.72190066694577" y1="57.36934048611474" x2="119.84929179944656" y2="50.860861404735914" stroke="black"></line><line id="SvgjsLine37202" x1="111.38233983568965" y1="56.24248756990099" x2="418.51231974379346" y2="179.19878375379406" stroke="black"></line><line id="SvgjsLine37203" x1="113.05398767060866" y1="55.13233026398041" x2="201.9683919561439" y2="421.64249662764" stroke="black"></line><line id="SvgjsLine37204" x1="114.73667630451645" y1="54.03898005055606" x2="40.84619293025773" y2="139.31314364637217" stroke="black"></line><line id="SvgjsLine37205" x1="116.43023676150801" y1="52.96254672405934" x2="359.7290827825341" y2="76.19476967159741" stroke="black"></line><line id="SvgjsLine37206" x1="118.13449897392742" y1="51.90313838012503" x2="318.30846545567397" y2="398.6146186790994" stroke="black"></line><line id="SvgjsLine37207" x1="119.84929179944656" y1="50.860861404735914" x2="25.734445584907263" y2="256.9436284573226" stroke="black"></line><line id="SvgjsLine37208" x1="121.57444303825126" y1="49.835820463539505" x2="252.98744170048604" y2="24.508040970700137" stroke="black"></line><line id="SvgjsLine37209" x1="123.30977945033342" y1="48.828118491337705" x2="401.2186218561087" y2="313.8136644961164" stroke="black"></line><line id="SvgjsLine37210" x1="125.05512677288836" y1="47.83785668174963" x2="79.81457011656877" y2="362.49283970652573" stroke="black"></line><line id="SvgjsLine37211" x1="126.81030973781328" y1="46.86513447705042" x2="135.72755666950522" y2="42.26797416905734" stroke="black"></line><line id="SvgjsLine37212" x1="128.57515208930903" y1="45.910049558184426" x2="421.6177124694693" y2="196.98398946944855" stroke="black"></line><line id="SvgjsLine37213" x1="130.34947660157854" y1="44.97269783495679" x2="184.11769454562784" y2="418.9388679018307" stroke="black"></line><line id="SvgjsLine37214" x1="132.13310509662455" y1="44.05317343640172" x2="49.078914109224115" y2="123.24518458748031" stroke="black"></line><line id="SvgjsLine37215" x1="133.92585846214223" y1="43.151568701330206" x2="372.3506550599733" y2="89.10418172537464" stroke="black"></line><line id="SvgjsLine37216" x1="135.72755666950522" y1="42.26797416905734" x2="302.05898051413465" y2="406.48298861597414" stroke="black"></line><line id="SvgjsLine37217" x1="137.5380187918451" y1="41.40247857031014" x2="23.433955275414377" y2="239.03651393083464" stroke="black"></line><line id="SvgjsLine37218" x1="139.35706302221897" y1="40.55516881831747" x2="270.698114435741" y2="28.013619039082954" stroke="black"></line><line id="SvgjsLine37219" x1="141.184506691867" y1="39.726130000082236" x2="392.2699368430808" y2="329.4941633040766" stroke="black"></line><line id="SvgjsLine37220" x1="143.02016628855662" y1="38.915445367836384" x2="67.787776707771" y2="349.0275789726621" stroke="black"></line><line id="SvgjsLine37221" x1="144.86385747500987" y1="38.12319633068148" x2="152.31522353520958" y2="35.14011935282781" stroke="black"></line><line id="SvgjsLine37222" x1="146.7153951074152" y1="37.349462446413014" x2="423.1086230491279" y2="214.97660439814337" stroke="black"></line><line id="SvgjsLine37223" x1="148.57459325401948" y1="36.594321413531446" x2="166.58305549250377" y2="414.6384679663031" stroke="black"></line><line id="SvgjsLine37224" x1="150.44126521379917" y1="35.85784906343966" x2="58.725368658167554" y2="107.98402732585708" stroke="black"></line><line id="SvgjsLine37225" x1="152.31522353520958" y1="35.14011935282781" x2="383.7582169498576" y2="103.09791382432839" stroke="black"></line><line id="SvgjsLine37226" x1="154.19628003500748" y1="34.441204356246914" x2="285.166857456712" y2="412.85583609113974" stroke="black"></line><line id="SvgjsLine37227" x1="156.0842458171499" y1="33.76117425887068" x2="22.75565571695364" y2="220.9949808463702" stroke="black"></line><line id="SvgjsLine37228" x1="157.97893129176208" y1="33.10009734944791" x2="288.02106870823786" y2="33.10009734944791" stroke="black"></line><line id="SvgjsLine37229" x1="159.88014619417652" y1="32.45804001344473" x2="381.94532574827093" y2="344.30495032130693" stroke="black"></line><line id="SvgjsLine37230" x1="161.78769960403946" y1="31.835066726378102" x2="57.02263997718862" y2="334.53382730165947" stroke="black"></line><line id="SvgjsLine37231" x1="163.7013999644828" y1="31.231240047341345" x2="169.47745803729802" y2="29.53523637241227" stroke="black"></line><line id="SvgjsLine37232" x1="165.6210551013611" y1="30.646620612721648" x2="422.9729324804796" y2="233.03037393246532" stroke="black"></line><line id="SvgjsLine37233" x1="167.54647224254842" y1="30.0812671301114" x2="149.5070067056138" y2="408.7762530131828" stroke="black"></line><line id="SvgjsLine37234" x1="169.47745803729802" y1="29.53523637241227" x2="69.70714449365414" y2="93.65372356676127" stroke="black"></line><line id="SvgjsLine37235" x1="171.4138185756574" y1="29.00858317213445" x2="393.85904104750693" y2="118.06221664394471" stroke="black"></line><line id="SvgjsLine37236" x1="173.35535940794145" y1="28.50136041589019" x2="267.7694054425214" y2="417.68135883409343" stroke="black"></line><line id="SvgjsLine37237" x1="175.301885564259" y1="28.013619039082954" x2="23.705060529197567" y2="202.96568144702263" stroke="black"></line><line id="SvgjsLine37238" x1="177.25320157409158" y1="27.545408020792422" x2="304.8154933081329" y2="39.72613000008218" stroke="black"></line><line id="SvgjsLine37239" x1="179.2091114859232" y1="27.096774378856026" x2="370.3287131122946" y2="358.1256347180546" stroke="black"></line><line id="SvgjsLine37240" x1="181.16941888691687" y1="26.66776316514745" x2="47.6066653181465" y2="319.1293984726146" stroke="black"></line><line id="SvgjsLine37241" x1="183.13392692263895" y1="26.258417461052602" x2="187.07475539120318" y2="25.498885029048353" stroke="black"></line><line id="SvgjsLine37242" x1="185.10243831682777" y1="25.868778373143016" x2="421.2117437366568" y2="250.99854636422532" stroke="black"></line><line id="SvgjsLine37243" x1="187.07475539120318" y1="25.498885029048353" x2="133.02835240109877" y2="401.3998745900598" stroke="black"></line><line id="SvgjsLine37244" x1="189.05068008531802" y1="25.148774573526964" x2="81.9349752516847" y2="80.37075848806762" stroke="black"></line><line id="SvgjsLine37245" x1="191.03001397644738" y1="24.818482164735883" x2="402.57102188527205" y2="133.87545148730436" stroke="black"></line><line id="SvgjsLine37246" x1="193.01255829951387" y1="24.508040970700165" x2="250.00804124307757" y2="420.9203321441939" stroke="black"></line><line id="SvgjsLine37247" x1="194.99811396704857" y1="24.217482165982176" x2="26.274452388753218" y2="185.0951685332621" stroke="black"></line><line id="SvgjsLine37248" x1="196.98648158918198" y1="23.946834928551112" x2="320.9448732271116" y2="47.8378566817496" stroke="black"></line><line id="SvgjsLine37249" x1="198.97746149366836" y1="23.696126436852808" x2="357.5145256278412" y2="370.843873803797" stroke="black"></line><line id="SvgjsLine37250" x1="200.97085374593559" y1="23.465381867080623" x2="39.616391337324785" y2="302.9395087867572" stroke="black"></line><line id="SvgjsLine37251" x1="202.9664581691632" y1="23.25462439064711" x2="204.9640743643842" y2="23.063875171857234" stroke="black"></line><line id="SvgjsLine37252" x1="204.9640743643842" y1="23.063875171857234" x2="417.83937280059627" y2="268.73506576907033" stroke="black"></line><line id="SvgjsLine37253" x1="206.96350173060893" y1="22.893153365783036" x2="117.28104081969812" y2="392.56929226004814" stroke="black"></line><line id="SvgjsLine37254" x1="208.96453948497003" y1="22.7424761163399" x2="95.3094658974563" y2="68.24310387990062" stroke="black"></line><line id="SvgjsLine37255" x1="210.96698668288403" y1="22.611858554565316" x2="409.8233433342985" y2="150.40907903629736" stroke="black"></line><line id="SvgjsLine37256" x1="212.97064223823156" y1="22.501313797099016" x2="232.02713972320174" y2="422.5464277322087" stroke="black"></line><line id="SvgjsLine37257" x1="214.97530494354922" y1="22.41085294486618" x2="30.44294576012723" y2="167.52870419516478" stroke="black"></line><line id="SvgjsLine37258" x1="216.98077349023566" y1="22.340485081962328" x2="336.2780993330541" y2="57.36934048611468" stroke="black"></line><line id="SvgjsLine37259" x1="218.98684648876673" y1="22.290217274741366" x2="343.6069245837107" y2="382.3562862150223" stroke="black"></line><line id="SvgjsLine37260" x1="220.99332248891898" y1="22.260054571105826" x2="33.116767703730346" y2="286.09575923535226" stroke="black"></line></svg>