<svg id="SvgjsSvg1001" width="446" height="445" xmlns="http://www.w3.org/2000/svg" version="1.1" xmlns:xlink="http://www.w3.org/1999/xlink" xmlns:svgjs="http://svgjs.com/svgjs"><circle id="SvgjsCircle31212" r="200.25" cx="223" cy="222.5" stroke="black" fill="transparent"></circle><line id="SvgjsLine31213" x1="225.84652824104978" y1="22.270232540281597" x2="197.45021686514474" y2="421.1133708534294" stroke="black"></line><line id="SvgjsLine31214" x1="228.69248127613403" y1="22.330926072680086" x2="273.6819331134852" y2="28.769764476785355" stroke="black"></line><line id="SvgjsLine31215" x1="231.53728401552067" y1="22.432068332682718" x2="148.014356647591" y2="408.18041305163376" stroke="black"></line><line id="SvgjsLine31216" x1="234.38036160192115" y1="22.573638882188618" x2="321.06364882743867" y2="47.9045152970765" stroke="black"></line><line id="SvgjsLine31217" x1="237.22113952665342" y1="22.755609113638798" x2="103.46128028819396" y2="383.1566431544686" stroke="black"></line><line id="SvgjsLine31218" x1="240.05904374573453" y1="22.977942255796904" x2="362.05982752177573" y2="78.40826925318032" stroke="black"></line><line id="SvgjsLine31219" x1="242.89350079587928" y1="23.240593381179735" x2="66.6921170212056" y2="347.67151520488807" stroke="black"></line><line id="SvgjsLine31220" x1="245.72393791038166" y1="23.5435094151359" x2="394.0009517978919" y2="118.29473629314566" stroke="black"></line><line id="SvgjsLine31221" x1="248.54978313485526" y1="23.88662914657064" x2="40.10113685420902" y2="304.0356876464363" stroke="black"></line><line id="SvgjsLine31222" x1="251.37046544280992" y1="24.26988324031504" x2="414.8071354395173" y2="164.96665927927833" stroke="black"></line><line id="SvgjsLine31223" x1="254.1854148510404" y1="24.693194251136788" x2="25.419844685038782" y2="255.09056191163018" stroke="black"></line><line id="SvgjsLine31224" x1="256.9940625348048" y1="25.15647663938961" x2="423.1235578024159" y2="215.38493763182043" stroke="black"></line><line id="SvgjsLine31225" x1="259.7958409427682" y1="25.659636788298656" x2="23.60423119691933" y2="204.02326101747386" stroke="black"></line><line id="SvgjsLine31226" x1="262.59018391168973" y1="26.202573022877885" x2="418.4086846534235" y2="266.2665221604242" stroke="black"></line><line id="SvgjsLine31227" x1="265.3765267808285" y1="26.78517563047575" x2="34.77252233065889" y2="154.15909606803774" stroke="black"></line><line id="SvgjsLine31228" x1="268.1543065060463" y1="27.407326882945114" x2="400.9695308486633" y2="314.2981949142067" stroke="black"></line><line id="SvgjsLine31229" x1="270.92296177358344" y1="28.06890106043309" x2="58.19748085479526" y2="108.7450344670861" stroke="black"></line><line id="SvgjsLine31230" x1="273.6819331134852" y1="28.769764476785355" x2="371.94166867758827" y2="356.35231350834215" stroke="black"></line><line id="SvgjsLine31231" x1="276.43066301265515" y1="29.509775506560743" x2="92.35376132657356" y2="70.73826957863818" stroke="black"></line><line id="SvgjsLine31232" x1="279.1685960275138" y1="30.288784613649653" x2="333.21528365450547" y2="389.69047146580124" stroke="black"></line><line id="SvgjsLine31233" x1="281.8951788962382" y1="31.106634381491432" x2="135.01723486630323" y2="42.61365938618698" stroke="black"></line><line id="SvgjsLine31234" x1="284.6098606505615" y1="31.96315954488381" x2="287.3120927271084" y2="412.1418129766213" stroke="black"></line><line id="SvgjsLine31235" x1="287.3120927271084" y1="32.85818702337872" x2="183.40981608831027" y2="26.202573022877885" stroke="black"></line><line id="SvgjsLine31236" x1="290.0013290782452" y1="33.791535956256865" x2="237.22113952665347" y2="422.2443908863612" stroke="black"></line><line id="SvgjsLine31237" x1="292.6770262824207" y1="34.76301773907505" x2="234.38036160192115" y2="22.573638882188618" stroke="black"></line><line id="SvgjsLine31238" x1="295.3386436539774" y1="35.77243606177774" x2="186.20415905723183" y2="419.34036321170134" stroke="black"></line><line id="SvgjsLine31239" x1="297.985643352409" y1="36.819586948366236" x2="284.6098606505615" y2="31.96315954488381" stroke="black"></line><line id="SvgjsLine31240" x1="300.61749049104367" y1="37.90425879811653" x2="137.583185745584" y2="403.61882934313206" stroke="black"></line><line id="SvgjsLine31241" x1="303.23365324512986" y1="39.02623242833798" x2="330.8275566441283" y2="53.75972464121884" stroke="black"></line><line id="SvgjsLine31242" x1="305.83360295930373" y1="40.18528111866439" x2="94.52423501866645" y2="376.10351660187064" stroke="black"></line><line id="SvgjsLine31243" x1="308.416814254416" y1="41.381170656867965" x2="370.0239265610216" y2="86.54402360109606" stroke="black"></line><line id="SvgjsLine31244" x1="310.9827651336968" y1="42.61365938618698" x2="59.831144253328176" y2="338.58611895623784" stroke="black"></line><line id="SvgjsLine31245" x1="313.5309370882369" y1="43.88249825415852" x2="399.6466497999618" y2="128.1812658352029" stroke="black"></line><line id="SvgjsLine31246" x1="316.0608152017646" y1="45.18743086294472" x2="35.7629974022457" y2="293.5096286302678" stroke="black"></line><line id="SvgjsLine31247" x1="318.57188825469603" y1="46.528193521144146" x2="417.766805724955" y2="175.96019029156196" stroke="black"></line><line id="SvgjsLine31248" x1="321.06364882743867" y1="47.9045152970765" x2="23.88702191971862" y2="243.80925761262898" stroke="black"></line><line id="SvgjsLine31249" x1="323.5355934029272" y1="49.31611807353059" x2="423.2044777426073" y2="226.76961260653206" stroke="black"></line><line id="SvgjsLine31250" x1="325.98722246837076" y1="50.76271660396421" x2="24.97653678780091" y2="192.7213076605633" stroke="black"></line><line id="SvgjsLine31251" x1="328.41804061619047" y1="52.24401857014476" x2="415.605585045357" y2="277.3010137619346" stroke="black"></line><line id="SvgjsLine31252" x1="330.8275566441283" y1="53.75972464121884" x2="38.96059688455642" y2="143.57243446734685" stroke="black"></line><line id="SvgjsLine31253" x1="333.21528365450547" y1="55.30952853419876" x2="395.464939025668" y2="324.2639784347714" stroke="black"></line><line id="SvgjsLine31254" x1="335.58073915261105" y1="56.89311707585415" x2="64.92861266431663" y2="99.56302832031223" stroke="black"></line><line id="SvgjsLine31255" x1="337.9234451442014" y1="58.51017026599567" x2="364.0940230139639" y2="364.6004545022113" stroke="black"></line><line id="SvgjsLine31256" x1="340.2429282320896" y1="60.160361342138344" x2="101.18964433368869" y2="63.55881668854124" stroke="black"></line><line id="SvgjsLine31257" x1="342.5387197118061" y1="61.84335684553142" x2="323.53559340292725" y2="395.6838819264694" stroke="black"></line><line id="SvgjsLine31258" x1="344.81035566631135" y1="63.55881668854124" x2="145.38250950895636" y2="37.9042587981165" stroke="black"></line><line id="SvgjsLine31259" x1="347.05737705974053" y1="65.30639422337384" x2="276.4306630126552" y2="415.49022449343926" stroke="black"></line><line id="SvgjsLine31260" x1="349.2793298301626" y1="67.08573631212289" x2="194.62953455718997" y2="24.269883240315067" stroke="black"></line><line id="SvgjsLine31261" x1="351.47576498133355" y1="68.89648339812939" x2="225.84652824104978" y2="422.7297674597184" stroke="black"></line><line id="SvgjsLine31262" x1="353.6462386734264" y1="70.73826957863815" x2="245.72393791038166" y2="23.5435094151359" stroke="black"></line><line id="SvgjsLine31263" x1="355.79031231271927" y1="72.610722678737" x2="175.07703822641662" y2="416.93109893956694" stroke="black"></line><line id="SvgjsLine31264" x1="357.9075526402231" y1="74.51346432656302" x2="295.3386436539774" y2="35.77243606177774" stroke="black"></line><line id="SvgjsLine31265" x1="359.99753181923165" y1="76.44611002976129" x2="127.42811174530392" y2="398.4718064788558" stroke="black"></line><line id="SvgjsLine31266" x1="362.05982752177573" y1="78.40826925318032" x2="340.2429282320896" y2="60.160361342138344" stroke="black"></line><line id="SvgjsLine31267" x1="364.0940230139639" y1="80.39954549778872" x2="86.00246818076835" y2="368.55388997023874" stroke="black"></line><line id="SvgjsLine31268" x1="366.0997072401933" y1="82.41953638079656" x2="377.51279304848526" y2="95.11923502994662" stroke="black"></line><line id="SvgjsLine31269" x1="368.0764749062127" y1="84.4678337169664" x2="53.497590073034644" y2="329.12549192829545" stroke="black"></line><line id="SvgjsLine31270" x1="370.0239265610216" y1="86.54402360109606" x2="404.7213642885872" y2="138.37266638544526" stroke="black"></line><line id="SvgjsLine31271" x1="371.94166867758827" y1="88.6476864916578" x2="32.03007317350418" y2="282.7540417555772" stroke="black"></line><line id="SvgjsLine31272" x1="373.82931373237085" y1="90.77839729557627" x2="420.09692184018274" y2="187.10415418266024" stroke="black"></line><line id="SvgjsLine31273" x1="375.68648028362554" y1="92.93572545412823" x2="22.997801667808204" y2="232.45907436916812" stroke="black"></line><line id="SvgjsLine31274" x1="377.51279304848526" y1="95.11923502994662" x2="422.63826706221664" y2="238.14048670582443" stroke="black"></line><line id="SvgjsLine31275" x1="379.30788297879434" y1="97.32848479511192" x2="26.988923200466417" y2="181.51560941178528" stroke="black"></line><line id="SvgjsLine31276" x1="381.0713873356833" y1="99.56302832031209" x2="412.179917085257" y2="288.1583693950383" stroke="black"></line><line id="SvgjsLine31277" x1="382.80294976286797" y1="101.8224140650539" x2="43.74355090614873" y2="133.24089425574834" stroke="black"></line><line id="SvgjsLine31278" x1="384.5022203586599" y1="104.10618546890697" x2="389.40288043530194" y2="333.90082532384855" stroke="black"></line><line id="SvgjsLine31279" x1="386.16885574667185" y1="106.4138810437622" x2="72.17068626762921" y2="90.77839729557624" stroke="black"></line><line id="SvgjsLine31280" x1="387.8025191452047" y1="108.74503446708604" x2="355.79031231271927" y2="372.389277321263" stroke="black"></line><line id="SvgjsLine31281" x1="389.40288043530194" y1="111.09917467615146" x2="110.41926084738887" y2="56.89311707585421" stroke="black"></line><line id="SvgjsLine31282" x1="390.9696162274578" y1="113.47582596322704" x2="313.53093708823695" y2="401.1175017458414" stroke="black"></line><line id="SvgjsLine31283" x1="392.50240992696536" y1="115.87450807170455" x2="155.99867092175475" y2="33.791535956256894" stroke="black"></line><line id="SvgjsLine31284" x1="394.0009517978919" y1="118.29473629314566" x2="265.3765267808285" y2="418.21482436952425" stroke="black"></line><line id="SvgjsLine31285" x1="395.46493902566795" y1="120.73602156522854" x2="205.94095625426542" y2="22.977942255796904" stroke="black"></line><line id="SvgjsLine31286" x1="396.89407577827797" y1="123.19787057057378" x2="214.46271598447936" y2="422.5679316673173" stroke="black"></line><line id="SvgjsLine31287" x1="398.28807326603993" y1="125.67978583643072" x2="256.9940625348048" y2="25.15647663938961" stroke="black"></line><line id="SvgjsLine31288" x1="399.6466497999618" y1="128.1812658352029" x2="164.10482110376176" y2="413.89336561850854" stroke="black"></line><line id="SvgjsLine31289" x1="400.9695308486632" y1="130.70180508579324" x2="305.83360295930373" y2="40.18528111866439" stroke="black"></line><line id="SvgjsLine31290" x1="402.25644909385124" y1="133.2408942557482" x2="117.58195938380949" y2="392.7559814298552" stroke="black"></line><line id="SvgjsLine31291" x1="403.5071444843373" y1="135.7980202641798" x2="349.2793298301626" y2="67.08573631212289" stroke="black"></line><line id="SvgjsLine31292" x1="404.7213642885872" y1="138.37266638544526" x2="77.92352509378736" y2="360.5321662830337" stroke="black"></line><line id="SvgjsLine31293" x1="405.8988631457909" y1="140.96431235356363" x2="384.5022203586599" y2="104.10618546890697" stroke="black"></line><line id="SvgjsLine31294" x1="407.0394031154436" y1="143.57243446734685" x2="47.71192673396013" y2="319.3202141635694" stroke="black"></line><line id="SvgjsLine31295" x1="408.1427537254264" y1="146.19650569622584" x2="409.20869201857937" y2="148.8359957867491" stroke="black"></line><line id="SvgjsLine31296" x1="409.20869201857937" y1="148.8359957867491" x2="28.914430279591755" y2="271.80369282624326" stroke="black"></line><line id="SvgjsLine31297" x1="410.2370025977543" y1="151.49037136973226" x2="421.7899520381353" y2="198.36252977887156" stroke="black"></line><line id="SvgjsLine31298" x1="411.22747766934106" y1="154.15909606803766" x2="22.755058198954004" y2="221.07669992774018" stroke="black"></line><line id="SvgjsLine31299" x1="412.179917085257" y1="156.84163060496167" x2="421.42675595142305" y2="249.46080530315058" stroke="black"></line><line id="SvgjsLine31300" x1="413.0941283833911" y1="159.53743291320757" x2="29.63488570094202" y2="170.442386991793" stroke="black"></line><line id="SvgjsLine31301" x1="413.96992682649585" y1="162.24595824442298" x2="408.1427537254265" y2="298.80349430377413" stroke="black"></line><line id="SvgjsLine31302" x1="414.8071354395173" y1="164.96665927927833" x2="49.10592422172198" y2="123.19787057057387" stroke="black"></line><line id="SvgjsLine31303" x1="415.605585045357" y1="167.69898623806537" x2="382.80294976286797" y2="343.1775859349461" stroke="black"></line><line id="SvgjsLine31304" x1="416.36511429905795" y1="170.4423869917929" x2="79.90029275980669" y2="82.41953638079661" stroke="black"></line><line id="SvgjsLine31305" x1="417.0855697204082" y1="173.19630717375668" x2="347.0573770597406" y2="379.69360577662616" stroke="black"></line><line id="SvgjsLine31306" x1="417.766805724955" y1="175.96019029156196" x2="120.01277753162923" y2="50.76271660396421" stroke="black"></line><line id="SvgjsLine31307" x1="418.4086846534235" y1="178.73347783957578" x2="303.23365324512986" y2="405.97376757166205" stroke="black"></line><line id="SvgjsLine31308" x1="419.0110767995336" y1="181.51560941178533" x2="166.8314039724862" y2="30.288784613649653" stroke="black"></line><line id="SvgjsLine31309" x1="419.5738604362107" y1="184.30602281504093" x2="254.1854148510405" y2="420.3068057488632" stroke="black"></line><line id="SvgjsLine31310" x1="420.09692184018274" y1="187.10415418266024" x2="217.307518723866" y2="22.330926072680086" stroke="black"></line><line id="SvgjsLine31311" x1="420.58015531496125" y1="189.90943808836994" x2="203.10649920412067" y2="421.75940661882026" stroke="black"></line><line id="SvgjsLine31312" x1="421.0234632121991" y1="192.72130766056324" x2="268.1543065060463" y2="27.407326882945114" stroke="black"></line><line id="SvgjsLine31313" x1="421.42675595142305" y1="195.5391946968494" x2="153.32297371757932" y2="410.23698226092495" stroke="black"></line><line id="SvgjsLine31314" x1="421.7899520381353" y1="198.36252977887156" x2="316.0608152017646" y2="45.18743086294472" stroke="black"></line><line id="SvgjsLine31315" x1="422.1129780802814" y1="201.19074238737105" x2="108.07655485579859" y2="386.48982973400433" stroke="black"></line><line id="SvgjsLine31316" x1="422.3957688030806" y1="204.02326101747377" x2="357.9075526402231" y2="74.51346432656302" stroke="black"></line><line id="SvgjsLine31317" x1="422.63826706221664" y1="206.85951329417557" x2="70.31351971637454" y2="352.06427454587185" stroke="black"></line><line id="SvgjsLine31318" x1="422.8404238553842" y1="209.698926088004" x2="390.9696162274578" y2="113.47582596322704" stroke="black"></line><line id="SvgjsLine31319" x1="423.0021983321918" y1="212.54092563083185" x2="42.49285551566274" y2="309.20197973582026" stroke="black"></line><line id="SvgjsLine31320" x1="423.1235578024159" y1="215.38493763182043" x2="413.0941283833911" y2="159.53743291320757" stroke="black"></line><line id="SvgjsLine31321" x1="423.2044777426073" y1="218.2303873934679" x2="26.42613956378935" y2="260.69397718495907" stroke="black"></line><line id="SvgjsLine31322" x1="423.244941801046" y1="221.0766999277401" x2="422.8404238553842" y2="209.698926088004" stroke="black"></line><line id="SvgjsLine31323" x1="423.244941801046" y1="223.92330007225988" x2="23.159576144615784" y2="209.69892608800401" stroke="black"></line><line id="SvgjsLine31324" x1="423.2044777426073" y1="226.76961260653206" x2="419.5738604362107" y2="260.69397718495907" stroke="black"></line><line id="SvgjsLine31325" x1="423.1235578024159" y1="229.6150623681795" x2="32.90587161660892" y2="159.53743291320762" stroke="black"></line><line id="SvgjsLine31326" x1="423.0021983321918" y1="232.45907436916815" x2="403.5071444843373" y2="309.20197973582026" stroke="black"></line><line id="SvgjsLine31327" x1="422.8404238553842" y1="235.301073911996" x2="55.03038377254225" y2="113.47582596322704" stroke="black"></line><line id="SvgjsLine31328" x1="422.63826706221664" y1="238.14048670582443" x2="375.68648028362554" y2="352.06427454587174" stroke="black"></line><line id="SvgjsLine31329" x1="422.39576880308067" y1="240.9767389825262" x2="88.0924473597768" y2="74.51346432656314" stroke="black"></line><line id="SvgjsLine31330" x1="422.1129780802814" y1="243.80925761262893" x2="337.9234451442014" y2="386.4898297340043" stroke="black"></line><line id="SvgjsLine31331" x1="421.7899520381353" y1="246.6374702211284" x2="129.93918479823537" y2="45.187430862944694" stroke="black"></line><line id="SvgjsLine31332" x1="421.42675595142305" y1="249.46080530315058" x2="292.67702628242074" y2="410.23698226092495" stroke="black"></line><line id="SvgjsLine31333" x1="421.0234632121991" y1="252.2786923394368" x2="177.84569349395377" y2="27.407326882945114" stroke="black"></line><line id="SvgjsLine31334" x1="420.58015531496125" y1="255.0905619116301" x2="242.89350079587928" y2="421.75940661882026" stroke="black"></line><line id="SvgjsLine31335" x1="420.09692184018274" y1="257.89584581733976" x2="228.69248127613403" y2="22.330926072680086" stroke="black"></line><line id="SvgjsLine31336" x1="419.5738604362107" y1="260.69397718495907" x2="191.81458514895957" y2="420.3068057488632" stroke="black"></line><line id="SvgjsLine31337" x1="419.0110767995336" y1="263.48439058821464" x2="279.1685960275138" y2="30.288784613649653" stroke="black"></line><line id="SvgjsLine31338" x1="418.4086846534235" y1="266.2665221604242" x2="142.76634675487017" y2="405.97376757166205" stroke="black"></line><line id="SvgjsLine31339" x1="417.766805724955" y1="269.039809708438" x2="325.98722246837076" y2="50.76271660396421" stroke="black"></line><line id="SvgjsLine31340" x1="417.0855697204082" y1="271.8036928262434" x2="98.94262294025954" y2="379.6936057766262" stroke="black"></line><line id="SvgjsLine31341" x1="416.36511429905795" y1="274.55761300820706" x2="366.0997072401933" y2="82.41953638079656" stroke="black"></line><line id="SvgjsLine31342" x1="415.605585045357" y1="277.3010137619346" x2="63.19705023713203" y2="343.17758593494614" stroke="black"></line><line id="SvgjsLine31343" x1="414.8071354395173" y1="280.03334072072164" x2="396.89407577827797" y2="123.19787057057378" stroke="black"></line><line id="SvgjsLine31344" x1="413.96992682649585" y1="282.754041755577" x2="37.857246274573555" y2="298.8034943037742" stroke="black"></line><line id="SvgjsLine31345" x1="413.0941283833911" y1="285.4625670867924" x2="416.36511429905795" y2="170.4423869917929" stroke="black"></line><line id="SvgjsLine31346" x1="412.179917085257" y1="288.1583693950383" x2="24.57324404857698" y2="249.46080530315078" stroke="black"></line><line id="SvgjsLine31347" x1="411.22747766934106" y1="290.8409039319623" x2="423.244941801046" y2="221.0766999277401" stroke="black"></line><line id="SvgjsLine31348" x1="410.2370025977543" y1="293.5096286302678" x2="24.21004796186469" y2="198.36252977887153" stroke="black"></line><line id="SvgjsLine31349" x1="409.2086920185794" y1="296.1640042132509" x2="417.0855697204082" y2="271.8036928262434" stroke="black"></line><line id="SvgjsLine31350" x1="408.1427537254265" y1="298.80349430377413" x2="36.79130798142063" y2="148.83599578674904" stroke="black"></line><line id="SvgjsLine31351" x1="407.0394031154436" y1="301.42756553265315" x2="398.28807326603993" y2="319.32021416356923" stroke="black"></line><line id="SvgjsLine31352" x1="405.898863145791" y1="304.0356876464364" x2="61.49777964134" y2="104.10618546890709" stroke="black"></line><line id="SvgjsLine31353" x1="404.7213642885872" y1="306.6273336145547" x2="368.0764749062127" y2="360.5321662830336" stroke="black"></line><line id="SvgjsLine31354" x1="403.5071444843373" y1="309.20197973582026" x2="96.72067016983742" y2="67.08573631212286" stroke="black"></line><line id="SvgjsLine31355" x1="402.25644909385124" y1="311.75910574425177" x2="328.4180406161905" y2="392.7559814298552" stroke="black"></line><line id="SvgjsLine31356" x1="400.9695308486633" y1="314.2981949142067" x2="140.16639704069618" y2="40.18528111866445" stroke="black"></line><line id="SvgjsLine31357" x1="399.6466497999618" y1="316.8187341647971" x2="281.89517889623824" y2="413.8933656185086" stroke="black"></line><line id="SvgjsLine31358" x1="398.28807326603993" y1="319.32021416356923" x2="189.00593746519513" y2="25.15647663938961" stroke="black"></line><line id="SvgjsLine31359" x1="396.894075778278" y1="321.80212942942615" x2="231.5372840155207" y2="422.5679316673172" stroke="black"></line><line id="SvgjsLine31360" x1="395.464939025668" y1="324.2639784347714" x2="240.05904374573453" y2="22.977942255796904" stroke="black"></line><line id="SvgjsLine31361" x1="394.0009517978919" y1="326.70526370685434" x2="180.62347321917153" y2="418.21482436952425" stroke="black"></line><line id="SvgjsLine31362" x1="392.50240992696536" y1="329.12549192829545" x2="290.0013290782452" y2="33.791535956256865" stroke="black"></line><line id="SvgjsLine31363" x1="390.9696162274578" y1="331.524174036773" x2="132.46906291176316" y2="401.11750174584154" stroke="black"></line><line id="SvgjsLine31364" x1="389.40288043530194" y1="333.90082532384855" x2="335.58073915261105" y2="56.89311707585415" stroke="black"></line><line id="SvgjsLine31365" x1="387.8025191452047" y1="336.25496553291396" x2="90.20968768728073" y2="372.38927732126297" stroke="black"></line><line id="SvgjsLine31366" x1="386.1688557466719" y1="338.5861189562377" x2="373.82931373237085" y2="90.77839729557627" stroke="black"></line><line id="SvgjsLine31367" x1="384.50222035866" y1="340.89381453109297" x2="56.59711956469806" y2="333.9008253238485" stroke="black"></line><line id="SvgjsLine31368" x1="382.80294976286797" y1="343.1775859349461" x2="402.25644909385124" y2="133.2408942557482" stroke="black"></line><line id="SvgjsLine31369" x1="381.07138733568326" y1="345.43697167968793" x2="33.8200829147431" y2="288.15836939503845" stroke="black"></line><line id="SvgjsLine31370" x1="379.3078829787944" y1="347.67151520488807" x2="419.0110767995336" y2="181.51560941178533" stroke="black"></line><line id="SvgjsLine31371" x1="377.51279304848526" y1="349.88076497005335" x2="23.36173293778336" y2="238.14048670582434" stroke="black"></line><line id="SvgjsLine31372" x1="375.68648028362554" y1="352.06427454587174" x2="423.0021983321918" y2="232.45907436916815" stroke="black"></line><line id="SvgjsLine31373" x1="373.8293137323709" y1="354.2216027044236" x2="25.903078159817227" y2="187.10415418266032" stroke="black"></line><line id="SvgjsLine31374" x1="371.94166867758827" y1="356.35231350834215" x2="413.96992682649585" y2="282.754041755577" stroke="black"></line><line id="SvgjsLine31375" x1="370.02392656102154" y1="358.455976398904" x2="41.27863571141279" y2="138.37266638544534" stroke="black"></line><line id="SvgjsLine31376" x1="368.0764749062127" y1="360.5321662830336" x2="392.50240992696536" y2="329.12549192829545" stroke="black"></line><line id="SvgjsLine31377" x1="366.0997072401933" y1="362.58046361920344" x2="68.48720695151476" y2="95.11923502994667" stroke="black"></line><line id="SvgjsLine31378" x1="364.0940230139639" y1="364.6004545022113" x2="359.9975318192317" y2="368.55388997023874" stroke="black"></line><line id="SvgjsLine31379" x1="362.05982752177573" y1="366.5917307468197" x2="105.75707176791039" y2="60.16036134213837" stroke="black"></line><line id="SvgjsLine31380" x1="359.9975318192317" y1="368.55388997023874" x2="318.57188825469603" y2="398.47180647885585" stroke="black"></line><line id="SvgjsLine31381" x1="357.9075526402231" y1="370.48653567343695" x2="150.66135634602261" y2="35.77243606177774" stroke="black"></line><line id="SvgjsLine31382" x1="355.79031231271927" y1="372.389277321263" x2="270.92296177358344" y2="416.93109893956694" stroke="black"></line><line id="SvgjsLine31383" x1="353.6462386734264" y1="374.2617304213618" x2="200.27606208961816" y2="23.5435094151359" stroke="black"></line><line id="SvgjsLine31384" x1="351.4757649813336" y1="376.10351660187064" x2="220.15347175895027" y2="422.7297674597184" stroke="black"></line><line id="SvgjsLine31385" x1="349.2793298301626" y1="377.9142636878771" x2="251.37046544280992" y2="24.26988324031504" stroke="black"></line><line id="SvgjsLine31386" x1="347.0573770597406" y1="379.69360577662616" x2="169.56933698734485" y2="415.49022449343926" stroke="black"></line><line id="SvgjsLine31387" x1="344.81035566631135" y1="381.44118331145876" x2="300.61749049104367" y2="37.90425879811653" stroke="black"></line><line id="SvgjsLine31388" x1="342.53871971180615" y1="383.15664315446855" x2="122.4644065970728" y2="395.68388192646944" stroke="black"></line><line id="SvgjsLine31389" x1="340.2429282320896" y1="384.83963865786166" x2="344.81035566631135" y2="63.55881668854124" stroke="black"></line><line id="SvgjsLine31390" x1="337.9234451442014" y1="386.4898297340043" x2="81.90597698603608" y2="364.6004545022113" stroke="black"></line><line id="SvgjsLine31391" x1="335.58073915261105" y1="388.10688292414585" x2="381.0713873356833" y2="99.56302832031209" stroke="black"></line><line id="SvgjsLine31392" x1="333.21528365450547" y1="389.69047146580124" x2="50.535060974332055" y2="324.2639784347715" stroke="black"></line><line id="SvgjsLine31393" x1="330.8275566441284" y1="391.24027535878116" x2="407.0394031154436" y2="143.57243446734685" stroke="black"></line><line id="SvgjsLine31394" x1="328.4180406161905" y1="392.7559814298552" x2="30.394414954642997" y2="277.30101376193466" stroke="black"></line><line id="SvgjsLine31395" x1="325.9872224683708" y1="394.23728339603576" x2="421.0234632121991" y2="192.72130766056324" stroke="black"></line><line id="SvgjsLine31396" x1="323.53559340292725" y1="395.6838819264694" x2="22.79552225739269" y2="226.76961260653212" stroke="black"></line><line id="SvgjsLine31397" x1="321.06364882743867" y1="397.0954847029235" x2="422.1129780802814" y2="243.80925761262893" stroke="black"></line><line id="SvgjsLine31398" x1="318.57188825469603" y1="398.47180647885585" x2="28.23319427504495" y2="175.96019029156201" stroke="black"></line><line id="SvgjsLine31399" x1="316.0608152017647" y1="399.8125691370552" x2="410.2370025977543" y2="293.5096286302678" stroke="black"></line><line id="SvgjsLine31400" x1="313.53093708823695" y1="401.1175017458414" x2="46.353350200038136" y2="128.18126583520305" stroke="black"></line><line id="SvgjsLine31401" x1="310.98276513369683" y1="402.386340613813" x2="386.1688557466719" y2="338.5861189562377" stroke="black"></line><line id="SvgjsLine31402" x1="308.41681425441607" y1="403.618829343132" x2="75.97607343897843" y2="86.54402360109603" stroke="black"></line><line id="SvgjsLine31403" x1="305.83360295930373" y1="404.8147188813356" x2="351.4757649813336" y2="376.10351660187064" stroke="black"></line><line id="SvgjsLine31404" x1="303.23365324512986" y1="405.97376757166205" x2="115.17244335587151" y2="53.759724641218924" stroke="black"></line><line id="SvgjsLine31405" x1="300.61749049104367" y1="407.09574120188347" x2="308.41681425441607" y2="403.618829343132" stroke="black"></line><line id="SvgjsLine31406" x1="297.98564335240906" y1="408.18041305163376" x2="161.3901393494384" y2="31.963159544883865" stroke="black"></line><line id="SvgjsLine31407" x1="295.33864365397744" y1="409.22756393822226" x2="259.7958409427682" y2="419.34036321170134" stroke="black"></line><line id="SvgjsLine31408" x1="292.67702628242074" y1="410.23698226092495" x2="211.6196383980789" y2="22.573638882188618" stroke="black"></line><line id="SvgjsLine31409" x1="290.00132907824513" y1="411.20846404374316" x2="208.77886047334667" y2="422.2443908863612" stroke="black"></line><line id="SvgjsLine31410" x1="287.3120927271084" y1="412.1418129766213" x2="262.59018391168973" y2="26.202573022877885" stroke="black"></line><line id="SvgjsLine31411" x1="284.6098606505615" y1="413.0368404551162" x2="158.68790727289155" y2="412.1418129766213" stroke="black"></line><line id="SvgjsLine31412" x1="281.89517889623824" y1="413.8933656185086" x2="310.9827651336968" y2="42.61365938618698" stroke="black"></line><line id="SvgjsLine31413" x1="279.16859602751384" y1="414.7112153863503" x2="112.78471634549457" y2="389.69047146580124" stroke="black"></line><line id="SvgjsLine31414" x1="276.4306630126552" y1="415.49022449343926" x2="353.6462386734264" y2="70.73826957863815" stroke="black"></line><line id="SvgjsLine31415" x1="273.68193311348523" y1="416.2302355232146" x2="74.05833132241176" y2="356.35231350834226" stroke="black"></line><line id="SvgjsLine31416" x1="270.92296177358344" y1="416.93109893956694" x2="387.8025191452047" y2="108.74503446708604" stroke="black"></line><line id="SvgjsLine31417" x1="268.1543065060463" y1="417.5926731170549" x2="45.03046915133672" y2="314.29819491420676" stroke="black"></line><line id="SvgjsLine31418" x1="265.3765267808285" y1="418.21482436952425" x2="411.22747766934106" y2="154.15909606803766" stroke="black"></line><line id="SvgjsLine31419" x1="262.5901839116897" y1="418.7974269771221" x2="27.591315346576522" y2="266.2665221604242" stroke="black"></line><line id="SvgjsLine31420" x1="259.7958409427682" y1="419.34036321170134" x2="422.3957688030806" y2="204.02326101747377" stroke="black"></line><line id="SvgjsLine31421" x1="256.9940625348048" y1="419.8435233606104" x2="22.876442197584055" y2="215.38493763182043" stroke="black"></line><line id="SvgjsLine31422" x1="254.1854148510405" y1="420.3068057488632" x2="420.58015531496125" y2="255.0905619116301" stroke="black"></line><line id="SvgjsLine31423" x1="251.37046544280992" y1="420.73011675968496" x2="31.192864560482633" y2="164.96665927927845" stroke="black"></line><line id="SvgjsLine31424" x1="248.5497831348553" y1="421.1133708534294" x2="405.898863145791" y2="304.0356876464364" stroke="black"></line><line id="SvgjsLine31425" x1="245.7239379103816" y1="421.4564905848641" x2="51.99904820210813" y2="118.29473629314563" stroke="black"></line><line id="SvgjsLine31426" x1="242.89350079587928" y1="421.75940661882026" x2="379.3078829787944" y2="347.67151520488807" stroke="black"></line><line id="SvgjsLine31427" x1="240.05904374573456" y1="422.0220577442031" x2="83.94017247822416" y2="78.4082692531804" stroke="black"></line><line id="SvgjsLine31428" x1="237.22113952665347" y1="422.2443908863612" x2="342.53871971180615" y2="383.15664315446855" stroke="black"></line><line id="SvgjsLine31429" x1="234.38036160192124" y1="422.4263611178113" x2="124.93635117256126" y2="47.90451529707656" stroke="black"></line><line id="SvgjsLine31430" x1="231.5372840155207" y1="422.5679316673172" x2="297.98564335240906" y2="408.18041305163376" stroke="black"></line><line id="SvgjsLine31431" x1="228.69248127613398" y1="422.6690739273199" x2="172.31806688651477" y2="28.769764476785383" stroke="black"></line><line id="SvgjsLine31432" x1="225.84652824104978" y1="422.7297674597184" x2="248.5497831348553" y2="421.1133708534294" stroke="black"></line><line id="SvgjsLine31433" x1="223.00000000000003" y1="422.75" x2="223" y2="22.25" stroke="black"></line><line id="SvgjsLine31434" x1="220.15347175895027" y1="422.7297674597184" x2="197.45021686514474" y2="421.1133708534294" stroke="black"></line><line id="SvgjsLine31435" x1="217.30751872386605" y1="422.6690739273199" x2="273.6819331134852" y2="28.769764476785355" stroke="black"></line><line id="SvgjsLine31436" x1="214.46271598447936" y1="422.5679316673173" x2="148.014356647591" y2="408.18041305163376" stroke="black"></line><line id="SvgjsLine31437" x1="211.6196383980789" y1="422.4263611178114" x2="321.06364882743867" y2="47.9045152970765" stroke="black"></line><line id="SvgjsLine31438" x1="208.77886047334667" y1="422.2443908863612" x2="103.46128028819396" y2="383.1566431544686" stroke="black"></line><line id="SvgjsLine31439" x1="205.9409562542656" y1="422.0220577442031" x2="362.05982752177573" y2="78.40826925318032" stroke="black"></line><line id="SvgjsLine31440" x1="203.10649920412067" y1="421.75940661882026" x2="66.6921170212056" y2="347.67151520488807" stroke="black"></line><line id="SvgjsLine31441" x1="200.27606208961834" y1="421.4564905848641" x2="394.0009517978919" y2="118.29473629314566" stroke="black"></line><line id="SvgjsLine31442" x1="197.45021686514474" y1="421.1133708534294" x2="40.10113685420902" y2="304.0356876464363" stroke="black"></line><line id="SvgjsLine31443" x1="194.62953455719003" y1="420.73011675968496" x2="414.8071354395173" y2="164.96665927927833" stroke="black"></line><line id="SvgjsLine31444" x1="191.81458514895957" y1="420.3068057488632" x2="25.419844685038782" y2="255.09056191163018" stroke="black"></line><line id="SvgjsLine31445" x1="189.00593746519522" y1="419.8435233606104" x2="423.1235578024159" y2="215.38493763182043" stroke="black"></line><line id="SvgjsLine31446" x1="186.20415905723183" y1="419.34036321170134" x2="23.60423119691933" y2="204.02326101747386" stroke="black"></line><line id="SvgjsLine31447" x1="183.40981608831032" y1="418.7974269771221" x2="418.4086846534235" y2="266.2665221604242" stroke="black"></line><line id="SvgjsLine31448" x1="180.62347321917153" y1="418.21482436952425" x2="34.77252233065889" y2="154.15909606803774" stroke="black"></line><line id="SvgjsLine31449" x1="177.84569349395377" y1="417.5926731170549" x2="400.9695308486633" y2="314.2981949142067" stroke="black"></line><line id="SvgjsLine31450" x1="175.07703822641662" y1="416.93109893956694" x2="58.19748085479526" y2="108.7450344670861" stroke="black"></line><line id="SvgjsLine31451" x1="172.3180668865149" y1="416.2302355232147" x2="371.94166867758827" y2="356.35231350834215" stroke="black"></line><line id="SvgjsLine31452" x1="169.56933698734485" y1="415.49022449343926" x2="92.35376132657356" y2="70.73826957863818" stroke="black"></line><line id="SvgjsLine31453" x1="166.8314039724863" y1="414.7112153863503" x2="333.21528365450547" y2="389.69047146580124" stroke="black"></line><line id="SvgjsLine31454" x1="164.10482110376176" y1="413.89336561850854" x2="135.01723486630323" y2="42.61365938618698" stroke="black"></line><line id="SvgjsLine31455" x1="161.39013934943847" y1="413.03684045511613" x2="287.3120927271084" y2="412.1418129766213" stroke="black"></line><line id="SvgjsLine31456" x1="158.68790727289155" y1="412.1418129766213" x2="183.40981608831027" y2="26.202573022877885" stroke="black"></line><line id="SvgjsLine31457" x1="155.9986709217548" y1="411.2084640437431" x2="237.22113952665347" y2="422.2443908863612" stroke="black"></line><line id="SvgjsLine31458" x1="153.32297371757932" y1="410.23698226092495" x2="234.38036160192115" y2="22.573638882188618" stroke="black"></line><line id="SvgjsLine31459" x1="150.66135634602261" y1="409.22756393822226" x2="186.20415905723183" y2="419.34036321170134" stroke="black"></line><line id="SvgjsLine31460" x1="148.014356647591" y1="408.18041305163376" x2="284.6098606505615" y2="31.96315954488381" stroke="black"></line><line id="SvgjsLine31461" x1="145.38250950895633" y1="407.09574120188347" x2="137.583185745584" y2="403.61882934313206" stroke="black"></line><line id="SvgjsLine31462" x1="142.76634675487017" y1="405.97376757166205" x2="330.8275566441283" y2="53.75972464121884" stroke="black"></line><line id="SvgjsLine31463" x1="140.16639704069632" y1="404.81471888133564" x2="94.52423501866645" y2="376.10351660187064" stroke="black"></line><line id="SvgjsLine31464" x1="137.583185745584" y1="403.61882934313206" x2="370.0239265610216" y2="86.54402360109606" stroke="black"></line><line id="SvgjsLine31465" x1="135.01723486630328" y1="402.386340613813" x2="59.831144253328176" y2="338.58611895623784" stroke="black"></line><line id="SvgjsLine31466" x1="132.46906291176316" y1="401.11750174584154" x2="399.6466497999618" y2="128.1812658352029" stroke="black"></line><line id="SvgjsLine31467" x1="129.93918479823543" y1="399.81256913705533" x2="35.7629974022457" y2="293.5096286302678" stroke="black"></line><line id="SvgjsLine31468" x1="127.42811174530392" y1="398.4718064788558" x2="417.766805724955" y2="175.96019029156196" stroke="black"></line><line id="SvgjsLine31469" x1="124.93635117256133" y1="397.0954847029235" x2="23.88702191971862" y2="243.80925761262898" stroke="black"></line><line id="SvgjsLine31470" x1="122.4644065970728" y1="395.68388192646944" x2="423.2044777426073" y2="226.76961260653206" stroke="black"></line><line id="SvgjsLine31471" x1="120.0127775316292" y1="394.23728339603576" x2="24.97653678780091" y2="192.7213076605633" stroke="black"></line><line id="SvgjsLine31472" x1="117.58195938380949" y1="392.7559814298552" x2="415.605585045357" y2="277.3010137619346" stroke="black"></line><line id="SvgjsLine31473" x1="115.17244335587166" y1="391.24027535878116" x2="38.96059688455642" y2="143.57243446734685" stroke="black"></line><line id="SvgjsLine31474" x1="112.78471634549457" y1="389.69047146580124" x2="395.464939025668" y2="324.2639784347714" stroke="black"></line><line id="SvgjsLine31475" x1="110.41926084738901" y1="388.1068829241459" x2="64.92861266431663" y2="99.56302832031223" stroke="black"></line><line id="SvgjsLine31476" x1="108.07655485579859" y1="386.48982973400433" x2="364.0940230139639" y2="364.6004545022113" stroke="black"></line><line id="SvgjsLine31477" x1="105.75707176791043" y1="384.83963865786166" x2="101.18964433368869" y2="63.55881668854124" stroke="black"></line><line id="SvgjsLine31478" x1="103.46128028819396" y1="383.1566431544686" x2="323.53559340292725" y2="395.6838819264694" stroke="black"></line><line id="SvgjsLine31479" x1="101.18964433368873" y1="381.4411833114588" x2="145.38250950895636" y2="37.9042587981165" stroke="black"></line><line id="SvgjsLine31480" x1="98.94262294025954" y1="379.6936057766262" x2="276.4306630126552" y2="415.49022449343926" stroke="black"></line><line id="SvgjsLine31481" x1="96.72067016983742" y1="377.9142636878771" x2="194.62953455718997" y2="24.269883240315067" stroke="black"></line><line id="SvgjsLine31482" x1="94.52423501866645" y1="376.10351660187064" x2="225.84652824104978" y2="422.7297674597184" stroke="black"></line><line id="SvgjsLine31483" x1="92.35376132657356" y1="374.2617304213618" x2="245.72393791038166" y2="23.5435094151359" stroke="black"></line><line id="SvgjsLine31484" x1="90.20968768728073" y1="372.38927732126297" x2="175.07703822641662" y2="416.93109893956694" stroke="black"></line><line id="SvgjsLine31485" x1="88.09244735977691" y1="370.48653567343695" x2="295.3386436539774" y2="35.77243606177774" stroke="black"></line><line id="SvgjsLine31486" x1="86.00246818076835" y1="368.55388997023874" x2="127.42811174530392" y2="398.4718064788558" stroke="black"></line><line id="SvgjsLine31487" x1="83.94017247822427" y1="366.59173074681974" x2="340.2429282320896" y2="60.160361342138344" stroke="black"></line><line id="SvgjsLine31488" x1="81.90597698603608" y1="364.6004545022113" x2="86.00246818076835" y2="368.55388997023874" stroke="black"></line><line id="SvgjsLine31489" x1="79.90029275980675" y1="362.58046361920344" x2="377.51279304848526" y2="95.11923502994662" stroke="black"></line><line id="SvgjsLine31490" x1="77.92352509378736" y1="360.5321662830337" x2="53.497590073034644" y2="329.12549192829545" stroke="black"></line><line id="SvgjsLine31491" x1="75.97607343897846" y1="358.455976398904" x2="404.7213642885872" y2="138.37266638544526" stroke="black"></line><line id="SvgjsLine31492" x1="74.05833132241176" y1="356.35231350834226" x2="32.03007317350418" y2="282.7540417555772" stroke="black"></line><line id="SvgjsLine31493" x1="72.17068626762918" y1="354.22160270442373" x2="420.09692184018274" y2="187.10415418266024" stroke="black"></line><line id="SvgjsLine31494" x1="70.31351971637454" y1="352.06427454587185" x2="22.997801667808204" y2="232.45907436916812" stroke="black"></line><line id="SvgjsLine31495" x1="68.48720695151479" y1="349.8807649700534" x2="422.63826706221664" y2="238.14048670582443" stroke="black"></line><line id="SvgjsLine31496" x1="66.6921170212056" y1="347.67151520488807" x2="26.988923200466417" y2="181.51560941178528" stroke="black"></line><line id="SvgjsLine31497" x1="64.92861266431666" y1="345.4369716796878" x2="412.179917085257" y2="288.1583693950383" stroke="black"></line><line id="SvgjsLine31498" x1="63.19705023713203" y1="343.17758593494614" x2="43.74355090614873" y2="133.24089425574834" stroke="black"></line><line id="SvgjsLine31499" x1="61.49777964134006" y1="340.89381453109297" x2="389.40288043530194" y2="333.90082532384855" stroke="black"></line><line id="SvgjsLine31500" x1="59.831144253328176" y1="338.58611895623784" x2="72.17068626762921" y2="90.77839729557624" stroke="black"></line><line id="SvgjsLine31501" x1="58.197480854795316" y1="336.25496553291396" x2="355.79031231271927" y2="372.389277321263" stroke="black"></line><line id="SvgjsLine31502" x1="56.59711956469806" y1="333.9008253238485" x2="110.41926084738887" y2="56.89311707585421" stroke="black"></line><line id="SvgjsLine31503" x1="55.03038377254228" y1="331.524174036773" x2="313.53093708823695" y2="401.1175017458414" stroke="black"></line><line id="SvgjsLine31504" x1="53.497590073034644" y1="329.12549192829545" x2="155.99867092175475" y2="33.791535956256894" stroke="black"></line><line id="SvgjsLine31505" x1="51.999048202108185" y1="326.70526370685445" x2="265.3765267808285" y2="418.21482436952425" stroke="black"></line><line id="SvgjsLine31506" x1="50.535060974332055" y1="324.2639784347715" x2="205.94095625426542" y2="22.977942255796904" stroke="black"></line><line id="SvgjsLine31507" x1="49.105924221722006" y1="321.8021294294262" x2="214.46271598447936" y2="422.5679316673173" stroke="black"></line><line id="SvgjsLine31508" x1="47.71192673396013" y1="319.3202141635694" x2="256.9940625348048" y2="25.15647663938961" stroke="black"></line><line id="SvgjsLine31509" x1="46.353350200038165" y1="316.818734164797" x2="164.10482110376176" y2="413.89336561850854" stroke="black"></line><line id="SvgjsLine31510" x1="45.03046915133672" y1="314.29819491420676" x2="305.83360295930373" y2="40.18528111866439" stroke="black"></line><line id="SvgjsLine31511" x1="43.743550906148755" y1="311.75910574425177" x2="117.58195938380949" y2="392.7559814298552" stroke="black"></line><line id="SvgjsLine31512" x1="42.49285551566274" y1="309.20197973582026" x2="349.2793298301626" y2="67.08573631212289" stroke="black"></line><line id="SvgjsLine31513" x1="41.27863571141282" y1="306.6273336145547" x2="77.92352509378736" y2="360.5321662830337" stroke="black"></line><line id="SvgjsLine31514" x1="40.10113685420902" y1="304.0356876464363" x2="384.5022203586599" y2="104.10618546890697" stroke="black"></line><line id="SvgjsLine31515" x1="38.96059688455645" y1="301.4275655326532" x2="47.71192673396013" y2="319.3202141635694" stroke="black"></line><line id="SvgjsLine31516" x1="37.857246274573555" y1="298.8034943037742" x2="409.20869201857937" y2="148.8359957867491" stroke="black"></line><line id="SvgjsLine31517" x1="36.79130798142063" y1="296.164004213251" x2="28.914430279591755" y2="271.80369282624326" stroke="black"></line><line id="SvgjsLine31518" x1="35.7629974022457" y1="293.5096286302678" x2="421.7899520381353" y2="198.36252977887156" stroke="black"></line><line id="SvgjsLine31519" x1="34.772522330658916" y1="290.8409039319623" x2="22.755058198954004" y2="221.07669992774018" stroke="black"></line><line id="SvgjsLine31520" x1="33.8200829147431" y1="288.15836939503845" x2="421.42675595142305" y2="249.46080530315058" stroke="black"></line><line id="SvgjsLine31521" x1="32.90587161660895" y1="285.46256708679243" x2="29.63488570094202" y2="170.442386991793" stroke="black"></line><line id="SvgjsLine31522" x1="32.03007317350418" y1="282.7540417555772" x2="408.1427537254265" y2="298.80349430377413" stroke="black"></line><line id="SvgjsLine31523" x1="31.19286456048266" y1="280.03334072072164" x2="49.10592422172198" y2="123.19787057057387" stroke="black"></line><line id="SvgjsLine31524" x1="30.394414954642997" y1="277.30101376193466" x2="382.80294976286797" y2="343.1775859349461" stroke="black"></line><line id="SvgjsLine31525" x1="29.63488570094202" y1="274.55761300820706" x2="79.90029275980669" y2="82.41953638079661" stroke="black"></line><line id="SvgjsLine31526" x1="28.914430279591755" y1="271.80369282624326" x2="347.0573770597406" y2="379.69360577662616" stroke="black"></line><line id="SvgjsLine31527" x1="28.23319427504498" y1="269.03980970843804" x2="120.01277753162923" y2="50.76271660396421" stroke="black"></line><line id="SvgjsLine31528" x1="27.591315346576522" y1="266.2665221604242" x2="303.23365324512986" y2="405.97376757166205" stroke="black"></line><line id="SvgjsLine31529" x1="26.988923200466417" y1="263.4843905882148" x2="166.8314039724862" y2="30.288784613649653" stroke="black"></line><line id="SvgjsLine31530" x1="26.42613956378935" y1="260.69397718495907" x2="254.1854148510405" y2="420.3068057488632" stroke="black"></line><line id="SvgjsLine31531" x1="25.903078159817227" y1="257.89584581733976" x2="217.307518723866" y2="22.330926072680086" stroke="black"></line><line id="SvgjsLine31532" x1="25.419844685038782" y1="255.09056191163018" x2="203.10649920412067" y2="421.75940661882026" stroke="black"></line><line id="SvgjsLine31533" x1="24.97653678780091" y1="252.2786923394368" x2="268.1543065060463" y2="27.407326882945114" stroke="black"></line><line id="SvgjsLine31534" x1="24.57324404857698" y1="249.46080530315078" x2="153.32297371757932" y2="410.23698226092495" stroke="black"></line><line id="SvgjsLine31535" x1="24.21004796186469" y1="246.63747022112855" x2="316.0608152017646" y2="45.18743086294472" stroke="black"></line><line id="SvgjsLine31536" x1="23.88702191971862" y1="243.80925761262898" x2="108.07655485579859" y2="386.48982973400433" stroke="black"></line><line id="SvgjsLine31537" x1="23.60423119691933" y1="240.9767389825262" x2="357.9075526402231" y2="74.51346432656302" stroke="black"></line><line id="SvgjsLine31538" x1="23.36173293778336" y1="238.14048670582434" x2="70.31351971637454" y2="352.06427454587185" stroke="black"></line><line id="SvgjsLine31539" x1="23.159576144615784" y1="235.30107391199604" x2="390.9696162274578" y2="113.47582596322704" stroke="black"></line><line id="SvgjsLine31540" x1="22.997801667808204" y1="232.45907436916812" x2="42.49285551566274" y2="309.20197973582026" stroke="black"></line><line id="SvgjsLine31541" x1="22.876442197584055" y1="229.61506236817965" x2="413.0941283833911" y2="159.53743291320757" stroke="black"></line><line id="SvgjsLine31542" x1="22.79552225739269" y1="226.76961260653212" x2="26.42613956378935" y2="260.69397718495907" stroke="black"></line><line id="SvgjsLine31543" x1="22.755058198954004" y1="223.92330007225988" x2="422.8404238553842" y2="209.698926088004" stroke="black"></line><line id="SvgjsLine31544" x1="22.755058198954004" y1="221.07669992774018" x2="23.159576144615784" y2="209.69892608800401" stroke="black"></line><line id="SvgjsLine31545" x1="22.79552225739269" y1="218.23038739346796" x2="419.5738604362107" y2="260.69397718495907" stroke="black"></line><line id="SvgjsLine31546" x1="22.876442197584055" y1="215.38493763182043" x2="32.90587161660892" y2="159.53743291320762" stroke="black"></line><line id="SvgjsLine31547" x1="22.997801667808204" y1="212.54092563083196" x2="403.5071444843373" y2="309.20197973582026" stroke="black"></line><line id="SvgjsLine31548" x1="23.159576144615784" y1="209.69892608800401" x2="55.03038377254225" y2="113.47582596322704" stroke="black"></line><line id="SvgjsLine31549" x1="23.36173293778336" y1="206.85951329417574" x2="375.68648028362554" y2="352.06427454587174" stroke="black"></line><line id="SvgjsLine31550" x1="23.60423119691933" y1="204.02326101747386" x2="88.0924473597768" y2="74.51346432656314" stroke="black"></line><line id="SvgjsLine31551" x1="23.88702191971862" y1="201.1907423873711" x2="337.9234451442014" y2="386.4898297340043" stroke="black"></line><line id="SvgjsLine31552" x1="24.21004796186469" y1="198.36252977887153" x2="129.93918479823537" y2="45.187430862944694" stroke="black"></line><line id="SvgjsLine31553" x1="24.573244048576953" y1="195.5391946968493" x2="292.67702628242074" y2="410.23698226092495" stroke="black"></line><line id="SvgjsLine31554" x1="24.97653678780091" y1="192.7213076605633" x2="177.84569349395377" y2="27.407326882945114" stroke="black"></line><line id="SvgjsLine31555" x1="25.419844685038754" y1="189.90943808836988" x2="242.89350079587928" y2="421.75940661882026" stroke="black"></line><line id="SvgjsLine31556" x1="25.903078159817227" y1="187.10415418266032" x2="228.69248127613403" y2="22.330926072680086" stroke="black"></line><line id="SvgjsLine31557" x1="26.42613956378935" y1="184.306022815041" x2="191.81458514895957" y2="420.3068057488632" stroke="black"></line><line id="SvgjsLine31558" x1="26.988923200466417" y1="181.51560941178528" x2="279.1685960275138" y2="30.288784613649653" stroke="black"></line><line id="SvgjsLine31559" x1="27.591315346576494" y1="178.73347783957587" x2="142.76634675487017" y2="405.97376757166205" stroke="black"></line><line id="SvgjsLine31560" x1="28.23319427504495" y1="175.96019029156201" x2="325.98722246837076" y2="50.76271660396421" stroke="black"></line><line id="SvgjsLine31561" x1="28.914430279591727" y1="173.1963071737568" x2="98.94262294025954" y2="379.6936057766262" stroke="black"></line><line id="SvgjsLine31562" x1="29.63488570094202" y1="170.442386991793" x2="366.0997072401933" y2="82.41953638079656" stroke="black"></line><line id="SvgjsLine31563" x1="30.394414954642997" y1="167.69898623806543" x2="63.19705023713203" y2="343.17758593494614" stroke="black"></line><line id="SvgjsLine31564" x1="31.192864560482633" y1="164.96665927927845" x2="396.89407577827797" y2="123.19787057057378" stroke="black"></line><line id="SvgjsLine31565" x1="32.03007317350415" y1="162.2459582444229" x2="37.857246274573555" y2="298.8034943037742" stroke="black"></line><line id="SvgjsLine31566" x1="32.90587161660892" y1="159.53743291320762" x2="416.36511429905795" y2="170.4423869917929" stroke="black"></line><line id="SvgjsLine31567" x1="33.82008291474307" y1="156.8416306049616" x2="24.57324404857698" y2="249.46080530315078" stroke="black"></line><line id="SvgjsLine31568" x1="34.77252233065889" y1="154.15909606803774" x2="423.244941801046" y2="221.0766999277401" stroke="black"></line><line id="SvgjsLine31569" x1="35.762997402245674" y1="151.49037136973226" x2="24.21004796186469" y2="198.36252977887153" stroke="black"></line><line id="SvgjsLine31570" x1="36.79130798142063" y1="148.83599578674904" x2="417.0855697204082" y2="271.8036928262434" stroke="black"></line><line id="SvgjsLine31571" x1="37.85724627457353" y1="146.19650569622593" x2="36.79130798142063" y2="148.83599578674904" stroke="black"></line><line id="SvgjsLine31572" x1="38.96059688455642" y1="143.57243446734685" x2="398.28807326603993" y2="319.32021416356923" stroke="black"></line><line id="SvgjsLine31573" x1="40.10113685420902" y1="140.96431235356374" x2="61.49777964134" y2="104.10618546890709" stroke="black"></line><line id="SvgjsLine31574" x1="41.27863571141279" y1="138.37266638544534" x2="368.0764749062127" y2="360.5321662830336" stroke="black"></line><line id="SvgjsLine31575" x1="42.49285551566271" y1="135.7980202641798" x2="96.72067016983742" y2="67.08573631212286" stroke="black"></line><line id="SvgjsLine31576" x1="43.74355090614873" y1="133.24089425574834" x2="328.4180406161905" y2="392.7559814298552" stroke="black"></line><line id="SvgjsLine31577" x1="45.03046915133672" y1="130.7018050857933" x2="140.16639704069618" y2="40.18528111866445" stroke="black"></line><line id="SvgjsLine31578" x1="46.353350200038136" y1="128.18126583520305" x2="281.89517889623824" y2="413.8933656185086" stroke="black"></line><line id="SvgjsLine31579" x1="47.7119267339601" y1="125.6797858364307" x2="189.00593746519513" y2="25.15647663938961" stroke="black"></line><line id="SvgjsLine31580" x1="49.10592422172198" y1="123.19787057057387" x2="231.5372840155207" y2="422.5679316673172" stroke="black"></line><line id="SvgjsLine31581" x1="50.535060974332026" y1="120.73602156522857" x2="240.05904374573453" y2="22.977942255796904" stroke="black"></line><line id="SvgjsLine31582" x1="51.99904820210813" y1="118.29473629314563" x2="180.62347321917153" y2="418.21482436952425" stroke="black"></line><line id="SvgjsLine31583" x1="53.497590073034615" y1="115.8745080717046" x2="290.0013290782452" y2="33.791535956256865" stroke="black"></line><line id="SvgjsLine31584" x1="55.03038377254225" y1="113.47582596322704" x2="132.46906291176316" y2="401.11750174584154" stroke="black"></line><line id="SvgjsLine31585" x1="56.597119564698005" y1="111.09917467615156" x2="335.58073915261105" y2="56.89311707585415" stroke="black"></line><line id="SvgjsLine31586" x1="58.19748085479526" y1="108.7450344670861" x2="90.20968768728073" y2="372.38927732126297" stroke="black"></line><line id="SvgjsLine31587" x1="59.83114425332815" y1="106.41388104376222" x2="373.82931373237085" y2="90.77839729557627" stroke="black"></line><line id="SvgjsLine31588" x1="61.49777964134" y1="104.10618546890709" x2="56.59711956469806" y2="333.9008253238485" stroke="black"></line><line id="SvgjsLine31589" x1="63.197050237132004" y1="101.82241406505395" x2="402.25644909385124" y2="133.2408942557482" stroke="black"></line><line id="SvgjsLine31590" x1="64.92861266431663" y1="99.56302832031223" x2="33.8200829147431" y2="288.15836939503845" stroke="black"></line><line id="SvgjsLine31591" x1="66.69211702120555" y1="97.328484795112" x2="419.0110767995336" y2="181.51560941178533" stroke="black"></line><line id="SvgjsLine31592" x1="68.48720695151476" y1="95.11923502994667" x2="23.36173293778336" y2="238.14048670582434" stroke="black"></line><line id="SvgjsLine31593" x1="70.31351971637449" y1="92.9357254541282" x2="423.0021983321918" y2="232.45907436916815" stroke="black"></line><line id="SvgjsLine31594" x1="72.17068626762921" y1="90.77839729557624" x2="25.903078159817227" y2="187.10415418266032" stroke="black"></line><line id="SvgjsLine31595" x1="74.05833132241173" y1="88.64768649165782" x2="413.96992682649585" y2="282.754041755577" stroke="black"></line><line id="SvgjsLine31596" x1="75.97607343897843" y1="86.54402360109603" x2="41.27863571141279" y2="138.37266638544534" stroke="black"></line><line id="SvgjsLine31597" x1="77.92352509378725" y1="84.46783371696645" x2="392.50240992696536" y2="329.12549192829545" stroke="black"></line><line id="SvgjsLine31598" x1="79.90029275980669" y1="82.41953638079661" x2="68.48720695151476" y2="95.11923502994667" stroke="black"></line><line id="SvgjsLine31599" x1="81.90597698603611" y1="80.3995454977887" x2="359.9975318192317" y2="368.55388997023874" stroke="black"></line><line id="SvgjsLine31600" x1="83.94017247822416" y1="78.4082692531804" x2="105.75707176791039" y2="60.16036134213837" stroke="black"></line><line id="SvgjsLine31601" x1="86.00246818076826" y1="76.44611002976129" x2="318.57188825469603" y2="398.47180647885585" stroke="black"></line><line id="SvgjsLine31602" x1="88.0924473597768" y1="74.51346432656314" x2="150.66135634602261" y2="35.77243606177774" stroke="black"></line><line id="SvgjsLine31603" x1="90.2096876872807" y1="72.61072267873706" x2="270.92296177358344" y2="416.93109893956694" stroke="black"></line><line id="SvgjsLine31604" x1="92.35376132657356" y1="70.73826957863818" x2="200.27606208961816" y2="23.5435094151359" stroke="black"></line><line id="SvgjsLine31605" x1="94.5242350186663" y1="68.89648339812948" x2="220.15347175895027" y2="422.7297674597184" stroke="black"></line><line id="SvgjsLine31606" x1="96.72067016983742" y1="67.08573631212286" x2="251.37046544280992" y2="24.26988324031504" stroke="black"></line><line id="SvgjsLine31607" x1="98.94262294025941" y1="65.30639422337384" x2="169.56933698734485" y2="415.49022449343926" stroke="black"></line><line id="SvgjsLine31608" x1="101.18964433368869" y1="63.55881668854124" x2="300.61749049104367" y2="37.90425879811653" stroke="black"></line><line id="SvgjsLine31609" x1="103.46128028819382" y1="61.843356845531474" x2="122.4644065970728" y2="395.68388192646944" stroke="black"></line><line id="SvgjsLine31610" x1="105.75707176791039" y1="60.16036134213837" x2="344.81035566631135" y2="63.55881668854124" stroke="black"></line><line id="SvgjsLine31611" x1="108.07655485579862" y1="58.51017026599567" x2="81.90597698603608" y2="364.6004545022113" stroke="black"></line><line id="SvgjsLine31612" x1="110.41926084738887" y1="56.89311707585421" x2="381.0713873356833" y2="99.56302832031209" stroke="black"></line><line id="SvgjsLine31613" x1="112.7847163454945" y1="55.30952853419879" x2="50.535060974332055" y2="324.2639784347715" stroke="black"></line><line id="SvgjsLine31614" x1="115.17244335587151" y1="53.759724641218924" x2="407.0394031154436" y2="143.57243446734685" stroke="black"></line><line id="SvgjsLine31615" x1="117.58195938380943" y1="52.24401857014482" x2="30.394414954642997" y2="277.30101376193466" stroke="black"></line><line id="SvgjsLine31616" x1="120.01277753162923" y1="50.76271660396421" x2="421.0234632121991" y2="192.72130766056324" stroke="black"></line><line id="SvgjsLine31617" x1="122.46440659707264" y1="49.316118073530674" x2="22.79552225739269" y2="226.76961260653212" stroke="black"></line><line id="SvgjsLine31618" x1="124.93635117256126" y1="47.90451529707656" x2="422.1129780802814" y2="243.80925761262893" stroke="black"></line><line id="SvgjsLine31619" x1="127.42811174530394" y1="46.528193521144175" x2="28.23319427504495" y2="175.96019029156201" stroke="black"></line><line id="SvgjsLine31620" x1="129.93918479823537" y1="45.187430862944694" x2="410.2370025977543" y2="293.5096286302678" stroke="black"></line><line id="SvgjsLine31621" x1="132.46906291176316" y1="43.88249825415846" x2="46.353350200038136" y2="128.18126583520305" stroke="black"></line><line id="SvgjsLine31622" x1="135.01723486630323" y1="42.61365938618698" x2="386.1688557466719" y2="338.5861189562377" stroke="black"></line><line id="SvgjsLine31623" x1="137.58318574558405" y1="41.38117065686794" x2="75.97607343897843" y2="86.54402360109603" stroke="black"></line><line id="SvgjsLine31624" x1="140.16639704069618" y1="40.18528111866445" x2="351.4757649813336" y2="376.10351660187064" stroke="black"></line><line id="SvgjsLine31625" x1="142.76634675487009" y1="39.02623242833798" x2="115.17244335587151" y2="53.759724641218924" stroke="black"></line><line id="SvgjsLine31626" x1="145.38250950895636" y1="37.9042587981165" x2="308.41681425441607" y2="403.618829343132" stroke="black"></line><line id="SvgjsLine31627" x1="148.01435664759094" y1="36.81958694836629" x2="161.3901393494384" y2="31.963159544883865" stroke="black"></line><line id="SvgjsLine31628" x1="150.66135634602261" y1="35.77243606177774" x2="259.7958409427682" y2="419.34036321170134" stroke="black"></line><line id="SvgjsLine31629" x1="153.32297371757917" y1="34.76301773907508" x2="211.6196383980789" y2="22.573638882188618" stroke="black"></line><line id="SvgjsLine31630" x1="155.99867092175475" y1="33.791535956256894" x2="208.77886047334667" y2="422.2443908863612" stroke="black"></line><line id="SvgjsLine31631" x1="158.68790727289155" y1="32.85818702337872" x2="262.59018391168973" y2="26.202573022877885" stroke="black"></line><line id="SvgjsLine31632" x1="161.3901393494384" y1="31.963159544883865" x2="158.68790727289155" y2="412.1418129766213" stroke="black"></line><line id="SvgjsLine31633" x1="164.10482110376176" y1="31.10663438149146" x2="310.9827651336968" y2="42.61365938618698" stroke="black"></line><line id="SvgjsLine31634" x1="166.8314039724862" y1="30.288784613649653" x2="112.78471634549457" y2="389.69047146580124" stroke="black"></line><line id="SvgjsLine31635" x1="169.56933698734488" y1="29.509775506560743" x2="353.6462386734264" y2="70.73826957863815" stroke="black"></line><line id="SvgjsLine31636" x1="172.31806688651477" y1="28.769764476785383" x2="74.05833132241176" y2="356.35231350834226" stroke="black"></line><line id="SvgjsLine31637" x1="175.07703822641656" y1="28.06890106043309" x2="387.8025191452047" y2="108.74503446708604" stroke="black"></line><line id="SvgjsLine31638" x1="177.84569349395377" y1="27.407326882945114" x2="45.03046915133672" y2="314.29819491420676" stroke="black"></line><line id="SvgjsLine31639" x1="180.62347321917144" y1="26.78517563047575" x2="411.22747766934106" y2="154.15909606803766" stroke="black"></line><line id="SvgjsLine31640" x1="183.40981608831027" y1="26.202573022877885" x2="27.591315346576522" y2="266.2665221604242" stroke="black"></line><line id="SvgjsLine31641" x1="186.20415905723166" y1="25.659636788298684" x2="422.3957688030806" y2="204.02326101747377" stroke="black"></line><line id="SvgjsLine31642" x1="189.00593746519513" y1="25.15647663938961" x2="22.876442197584055" y2="215.38493763182043" stroke="black"></line><line id="SvgjsLine31643" x1="191.81458514895957" y1="24.693194251136788" x2="420.58015531496125" y2="255.0905619116301" stroke="black"></line><line id="SvgjsLine31644" x1="194.62953455718997" y1="24.269883240315067" x2="31.192864560482633" y2="164.96665927927845" stroke="black"></line><line id="SvgjsLine31645" x1="197.45021686514468" y1="23.88662914657064" x2="405.898863145791" y2="304.0356876464364" stroke="black"></line><line id="SvgjsLine31646" x1="200.27606208961816" y1="23.5435094151359" x2="51.99904820210813" y2="118.29473629314563" stroke="black"></line><line id="SvgjsLine31647" x1="203.1064992041206" y1="23.240593381179735" x2="379.3078829787944" y2="347.67151520488807" stroke="black"></line><line id="SvgjsLine31648" x1="205.94095625426542" y1="22.977942255796904" x2="83.94017247822416" y2="78.4082692531804" stroke="black"></line><line id="SvgjsLine31649" x1="208.77886047334658" y1="22.755609113638798" x2="342.53871971180615" y2="383.15664315446855" stroke="black"></line><line id="SvgjsLine31650" x1="211.6196383980789" y1="22.573638882188618" x2="124.93635117256126" y2="47.90451529707656" stroke="black"></line><line id="SvgjsLine31651" x1="214.46271598447927" y1="22.432068332682746" x2="297.98564335240906" y2="408.18041305163376" stroke="black"></line><line id="SvgjsLine31652" x1="217.307518723866" y1="22.330926072680086" x2="172.31806688651477" y2="28.769764476785383" stroke="black"></line><line id="SvgjsLine31653" x1="220.1534717589501" y1="22.270232540281597" x2="248.5497831348553" y2="421.1133708534294" stroke="black"></line></svg>