<svg id="SvgjsSvg1001" width="446" height="445" xmlns="http://www.w3.org/2000/svg" version="1.1" xmlns:xlink="http://www.w3.org/1999/xlink" xmlns:svgjs="http://svgjs.com/svgjs"><circle id="SvgjsCircle12322" r="200.25" cx="223" cy="222.5" stroke="black" fill="transparent"></circle><line id="SvgjsLine12323" x1="233.4802752376495" y1="22.524435665396595" x2="243.9318247693476" y2="23.346990452503263" stroke="black"></line><line id="SvgjsLine12324" x1="243.9318247693476" y1="23.346990452503263" x2="264.6343160862563" y2="26.625942953055414" stroke="black"></line><line id="SvgjsLine12325" x1="254.32600162430623" y1="24.71540979582366" x2="284.8806531235832" y2="32.05093261189552" stroke="black"></line><line id="SvgjsLine12326" x1="264.6343160862563" y1="26.625942953055414" x2="304.44901277592896" y2="39.562522107069185" stroke="black"></line><line id="SvgjsLine12327" x1="274.82851378177975" y1="29.073353285614076" x2="323.125" y2="49.07841289216614" stroke="black"></line><line id="SvgjsLine12328" x1="284.8806531235832" y1="32.05093261189552" x2="340.70399677156774" y2="60.494346876416785" stroke="black"></line><line id="SvgjsLine12329" x1="294.7631818964464" y1="35.55051959393535" x2="356.99340392336137" y2="73.68524869815181" stroke="black"></line><line id="SvgjsLine12330" x1="304.44901277592896" y1="39.562522107069185" x2="371.81475130184816" y2="88.50659607663863" stroke="black"></line><line id="SvgjsLine12331" x1="313.91159757284424" y1="44.075943531279336" x2="385.0056531235832" y2="104.79600322843226" stroke="black"></line><line id="SvgjsLine12332" x1="323.125" y1="49.07841289216614" x2="396.42158710783383" y2="122.37499999999997" stroke="black"></line><line id="SvgjsLine12333" x1="332.06396676175916" y1="54.55621876892883" x2="405.9374778929308" y2="141.05098722407098" stroke="black"></line><line id="SvgjsLine12334" x1="340.70399677156774" y1="60.494346876416785" x2="413.4490673881045" y2="160.61934687641678" stroke="black"></line><line id="SvgjsLine12335" x1="349.02140830773" y1="66.87652121824158" x2="418.8740570469446" y2="180.8656839137437" stroke="black"></line><line id="SvgjsLine12336" x1="356.99340392336137" y1="73.68524869815181" x2="422.1530095474967" y2="201.5681752306524" stroke="black"></line><line id="SvgjsLine12337" x1="364.5981329326061" y1="80.90186706739385" x2="423.25" y2="222.5" stroke="black"></line><line id="SvgjsLine12338" x1="371.81475130184816" y1="88.50659607663863" x2="422.1530095474967" y2="243.43182476934757" stroke="black"></line><line id="SvgjsLine12339" x1="378.6234787817584" y1="96.47859169227004" x2="418.8740570469446" y2="264.13431608625626" stroke="black"></line><line id="SvgjsLine12340" x1="385.0056531235832" y1="104.79600322843226" x2="413.4490673881045" y2="284.3806531235832" stroke="black"></line><line id="SvgjsLine12341" x1="390.94378123107117" y1="113.43603323824081" x2="405.9374778929308" y2="303.94901277592896" stroke="black"></line><line id="SvgjsLine12342" x1="396.42158710783383" y1="122.37499999999997" x2="396.42158710783383" y2="322.62499999999994" stroke="black"></line><line id="SvgjsLine12343" x1="401.42405646872066" y1="131.58840242715576" x2="385.0056531235832" y2="340.20399677156774" stroke="black"></line><line id="SvgjsLine12344" x1="405.9374778929308" y1="141.05098722407098" x2="371.8147513018482" y2="356.49340392336126" stroke="black"></line><line id="SvgjsLine12345" x1="409.94948040606465" y1="150.73681810355365" x2="356.9934039233613" y2="371.3147513018482" stroke="black"></line><line id="SvgjsLine12346" x1="413.4490673881045" y1="160.61934687641678" x2="340.70399677156774" y2="384.5056531235832" stroke="black"></line><line id="SvgjsLine12347" x1="416.4266467143859" y1="170.67148621822022" x2="323.125" y2="395.92158710783383" stroke="black"></line><line id="SvgjsLine12348" x1="418.8740570469446" y1="180.8656839137437" x2="304.44901277592896" y2="405.4374778929308" stroke="black"></line><line id="SvgjsLine12349" x1="420.7845902041763" y1="191.17399837569377" x2="284.8806531235832" y2="412.9490673881045" stroke="black"></line><line id="SvgjsLine12350" x1="422.1530095474967" y1="201.5681752306524" x2="264.6343160862563" y2="418.3740570469446" stroke="black"></line><line id="SvgjsLine12351" x1="422.9755643346034" y1="212.01972476235048" x2="243.93182476934766" y2="421.6530095474967" stroke="black"></line><line id="SvgjsLine12352" x1="423.25" y1="222.5" x2="223.00000000000003" y2="422.75" stroke="black"></line><line id="SvgjsLine12353" x1="422.9755643346034" y1="232.9802752376495" x2="202.0681752306524" y2="421.6530095474967" stroke="black"></line><line id="SvgjsLine12354" x1="422.1530095474967" y1="243.43182476934757" x2="181.36568391374374" y2="418.3740570469446" stroke="black"></line><line id="SvgjsLine12355" x1="420.7845902041763" y1="253.82600162430626" x2="161.11934687641673" y2="412.9490673881045" stroke="black"></line><line id="SvgjsLine12356" x1="418.8740570469446" y1="264.13431608625626" x2="141.5509872240711" y2="405.4374778929309" stroke="black"></line><line id="SvgjsLine12357" x1="416.4266467143859" y1="274.3285137817798" x2="122.87499999999997" y2="395.92158710783383" stroke="black"></line><line id="SvgjsLine12358" x1="413.4490673881045" y1="284.3806531235832" x2="105.29600322843228" y2="384.5056531235832" stroke="black"></line><line id="SvgjsLine12359" x1="409.94948040606465" y1="294.2631818964464" x2="89.00659607663863" y2="371.3147513018482" stroke="black"></line><line id="SvgjsLine12360" x1="405.9374778929308" y1="303.94901277592896" x2="74.18524869815184" y2="356.49340392336137" stroke="black"></line><line id="SvgjsLine12361" x1="401.42405646872066" y1="313.41159757284424" x2="60.994346876416785" y2="340.20399677156774" stroke="black"></line><line id="SvgjsLine12362" x1="396.42158710783383" y1="322.62499999999994" x2="49.57841289216623" y2="322.6250000000001" stroke="black"></line><line id="SvgjsLine12363" x1="390.94378123107117" y1="331.56396676175916" x2="40.06252210706916" y2="303.94901277592896" stroke="black"></line><line id="SvgjsLine12364" x1="385.0056531235832" y1="340.20399677156774" x2="32.55093261189552" y2="284.3806531235833" stroke="black"></line><line id="SvgjsLine12365" x1="378.6234787817584" y1="348.5214083077299" x2="27.125942953055443" y2="264.1343160862564" stroke="black"></line><line id="SvgjsLine12366" x1="371.8147513018482" y1="356.49340392336126" x2="23.846990452503263" y2="243.43182476934777" stroke="black"></line><line id="SvgjsLine12367" x1="364.5981329326062" y1="364.0981329326061" x2="22.75" y2="222.50000000000003" stroke="black"></line><line id="SvgjsLine12368" x1="356.9934039233613" y1="371.3147513018482" x2="23.846990452503263" y2="201.56817523065232" stroke="black"></line><line id="SvgjsLine12369" x1="349.0214083077299" y1="378.1234787817584" x2="27.125942953055443" y2="180.86568391374368" stroke="black"></line><line id="SvgjsLine12370" x1="340.70399677156774" y1="384.5056531235832" x2="32.55093261189549" y2="160.6193468764168" stroke="black"></line><line id="SvgjsLine12371" x1="332.0639667617592" y1="390.44378123107117" x2="40.06252210706913" y2="141.0509872240711" stroke="black"></line><line id="SvgjsLine12372" x1="323.125" y1="395.92158710783383" x2="49.57841289216617" y2="122.37499999999997" stroke="black"></line><line id="SvgjsLine12373" x1="313.91159757284424" y1="400.92405646872066" x2="60.994346876416756" y2="104.7960032284323" stroke="black"></line><line id="SvgjsLine12374" x1="304.44901277592896" y1="405.4374778929308" x2="74.18524869815184" y2="88.5065960766386" stroke="black"></line><line id="SvgjsLine12375" x1="294.76318189644644" y1="409.4494804060646" x2="89.00659607663852" y2="73.68524869815192" stroke="black"></line><line id="SvgjsLine12376" x1="284.8806531235832" y1="412.9490673881045" x2="105.29600322843221" y2="60.494346876416785" stroke="black"></line><line id="SvgjsLine12377" x1="274.82851378177986" y1="415.9266467143859" x2="122.87499999999991" y2="49.07841289216623" stroke="black"></line><line id="SvgjsLine12378" x1="264.6343160862563" y1="418.3740570469446" x2="141.55098722407104" y2="39.56252210706916" stroke="black"></line><line id="SvgjsLine12379" x1="254.32600162430626" y1="420.2845902041763" x2="161.11934687641673" y2="32.05093261189552" stroke="black"></line><line id="SvgjsLine12380" x1="243.93182476934766" y1="421.6530095474967" x2="181.3656839137436" y2="26.625942953055443" stroke="black"></line><line id="SvgjsLine12381" x1="233.48027523764958" y1="422.4755643346034" x2="202.06817523065223" y2="23.346990452503263" stroke="black"></line><line id="SvgjsLine12382" x1="223.00000000000003" y1="422.75" x2="223" y2="22.25" stroke="black"></line><line id="SvgjsLine12383" x1="212.51972476235056" y1="422.4755643346034" x2="243.9318247693476" y2="23.346990452503263" stroke="black"></line><line id="SvgjsLine12384" x1="202.0681752306524" y1="421.6530095474967" x2="264.6343160862563" y2="26.625942953055414" stroke="black"></line><line id="SvgjsLine12385" x1="191.6739983756938" y1="420.2845902041763" x2="284.8806531235832" y2="32.05093261189552" stroke="black"></line><line id="SvgjsLine12386" x1="181.36568391374374" y1="418.3740570469446" x2="304.44901277592896" y2="39.562522107069185" stroke="black"></line><line id="SvgjsLine12387" x1="171.1714862182203" y1="415.9266467143859" x2="323.125" y2="49.07841289216614" stroke="black"></line><line id="SvgjsLine12388" x1="161.11934687641673" y1="412.9490673881045" x2="340.70399677156774" y2="60.494346876416785" stroke="black"></line><line id="SvgjsLine12389" x1="151.2368181035536" y1="409.44948040606465" x2="356.99340392336137" y2="73.68524869815181" stroke="black"></line><line id="SvgjsLine12390" x1="141.5509872240711" y1="405.4374778929309" x2="371.81475130184816" y2="88.50659607663863" stroke="black"></line><line id="SvgjsLine12391" x1="132.08840242715587" y1="400.9240564687207" x2="385.0056531235832" y2="104.79600322843226" stroke="black"></line><line id="SvgjsLine12392" x1="122.87499999999997" y1="395.92158710783383" x2="396.42158710783383" y2="122.37499999999997" stroke="black"></line><line id="SvgjsLine12393" x1="113.93603323824082" y1="390.44378123107117" x2="405.9374778929308" y2="141.05098722407098" stroke="black"></line><line id="SvgjsLine12394" x1="105.29600322843228" y1="384.5056531235832" x2="413.4490673881045" y2="160.61934687641678" stroke="black"></line><line id="SvgjsLine12395" x1="96.9785916922701" y1="378.1234787817584" x2="418.8740570469446" y2="180.8656839137437" stroke="black"></line><line id="SvgjsLine12396" x1="89.00659607663863" y1="371.3147513018482" x2="422.1530095474967" y2="201.5681752306524" stroke="black"></line><line id="SvgjsLine12397" x1="81.40186706739388" y1="364.0981329326062" x2="423.25" y2="222.5" stroke="black"></line><line id="SvgjsLine12398" x1="74.18524869815184" y1="356.49340392336137" x2="422.1530095474967" y2="243.43182476934757" stroke="black"></line><line id="SvgjsLine12399" x1="67.37652121824152" y1="348.52140830772987" x2="418.8740570469446" y2="264.13431608625626" stroke="black"></line><line id="SvgjsLine12400" x1="60.994346876416785" y1="340.20399677156774" x2="413.4490673881045" y2="284.3806531235832" stroke="black"></line><line id="SvgjsLine12401" x1="55.05621876892883" y1="331.56396676175916" x2="405.9374778929308" y2="303.94901277592896" stroke="black"></line><line id="SvgjsLine12402" x1="49.57841289216623" y1="322.6250000000001" x2="396.42158710783383" y2="322.62499999999994" stroke="black"></line><line id="SvgjsLine12403" x1="44.575943531279364" y1="313.41159757284424" x2="385.0056531235832" y2="340.20399677156774" stroke="black"></line><line id="SvgjsLine12404" x1="40.06252210706916" y1="303.94901277592896" x2="371.8147513018482" y2="356.49340392336126" stroke="black"></line><line id="SvgjsLine12405" x1="36.05051959393538" y1="294.26318189644644" x2="356.9934039233613" y2="371.3147513018482" stroke="black"></line><line id="SvgjsLine12406" x1="32.55093261189552" y1="284.3806531235833" x2="340.70399677156774" y2="384.5056531235832" stroke="black"></line><line id="SvgjsLine12407" x1="29.573353285614076" y1="274.32851378177975" x2="323.125" y2="395.92158710783383" stroke="black"></line><line id="SvgjsLine12408" x1="27.125942953055443" y1="264.1343160862564" x2="304.44901277592896" y2="405.4374778929308" stroke="black"></line><line id="SvgjsLine12409" x1="25.21540979582369" y1="253.82600162430626" x2="284.8806531235832" y2="412.9490673881045" stroke="black"></line><line id="SvgjsLine12410" x1="23.846990452503263" y1="243.43182476934777" x2="264.6343160862563" y2="418.3740570469446" stroke="black"></line><line id="SvgjsLine12411" x1="23.024435665396567" y1="232.9802752376494" x2="243.93182476934766" y2="421.6530095474967" stroke="black"></line><line id="SvgjsLine12412" x1="22.75" y1="222.50000000000003" x2="223.00000000000003" y2="422.75" stroke="black"></line><line id="SvgjsLine12413" x1="23.024435665396567" y1="212.01972476235065" x2="202.0681752306524" y2="421.6530095474967" stroke="black"></line><line id="SvgjsLine12414" x1="23.846990452503263" y1="201.56817523065232" x2="181.36568391374374" y2="418.3740570469446" stroke="black"></line><line id="SvgjsLine12415" x1="25.21540979582366" y1="191.1739983756938" x2="161.11934687641673" y2="412.9490673881045" stroke="black"></line><line id="SvgjsLine12416" x1="27.125942953055443" y1="180.86568391374368" x2="141.5509872240711" y2="405.4374778929309" stroke="black"></line><line id="SvgjsLine12417" x1="29.573353285614047" y1="170.6714862182203" x2="122.87499999999997" y2="395.92158710783383" stroke="black"></line><line id="SvgjsLine12418" x1="32.55093261189549" y1="160.6193468764168" x2="105.29600322843228" y2="384.5056531235832" stroke="black"></line><line id="SvgjsLine12419" x1="36.05051959393535" y1="150.73681810355362" x2="89.00659607663863" y2="371.3147513018482" stroke="black"></line><line id="SvgjsLine12420" x1="40.06252210706913" y1="141.0509872240711" x2="74.18524869815184" y2="356.49340392336137" stroke="black"></line><line id="SvgjsLine12421" x1="44.57594353127931" y1="131.58840242715578" x2="60.994346876416785" y2="340.20399677156774" stroke="black"></line><line id="SvgjsLine12422" x1="49.57841289216617" y1="122.37499999999997" x2="49.57841289216623" y2="322.6250000000001" stroke="black"></line><line id="SvgjsLine12423" x1="55.0562187689288" y1="113.43603323824091" x2="40.06252210706916" y2="303.94901277592896" stroke="black"></line><line id="SvgjsLine12424" x1="60.994346876416756" y1="104.7960032284323" x2="32.55093261189552" y2="284.3806531235833" stroke="black"></line><line id="SvgjsLine12425" x1="67.37652121824149" y1="96.47859169227017" x2="27.125942953055443" y2="264.1343160862564" stroke="black"></line><line id="SvgjsLine12426" x1="74.18524869815184" y1="88.5065960766386" x2="23.846990452503263" y2="243.43182476934777" stroke="black"></line><line id="SvgjsLine12427" x1="81.40186706739382" y1="80.90186706739388" x2="22.75" y2="222.50000000000003" stroke="black"></line><line id="SvgjsLine12428" x1="89.00659607663852" y1="73.68524869815192" x2="23.846990452503263" y2="201.56817523065232" stroke="black"></line><line id="SvgjsLine12429" x1="96.9785916922701" y1="66.87652121824152" x2="27.125942953055443" y2="180.86568391374368" stroke="black"></line><line id="SvgjsLine12430" x1="105.29600322843221" y1="60.494346876416785" x2="32.55093261189549" y2="160.6193468764168" stroke="black"></line><line id="SvgjsLine12431" x1="113.93603323824085" y1="54.55621876892883" x2="40.06252210706913" y2="141.0509872240711" stroke="black"></line><line id="SvgjsLine12432" x1="122.87499999999991" y1="49.07841289216623" x2="49.57841289216617" y2="122.37499999999997" stroke="black"></line><line id="SvgjsLine12433" x1="132.0884024271557" y1="44.075943531279364" x2="60.994346876416756" y2="104.7960032284323" stroke="black"></line><line id="SvgjsLine12434" x1="141.55098722407104" y1="39.56252210706916" x2="74.18524869815184" y2="88.5065960766386" stroke="black"></line><line id="SvgjsLine12435" x1="151.2368181035535" y1="35.550519593935405" x2="89.00659607663852" y2="73.68524869815192" stroke="black"></line><line id="SvgjsLine12436" x1="161.11934687641673" y1="32.05093261189552" x2="105.29600322843221" y2="60.494346876416785" stroke="black"></line><line id="SvgjsLine12437" x1="171.17148621822022" y1="29.073353285614076" x2="122.87499999999991" y2="49.07841289216623" stroke="black"></line><line id="SvgjsLine12438" x1="181.3656839137436" y1="26.625942953055443" x2="141.55098722407104" y2="39.56252210706916" stroke="black"></line><line id="SvgjsLine12439" x1="191.6739983756937" y1="24.71540979582369" x2="161.11934687641673" y2="32.05093261189552" stroke="black"></line><line id="SvgjsLine12440" x1="202.06817523065223" y1="23.346990452503263" x2="181.3656839137436" y2="26.625942953055443" stroke="black"></line><line id="SvgjsLine12441" x1="212.51972476235056" y1="22.524435665396567" x2="202.06817523065223" y2="23.346990452503263" stroke="black"></line></svg>