<svg id="SvgjsSvg1001" width="446" height="445" xmlns="http://www.w3.org/2000/svg" version="1.1" xmlns:xlink="http://www.w3.org/1999/xlink" xmlns:svgjs="http://svgjs.com/svgjs"><circle id="SvgjsCircle4968" r="200.25" cx="223" cy="222.5" stroke="black" fill="transparent"></circle><line id="SvgjsLine4969" x1="284.8806531235832" y1="32.05093261189552" x2="340.70399677156774" y2="60.494346876416785" stroke="black"></line><line id="SvgjsLine4970" x1="340.70399677156774" y1="60.494346876416785" x2="413.4490673881045" y2="160.61934687641678" stroke="black"></line><line id="SvgjsLine4971" x1="385.0056531235832" y1="104.79600322843226" x2="413.4490673881045" y2="284.3806531235832" stroke="black"></line><line id="SvgjsLine4972" x1="413.4490673881045" y1="160.61934687641678" x2="340.70399677156774" y2="384.5056531235832" stroke="black"></line><line id="SvgjsLine4973" x1="423.25" y1="222.5" x2="223.00000000000003" y2="422.75" stroke="black"></line><line id="SvgjsLine4974" x1="413.4490673881045" y1="284.3806531235832" x2="105.29600322843228" y2="384.5056531235832" stroke="black"></line><line id="SvgjsLine4975" x1="385.0056531235832" y1="340.20399677156774" x2="32.55093261189552" y2="284.3806531235833" stroke="black"></line><line id="SvgjsLine4976" x1="340.70399677156774" y1="384.5056531235832" x2="32.55093261189549" y2="160.6193468764168" stroke="black"></line><line id="SvgjsLine4977" x1="284.8806531235832" y1="412.9490673881045" x2="105.29600322843221" y2="60.494346876416785" stroke="black"></line><line id="SvgjsLine4978" x1="223.00000000000003" y1="422.75" x2="223" y2="22.25" stroke="black"></line><line id="SvgjsLine4979" x1="161.11934687641673" y1="412.9490673881045" x2="340.70399677156774" y2="60.494346876416785" stroke="black"></line><line id="SvgjsLine4980" x1="105.29600322843228" y1="384.5056531235832" x2="413.4490673881045" y2="160.61934687641678" stroke="black"></line><line id="SvgjsLine4981" x1="60.994346876416785" y1="340.20399677156774" x2="413.4490673881045" y2="284.3806531235832" stroke="black"></line><line id="SvgjsLine4982" x1="32.55093261189552" y1="284.3806531235833" x2="340.70399677156774" y2="384.5056531235832" stroke="black"></line><line id="SvgjsLine4983" x1="22.75" y1="222.50000000000003" x2="223.00000000000003" y2="422.75" stroke="black"></line><line id="SvgjsLine4984" x1="32.55093261189549" y1="160.6193468764168" x2="105.29600322843228" y2="384.5056531235832" stroke="black"></line><line id="SvgjsLine4985" x1="60.994346876416756" y1="104.7960032284323" x2="32.55093261189552" y2="284.3806531235833" stroke="black"></line><line id="SvgjsLine4986" x1="105.29600322843221" y1="60.494346876416785" x2="32.55093261189549" y2="160.6193468764168" stroke="black"></line><line id="SvgjsLine4987" x1="161.11934687641673" y1="32.05093261189552" x2="105.29600322843221" y2="60.494346876416785" stroke="black"></line></svg>