<svg id="SvgjsSvg1001" width="446" height="445" xmlns="http://www.w3.org/2000/svg" version="1.1" xmlns:xlink="http://www.w3.org/1999/xlink" xmlns:svgjs="http://svgjs.com/svgjs"><circle id="SvgjsCircle5078" r="200.25" cx="223" cy="222.5" stroke="black" fill="transparent"></circle><line id="SvgjsLine5079" x1="272.8001499047622" y1="28.54122198399162" x2="319.47117323886846" y2="47.01958732121631" stroke="black"></line><line id="SvgjsLine5080" x1="319.47117323886846" y1="47.01958732121631" x2="392.0766670817785" y2="115.20068430545594" stroke="black"></line><line id="SvgjsLine5081" x1="360.0805579622199" y1="76.52403235886234" x2="422.8548523677614" y2="209.92619846425498" stroke="black"></line><line id="SvgjsLine5082" x1="392.0766670817785" y1="115.20068430545594" x2="404.1916172563204" y2="307.7623031359058" stroke="black"></line><line id="SvgjsLine5083" x1="413.4490673881045" y1="160.61934687641678" x2="340.70399677156774" y2="384.5056531235832" stroke="black"></line><line id="SvgjsLine5084" x1="422.8548523677614" y1="209.92619846425498" x2="248.097980021252" y2="421.1709689382242" stroke="black"></line><line id="SvgjsLine5085" x1="419.70302195841987" y1="260.0231082457914" x2="149.28305832489318" y2="408.6877412991223" stroke="black"></line><line id="SvgjsLine5086" x1="404.1916172563204" y1="307.7623031359058" x2="68.70472313414817" y2="350.1441539471751" stroke="black"></line><line id="SvgjsLine5087" x1="377.2952768658518" y1="350.14415394717514" x2="26.296978041580076" y2="260.0231082457914" stroke="black"></line><line id="SvgjsLine5088" x1="340.70399677156774" y1="384.5056531235832" x2="32.55093261189549" y2="160.6193468764168" stroke="black"></line><line id="SvgjsLine5089" x1="296.7169416751068" y1="408.6877412991223" x2="85.91944203778004" y2="76.5240323588624" stroke="black"></line><line id="SvgjsLine5090" x1="248.097980021252" y1="421.1709689382242" x2="173.1998500952377" y2="28.541221983991647" stroke="black"></line><line id="SvgjsLine5091" x1="197.90201997874806" y1="421.1709689382242" x2="272.8001499047622" y2="28.54122198399162" stroke="black"></line><line id="SvgjsLine5092" x1="149.28305832489318" y1="408.6877412991223" x2="360.0805579622199" y2="76.52403235886234" stroke="black"></line><line id="SvgjsLine5093" x1="105.29600322843228" y1="384.5056531235832" x2="413.4490673881045" y2="160.61934687641678" stroke="black"></line><line id="SvgjsLine5094" x1="68.70472313414817" y1="350.1441539471751" x2="419.70302195841987" y2="260.0231082457914" stroke="black"></line><line id="SvgjsLine5095" x1="41.808382743679545" y1="307.7623031359057" x2="377.2952768658518" y2="350.14415394717514" stroke="black"></line><line id="SvgjsLine5096" x1="26.296978041580076" y1="260.0231082457914" x2="296.7169416751068" y2="408.6877412991223" stroke="black"></line><line id="SvgjsLine5097" x1="23.145147632238633" y1="209.9261984642551" x2="197.90201997874806" y2="421.1709689382242" stroke="black"></line><line id="SvgjsLine5098" x1="32.55093261189549" y1="160.6193468764168" x2="105.29600322843228" y2="384.5056531235832" stroke="black"></line><line id="SvgjsLine5099" x1="53.923332918221405" y1="115.20068430545605" x2="41.808382743679545" y2="307.7623031359057" stroke="black"></line><line id="SvgjsLine5100" x1="85.91944203778004" y1="76.5240323588624" x2="23.145147632238633" y2="209.9261984642551" stroke="black"></line><line id="SvgjsLine5101" x1="126.52882676113151" y1="47.01958732121631" x2="53.923332918221405" y2="115.20068430545605" stroke="black"></line><line id="SvgjsLine5102" x1="173.1998500952377" y1="28.541221983991647" x2="126.52882676113151" y2="47.01958732121631" stroke="black"></line></svg>