<svg id="SvgjsSvg1001" width="446" height="445" xmlns="http://www.w3.org/2000/svg" version="1.1" xmlns:xlink="http://www.w3.org/1999/xlink" xmlns:svgjs="http://svgjs.com/svgjs"><circle id="SvgjsCircle12445" r="200.25" cx="223" cy="222.5" stroke="black" fill="transparent"></circle><line id="SvgjsLine12446" x1="264.6343160862563" y1="26.625942953055414" x2="304.44901277592896" y2="39.562522107069185" stroke="black"></line><line id="SvgjsLine12447" x1="304.44901277592896" y1="39.562522107069185" x2="371.81475130184816" y2="88.50659607663863" stroke="black"></line><line id="SvgjsLine12448" x1="340.70399677156774" y1="60.494346876416785" x2="413.4490673881045" y2="160.61934687641678" stroke="black"></line><line id="SvgjsLine12449" x1="371.81475130184816" y1="88.50659607663863" x2="422.1530095474967" y2="243.43182476934757" stroke="black"></line><line id="SvgjsLine12450" x1="396.42158710783383" y1="122.37499999999997" x2="396.42158710783383" y2="322.62499999999994" stroke="black"></line><line id="SvgjsLine12451" x1="413.4490673881045" y1="160.61934687641678" x2="340.70399677156774" y2="384.5056531235832" stroke="black"></line><line id="SvgjsLine12452" x1="422.1530095474967" y1="201.5681752306524" x2="264.6343160862563" y2="418.3740570469446" stroke="black"></line><line id="SvgjsLine12453" x1="422.1530095474967" y1="243.43182476934757" x2="181.36568391374374" y2="418.3740570469446" stroke="black"></line><line id="SvgjsLine12454" x1="413.4490673881045" y1="284.3806531235832" x2="105.29600322843228" y2="384.5056531235832" stroke="black"></line><line id="SvgjsLine12455" x1="396.42158710783383" y1="322.62499999999994" x2="49.57841289216623" y2="322.6250000000001" stroke="black"></line><line id="SvgjsLine12456" x1="371.8147513018482" y1="356.49340392336126" x2="23.846990452503263" y2="243.43182476934777" stroke="black"></line><line id="SvgjsLine12457" x1="340.70399677156774" y1="384.5056531235832" x2="32.55093261189549" y2="160.6193468764168" stroke="black"></line><line id="SvgjsLine12458" x1="304.44901277592896" y1="405.4374778929308" x2="74.18524869815184" y2="88.5065960766386" stroke="black"></line><line id="SvgjsLine12459" x1="264.6343160862563" y1="418.3740570469446" x2="141.55098722407104" y2="39.56252210706916" stroke="black"></line><line id="SvgjsLine12460" x1="223.00000000000003" y1="422.75" x2="223" y2="22.25" stroke="black"></line><line id="SvgjsLine12461" x1="181.36568391374374" y1="418.3740570469446" x2="304.44901277592896" y2="39.562522107069185" stroke="black"></line><line id="SvgjsLine12462" x1="141.5509872240711" y1="405.4374778929309" x2="371.81475130184816" y2="88.50659607663863" stroke="black"></line><line id="SvgjsLine12463" x1="105.29600322843228" y1="384.5056531235832" x2="413.4490673881045" y2="160.61934687641678" stroke="black"></line><line id="SvgjsLine12464" x1="74.18524869815184" y1="356.49340392336137" x2="422.1530095474967" y2="243.43182476934757" stroke="black"></line><line id="SvgjsLine12465" x1="49.57841289216623" y1="322.6250000000001" x2="396.42158710783383" y2="322.62499999999994" stroke="black"></line><line id="SvgjsLine12466" x1="32.55093261189552" y1="284.3806531235833" x2="340.70399677156774" y2="384.5056531235832" stroke="black"></line><line id="SvgjsLine12467" x1="23.846990452503263" y1="243.43182476934777" x2="264.6343160862563" y2="418.3740570469446" stroke="black"></line><line id="SvgjsLine12468" x1="23.846990452503263" y1="201.56817523065232" x2="181.36568391374374" y2="418.3740570469446" stroke="black"></line><line id="SvgjsLine12469" x1="32.55093261189549" y1="160.6193468764168" x2="105.29600322843228" y2="384.5056531235832" stroke="black"></line><line id="SvgjsLine12470" x1="49.57841289216617" y1="122.37499999999997" x2="49.57841289216623" y2="322.6250000000001" stroke="black"></line><line id="SvgjsLine12471" x1="74.18524869815184" y1="88.5065960766386" x2="23.846990452503263" y2="243.43182476934777" stroke="black"></line><line id="SvgjsLine12472" x1="105.29600322843221" y1="60.494346876416785" x2="32.55093261189549" y2="160.6193468764168" stroke="black"></line><line id="SvgjsLine12473" x1="141.55098722407104" y1="39.56252210706916" x2="74.18524869815184" y2="88.5065960766386" stroke="black"></line><line id="SvgjsLine12474" x1="181.3656839137436" y1="26.625942953055443" x2="141.55098722407104" y2="39.56252210706916" stroke="black"></line></svg>