<svg id="SvgjsSvg1001" width="446" height="445" xmlns="http://www.w3.org/2000/svg" version="1.1" xmlns:xlink="http://www.w3.org/1999/xlink" xmlns:svgjs="http://svgjs.com/svgjs"><circle id="SvgjsCircle6003" r="200.25" cx="223" cy="222.5" stroke="black" fill="transparent"></circle><line id="SvgjsLine6004" x1="248.09798002125194" y1="23.829031061775794" x2="272.8001499047622" y2="28.54122198399162" stroke="black"></line><line id="SvgjsLine6005" x1="272.8001499047622" y1="28.54122198399162" x2="319.47117323886846" y2="47.01958732121631" stroke="black"></line><line id="SvgjsLine6006" x1="296.71694167510674" y1="36.312258700877635" x2="360.0805579622199" y2="76.52403235886234" stroke="black"></line><line id="SvgjsLine6007" x1="319.47117323886846" y1="47.01958732121631" x2="392.0766670817785" y2="115.20068430545594" stroke="black"></line><line id="SvgjsLine6008" x1="340.70399677156774" y1="60.494346876416785" x2="413.4490673881045" y2="160.61934687641678" stroke="black"></line><line id="SvgjsLine6009" x1="360.0805579622199" y1="76.52403235886234" x2="422.8548523677614" y2="209.92619846425498" stroke="black"></line><line id="SvgjsLine6010" x1="377.2952768658518" y1="94.8558460528249" x2="419.70302195841987" y2="260.0231082457914" stroke="black"></line><line id="SvgjsLine6011" x1="392.0766670817785" y1="115.20068430545594" x2="404.1916172563204" y2="307.7623031359058" stroke="black"></line><line id="SvgjsLine6012" x1="404.19161725632046" y1="137.2376968640942" x2="377.2952768658518" y2="350.14415394717514" stroke="black"></line><line id="SvgjsLine6013" x1="413.4490673881045" y1="160.61934687641678" x2="340.70399677156774" y2="384.5056531235832" stroke="black"></line><line id="SvgjsLine6014" x1="419.70302195841987" y1="184.97689175420862" x2="296.7169416751068" y2="408.6877412991223" stroke="black"></line><line id="SvgjsLine6015" x1="422.8548523677614" y1="209.92619846425498" x2="248.097980021252" y2="421.1709689382242" stroke="black"></line><line id="SvgjsLine6016" x1="422.8548523677614" y1="235.07380153574502" x2="197.90201997874806" y2="421.1709689382242" stroke="black"></line><line id="SvgjsLine6017" x1="419.70302195841987" y1="260.0231082457914" x2="149.28305832489318" y2="408.6877412991223" stroke="black"></line><line id="SvgjsLine6018" x1="413.4490673881045" y1="284.3806531235832" x2="105.29600322843228" y2="384.5056531235832" stroke="black"></line><line id="SvgjsLine6019" x1="404.1916172563204" y1="307.7623031359058" x2="68.70472313414817" y2="350.1441539471751" stroke="black"></line><line id="SvgjsLine6020" x1="392.0766670817785" y1="329.79931569454413" x2="41.808382743679545" y2="307.7623031359057" stroke="black"></line><line id="SvgjsLine6021" x1="377.2952768658518" y1="350.14415394717514" x2="26.296978041580076" y2="260.0231082457914" stroke="black"></line><line id="SvgjsLine6022" x1="360.0805579622199" y1="368.47596764113763" x2="23.145147632238633" y2="209.9261984642551" stroke="black"></line><line id="SvgjsLine6023" x1="340.70399677156774" y1="384.5056531235832" x2="32.55093261189549" y2="160.6193468764168" stroke="black"></line><line id="SvgjsLine6024" x1="319.4711732388686" y1="397.98041267878364" x2="53.923332918221405" y2="115.20068430545605" stroke="black"></line><line id="SvgjsLine6025" x1="296.7169416751068" y1="408.6877412991223" x2="85.91944203778004" y2="76.5240323588624" stroke="black"></line><line id="SvgjsLine6026" x1="272.8001499047622" y1="416.4587780160084" x2="126.52882676113151" y2="47.01958732121631" stroke="black"></line><line id="SvgjsLine6027" x1="248.097980021252" y1="421.1709689382242" x2="173.1998500952377" y2="28.541221983991647" stroke="black"></line><line id="SvgjsLine6028" x1="223.00000000000003" y1="422.75" x2="223" y2="22.25" stroke="black"></line><line id="SvgjsLine6029" x1="197.90201997874806" y1="421.1709689382242" x2="272.8001499047622" y2="28.54122198399162" stroke="black"></line><line id="SvgjsLine6030" x1="173.1998500952378" y1="416.4587780160084" x2="319.47117323886846" y2="47.01958732121631" stroke="black"></line><line id="SvgjsLine6031" x1="149.28305832489318" y1="408.6877412991223" x2="360.0805579622199" y2="76.52403235886234" stroke="black"></line><line id="SvgjsLine6032" x1="126.52882676113157" y1="397.9804126787837" x2="392.0766670817785" y2="115.20068430545594" stroke="black"></line><line id="SvgjsLine6033" x1="105.29600322843228" y1="384.5056531235832" x2="413.4490673881045" y2="160.61934687641678" stroke="black"></line><line id="SvgjsLine6034" x1="85.91944203778007" y1="368.4759676411377" x2="422.8548523677614" y2="209.92619846425498" stroke="black"></line><line id="SvgjsLine6035" x1="68.70472313414817" y1="350.1441539471751" x2="419.70302195841987" y2="260.0231082457914" stroke="black"></line><line id="SvgjsLine6036" x1="53.92333291822143" y1="329.799315694544" x2="404.1916172563204" y2="307.7623031359058" stroke="black"></line><line id="SvgjsLine6037" x1="41.808382743679545" y1="307.7623031359057" x2="377.2952768658518" y2="350.14415394717514" stroke="black"></line><line id="SvgjsLine6038" x1="32.55093261189552" y1="284.3806531235833" x2="340.70399677156774" y2="384.5056531235832" stroke="black"></line><line id="SvgjsLine6039" x1="26.296978041580076" y1="260.0231082457914" x2="296.7169416751068" y2="408.6877412991223" stroke="black"></line><line id="SvgjsLine6040" x1="23.145147632238633" y1="235.07380153574496" x2="248.097980021252" y2="421.1709689382242" stroke="black"></line><line id="SvgjsLine6041" x1="23.145147632238633" y1="209.9261984642551" x2="197.90201997874806" y2="421.1709689382242" stroke="black"></line><line id="SvgjsLine6042" x1="26.296978041580076" y1="184.9768917542087" x2="149.28305832489318" y2="408.6877412991223" stroke="black"></line><line id="SvgjsLine6043" x1="32.55093261189549" y1="160.6193468764168" x2="105.29600322843228" y2="384.5056531235832" stroke="black"></line><line id="SvgjsLine6044" x1="41.808382743679516" y1="137.23769686409435" x2="68.70472313414817" y2="350.1441539471751" stroke="black"></line><line id="SvgjsLine6045" x1="53.923332918221405" y1="115.20068430545605" x2="41.808382743679545" y2="307.7623031359057" stroke="black"></line><line id="SvgjsLine6046" x1="68.70472313414814" y1="94.85584605282497" x2="26.296978041580076" y2="260.0231082457914" stroke="black"></line><line id="SvgjsLine6047" x1="85.91944203778004" y1="76.5240323588624" x2="23.145147632238633" y2="209.9261984642551" stroke="black"></line><line id="SvgjsLine6048" x1="105.29600322843221" y1="60.494346876416785" x2="32.55093261189549" y2="160.6193468764168" stroke="black"></line><line id="SvgjsLine6049" x1="126.52882676113151" y1="47.01958732121631" x2="53.923332918221405" y2="115.20068430545605" stroke="black"></line><line id="SvgjsLine6050" x1="149.2830583248931" y1="36.31225870087772" x2="85.91944203778004" y2="76.5240323588624" stroke="black"></line><line id="SvgjsLine6051" x1="173.1998500952377" y1="28.541221983991647" x2="126.52882676113151" y2="47.01958732121631" stroke="black"></line><line id="SvgjsLine6052" x1="197.902019978748" y1="23.829031061775822" x2="173.1998500952377" y2="28.541221983991647" stroke="black"></line></svg>