<svg id="SvgjsSvg1001" width="446" height="445" xmlns="http://www.w3.org/2000/svg" version="1.1" xmlns:xlink="http://www.w3.org/1999/xlink" xmlns:svgjs="http://svgjs.com/svgjs"><circle id="SvgjsCircle38186" r="200.25" cx="223" cy="222.5" stroke="black" fill="transparent"></circle><line id="SvgjsLine38187" x1="232.67475424998278" y1="22.48384657682658" x2="418.5323260355617" y2="265.7107854027532" stroke="black"></line><line id="SvgjsLine38188" x1="242.32691266313165" y1="23.18484014779085" x2="138.61442816855111" y2="404.10159076032176" stroke="black"></line><line id="SvgjsLine38189" x1="251.93393217623657" y1="24.351343509927005" x2="63.88581963732068" y2="100.91570780930311" stroke="black"></line><line id="SvgjsLine38190" x1="261.47337515008013" y1="25.98063224058245" x2="376.0542230393061" y2="93.37034689958185" stroke="black"></line><line id="SvgjsLine38191" x1="270.92296177358344" y1="28.06890106043309" x2="316.0608152017647" y2="399.8125691370552" stroke="black"></line><line id="SvgjsLine38192" x1="280.2606220993375" y1="30.611272720889474" x2="29.78367044295382" y2="275.10715248426703" stroke="black"></line><line id="SvgjsLine38193" x1="289.46454758898784" y1="33.60180939513697" x2="213.32524575001713" y2="22.483846576826608" stroke="black"></line><line id="SvgjsLine38194" x1="298.51324204808617" y1="37.03352654620525" x2="420.3916477065631" y2="256.2134975297445" stroke="black"></line><line id="SvgjsLine38195" x1="307.38557183144894" y1="40.89840923967827" x2="147.48675795191383" y2="407.9664734537947" stroke="black"></line><line id="SvgjsLine38196" x1="316.0608152017646" y1="45.18743086294472" x2="58.19748085479526" y2="108.7450344670861" stroke="black"></line><line id="SvgjsLine38197" x1="324.5187107261715" y1="49.89057420727016" x2="369.63680048620415" y2="86.12657427794386" stroke="black"></line><line id="SvgjsLine38198" x1="332.7395045977727" y1="54.996854863452086" x2="324.51871072617143" y2="395.1094257927299" stroke="black"></line><line id="SvgjsLine38199" x1="340.70399677156774" y1="60.494346876416785" x2="32.55093261189552" y2="284.3806531235833" stroke="black"></line><line id="SvgjsLine38200" x1="348.3935858070473" y1="66.37021059883972" x2="203.67308733686843" y2="23.18484014779085" stroke="black"></line><line id="SvgjsLine38201" x1="355.79031231271927" y1="72.610722678737" x2="421.7899520381353" y2="246.6374702211284" stroke="black"></line><line id="SvgjsLine38202" x1="362.87690089109964" y1="79.20130811098977" x2="156.5354524110122" y2="411.3981906048631" stroke="black"></line><line id="SvgjsLine38203" x1="369.63680048620415" y1="86.12657427794386" x2="52.89404599191536" y2="116.84004111774698" stroke="black"></line><line id="SvgjsLine38204" x1="376.0542230393061" y1="93.37034689958185" x2="362.87690089109964" y2="79.20130811098977" stroke="black"></line><line id="SvgjsLine38205" x1="382.1141803626793" y1="100.91570780930309" x2="332.7395045977727" y2="390.0031451365479" stroke="black"></line><line id="SvgjsLine38206" x1="387.8025191452047" y1="108.74503446708604" x2="35.7629974022457" y2="293.5096286302678" stroke="black"></line><line id="SvgjsLine38207" x1="393.1059540080846" y1="116.84004111774692" x2="194.06606782376332" y2="24.351343509927034" stroke="black"></line><line id="SvgjsLine38208" x1="398.01209853346023" y1="125.18182149816815" x2="422.7239732257211" y2="237.00506873239289" stroke="black"></line><line id="SvgjsLine38209" x1="402.50949419346466" y1="133.7508929937519" x2="165.7393779006626" y2="414.3887272791106" stroke="black"></line><line id="SvgjsLine38210" x1="406.5876371121456" y1="142.5272421409695" x2="47.987901466539824" y2="125.18182149816806" stroke="black"></line><line id="SvgjsLine38211" x1="410.2370025977543" y1="151.49037136973226" x2="355.79031231271927" y2="72.610722678737" stroke="black"></line><line id="SvgjsLine38212" x1="413.4490673881045" y1="160.61934687641678" x2="340.70399677156774" y2="384.5056531235832" stroke="black"></line><line id="SvgjsLine38213" x1="416.21632955704615" y1="169.89284751573297" x2="39.412362887854414" y2="302.4727578590306" stroke="black"></line><line id="SvgjsLine38214" x1="418.5323260355617" y1="179.28921459724683" x2="184.52662484991993" y2="25.98063224058245" stroke="black"></line><line id="SvgjsLine38215" x1="420.3916477065631" y1="188.78650247025556" x2="423.19152981955864" y2="227.33878998353543" stroke="black"></line><line id="SvgjsLine38216" x1="421.7899520381353" y1="198.36252977887156" x2="175.07703822641662" y2="416.93109893956694" stroke="black"></line><line id="SvgjsLine38217" x1="422.7239732257211" y1="207.9949312676071" x2="43.49050580653525" y2="133.75089299375205" stroke="black"></line><line id="SvgjsLine38218" x1="423.19152981955864" y1="217.66121001646454" x2="348.3935858070473" y2="66.37021059883972" stroke="black"></line><line id="SvgjsLine38219" x1="423.19152981955864" y1="227.33878998353543" x2="348.3935858070474" y2="378.6297894011602" stroke="black"></line><line id="SvgjsLine38220" x1="422.7239732257211" y1="237.00506873239289" x2="43.49050580653531" y2="311.24910700624804" stroke="black"></line><line id="SvgjsLine38221" x1="421.7899520381353" y1="246.6374702211284" x2="175.07703822641656" y2="28.06890106043309" stroke="black"></line><line id="SvgjsLine38222" x1="420.3916477065631" y1="256.2134975297445" x2="423.19152981955864" y2="217.66121001646454" stroke="black"></line><line id="SvgjsLine38223" x1="418.5323260355617" y1="265.7107854027532" x2="184.5266248499199" y2="419.01936775941755" stroke="black"></line><line id="SvgjsLine38224" x1="416.21632955704615" y1="275.10715248426703" x2="39.412362887854385" y2="142.52724214096946" stroke="black"></line><line id="SvgjsLine38225" x1="413.4490673881045" y1="284.3806531235832" x2="340.70399677156774" y2="60.494346876416785" stroke="black"></line><line id="SvgjsLine38226" x1="410.2370025977543" y1="293.5096286302678" x2="355.79031231271927" y2="372.389277321263" stroke="black"></line><line id="SvgjsLine38227" x1="406.58763711214567" y1="302.4727578590305" x2="47.98790146653985" y2="319.818178501832" stroke="black"></line><line id="SvgjsLine38228" x1="402.50949419346466" y1="311.24910700624804" x2="165.73937790066245" y2="30.611272720889474" stroke="black"></line><line id="SvgjsLine38229" x1="398.0120985334602" y1="319.8181785018319" x2="422.7239732257211" y2="207.9949312676071" stroke="black"></line><line id="SvgjsLine38230" x1="393.1059540080846" y1="328.15995888225314" x2="194.06606782376346" y2="420.648656490073" stroke="black"></line><line id="SvgjsLine38231" x1="387.8025191452047" y1="336.25496553291396" x2="35.762997402245674" y2="151.49037136973226" stroke="black"></line><line id="SvgjsLine38232" x1="382.1141803626793" y1="344.08429219069694" x2="332.7395045977727" y2="54.996854863452086" stroke="black"></line><line id="SvgjsLine38233" x1="376.0542230393062" y1="351.6296531004181" x2="362.87690089109964" y2="365.79869188901023" stroke="black"></line><line id="SvgjsLine38234" x1="369.63680048620415" y1="358.87342572205614" x2="52.89404599191539" y2="328.1599588822531" stroke="black"></line><line id="SvgjsLine38235" x1="362.87690089109964" y1="365.79869188901023" x2="156.53545241101213" y2="33.60180939513697" stroke="black"></line><line id="SvgjsLine38236" x1="355.79031231271927" y1="372.389277321263" x2="421.7899520381353" y2="198.36252977887156" stroke="black"></line><line id="SvgjsLine38237" x1="348.3935858070474" y1="378.6297894011602" x2="203.6730873368684" y2="421.81515985220915" stroke="black"></line><line id="SvgjsLine38238" x1="340.70399677156774" y1="384.5056531235832" x2="32.55093261189549" y2="160.6193468764168" stroke="black"></line><line id="SvgjsLine38239" x1="332.7395045977727" y1="390.0031451365479" x2="324.5187107261715" y2="49.89057420727016" stroke="black"></line><line id="SvgjsLine38240" x1="324.51871072617143" y1="395.1094257927299" x2="369.63680048620415" y2="358.87342572205614" stroke="black"></line><line id="SvgjsLine38241" x1="316.0608152017647" y1="399.8125691370552" x2="58.197480854795316" y2="336.25496553291396" stroke="black"></line><line id="SvgjsLine38242" x1="307.38557183144894" y1="404.10159076032176" x2="147.48675795191375" y2="37.03352654620528" stroke="black"></line><line id="SvgjsLine38243" x1="298.5132420480862" y1="407.9664734537947" x2="420.3916477065631" y2="188.78650247025556" stroke="black"></line><line id="SvgjsLine38244" x1="289.4645475889878" y1="411.3981906048631" x2="213.3252457500173" y2="422.5161534231734" stroke="black"></line><line id="SvgjsLine38245" x1="280.2606220993375" y1="414.3887272791105" x2="29.78367044295379" y2="169.89284751573302" stroke="black"></line><line id="SvgjsLine38246" x1="270.92296177358344" y1="416.93109893956694" x2="316.0608152017646" y2="45.18743086294472" stroke="black"></line><line id="SvgjsLine38247" x1="261.47337515008013" y1="419.01936775941755" x2="376.0542230393062" y2="351.6296531004181" stroke="black"></line><line id="SvgjsLine38248" x1="251.9339321762366" y1="420.648656490073" x2="63.885819637320736" y2="344.08429219069694" stroke="black"></line><line id="SvgjsLine38249" x1="242.32691266313165" y1="421.81515985220915" x2="138.61442816855111" y2="40.898409239678244" stroke="black"></line><line id="SvgjsLine38250" x1="232.67475424998275" y1="422.5161534231734" x2="418.5323260355617" y2="179.28921459724683" stroke="black"></line><line id="SvgjsLine38251" x1="223.00000000000003" y1="422.75" x2="223" y2="22.25" stroke="black"></line><line id="SvgjsLine38252" x1="213.3252457500173" y1="422.5161534231734" x2="27.467673964438234" y2="179.2892145972469" stroke="black"></line><line id="SvgjsLine38253" x1="203.6730873368684" y1="421.81515985220915" x2="307.38557183144894" y2="40.89840923967827" stroke="black"></line><line id="SvgjsLine38254" x1="194.06606782376346" y1="420.648656490073" x2="382.1141803626793" y2="344.08429219069694" stroke="black"></line><line id="SvgjsLine38255" x1="184.5266248499199" y1="419.01936775941755" x2="69.94577696069393" y2="351.62965310041824" stroke="black"></line><line id="SvgjsLine38256" x1="175.07703822641662" y1="416.93109893956694" x2="129.93918479823537" y2="45.187430862944694" stroke="black"></line><line id="SvgjsLine38257" x1="165.7393779006626" y1="414.3887272791106" x2="416.21632955704615" y2="169.89284751573297" stroke="black"></line><line id="SvgjsLine38258" x1="156.5354524110122" y1="411.3981906048631" x2="232.67475424998275" y2="422.5161534231734" stroke="black"></line><line id="SvgjsLine38259" x1="147.48675795191383" y1="407.9664734537947" x2="25.608352293436923" y2="188.78650247025547" stroke="black"></line><line id="SvgjsLine38260" x1="138.61442816855111" y1="404.10159076032176" x2="298.51324204808617" y2="37.03352654620525" stroke="black"></line><line id="SvgjsLine38261" x1="129.93918479823543" y1="399.81256913705533" x2="387.8025191452047" y2="336.25496553291396" stroke="black"></line><line id="SvgjsLine38262" x1="121.48128927382852" y1="395.10942579272984" x2="76.36319951379593" y2="358.8734257220562" stroke="black"></line><line id="SvgjsLine38263" x1="113.26049540222738" y1="390.0031451365479" x2="121.48128927382838" y2="49.89057420727022" stroke="black"></line><line id="SvgjsLine38264" x1="105.29600322843228" y1="384.5056531235832" x2="413.4490673881045" y2="160.61934687641678" stroke="black"></line><line id="SvgjsLine38265" x1="97.60641419295276" y1="378.62978940116034" x2="242.32691266313165" y2="421.81515985220915" stroke="black"></line><line id="SvgjsLine38266" x1="90.20968768728073" y1="372.38927732126297" x2="24.21004796186469" y2="198.36252977887153" stroke="black"></line><line id="SvgjsLine38267" x1="83.12309910890039" y1="365.7986918890103" x2="289.46454758898784" y2="33.60180939513697" stroke="black"></line><line id="SvgjsLine38268" x1="76.36319951379593" y1="358.8734257220562" x2="393.1059540080846" y2="328.15995888225314" stroke="black"></line><line id="SvgjsLine38269" x1="69.94577696069393" y1="351.62965310041824" x2="83.12309910890039" y2="365.7986918890103" stroke="black"></line><line id="SvgjsLine38270" x1="63.885819637320736" y1="344.08429219069694" x2="113.26049540222733" y2="54.996854863452086" stroke="black"></line><line id="SvgjsLine38271" x1="58.197480854795316" y1="336.25496553291396" x2="410.2370025977543" y2="151.49037136973226" stroke="black"></line><line id="SvgjsLine38272" x1="52.89404599191539" y1="328.1599588822531" x2="251.9339321762366" y2="420.648656490073" stroke="black"></line><line id="SvgjsLine38273" x1="47.98790146653985" y1="319.818178501832" x2="23.276026774278904" y2="207.99493126760726" stroke="black"></line><line id="SvgjsLine38274" x1="43.49050580653531" y1="311.24910700624804" x2="280.2606220993375" y2="30.611272720889474" stroke="black"></line><line id="SvgjsLine38275" x1="39.412362887854414" y1="302.4727578590306" x2="398.0120985334602" y2="319.8181785018319" stroke="black"></line><line id="SvgjsLine38276" x1="35.7629974022457" y1="293.5096286302678" x2="90.20968768728073" y2="372.38927732126297" stroke="black"></line><line id="SvgjsLine38277" x1="32.55093261189552" y1="284.3806531235833" x2="105.29600322843221" y2="60.494346876416785" stroke="black"></line><line id="SvgjsLine38278" x1="29.78367044295382" y1="275.10715248426703" x2="406.5876371121456" y2="142.5272421409695" stroke="black"></line><line id="SvgjsLine38279" x1="27.467673964438262" y1="265.7107854027532" x2="261.47337515008013" y2="419.01936775941755" stroke="black"></line><line id="SvgjsLine38280" x1="25.608352293436923" y1="256.2134975297446" x2="22.80847018044136" y2="217.66121001646454" stroke="black"></line><line id="SvgjsLine38281" x1="24.21004796186469" y1="246.63747022112855" x2="270.92296177358344" y2="28.06890106043309" stroke="black"></line><line id="SvgjsLine38282" x1="23.276026774278904" y1="237.0050687323928" x2="402.50949419346466" y2="311.24910700624804" stroke="black"></line><line id="SvgjsLine38283" x1="22.80847018044136" y1="227.33878998353555" x2="97.60641419295276" y2="378.62978940116034" stroke="black"></line><line id="SvgjsLine38284" x1="22.80847018044136" y1="217.66121001646454" x2="97.60641419295277" y2="66.37021059883966" stroke="black"></line><line id="SvgjsLine38285" x1="23.276026774278904" y1="207.99493126760726" x2="402.50949419346466" y2="133.7508929937519" stroke="black"></line><line id="SvgjsLine38286" x1="24.21004796186469" y1="198.36252977887153" x2="270.92296177358344" y2="416.93109893956694" stroke="black"></line><line id="SvgjsLine38287" x1="25.608352293436923" y1="188.78650247025547" x2="22.80847018044136" y2="227.33878998353555" stroke="black"></line><line id="SvgjsLine38288" x1="27.467673964438234" y1="179.2892145972469" x2="261.47337515008013" y2="25.98063224058245" stroke="black"></line><line id="SvgjsLine38289" x1="29.78367044295379" y1="169.89284751573302" x2="406.58763711214567" y2="302.4727578590305" stroke="black"></line><line id="SvgjsLine38290" x1="32.55093261189549" y1="160.6193468764168" x2="105.29600322843228" y2="384.5056531235832" stroke="black"></line><line id="SvgjsLine38291" x1="35.762997402245674" y1="151.49037136973226" x2="90.2096876872807" y2="72.61072267873706" stroke="black"></line><line id="SvgjsLine38292" x1="39.412362887854385" y1="142.52724214096946" x2="398.01209853346023" y2="125.18182149816815" stroke="black"></line><line id="SvgjsLine38293" x1="43.49050580653525" y1="133.75089299375205" x2="280.2606220993375" y2="414.3887272791105" stroke="black"></line><line id="SvgjsLine38294" x1="47.987901466539824" y1="125.18182149816806" x2="23.276026774278904" y2="237.0050687323928" stroke="black"></line><line id="SvgjsLine38295" x1="52.89404599191536" y1="116.84004111774698" x2="251.93393217623657" y2="24.351343509927005" stroke="black"></line><line id="SvgjsLine38296" x1="58.19748085479526" y1="108.7450344670861" x2="410.2370025977543" y2="293.5096286302678" stroke="black"></line><line id="SvgjsLine38297" x1="63.88581963732068" y1="100.91570780930311" x2="113.26049540222738" y2="390.0031451365479" stroke="black"></line><line id="SvgjsLine38298" x1="69.94577696069388" y1="93.37034689958185" x2="83.12309910890028" y2="79.20130811098983" stroke="black"></line><line id="SvgjsLine38299" x1="76.36319951379588" y1="86.12657427794386" x2="393.1059540080846" y2="116.84004111774692" stroke="black"></line><line id="SvgjsLine38300" x1="83.12309910890028" y1="79.20130811098983" x2="289.4645475889878" y2="411.3981906048631" stroke="black"></line><line id="SvgjsLine38301" x1="90.2096876872807" y1="72.61072267873706" x2="24.21004796186469" y2="246.63747022112855" stroke="black"></line><line id="SvgjsLine38302" x1="97.60641419295277" y1="66.37021059883966" x2="242.32691266313165" y2="23.18484014779085" stroke="black"></line><line id="SvgjsLine38303" x1="105.29600322843221" y1="60.494346876416785" x2="413.4490673881045" y2="284.3806531235832" stroke="black"></line><line id="SvgjsLine38304" x1="113.26049540222733" y1="54.996854863452086" x2="121.48128927382852" y2="395.10942579272984" stroke="black"></line><line id="SvgjsLine38305" x1="121.48128927382838" y1="49.89057420727022" x2="76.36319951379588" y2="86.12657427794386" stroke="black"></line><line id="SvgjsLine38306" x1="129.93918479823537" y1="45.187430862944694" x2="387.8025191452047" y2="108.74503446708604" stroke="black"></line><line id="SvgjsLine38307" x1="138.61442816855111" y1="40.898409239678244" x2="298.5132420480862" y2="407.9664734537947" stroke="black"></line><line id="SvgjsLine38308" x1="147.48675795191375" y1="37.03352654620528" x2="25.608352293436923" y2="256.2134975297446" stroke="black"></line><line id="SvgjsLine38309" x1="156.53545241101213" y1="33.60180939513697" x2="232.67475424998278" y2="22.48384657682658" stroke="black"></line><line id="SvgjsLine38310" x1="165.73937790066245" y1="30.611272720889474" x2="416.21632955704615" y2="275.10715248426703" stroke="black"></line><line id="SvgjsLine38311" x1="175.07703822641656" y1="28.06890106043309" x2="129.93918479823543" y2="399.81256913705533" stroke="black"></line><line id="SvgjsLine38312" x1="184.52662484991993" y1="25.98063224058245" x2="69.94577696069388" y2="93.37034689958185" stroke="black"></line><line id="SvgjsLine38313" x1="194.06606782376332" y1="24.351343509927034" x2="382.1141803626793" y2="100.91570780930309" stroke="black"></line><line id="SvgjsLine38314" x1="203.67308733686843" y1="23.18484014779085" x2="307.38557183144894" y2="404.10159076032176" stroke="black"></line><line id="SvgjsLine38315" x1="213.32524575001713" y1="22.483846576826608" x2="27.467673964438262" y2="265.7107854027532" stroke="black"></line></svg>