<svg id="SvgjsSvg1001" width="446" height="445" xmlns="http://www.w3.org/2000/svg" version="1.1" xmlns:xlink="http://www.w3.org/1999/xlink" xmlns:svgjs="http://svgjs.com/svgjs"><circle id="SvgjsCircle12590" r="200.25" cx="223" cy="222.5" stroke="black" fill="transparent"></circle><line id="SvgjsLine12591" x1="235.573801535745" y1="22.645147632238633" x2="260.5231082457914" y2="25.796978041580076" stroke="black"></line><line id="SvgjsLine12592" x1="248.09798002125194" y1="23.829031061775794" x2="296.71694167510674" y2="36.312258700877635" stroke="black"></line><line id="SvgjsLine12593" x1="260.5231082457914" y1="25.796978041580076" x2="330.2993156945441" y2="53.42333291822149" stroke="black"></line><line id="SvgjsLine12594" x1="272.8001499047622" y1="28.54122198399162" x2="360.0805579622199" y2="76.52403235886234" stroke="black"></line><line id="SvgjsLine12595" x1="284.8806531235832" y1="32.05093261189552" x2="385.0056531235832" y2="104.79600322843226" stroke="black"></line><line id="SvgjsLine12596" x1="296.71694167510674" y1="36.312258700877635" x2="404.19161725632046" y2="137.2376968640942" stroke="black"></line><line id="SvgjsLine12597" x1="308.2623031359058" y1="41.3083827436796" x2="416.9587780160084" y2="172.6998500952378" stroke="black"></line><line id="SvgjsLine12598" x1="319.47117323886846" y1="47.01958732121631" x2="422.8548523677614" y2="209.92619846425498" stroke="black"></line><line id="SvgjsLine12599" x1="330.2993156945441" y1="53.42333291822149" x2="421.6709689382242" y2="247.59798002125194" stroke="black"></line><line id="SvgjsLine12600" x1="340.70399677156774" y1="60.494346876416785" x2="413.4490673881045" y2="284.3806531235832" stroke="black"></line><line id="SvgjsLine12601" x1="350.6441539471751" y1="68.2047231341482" x2="398.48041267878364" y2="318.9711732388685" stroke="black"></line><line id="SvgjsLine12602" x1="360.0805579622199" y1="76.52403235886234" x2="377.2952768658518" y2="350.14415394717514" stroke="black"></line><line id="SvgjsLine12603" x1="368.9759676411377" y1="85.4194420377801" x2="350.64415394717514" y2="376.79527686585175" stroke="black"></line><line id="SvgjsLine12604" x1="377.2952768658518" y1="94.8558460528249" x2="319.4711732388686" y2="397.98041267878364" stroke="black"></line><line id="SvgjsLine12605" x1="385.0056531235832" y1="104.79600322843226" x2="284.8806531235832" y2="412.9490673881045" stroke="black"></line><line id="SvgjsLine12606" x1="392.0766670817785" y1="115.20068430545594" x2="248.097980021252" y2="421.1709689382242" stroke="black"></line><line id="SvgjsLine12607" x1="398.4804126787837" y1="126.02882676113154" x2="210.426198464255" y2="422.3548523677614" stroke="black"></line><line id="SvgjsLine12608" x1="404.19161725632046" y1="137.2376968640942" x2="173.1998500952378" y2="416.4587780160084" stroke="black"></line><line id="SvgjsLine12609" x1="409.1877412991223" y1="148.7830583248932" x2="137.7376968640943" y2="403.69161725632046" stroke="black"></line><line id="SvgjsLine12610" x1="413.4490673881045" y1="160.61934687641678" x2="105.29600322843228" y2="384.5056531235832" stroke="black"></line><line id="SvgjsLine12611" x1="416.9587780160084" y1="172.6998500952378" x2="77.02403235886237" y2="359.5805579622199" stroke="black"></line><line id="SvgjsLine12612" x1="419.70302195841987" y1="184.97689175420862" x2="53.92333291822143" y2="329.799315694544" stroke="black"></line><line id="SvgjsLine12613" x1="421.6709689382242" y1="197.40201997874806" x2="36.81225870087772" y2="296.2169416751069" stroke="black"></line><line id="SvgjsLine12614" x1="422.8548523677614" y1="209.92619846425498" x2="26.296978041580076" y2="260.0231082457914" stroke="black"></line><line id="SvgjsLine12615" x1="423.25" y1="222.5" x2="22.75" y2="222.50000000000003" stroke="black"></line><line id="SvgjsLine12616" x1="422.8548523677614" y1="235.07380153574502" x2="26.296978041580076" y2="184.9768917542087" stroke="black"></line><line id="SvgjsLine12617" x1="421.6709689382242" y1="247.59798002125194" x2="36.81225870087769" y2="148.78305832489318" stroke="black"></line><line id="SvgjsLine12618" x1="419.70302195841987" y1="260.0231082457914" x2="53.923332918221405" y2="115.20068430545605" stroke="black"></line><line id="SvgjsLine12619" x1="416.9587780160084" y1="272.3001499047621" x2="77.02403235886234" y2="85.4194420377801" stroke="black"></line><line id="SvgjsLine12620" x1="413.4490673881045" y1="284.3806531235832" x2="105.29600322843221" y2="60.494346876416785" stroke="black"></line><line id="SvgjsLine12621" x1="409.1877412991223" y1="296.2169416751068" x2="137.7376968640943" y2="41.308382743679545" stroke="black"></line><line id="SvgjsLine12622" x1="404.1916172563204" y1="307.7623031359058" x2="173.1998500952377" y2="28.541221983991647" stroke="black"></line><line id="SvgjsLine12623" x1="398.48041267878364" y1="318.9711732388685" x2="210.426198464255" y2="22.645147632238633" stroke="black"></line><line id="SvgjsLine12624" x1="392.0766670817785" y1="329.79931569454413" x2="248.09798002125194" y2="23.829031061775794" stroke="black"></line><line id="SvgjsLine12625" x1="385.0056531235832" y1="340.20399677156774" x2="284.8806531235832" y2="32.05093261189552" stroke="black"></line><line id="SvgjsLine12626" x1="377.2952768658518" y1="350.14415394717514" x2="319.47117323886846" y2="47.01958732121631" stroke="black"></line><line id="SvgjsLine12627" x1="368.97596764113763" y1="359.5805579622199" x2="350.6441539471751" y2="68.2047231341482" stroke="black"></line><line id="SvgjsLine12628" x1="360.0805579622199" y1="368.47596764113763" x2="377.2952768658518" y2="94.8558460528249" stroke="black"></line><line id="SvgjsLine12629" x1="350.64415394717514" y1="376.79527686585175" x2="398.4804126787837" y2="126.02882676113154" stroke="black"></line><line id="SvgjsLine12630" x1="340.70399677156774" y1="384.5056531235832" x2="413.4490673881045" y2="160.61934687641678" stroke="black"></line><line id="SvgjsLine12631" x1="330.29931569454413" y1="391.5766670817785" x2="421.6709689382242" y2="197.40201997874806" stroke="black"></line><line id="SvgjsLine12632" x1="319.4711732388686" y1="397.98041267878364" x2="422.8548523677614" y2="235.07380153574502" stroke="black"></line><line id="SvgjsLine12633" x1="308.2623031359058" y1="403.69161725632034" x2="416.9587780160084" y2="272.3001499047621" stroke="black"></line><line id="SvgjsLine12634" x1="296.7169416751068" y1="408.6877412991223" x2="404.1916172563204" y2="307.7623031359058" stroke="black"></line><line id="SvgjsLine12635" x1="284.8806531235832" y1="412.9490673881045" x2="385.0056531235832" y2="340.20399677156774" stroke="black"></line><line id="SvgjsLine12636" x1="272.8001499047622" y1="416.4587780160084" x2="360.0805579622199" y2="368.47596764113763" stroke="black"></line><line id="SvgjsLine12637" x1="260.52310824579143" y1="419.20302195841987" x2="330.29931569454413" y2="391.5766670817785" stroke="black"></line><line id="SvgjsLine12638" x1="248.097980021252" y1="421.1709689382242" x2="296.7169416751068" y2="408.6877412991223" stroke="black"></line><line id="SvgjsLine12639" x1="235.57380153574505" y1="422.3548523677614" x2="260.52310824579143" y2="419.20302195841987" stroke="black"></line><line id="SvgjsLine12640" x1="223.00000000000003" y1="422.75" x2="223" y2="22.25" stroke="black"></line><line id="SvgjsLine12641" x1="210.426198464255" y1="422.3548523677614" x2="185.47689175420862" y2="419.20302195841987" stroke="black"></line><line id="SvgjsLine12642" x1="197.90201997874806" y1="421.1709689382242" x2="149.28305832489318" y2="408.6877412991223" stroke="black"></line><line id="SvgjsLine12643" x1="185.47689175420862" y1="419.20302195841987" x2="115.70068430545597" y2="391.5766670817785" stroke="black"></line><line id="SvgjsLine12644" x1="173.1998500952378" y1="416.4587780160084" x2="85.91944203778007" y2="368.4759676411377" stroke="black"></line><line id="SvgjsLine12645" x1="161.11934687641673" y1="412.9490673881045" x2="60.994346876416785" y2="340.20399677156774" stroke="black"></line><line id="SvgjsLine12646" x1="149.28305832489318" y1="408.6877412991223" x2="41.808382743679545" y2="307.7623031359057" stroke="black"></line><line id="SvgjsLine12647" x1="137.7376968640943" y1="403.69161725632046" x2="29.041221983991647" y2="272.3001499047623" stroke="black"></line><line id="SvgjsLine12648" x1="126.52882676113157" y1="397.9804126787837" x2="23.145147632238633" y2="235.07380153574496" stroke="black"></line><line id="SvgjsLine12649" x1="115.70068430545597" y1="391.5766670817785" x2="24.329031061775794" y2="197.4020199787481" stroke="black"></line><line id="SvgjsLine12650" x1="105.29600322843228" y1="384.5056531235832" x2="32.55093261189549" y2="160.6193468764168" stroke="black"></line><line id="SvgjsLine12651" x1="95.3558460528249" y1="376.7952768658518" x2="47.51958732121628" y2="126.02882676113158" stroke="black"></line><line id="SvgjsLine12652" x1="85.91944203778007" y1="368.4759676411377" x2="68.70472313414814" y2="94.85584605282497" stroke="black"></line><line id="SvgjsLine12653" x1="77.02403235886237" y1="359.5805579622199" x2="95.3558460528249" y2="68.20472313414817" stroke="black"></line><line id="SvgjsLine12654" x1="68.70472313414817" y1="350.1441539471751" x2="126.52882676113151" y2="47.01958732121631" stroke="black"></line><line id="SvgjsLine12655" x1="60.994346876416785" y1="340.20399677156774" x2="161.11934687641673" y2="32.05093261189552" stroke="black"></line><line id="SvgjsLine12656" x1="53.92333291822143" y1="329.799315694544" x2="197.902019978748" y2="23.829031061775822" stroke="black"></line><line id="SvgjsLine12657" x1="47.51958732121631" y1="318.97117323886846" x2="235.573801535745" y2="22.645147632238633" stroke="black"></line><line id="SvgjsLine12658" x1="41.808382743679545" y1="307.7623031359057" x2="272.8001499047622" y2="28.54122198399162" stroke="black"></line><line id="SvgjsLine12659" x1="36.81225870087772" y1="296.2169416751069" x2="308.2623031359058" y2="41.3083827436796" stroke="black"></line><line id="SvgjsLine12660" x1="32.55093261189552" y1="284.3806531235833" x2="340.70399677156774" y2="60.494346876416785" stroke="black"></line><line id="SvgjsLine12661" x1="29.041221983991647" y1="272.3001499047623" x2="368.9759676411377" y2="85.4194420377801" stroke="black"></line><line id="SvgjsLine12662" x1="26.296978041580076" y1="260.0231082457914" x2="392.0766670817785" y2="115.20068430545594" stroke="black"></line><line id="SvgjsLine12663" x1="24.329031061775822" y1="247.597980021252" x2="409.1877412991223" y2="148.7830583248932" stroke="black"></line><line id="SvgjsLine12664" x1="23.145147632238633" y1="235.07380153574496" x2="419.70302195841987" y2="184.97689175420862" stroke="black"></line><line id="SvgjsLine12665" x1="22.75" y1="222.50000000000003" x2="423.25" y2="222.5" stroke="black"></line><line id="SvgjsLine12666" x1="23.145147632238633" y1="209.9261984642551" x2="419.70302195841987" y2="260.0231082457914" stroke="black"></line><line id="SvgjsLine12667" x1="24.329031061775794" y1="197.4020199787481" x2="409.1877412991223" y2="296.2169416751068" stroke="black"></line><line id="SvgjsLine12668" x1="26.296978041580076" y1="184.9768917542087" x2="392.0766670817785" y2="329.79931569454413" stroke="black"></line><line id="SvgjsLine12669" x1="29.04122198399162" y1="172.6998500952378" x2="368.97596764113763" y2="359.5805579622199" stroke="black"></line><line id="SvgjsLine12670" x1="32.55093261189549" y1="160.6193468764168" x2="340.70399677156774" y2="384.5056531235832" stroke="black"></line><line id="SvgjsLine12671" x1="36.81225870087769" y1="148.78305832489318" x2="308.2623031359058" y2="403.69161725632034" stroke="black"></line><line id="SvgjsLine12672" x1="41.808382743679516" y1="137.23769686409435" x2="272.8001499047622" y2="416.4587780160084" stroke="black"></line><line id="SvgjsLine12673" x1="47.51958732121628" y1="126.02882676113158" x2="235.57380153574505" y2="422.3548523677614" stroke="black"></line><line id="SvgjsLine12674" x1="53.923332918221405" y1="115.20068430545605" x2="197.90201997874806" y2="421.1709689382242" stroke="black"></line><line id="SvgjsLine12675" x1="60.994346876416756" y1="104.7960032284323" x2="161.11934687641673" y2="412.9490673881045" stroke="black"></line><line id="SvgjsLine12676" x1="68.70472313414814" y1="94.85584605282497" x2="126.52882676113157" y2="397.9804126787837" stroke="black"></line><line id="SvgjsLine12677" x1="77.02403235886234" y1="85.4194420377801" x2="95.3558460528249" y2="376.7952768658518" stroke="black"></line><line id="SvgjsLine12678" x1="85.91944203778004" y1="76.5240323588624" x2="68.70472313414817" y2="350.1441539471751" stroke="black"></line><line id="SvgjsLine12679" x1="95.3558460528249" y1="68.20472313414817" x2="47.51958732121631" y2="318.97117323886846" stroke="black"></line><line id="SvgjsLine12680" x1="105.29600322843221" y1="60.494346876416785" x2="32.55093261189552" y2="284.3806531235833" stroke="black"></line><line id="SvgjsLine12681" x1="115.70068430545598" y1="53.42333291822143" x2="24.329031061775822" y2="247.597980021252" stroke="black"></line><line id="SvgjsLine12682" x1="126.52882676113151" y1="47.01958732121631" x2="23.145147632238633" y2="209.9261984642551" stroke="black"></line><line id="SvgjsLine12683" x1="137.7376968640943" y1="41.308382743679545" x2="29.04122198399162" y2="172.6998500952378" stroke="black"></line><line id="SvgjsLine12684" x1="149.2830583248931" y1="36.31225870087772" x2="41.808382743679516" y2="137.23769686409435" stroke="black"></line><line id="SvgjsLine12685" x1="161.11934687641673" y1="32.05093261189552" x2="60.994346876416756" y2="104.7960032284323" stroke="black"></line><line id="SvgjsLine12686" x1="173.1998500952377" y1="28.541221983991647" x2="85.91944203778004" y2="76.5240323588624" stroke="black"></line><line id="SvgjsLine12687" x1="185.47689175420862" y1="25.796978041580076" x2="115.70068430545598" y2="53.42333291822143" stroke="black"></line><line id="SvgjsLine12688" x1="197.902019978748" y1="23.829031061775822" x2="149.2830583248931" y2="36.31225870087772" stroke="black"></line><line id="SvgjsLine12689" x1="210.426198464255" y1="22.645147632238633" x2="185.47689175420862" y2="25.796978041580076" stroke="black"></line></svg>