<svg id="SvgjsSvg1001" width="446" height="445" xmlns="http://www.w3.org/2000/svg" version="1.1" xmlns:xlink="http://www.w3.org/1999/xlink" xmlns:svgjs="http://svgjs.com/svgjs"><circle id="SvgjsCircle19606" r="200.25" cx="223" cy="222.5" stroke="black" fill="transparent"></circle><line id="SvgjsLine19607" x1="226.05378419124344" y1="22.273286242536273" x2="216.89314184132667" y2="22.343139554423857" stroke="black"></line><line id="SvgjsLine19608" x1="229.1068581586733" y1="22.343139554423857" x2="210.7919644821323" y2="22.62247157623125" stroke="black"></line><line id="SvgjsLine19609" x1="232.15851184365408" y1="22.459543689758476" x2="204.70214343743007" y2="23.0877362216265" stroke="black"></line><line id="SvgjsLine19610" x1="235.2080355178677" y1="22.62247157623125" x2="198.62934365821746" y2="23.738500686197455" stroke="black"></line><line id="SvgjsLine19611" x1="238.2547199483763" y1="22.83188532142492" x2="192.57921426175335" y2="24.57415960752448" stroke="black"></line><line id="SvgjsLine19612" x1="241.29785656256993" y1="23.0877362216265" x2="186.5573832765638" y2="25.593935628308486" stroke="black"></line><line id="SvgjsLine19613" x1="244.3367376129602" y1="23.389964773154418" x2="180.56945240706642" y2="26.79688011949375" stroke="black"></line><line id="SvgjsLine19614" x1="247.37065634178254" y1="23.738500686197455" x2="174.62099182268028" y2="28.181874062714286" stroke="black"></line><line id="SvgjsLine19615" x1="250.398907145368" y1="24.133262901162027" x2="168.7175349762727" y2="29.747629091240952" stroke="black"></line><line id="SvgjsLine19616" x1="253.4207857382467" y1="24.574159607524507" x2="162.86457345675993" y2="31.49268868846258" stroke="black"></line><line id="SvgjsLine19617" x1="256.43558931694463" y1="25.061088265183628" x2="157.06755188065114" y2="33.41542954278535" stroke="black"></line><line id="SvgjsLine19618" x1="259.4426167234361" y1="25.593935628308458" x2="151.33186282728798" y2="35.51406305769052" stroke="black"></line><line id="SvgjsLine19619" x1="262.4411686082129" y1="26.172577771676202" x2="145.6628418224907" y2="37.78663701554535" stroke="black"></line><line id="SvgjsLine19620" x1="265.4305475929335" y1="26.79688011949375" x2="140.06576237527702" y2="40.231037393619914" stroke="black"></line><line id="SvgjsLine19621" x1="268.4100584326135" y1="27.46669747669597" x2="134.54583107227157" y2="42.84499033062039" stroke="black"></line><line id="SvgjsLine19622" x1="271.37900817731963" y1="28.181874062714257" x2="129.10818273436837" y2="45.626064241909205" stroke="black"></line><line id="SvgjsLine19623" x1="274.3367063333309" y1="28.942243547706568" x2="123.75787564015204" y2="48.571672081444774" stroke="black"></line><line id="SvgjsLine19624" x1="277.28246502372724" y1="29.747629091240924" x2="118.49988682052218" y2="51.67907374833632" stroke="black"></line><line id="SvgjsLine19625" x1="280.21559914837064" y1="30.597843383423736" x2="113.33910742889509" y2="54.945378635775654" stroke="black"></line><line id="SvgjsLine19626" x1="283.13542654324004" y1="31.49268868846255" x2="108.28033819129342" y2="58.36754831997425" stroke="black"></line><line id="SvgjsLine19627" x1="286.0412681390831" y1="32.431956890653964" x2="103.32828494055336" y2="61.942399386604535" stroke="black"></line><line id="SvgjsLine19628" x1="288.93244811934886" y1="33.41542954278535" x2="98.4875542388048" y2="65.66660639211614" stroke="black"></line><line id="SvgjsLine19629" x1="291.80829407736326" y1="34.44287791693955" x2="93.76264909229641" y2="69.53670495717253" stroke="black"></line><line id="SvgjsLine19630" x1="294.668137172712" y1="35.51406305769052" x2="89.15796476255173" y2="73.54909498932994" stroke="black"></line><line id="SvgjsLine19631" x1="297.5113122867941" y1="36.62873583767757" x2="84.67778467775281" y2="77.70004403196154" stroke="black"></line><line id="SvgjsLine19632" x1="300.3371581775093" y1="37.78663701554535" x2="80.32627644815508" y2="81.98569073631063" stroke="black"></line><line id="SvgjsLine19633" x1="303.14501763304463" y1="38.987497296236086" x2="76.10748798924027" y2="86.40204845344363" stroke="black"></line><line id="SvgjsLine19634" x1="305.934237624723" y1="40.231037393619914" x2="72.02534375621192" y2="90.94500894276183" stroke="black"></line><line id="SvgjsLine19635" x1="308.7041694588794" y1="41.5169680954491" x2="68.08364109333928" y2="95.61034619362114" stroke="black"></line><line id="SvgjsLine19636" x1="311.45416892772846" y1="42.84499033062042" x2="64.286046701543" y2="100.3937203565058" stroke="black"></line><line id="SvgjsLine19637" x1="314.18359645918935" y1="44.214795238730744" x2="60.63609322751029" y2="105.29068178009791" stroke="black"></line><line id="SvgjsLine19638" x1="316.89181726563174" y1="45.62606424190923" x2="57.137175977510594" y2="110.29667515048979" stroke="black"></line><line id="SvgjsLine19639" x1="319.5782014915096" y1="47.07846911890954" x2="53.79254975897095" y2="115.4070437286855" stroke="black"></line><line id="SvgjsLine19640" x1="322.24212435984794" y1="48.571672081444774" x2="50.60532585274737" y2="120.61703368245219" stroke="black"></line><line id="SvgjsLine19641" x1="324.8829663175479" y1="50.10532585274743" x2="47.57846911890948" y2="125.92179850849048" stroke="black"></line><line id="SvgjsLine19642" x1="327.5001131794778" y1="51.67907374833629" x2="44.71479523873069" y2="131.3164035408107" stroke="black"></line><line id="SvgjsLine19643" x1="330.0929562713146" y1="53.292549758971006" x2="42.01696809544907" y2="136.79583054112067" stroke="black"></line><line id="SvgjsLine19644" x1="332.66089257110485" y1="54.945378635775626" x2="39.48749729623606" y2="142.35498236695537" stroke="black"></line><line id="SvgjsLine19645" x1="335.2033248495103" y1="56.63717597751068" x2="37.12873583767757" y2="147.98868771320593" stroke="black"></line><line id="SvgjsLine19646" x1="337.7196618087065" y1="58.36754831997422" x2="34.94287791693955" y2="153.69170592263674" stroke="black"></line><line id="SvgjsLine19647" x1="340.20931821990223" y1="60.1360932275104" x2="32.931956890653936" y2="159.458731860917" stroke="black"></line><line id="SvgjsLine19648" x1="342.6717150594466" y1="61.942399386604535" x2="31.097843383423708" y2="165.28440085162947" stroke="black"></line><line id="SvgjsLine19649" x1="345.10627964349436" y1="63.786046701543114" x2="29.44224354770654" y2="171.16329366666923" stroke="black"></line><line id="SvgjsLine19650" x1="347.5124457611952" y1="65.66660639211614" x2="27.96669747669594" y2="177.08994156738663" stroke="black"></line><line id="SvgjsLine19651" x1="349.8896538063789" y1="67.58364109333928" x2="26.672577771676202" y2="183.05883139178718" stroke="black"></line><line id="SvgjsLine19652" x1="352.2373509077036" y1="69.53670495717253" x2="25.5610882651836" y2="189.0644106830554" stroke="black"></line><line id="SvgjsLine19653" x1="354.5549910572382" y1="71.52534375621192" x2="24.633262901162027" y2="195.10109285463201" stroke="black"></line><line id="SvgjsLine19654" x1="356.84203523744833" y1="73.54909498933" x2="23.889964773154418" y2="201.16326238703982" stroke="black"></line><line id="SvgjsLine19655" x1="359.09795154655643" y1="75.6074879892403" x2="23.33188532142492" y2="207.24528005162367" stroke="black"></line><line id="SvgjsLine19656" x1="361.32221532224725" y1="77.70004403196157" x2="22.959543689758476" y2="213.3414881563459" stroke="black"></line><line id="SvgjsLine19657" x1="363.51430926368937" y1="79.82627644815514" x2="22.773286242536273" y2="219.44621580875653" stroke="black"></line><line id="SvgjsLine19658" x1="365.6737235518449" y1="81.98569073631057" x2="22.773286242536273" y2="225.55378419124355" stroke="black"></line><line id="SvgjsLine19659" x1="367.79995596803843" y1="84.17778467775273" x2="22.959543689758476" y2="231.6585118436542" stroke="black"></line><line id="SvgjsLine19660" x1="369.8925120107597" y1="86.40204845344357" x2="23.33188532142492" y2="237.7547199483764" stroke="black"></line><line id="SvgjsLine19661" x1="371.95090501067" y1="88.65796476255164" x2="23.889964773154418" y2="243.83673761296026" stroke="black"></line><line id="SvgjsLine19662" x1="373.9746562437881" y1="90.94500894276177" x2="24.633262901162027" y2="249.89890714536804" stroke="black"></line><line id="SvgjsLine19663" x1="375.96329504282744" y1="93.26264909229639" x2="25.561088265183628" y2="255.9355893169447" stroke="black"></line><line id="SvgjsLine19664" x1="377.91635890666066" y1="95.61034619362108" x2="26.672577771676202" y2="261.9411686082129" stroke="black"></line><line id="SvgjsLine19665" x1="379.83339360788386" y1="97.98755423880479" x2="27.96669747669597" y2="267.9100584326134" stroke="black"></line><line id="SvgjsLine19666" x1="381.7139532984569" y1="100.39372035650563" x2="29.442243547706568" y2="273.8367063333309" stroke="black"></line><line id="SvgjsLine19667" x1="383.5576006133955" y1="102.82828494055333" x2="31.097843383423736" y2="279.71559914837064" stroke="black"></line><line id="SvgjsLine19668" x1="385.3639067724896" y1="105.29068178009776" x2="32.931956890653936" y2="285.54126813908306" stroke="black"></line><line id="SvgjsLine19669" x1="387.1324516800257" y1="107.78033819129342" x2="34.94287791693958" y2="291.3082940773633" stroke="black"></line><line id="SvgjsLine19670" x1="388.8628240224893" y1="110.29667515048966" x2="37.128735837677596" y2="297.0113122867942" stroke="black"></line><line id="SvgjsLine19671" x1="390.5546213642244" y1="112.83910742889513" x2="39.487497296236114" y2="302.6450176330447" stroke="black"></line><line id="SvgjsLine19672" x1="392.20745024102894" y1="115.40704372868538" x2="42.01696809544913" y2="308.2041694588794" stroke="black"></line><line id="SvgjsLine19673" x1="393.82092625166376" y1="117.99988682052225" x2="44.714795238730744" y2="313.6835964591894" stroke="black"></line><line id="SvgjsLine19674" x1="395.3946741472526" y1="120.6170336824521" x2="47.57846911890954" y2="319.0782014915096" stroke="black"></line><line id="SvgjsLine19675" x1="396.9283279185553" y1="123.25787564015211" x2="50.6053258527474" y2="324.38296631754787" stroke="black"></line><line id="SvgjsLine19676" x1="398.42153088109046" y1="125.92179850849041" x2="53.79254975897098" y2="329.59295627131456" stroke="black"></line><line id="SvgjsLine19677" x1="399.87393575809074" y1="128.60818273436826" x2="57.13717597751065" y2="334.70332484951024" stroke="black"></line><line id="SvgjsLine19678" x1="401.28520476126926" y1="131.31640354081065" x2="60.636093227510344" y2="339.7093182199021" stroke="black"></line><line id="SvgjsLine19679" x1="402.6550096693796" y1="134.04583107227154" x2="64.28604670154303" y2="344.6062796434943" stroke="black"></line><line id="SvgjsLine19680" x1="403.9830319045509" y1="136.7958305411206" x2="68.08364109333931" y2="349.38965380637893" stroke="black"></line><line id="SvgjsLine19681" x1="405.2689626063801" y1="139.56576237527696" x2="72.02534375621192" y2="354.05499105723817" stroke="black"></line><line id="SvgjsLine19682" x1="406.5125027037639" y1="142.3549823669553" x2="76.10748798924027" y2="358.5979515465564" stroke="black"></line><line id="SvgjsLine19683" x1="407.71336298445465" y1="145.16284182249063" x2="80.32627644815514" y2="363.01430926368937" stroke="black"></line><line id="SvgjsLine19684" x1="408.8712641623224" y1="147.9886877132059" x2="84.67778467775278" y2="367.2999559680385" stroke="black"></line><line id="SvgjsLine19685" x1="409.9859369423095" y1="150.83186282728798" x2="89.15796476255176" y2="371.4509050106701" stroke="black"></line><line id="SvgjsLine19686" x1="411.05712208306045" y1="153.69170592263674" x2="93.76264909229647" y2="375.46329504282755" stroke="black"></line><line id="SvgjsLine19687" x1="412.0845704572147" y1="156.5675518806511" x2="98.48755423880488" y2="379.33339360788386" stroke="black"></line><line id="SvgjsLine19688" x1="413.06804310934604" y1="159.45873186091683" x2="103.32828494055342" y2="383.0576006133955" stroke="black"></line><line id="SvgjsLine19689" x1="414.0073113115375" y1="162.36457345675996" x2="108.2803381912935" y2="386.63245168002584" stroke="black"></line><line id="SvgjsLine19690" x1="414.90215661657624" y1="165.28440085162933" x2="113.33910742889523" y2="390.05462136422443" stroke="black"></line><line id="SvgjsLine19691" x1="415.7523709087591" y1="168.21753497627276" x2="118.49988682052232" y2="393.32092625166376" stroke="black"></line><line id="SvgjsLine19692" x1="416.55775645229346" y1="171.1632936666691" x2="123.75787564015218" y2="396.4283279185553" stroke="black"></line><line id="SvgjsLine19693" x1="417.31812593728574" y1="174.1209918226803" x2="129.10818273436834" y2="399.3739357580908" stroke="black"></line><line id="SvgjsLine19694" x1="418.033302523304" y1="177.0899415673865" x2="134.54583107227154" y2="402.15500966937964" stroke="black"></line><line id="SvgjsLine19695" x1="418.7031198805063" y1="180.06945240706648" x2="140.06576237527702" y2="404.7689626063801" stroke="black"></line><line id="SvgjsLine19696" x1="419.32742222832377" y1="183.0588313917871" x2="145.66284182249075" y2="407.2133629844547" stroke="black"></line><line id="SvgjsLine19697" x1="419.9060643716915" y1="186.0573832765639" x2="151.33186282728806" y2="409.48593694230954" stroke="black"></line><line id="SvgjsLine19698" x1="420.4389117348164" y1="189.06441068305534" x2="157.0675518806512" y2="411.5845704572147" stroke="black"></line><line id="SvgjsLine19699" x1="420.9258403924755" y1="192.0792142617533" x2="162.86457345675998" y2="413.5073113115375" stroke="black"></line><line id="SvgjsLine19700" x1="421.366737098838" y1="195.101092854632" x2="168.7175349762728" y2="415.2523709087591" stroke="black"></line><line id="SvgjsLine19701" x1="421.7614993138026" y1="198.12934365821746" x2="174.62099182268042" y2="416.81812593728574" stroke="black"></line><line id="SvgjsLine19702" x1="422.1100352268456" y1="201.16326238703982" x2="180.56945240706656" y2="418.2031198805063" stroke="black"></line><line id="SvgjsLine19703" x1="422.4122637783735" y1="204.20214343743007" x2="186.55738327656397" y2="419.4060643716915" stroke="black"></line><line id="SvgjsLine19704" x1="422.6681146785751" y1="207.24528005162367" x2="192.57921426175335" y2="420.4258403924755" stroke="black"></line><line id="SvgjsLine19705" x1="422.87752842376875" y1="210.2919644821323" x2="198.62934365821746" y2="421.2614993138026" stroke="black"></line><line id="SvgjsLine19706" x1="423.04045631024155" y1="213.3414881563459" x2="204.70214343743007" y2="421.9122637783735" stroke="black"></line><line id="SvgjsLine19707" x1="423.15686044557617" y1="216.3931418413267" x2="210.79196448213239" y2="422.37752842376875" stroke="black"></line><line id="SvgjsLine19708" x1="423.2267137574637" y1="219.44621580875656" x2="216.89314184132672" y2="422.65686044557617" stroke="black"></line><line id="SvgjsLine19709" x1="423.25" y1="222.5" x2="223.00000000000003" y2="422.75" stroke="black"></line><line id="SvgjsLine19710" x1="423.2267137574637" y1="225.5537841912434" x2="229.10685815867333" y2="422.65686044557617" stroke="black"></line><line id="SvgjsLine19711" x1="423.15686044557617" y1="228.60685815867328" x2="235.20803551786767" y2="422.37752842376875" stroke="black"></line><line id="SvgjsLine19712" x1="423.04045631024155" y1="231.65851184365408" x2="241.29785656257" y2="421.9122637783735" stroke="black"></line><line id="SvgjsLine19713" x1="422.87752842376875" y1="234.70803551786767" x2="247.3706563417826" y2="421.2614993138026" stroke="black"></line><line id="SvgjsLine19714" x1="422.6681146785751" y1="237.7547199483763" x2="253.4207857382467" y2="420.4258403924755" stroke="black"></line><line id="SvgjsLine19715" x1="422.4122637783735" y1="240.7978565625699" x2="259.4426167234361" y2="419.4060643716915" stroke="black"></line><line id="SvgjsLine19716" x1="422.11003522684564" y1="243.83673761296018" x2="265.43054759293346" y2="418.2031198805063" stroke="black"></line><line id="SvgjsLine19717" x1="421.7614993138026" y1="246.8706563417825" x2="271.37900817731963" y2="416.81812593728574" stroke="black"></line><line id="SvgjsLine19718" x1="421.366737098838" y1="249.898907145368" x2="277.28246502372724" y2="415.2523709087591" stroke="black"></line><line id="SvgjsLine19719" x1="420.9258403924755" y1="252.92078573824668" x2="283.13542654324004" y2="413.5073113115375" stroke="black"></line><line id="SvgjsLine19720" x1="420.4389117348164" y1="255.93558931694463" x2="288.93244811934886" y2="411.5845704572147" stroke="black"></line><line id="SvgjsLine19721" x1="419.9060643716915" y1="258.94261672343606" x2="294.668137172712" y2="409.4859369423095" stroke="black"></line><line id="SvgjsLine19722" x1="419.3274222283238" y1="261.9411686082128" x2="300.33715817750937" y2="407.21336298445465" stroke="black"></line><line id="SvgjsLine19723" x1="418.7031198805063" y1="264.9305475929335" x2="305.93423762472304" y2="404.76896260638006" stroke="black"></line><line id="SvgjsLine19724" x1="418.03330252330403" y1="267.9100584326134" x2="311.4541689277286" y2="402.1550096693795" stroke="black"></line><line id="SvgjsLine19725" x1="417.31812593728574" y1="270.87900817731963" x2="316.8918172656318" y2="399.37393575809074" stroke="black"></line><line id="SvgjsLine19726" x1="416.55775645229346" y1="273.8367063333308" x2="322.24212435984794" y2="396.4283279185552" stroke="black"></line><line id="SvgjsLine19727" x1="415.7523709087591" y1="276.7824650237272" x2="327.5001131794778" y2="393.3209262516637" stroke="black"></line><line id="SvgjsLine19728" x1="414.90215661657624" y1="279.71559914837064" x2="332.6608925711049" y2="390.0546213642244" stroke="black"></line><line id="SvgjsLine19729" x1="414.0073113115375" y1="282.63542654324004" x2="337.7196618087065" y2="386.6324516800258" stroke="black"></line><line id="SvgjsLine19730" x1="413.06804310934604" y1="285.54126813908306" x2="342.6717150594467" y2="383.05760061339544" stroke="black"></line><line id="SvgjsLine19731" x1="412.0845704572147" y1="288.4324481193488" x2="347.51244576119524" y2="379.3333936078838" stroke="black"></line><line id="SvgjsLine19732" x1="411.05712208306045" y1="291.3082940773632" x2="352.2373509077036" y2="375.46329504282744" stroke="black"></line><line id="SvgjsLine19733" x1="409.98593694230954" y1="294.16813717271197" x2="356.84203523744833" y2="371.45090501067" stroke="black"></line><line id="SvgjsLine19734" x1="408.87126416232246" y1="297.01131228679407" x2="361.32221532224725" y2="367.29995596803843" stroke="black"></line><line id="SvgjsLine19735" x1="407.71336298445465" y1="299.8371581775093" x2="365.6737235518449" y2="363.01430926368937" stroke="black"></line><line id="SvgjsLine19736" x1="406.5125027037639" y1="302.6450176330447" x2="369.8925120107597" y2="358.5979515465564" stroke="black"></line><line id="SvgjsLine19737" x1="405.26896260638006" y1="305.43423762472304" x2="373.9746562437881" y2="354.0549910572382" stroke="black"></line><line id="SvgjsLine19738" x1="403.9830319045509" y1="308.2041694588794" x2="377.91635890666066" y2="349.3896538063789" stroke="black"></line><line id="SvgjsLine19739" x1="402.6550096693796" y1="310.9541689277285" x2="381.7139532984569" y2="344.60627964349436" stroke="black"></line><line id="SvgjsLine19740" x1="401.28520476126926" y1="313.6835964591894" x2="385.3639067724896" y2="339.70931821990223" stroke="black"></line><line id="SvgjsLine19741" x1="399.87393575809074" y1="316.39181726563174" x2="388.86282402248935" y2="334.7033248495103" stroke="black"></line><line id="SvgjsLine19742" x1="398.42153088109046" y1="319.0782014915096" x2="392.207450241029" y2="329.5929562713146" stroke="black"></line><line id="SvgjsLine19743" x1="396.9283279185552" y1="321.74212435984794" x2="395.39467414725254" y2="324.3829663175479" stroke="black"></line><line id="SvgjsLine19744" x1="395.39467414725254" y1="324.3829663175479" x2="398.42153088109046" y2="319.0782014915096" stroke="black"></line><line id="SvgjsLine19745" x1="393.82092625166376" y1="327.0001131794778" x2="401.28520476126926" y2="313.6835964591894" stroke="black"></line><line id="SvgjsLine19746" x1="392.207450241029" y1="329.5929562713146" x2="403.9830319045509" y2="308.2041694588794" stroke="black"></line><line id="SvgjsLine19747" x1="390.5546213642244" y1="332.16089257110485" x2="406.5125027037639" y2="302.6450176330447" stroke="black"></line><line id="SvgjsLine19748" x1="388.86282402248935" y1="334.7033248495103" x2="408.87126416232246" y2="297.01131228679407" stroke="black"></line><line id="SvgjsLine19749" x1="387.13245168002584" y1="337.2196618087065" x2="411.05712208306045" y2="291.3082940773632" stroke="black"></line><line id="SvgjsLine19750" x1="385.3639067724896" y1="339.70931821990223" x2="413.06804310934604" y2="285.54126813908306" stroke="black"></line><line id="SvgjsLine19751" x1="383.5576006133955" y1="342.1717150594467" x2="414.90215661657624" y2="279.71559914837064" stroke="black"></line><line id="SvgjsLine19752" x1="381.7139532984569" y1="344.60627964349436" x2="416.55775645229346" y2="273.8367063333308" stroke="black"></line><line id="SvgjsLine19753" x1="379.83339360788386" y1="347.0124457611952" x2="418.03330252330403" y2="267.9100584326134" stroke="black"></line><line id="SvgjsLine19754" x1="377.91635890666066" y1="349.3896538063789" x2="419.3274222283238" y2="261.9411686082128" stroke="black"></line><line id="SvgjsLine19755" x1="375.96329504282744" y1="351.73735090770356" x2="420.4389117348164" y2="255.93558931694463" stroke="black"></line><line id="SvgjsLine19756" x1="373.9746562437881" y1="354.0549910572382" x2="421.366737098838" y2="249.898907145368" stroke="black"></line><line id="SvgjsLine19757" x1="371.95090501067" y1="356.3420352374483" x2="422.11003522684564" y2="243.83673761296018" stroke="black"></line><line id="SvgjsLine19758" x1="369.8925120107597" y1="358.5979515465564" x2="422.6681146785751" y2="237.7547199483763" stroke="black"></line><line id="SvgjsLine19759" x1="367.7999559680385" y1="360.8222153222472" x2="423.04045631024155" y2="231.65851184365408" stroke="black"></line><line id="SvgjsLine19760" x1="365.6737235518449" y1="363.01430926368937" x2="423.2267137574637" y2="225.5537841912434" stroke="black"></line><line id="SvgjsLine19761" x1="363.51430926368937" y1="365.1737235518449" x2="423.2267137574637" y2="219.44621580875656" stroke="black"></line><line id="SvgjsLine19762" x1="361.32221532224725" y1="367.29995596803843" x2="423.04045631024155" y2="213.3414881563459" stroke="black"></line><line id="SvgjsLine19763" x1="359.09795154655643" y1="369.3925120107597" x2="422.6681146785751" y2="207.24528005162367" stroke="black"></line><line id="SvgjsLine19764" x1="356.84203523744833" y1="371.45090501067" x2="422.1100352268456" y2="201.16326238703982" stroke="black"></line><line id="SvgjsLine19765" x1="354.5549910572382" y1="373.47465624378805" x2="421.366737098838" y2="195.101092854632" stroke="black"></line><line id="SvgjsLine19766" x1="352.2373509077036" y1="375.46329504282744" x2="420.4389117348164" y2="189.06441068305534" stroke="black"></line><line id="SvgjsLine19767" x1="349.88965380637893" y1="377.41635890666066" x2="419.32742222832377" y2="183.0588313917871" stroke="black"></line><line id="SvgjsLine19768" x1="347.51244576119524" y1="379.3333936078838" x2="418.033302523304" y2="177.0899415673865" stroke="black"></line><line id="SvgjsLine19769" x1="345.1062796434944" y1="381.2139532984569" x2="416.55775645229346" y2="171.1632936666691" stroke="black"></line><line id="SvgjsLine19770" x1="342.6717150594467" y1="383.05760061339544" x2="414.90215661657624" y2="165.28440085162933" stroke="black"></line><line id="SvgjsLine19771" x1="340.2093182199023" y1="384.8639067724896" x2="413.06804310934604" y2="159.45873186091683" stroke="black"></line><line id="SvgjsLine19772" x1="337.7196618087065" y1="386.6324516800258" x2="411.05712208306045" y2="153.69170592263674" stroke="black"></line><line id="SvgjsLine19773" x1="335.2033248495103" y1="388.3628240224893" x2="408.8712641623224" y2="147.9886877132059" stroke="black"></line><line id="SvgjsLine19774" x1="332.6608925711049" y1="390.0546213642244" x2="406.5125027037639" y2="142.3549823669553" stroke="black"></line><line id="SvgjsLine19775" x1="330.0929562713146" y1="391.70745024102894" x2="403.9830319045509" y2="136.7958305411206" stroke="black"></line><line id="SvgjsLine19776" x1="327.5001131794778" y1="393.3209262516637" x2="401.28520476126926" y2="131.31640354081065" stroke="black"></line><line id="SvgjsLine19777" x1="324.8829663175479" y1="394.89467414725254" x2="398.42153088109046" y2="125.92179850849041" stroke="black"></line><line id="SvgjsLine19778" x1="322.24212435984794" y1="396.4283279185552" x2="395.3946741472526" y2="120.6170336824521" stroke="black"></line><line id="SvgjsLine19779" x1="319.5782014915096" y1="397.92153088109046" x2="392.20745024102894" y2="115.40704372868538" stroke="black"></line><line id="SvgjsLine19780" x1="316.8918172656318" y1="399.37393575809074" x2="388.8628240224893" y2="110.29667515048966" stroke="black"></line><line id="SvgjsLine19781" x1="314.1835964591894" y1="400.78520476126926" x2="385.3639067724896" y2="105.29068178009776" stroke="black"></line><line id="SvgjsLine19782" x1="311.4541689277286" y1="402.1550096693795" x2="381.7139532984569" y2="100.39372035650563" stroke="black"></line><line id="SvgjsLine19783" x1="308.7041694588794" y1="403.4830319045509" x2="377.91635890666066" y2="95.61034619362108" stroke="black"></line><line id="SvgjsLine19784" x1="305.93423762472304" y1="404.76896260638006" x2="373.9746562437881" y2="90.94500894276177" stroke="black"></line><line id="SvgjsLine19785" x1="303.1450176330447" y1="406.0125027037639" x2="369.8925120107597" y2="86.40204845344357" stroke="black"></line><line id="SvgjsLine19786" x1="300.33715817750937" y1="407.21336298445465" x2="365.6737235518449" y2="81.98569073631057" stroke="black"></line><line id="SvgjsLine19787" x1="297.51131228679407" y1="408.37126416232246" x2="361.32221532224725" y2="77.70004403196157" stroke="black"></line><line id="SvgjsLine19788" x1="294.668137172712" y1="409.4859369423095" x2="356.84203523744833" y2="73.54909498933" stroke="black"></line><line id="SvgjsLine19789" x1="291.8082940773632" y1="410.55712208306045" x2="352.2373509077036" y2="69.53670495717253" stroke="black"></line><line id="SvgjsLine19790" x1="288.93244811934886" y1="411.5845704572147" x2="347.5124457611952" y2="65.66660639211614" stroke="black"></line><line id="SvgjsLine19791" x1="286.0412681390831" y1="412.56804310934604" x2="342.6717150594466" y2="61.942399386604535" stroke="black"></line><line id="SvgjsLine19792" x1="283.13542654324004" y1="413.5073113115375" x2="337.7196618087065" y2="58.36754831997422" stroke="black"></line><line id="SvgjsLine19793" x1="280.2155991483707" y1="414.40215661657624" x2="332.66089257110485" y2="54.945378635775626" stroke="black"></line><line id="SvgjsLine19794" x1="277.28246502372724" y1="415.2523709087591" x2="327.5001131794778" y2="51.67907374833629" stroke="black"></line><line id="SvgjsLine19795" x1="274.33670633333094" y1="416.05775645229346" x2="322.24212435984794" y2="48.571672081444774" stroke="black"></line><line id="SvgjsLine19796" x1="271.37900817731963" y1="416.81812593728574" x2="316.89181726563174" y2="45.62606424190923" stroke="black"></line><line id="SvgjsLine19797" x1="268.4100584326134" y1="417.53330252330403" x2="311.45416892772846" y2="42.84499033062042" stroke="black"></line><line id="SvgjsLine19798" x1="265.43054759293346" y1="418.2031198805063" x2="305.934237624723" y2="40.231037393619914" stroke="black"></line><line id="SvgjsLine19799" x1="262.4411686082129" y1="418.8274222283238" x2="300.3371581775093" y2="37.78663701554535" stroke="black"></line><line id="SvgjsLine19800" x1="259.4426167234361" y1="419.4060643716915" x2="294.668137172712" y2="35.51406305769052" stroke="black"></line><line id="SvgjsLine19801" x1="256.43558931694463" y1="419.9389117348164" x2="288.93244811934886" y2="33.41542954278535" stroke="black"></line><line id="SvgjsLine19802" x1="253.4207857382467" y1="420.4258403924755" x2="283.13542654324004" y2="31.49268868846255" stroke="black"></line><line id="SvgjsLine19803" x1="250.39890714536804" y1="420.866737098838" x2="277.28246502372724" y2="29.747629091240924" stroke="black"></line><line id="SvgjsLine19804" x1="247.3706563417826" y1="421.2614993138026" x2="271.37900817731963" y2="28.181874062714257" stroke="black"></line><line id="SvgjsLine19805" x1="244.33673761296023" y1="421.6100352268456" x2="265.4305475929335" y2="26.79688011949375" stroke="black"></line><line id="SvgjsLine19806" x1="241.29785656257" y1="421.9122637783735" x2="259.4426167234361" y2="25.593935628308458" stroke="black"></line><line id="SvgjsLine19807" x1="238.2547199483763" y1="422.1681146785751" x2="253.4207857382467" y2="24.574159607524507" stroke="black"></line><line id="SvgjsLine19808" x1="235.20803551786767" y1="422.37752842376875" x2="247.37065634178254" y2="23.738500686197455" stroke="black"></line><line id="SvgjsLine19809" x1="232.15851184365408" y1="422.54045631024155" x2="241.29785656256993" y2="23.0877362216265" stroke="black"></line><line id="SvgjsLine19810" x1="229.10685815867333" y1="422.65686044557617" x2="235.2080355178677" y2="22.62247157623125" stroke="black"></line><line id="SvgjsLine19811" x1="226.05378419124344" y1="422.7267137574637" x2="229.1068581586733" y2="22.343139554423857" stroke="black"></line><line id="SvgjsLine19812" x1="223.00000000000003" y1="422.75" x2="223" y2="22.25" stroke="black"></line><line id="SvgjsLine19813" x1="219.94621580875662" y1="422.7267137574637" x2="216.89314184132667" y2="22.343139554423857" stroke="black"></line><line id="SvgjsLine19814" x1="216.89314184132672" y1="422.65686044557617" x2="210.7919644821323" y2="22.62247157623125" stroke="black"></line><line id="SvgjsLine19815" x1="213.84148815634597" y1="422.54045631024155" x2="204.70214343743007" y2="23.0877362216265" stroke="black"></line><line id="SvgjsLine19816" x1="210.79196448213239" y1="422.37752842376875" x2="198.62934365821746" y2="23.738500686197455" stroke="black"></line><line id="SvgjsLine19817" x1="207.74528005162375" y1="422.1681146785751" x2="192.57921426175335" y2="24.57415960752448" stroke="black"></line><line id="SvgjsLine19818" x1="204.70214343743007" y1="421.9122637783735" x2="186.5573832765638" y2="25.593935628308486" stroke="black"></line><line id="SvgjsLine19819" x1="201.6632623870398" y1="421.6100352268456" x2="180.56945240706642" y2="26.79688011949375" stroke="black"></line><line id="SvgjsLine19820" x1="198.62934365821746" y1="421.2614993138026" x2="174.62099182268028" y2="28.181874062714286" stroke="black"></line><line id="SvgjsLine19821" x1="195.60109285463201" y1="420.866737098838" x2="168.7175349762727" y2="29.747629091240952" stroke="black"></line><line id="SvgjsLine19822" x1="192.57921426175335" y1="420.4258403924755" x2="162.86457345675993" y2="31.49268868846258" stroke="black"></line><line id="SvgjsLine19823" x1="189.5644106830554" y1="419.93891173481643" x2="157.06755188065114" y2="33.41542954278535" stroke="black"></line><line id="SvgjsLine19824" x1="186.55738327656397" y1="419.4060643716915" x2="151.33186282728798" y2="35.51406305769052" stroke="black"></line><line id="SvgjsLine19825" x1="183.55883139178718" y1="418.8274222283238" x2="145.6628418224907" y2="37.78663701554535" stroke="black"></line><line id="SvgjsLine19826" x1="180.56945240706656" y1="418.2031198805063" x2="140.06576237527702" y2="40.231037393619914" stroke="black"></line><line id="SvgjsLine19827" x1="177.58994156738663" y1="417.5333025233041" x2="134.54583107227157" y2="42.84499033062039" stroke="black"></line><line id="SvgjsLine19828" x1="174.62099182268042" y1="416.81812593728574" x2="129.10818273436837" y2="45.626064241909205" stroke="black"></line><line id="SvgjsLine19829" x1="171.66329366666912" y1="416.05775645229346" x2="123.75787564015204" y2="48.571672081444774" stroke="black"></line><line id="SvgjsLine19830" x1="168.7175349762728" y1="415.2523709087591" x2="118.49988682052218" y2="51.67907374833632" stroke="black"></line><line id="SvgjsLine19831" x1="165.78440085162936" y1="414.40215661657624" x2="113.33910742889509" y2="54.945378635775654" stroke="black"></line><line id="SvgjsLine19832" x1="162.86457345675998" y1="413.5073113115375" x2="108.28033819129342" y2="58.36754831997425" stroke="black"></line><line id="SvgjsLine19833" x1="159.9587318609169" y1="412.56804310934604" x2="103.32828494055336" y2="61.942399386604535" stroke="black"></line><line id="SvgjsLine19834" x1="157.0675518806512" y1="411.5845704572147" x2="98.4875542388048" y2="65.66660639211614" stroke="black"></line><line id="SvgjsLine19835" x1="154.19170592263683" y1="410.55712208306045" x2="93.76264909229641" y2="69.53670495717253" stroke="black"></line><line id="SvgjsLine19836" x1="151.33186282728806" y1="409.48593694230954" x2="89.15796476255173" y2="73.54909498932994" stroke="black"></line><line id="SvgjsLine19837" x1="148.488687713206" y1="408.37126416232246" x2="84.67778467775281" y2="77.70004403196154" stroke="black"></line><line id="SvgjsLine19838" x1="145.66284182249075" y1="407.2133629844547" x2="80.32627644815508" y2="81.98569073631063" stroke="black"></line><line id="SvgjsLine19839" x1="142.85498236695545" y1="406.01250270376397" x2="76.10748798924027" y2="86.40204845344363" stroke="black"></line><line id="SvgjsLine19840" x1="140.06576237527702" y1="404.7689626063801" x2="72.02534375621192" y2="90.94500894276183" stroke="black"></line><line id="SvgjsLine19841" x1="137.29583054112067" y1="403.4830319045509" x2="68.08364109333928" y2="95.61034619362114" stroke="black"></line><line id="SvgjsLine19842" x1="134.54583107227154" y1="402.15500966937964" x2="64.286046701543" y2="100.3937203565058" stroke="black"></line><line id="SvgjsLine19843" x1="131.81640354081068" y1="400.78520476126926" x2="60.63609322751029" y2="105.29068178009791" stroke="black"></line><line id="SvgjsLine19844" x1="129.10818273436834" y1="399.3739357580908" x2="57.137175977510594" y2="110.29667515048979" stroke="black"></line><line id="SvgjsLine19845" x1="126.42179850849047" y1="397.92153088109046" x2="53.79254975897095" y2="115.4070437286855" stroke="black"></line><line id="SvgjsLine19846" x1="123.75787564015218" y1="396.4283279185553" x2="50.60532585274737" y2="120.61703368245219" stroke="black"></line><line id="SvgjsLine19847" x1="121.11703368245216" y1="394.89467414725266" x2="47.57846911890948" y2="125.92179850849048" stroke="black"></line><line id="SvgjsLine19848" x1="118.49988682052232" y1="393.32092625166376" x2="44.71479523873069" y2="131.3164035408107" stroke="black"></line><line id="SvgjsLine19849" x1="115.9070437286855" y1="391.70745024102905" x2="42.01696809544907" y2="136.79583054112067" stroke="black"></line><line id="SvgjsLine19850" x1="113.33910742889523" y1="390.05462136422443" x2="39.48749729623606" y2="142.35498236695537" stroke="black"></line><line id="SvgjsLine19851" x1="110.7966751504897" y1="388.36282402248935" x2="37.12873583767757" y2="147.98868771320593" stroke="black"></line><line id="SvgjsLine19852" x1="108.2803381912935" y1="386.63245168002584" x2="34.94287791693955" y2="153.69170592263674" stroke="black"></line><line id="SvgjsLine19853" x1="105.79068178009783" y1="384.86390677248966" x2="32.931956890653936" y2="159.458731860917" stroke="black"></line><line id="SvgjsLine19854" x1="103.32828494055342" y1="383.0576006133955" x2="31.097843383423708" y2="165.28440085162947" stroke="black"></line><line id="SvgjsLine19855" x1="100.89372035650571" y1="381.21395329845694" x2="29.44224354770654" y2="171.16329366666923" stroke="black"></line><line id="SvgjsLine19856" x1="98.48755423880488" y1="379.33339360788386" x2="27.96669747669594" y2="177.08994156738663" stroke="black"></line><line id="SvgjsLine19857" x1="96.11034619362118" y1="377.4163589066608" x2="26.672577771676202" y2="183.05883139178718" stroke="black"></line><line id="SvgjsLine19858" x1="93.76264909229647" y1="375.46329504282755" x2="25.5610882651836" y2="189.0644106830554" stroke="black"></line><line id="SvgjsLine19859" x1="91.44500894276186" y1="373.4746562437881" x2="24.633262901162027" y2="195.10109285463201" stroke="black"></line><line id="SvgjsLine19860" x1="89.15796476255176" y1="371.4509050106701" x2="23.889964773154418" y2="201.16326238703982" stroke="black"></line><line id="SvgjsLine19861" x1="86.90204845344368" y1="369.3925120107598" x2="23.33188532142492" y2="207.24528005162367" stroke="black"></line><line id="SvgjsLine19862" x1="84.67778467775278" y1="367.2999559680385" x2="22.959543689758476" y2="213.3414881563459" stroke="black"></line><line id="SvgjsLine19863" x1="82.48569073631063" y1="365.1737235518449" x2="22.773286242536273" y2="219.44621580875653" stroke="black"></line><line id="SvgjsLine19864" x1="80.32627644815514" y1="363.01430926368937" x2="22.773286242536273" y2="225.55378419124355" stroke="black"></line><line id="SvgjsLine19865" x1="78.20004403196157" y1="360.8222153222473" x2="22.959543689758476" y2="231.6585118436542" stroke="black"></line><line id="SvgjsLine19866" x1="76.10748798924027" y1="358.5979515465564" x2="23.33188532142492" y2="237.7547199483764" stroke="black"></line><line id="SvgjsLine19867" x1="74.04909498932994" y1="356.3420352374483" x2="23.889964773154418" y2="243.83673761296026" stroke="black"></line><line id="SvgjsLine19868" x1="72.02534375621192" y1="354.05499105723817" x2="24.633262901162027" y2="249.89890714536804" stroke="black"></line><line id="SvgjsLine19869" x1="70.03670495717253" y1="351.73735090770356" x2="25.561088265183628" y2="255.9355893169447" stroke="black"></line><line id="SvgjsLine19870" x1="68.08364109333931" y1="349.38965380637893" x2="26.672577771676202" y2="261.9411686082129" stroke="black"></line><line id="SvgjsLine19871" x1="66.16660639211614" y1="347.0124457611952" x2="27.96669747669597" y2="267.9100584326134" stroke="black"></line><line id="SvgjsLine19872" x1="64.28604670154303" y1="344.6062796434943" x2="29.442243547706568" y2="273.8367063333309" stroke="black"></line><line id="SvgjsLine19873" x1="62.442399386604535" y1="342.1717150594466" x2="31.097843383423736" y2="279.71559914837064" stroke="black"></line><line id="SvgjsLine19874" x1="60.636093227510344" y1="339.7093182199021" x2="32.931956890653936" y2="285.54126813908306" stroke="black"></line><line id="SvgjsLine19875" x1="58.86754831997422" y1="337.2196618087066" x2="34.94287791693958" y2="291.3082940773633" stroke="black"></line><line id="SvgjsLine19876" x1="57.13717597751065" y1="334.70332484951024" x2="37.128735837677596" y2="297.0113122867942" stroke="black"></line><line id="SvgjsLine19877" x1="55.445378635775654" y1="332.1608925711049" x2="39.487497296236114" y2="302.6450176330447" stroke="black"></line><line id="SvgjsLine19878" x1="53.79254975897098" y1="329.59295627131456" x2="42.01696809544913" y2="308.2041694588794" stroke="black"></line><line id="SvgjsLine19879" x1="52.17907374833632" y1="327.0001131794778" x2="44.714795238730744" y2="313.6835964591894" stroke="black"></line><line id="SvgjsLine19880" x1="50.6053258527474" y1="324.38296631754787" x2="47.57846911890954" y2="319.0782014915096" stroke="black"></line><line id="SvgjsLine19881" x1="49.071672081444774" y1="321.74212435984794" x2="50.6053258527474" y2="324.38296631754787" stroke="black"></line><line id="SvgjsLine19882" x1="47.57846911890954" y1="319.0782014915096" x2="53.79254975897098" y2="329.59295627131456" stroke="black"></line><line id="SvgjsLine19883" x1="46.12606424190918" y1="316.39181726563163" x2="57.13717597751065" y2="334.70332484951024" stroke="black"></line><line id="SvgjsLine19884" x1="44.714795238730744" y1="313.6835964591894" x2="60.636093227510344" y2="339.7093182199021" stroke="black"></line><line id="SvgjsLine19885" x1="43.34499033062039" y1="310.9541689277284" x2="64.28604670154303" y2="344.6062796434943" stroke="black"></line><line id="SvgjsLine19886" x1="42.01696809544913" y1="308.2041694588794" x2="68.08364109333931" y2="349.38965380637893" stroke="black"></line><line id="SvgjsLine19887" x1="40.731037393619886" y1="305.434237624723" x2="72.02534375621192" y2="354.05499105723817" stroke="black"></line><line id="SvgjsLine19888" x1="39.487497296236114" y1="302.6450176330447" x2="76.10748798924027" y2="358.5979515465564" stroke="black"></line><line id="SvgjsLine19889" x1="38.286637015545324" y1="299.8371581775093" x2="80.32627644815514" y2="363.01430926368937" stroke="black"></line><line id="SvgjsLine19890" x1="37.128735837677596" y1="297.0113122867942" x2="84.67778467775278" y2="367.2999559680385" stroke="black"></line><line id="SvgjsLine19891" x1="36.01406305769052" y1="294.168137172712" x2="89.15796476255176" y2="371.4509050106701" stroke="black"></line><line id="SvgjsLine19892" x1="34.94287791693958" y1="291.3082940773633" x2="93.76264909229647" y2="375.46329504282755" stroke="black"></line><line id="SvgjsLine19893" x1="33.91542954278535" y1="288.43244811934886" x2="98.48755423880488" y2="379.33339360788386" stroke="black"></line><line id="SvgjsLine19894" x1="32.931956890653936" y1="285.54126813908306" x2="103.32828494055342" y2="383.0576006133955" stroke="black"></line><line id="SvgjsLine19895" x1="31.99268868846255" y1="282.6354265432401" x2="108.2803381912935" y2="386.63245168002584" stroke="black"></line><line id="SvgjsLine19896" x1="31.097843383423736" y1="279.71559914837064" x2="113.33910742889523" y2="390.05462136422443" stroke="black"></line><line id="SvgjsLine19897" x1="30.247629091240952" y1="276.78246502372724" x2="118.49988682052232" y2="393.32092625166376" stroke="black"></line><line id="SvgjsLine19898" x1="29.442243547706568" y1="273.8367063333309" x2="123.75787564015218" y2="396.4283279185553" stroke="black"></line><line id="SvgjsLine19899" x1="28.681874062714286" y1="270.8790081773197" x2="129.10818273436834" y2="399.3739357580908" stroke="black"></line><line id="SvgjsLine19900" x1="27.96669747669597" y1="267.9100584326134" x2="134.54583107227154" y2="402.15500966937964" stroke="black"></line><line id="SvgjsLine19901" x1="27.29688011949375" y1="264.9305475929336" x2="140.06576237527702" y2="404.7689626063801" stroke="black"></line><line id="SvgjsLine19902" x1="26.672577771676202" y1="261.9411686082129" x2="145.66284182249075" y2="407.2133629844547" stroke="black"></line><line id="SvgjsLine19903" x1="26.093935628308486" y1="258.9426167234362" x2="151.33186282728806" y2="409.48593694230954" stroke="black"></line><line id="SvgjsLine19904" x1="25.561088265183628" y1="255.9355893169447" x2="157.0675518806512" y2="411.5845704572147" stroke="black"></line><line id="SvgjsLine19905" x1="25.07415960752448" y1="252.92078573824665" x2="162.86457345675998" y2="413.5073113115375" stroke="black"></line><line id="SvgjsLine19906" x1="24.633262901162027" y1="249.89890714536804" x2="168.7175349762728" y2="415.2523709087591" stroke="black"></line><line id="SvgjsLine19907" x1="24.238500686197426" y1="246.8706563417825" x2="174.62099182268042" y2="416.81812593728574" stroke="black"></line><line id="SvgjsLine19908" x1="23.889964773154418" y1="243.83673761296026" x2="180.56945240706656" y2="418.2031198805063" stroke="black"></line><line id="SvgjsLine19909" x1="23.5877362216265" y1="240.7978565625699" x2="186.55738327656397" y2="419.4060643716915" stroke="black"></line><line id="SvgjsLine19910" x1="23.33188532142492" y1="237.7547199483764" x2="192.57921426175335" y2="420.4258403924755" stroke="black"></line><line id="SvgjsLine19911" x1="23.12247157623125" y1="234.7080355178677" x2="198.62934365821746" y2="421.2614993138026" stroke="black"></line><line id="SvgjsLine19912" x1="22.959543689758476" y1="231.6585118436542" x2="204.70214343743007" y2="421.9122637783735" stroke="black"></line><line id="SvgjsLine19913" x1="22.843139554423857" y1="228.60685815867333" x2="210.79196448213239" y2="422.37752842376875" stroke="black"></line><line id="SvgjsLine19914" x1="22.773286242536273" y1="225.55378419124355" x2="216.89314184132672" y2="422.65686044557617" stroke="black"></line><line id="SvgjsLine19915" x1="22.75" y1="222.50000000000003" x2="223.00000000000003" y2="422.75" stroke="black"></line><line id="SvgjsLine19916" x1="22.773286242536273" y1="219.44621580875653" x2="229.10685815867333" y2="422.65686044557617" stroke="black"></line><line id="SvgjsLine19917" x1="22.843139554423857" y1="216.39314184132675" x2="235.20803551786767" y2="422.37752842376875" stroke="black"></line><line id="SvgjsLine19918" x1="22.959543689758476" y1="213.3414881563459" x2="241.29785656257" y2="421.9122637783735" stroke="black"></line><line id="SvgjsLine19919" x1="23.12247157623125" y1="210.29196448213239" x2="247.3706563417826" y2="421.2614993138026" stroke="black"></line><line id="SvgjsLine19920" x1="23.33188532142492" y1="207.24528005162367" x2="253.4207857382467" y2="420.4258403924755" stroke="black"></line><line id="SvgjsLine19921" x1="23.58773622162647" y1="204.20214343743015" x2="259.4426167234361" y2="419.4060643716915" stroke="black"></line><line id="SvgjsLine19922" x1="23.889964773154418" y1="201.16326238703982" x2="265.43054759293346" y2="418.2031198805063" stroke="black"></line><line id="SvgjsLine19923" x1="24.238500686197426" y1="198.12934365821758" x2="271.37900817731963" y2="416.81812593728574" stroke="black"></line><line id="SvgjsLine19924" x1="24.633262901162027" y1="195.10109285463201" x2="277.28246502372724" y2="415.2523709087591" stroke="black"></line><line id="SvgjsLine19925" x1="25.07415960752448" y1="192.07921426175344" x2="283.13542654324004" y2="413.5073113115375" stroke="black"></line><line id="SvgjsLine19926" x1="25.5610882651836" y1="189.0644106830554" x2="288.93244811934886" y2="411.5845704572147" stroke="black"></line><line id="SvgjsLine19927" x1="26.093935628308458" y1="186.05738327656388" x2="294.668137172712" y2="409.4859369423095" stroke="black"></line><line id="SvgjsLine19928" x1="26.672577771676202" y1="183.05883139178718" x2="300.33715817750937" y2="407.21336298445465" stroke="black"></line><line id="SvgjsLine19929" x1="27.29688011949375" y1="180.06945240706648" x2="305.93423762472304" y2="404.76896260638006" stroke="black"></line><line id="SvgjsLine19930" x1="27.96669747669594" y1="177.08994156738663" x2="311.4541689277286" y2="402.1550096693795" stroke="black"></line><line id="SvgjsLine19931" x1="28.681874062714257" y1="174.12099182268037" x2="316.8918172656318" y2="399.37393575809074" stroke="black"></line><line id="SvgjsLine19932" x1="29.44224354770654" y1="171.16329366666923" x2="322.24212435984794" y2="396.4283279185552" stroke="black"></line><line id="SvgjsLine19933" x1="30.247629091240924" y1="168.2175349762728" x2="327.5001131794778" y2="393.3209262516637" stroke="black"></line><line id="SvgjsLine19934" x1="31.097843383423708" y1="165.28440085162947" x2="332.6608925711049" y2="390.0546213642244" stroke="black"></line><line id="SvgjsLine19935" x1="31.992688688462522" y1="162.36457345676" x2="337.7196618087065" y2="386.6324516800258" stroke="black"></line><line id="SvgjsLine19936" x1="32.931956890653936" y1="159.458731860917" x2="342.6717150594467" y2="383.05760061339544" stroke="black"></line><line id="SvgjsLine19937" x1="33.91542954278532" y1="156.5675518806512" x2="347.51244576119524" y2="379.3333936078838" stroke="black"></line><line id="SvgjsLine19938" x1="34.94287791693955" y1="153.69170592263674" x2="352.2373509077036" y2="375.46329504282744" stroke="black"></line><line id="SvgjsLine19939" x1="36.01406305769049" y1="150.83186282728806" x2="356.84203523744833" y2="371.45090501067" stroke="black"></line><line id="SvgjsLine19940" x1="37.12873583767757" y1="147.98868771320593" x2="361.32221532224725" y2="367.29995596803843" stroke="black"></line><line id="SvgjsLine19941" x1="38.286637015545296" y1="145.16284182249078" x2="365.6737235518449" y2="363.01430926368937" stroke="black"></line><line id="SvgjsLine19942" x1="39.48749729623606" y1="142.35498236695537" x2="369.8925120107597" y2="358.5979515465564" stroke="black"></line><line id="SvgjsLine19943" x1="40.731037393619886" y1="139.5657623752771" x2="373.9746562437881" y2="354.0549910572382" stroke="black"></line><line id="SvgjsLine19944" x1="42.01696809544907" y1="136.79583054112067" x2="377.91635890666066" y2="349.3896538063789" stroke="black"></line><line id="SvgjsLine19945" x1="43.344990330620334" y1="134.04583107227165" x2="381.7139532984569" y2="344.60627964349436" stroke="black"></line><line id="SvgjsLine19946" x1="44.71479523873069" y1="131.3164035408107" x2="385.3639067724896" y2="339.70931821990223" stroke="black"></line><line id="SvgjsLine19947" x1="46.12606424190915" y1="128.60818273436843" x2="388.86282402248935" y2="334.7033248495103" stroke="black"></line><line id="SvgjsLine19948" x1="47.57846911890948" y1="125.92179850849048" x2="392.207450241029" y2="329.5929562713146" stroke="black"></line><line id="SvgjsLine19949" x1="49.071672081444746" y1="123.25787564015211" x2="395.39467414725254" y2="324.3829663175479" stroke="black"></line><line id="SvgjsLine19950" x1="50.60532585274737" y1="120.61703368245219" x2="398.42153088109046" y2="319.0782014915096" stroke="black"></line><line id="SvgjsLine19951" x1="52.179073748336265" y1="117.99988682052225" x2="401.28520476126926" y2="313.6835964591894" stroke="black"></line><line id="SvgjsLine19952" x1="53.79254975897095" y1="115.4070437286855" x2="403.9830319045509" y2="308.2041694588794" stroke="black"></line><line id="SvgjsLine19953" x1="55.4453786357756" y1="112.83910742889516" x2="406.5125027037639" y2="302.6450176330447" stroke="black"></line><line id="SvgjsLine19954" x1="57.137175977510594" y1="110.29667515048979" x2="408.87126416232246" y2="297.01131228679407" stroke="black"></line><line id="SvgjsLine19955" x1="58.86754831997419" y1="107.7803381912935" x2="411.05712208306045" y2="291.3082940773632" stroke="black"></line><line id="SvgjsLine19956" x1="60.63609322751029" y1="105.29068178009791" x2="413.06804310934604" y2="285.54126813908306" stroke="black"></line><line id="SvgjsLine19957" x1="62.44239938660448" y1="102.82828494055342" x2="414.90215661657624" y2="279.71559914837064" stroke="black"></line><line id="SvgjsLine19958" x1="64.286046701543" y1="100.3937203565058" x2="416.55775645229346" y2="273.8367063333308" stroke="black"></line><line id="SvgjsLine19959" x1="66.16660639211611" y1="97.98755423880488" x2="418.03330252330403" y2="267.9100584326134" stroke="black"></line><line id="SvgjsLine19960" x1="68.08364109333928" y1="95.61034619362114" x2="419.3274222283238" y2="261.9411686082128" stroke="black"></line><line id="SvgjsLine19961" x1="70.03670495717245" y1="93.26264909229647" x2="420.4389117348164" y2="255.93558931694463" stroke="black"></line><line id="SvgjsLine19962" x1="72.02534375621192" y1="90.94500894276183" x2="421.366737098838" y2="249.898907145368" stroke="black"></line><line id="SvgjsLine19963" x1="74.04909498932989" y1="88.65796476255179" x2="422.11003522684564" y2="243.83673761296018" stroke="black"></line><line id="SvgjsLine19964" x1="76.10748798924027" y1="86.40204845344363" x2="422.6681146785751" y2="237.7547199483763" stroke="black"></line><line id="SvgjsLine19965" x1="78.20004403196145" y1="84.17778467775287" x2="423.04045631024155" y2="231.65851184365408" stroke="black"></line><line id="SvgjsLine19966" x1="80.32627644815508" y1="81.98569073631063" x2="423.2267137574637" y2="225.5537841912434" stroke="black"></line><line id="SvgjsLine19967" x1="82.48569073631057" y1="79.82627644815514" x2="423.2267137574637" y2="219.44621580875656" stroke="black"></line><line id="SvgjsLine19968" x1="84.67778467775281" y1="77.70004403196154" x2="423.04045631024155" y2="213.3414881563459" stroke="black"></line><line id="SvgjsLine19969" x1="86.90204845344354" y1="75.60748798924033" x2="422.6681146785751" y2="207.24528005162367" stroke="black"></line><line id="SvgjsLine19970" x1="89.15796476255173" y1="73.54909498932994" x2="422.1100352268456" y2="201.16326238703982" stroke="black"></line><line id="SvgjsLine19971" x1="91.44500894276175" y1="71.52534375621198" x2="421.366737098838" y2="195.101092854632" stroke="black"></line><line id="SvgjsLine19972" x1="93.76264909229641" y1="69.53670495717253" x2="420.4389117348164" y2="189.06441068305534" stroke="black"></line><line id="SvgjsLine19973" x1="96.11034619362107" y1="67.58364109333931" x2="419.32742222832377" y2="183.0588313917871" stroke="black"></line><line id="SvgjsLine19974" x1="98.4875542388048" y1="65.66660639211614" x2="418.033302523304" y2="177.0899415673865" stroke="black"></line><line id="SvgjsLine19975" x1="100.89372035650572" y1="63.78604670154303" x2="416.55775645229346" y2="171.1632936666691" stroke="black"></line><line id="SvgjsLine19976" x1="103.32828494055336" y1="61.942399386604535" x2="414.90215661657624" y2="165.28440085162933" stroke="black"></line><line id="SvgjsLine19977" x1="105.79068178009786" y1="60.136093227510344" x2="413.06804310934604" y2="159.45873186091683" stroke="black"></line><line id="SvgjsLine19978" x1="108.28033819129342" y1="58.36754831997425" x2="411.05712208306045" y2="153.69170592263674" stroke="black"></line><line id="SvgjsLine19979" x1="110.79667515048972" y1="56.63717597751065" x2="408.8712641623224" y2="147.9886877132059" stroke="black"></line><line id="SvgjsLine19980" x1="113.33910742889509" y1="54.945378635775654" x2="406.5125027037639" y2="142.3549823669553" stroke="black"></line><line id="SvgjsLine19981" x1="115.90704372868542" y1="53.29254975897098" x2="403.9830319045509" y2="136.7958305411206" stroke="black"></line><line id="SvgjsLine19982" x1="118.49988682052218" y1="51.67907374833632" x2="401.28520476126926" y2="131.31640354081065" stroke="black"></line><line id="SvgjsLine19983" x1="121.1170336824521" y1="50.1053258527474" x2="398.42153088109046" y2="125.92179850849041" stroke="black"></line><line id="SvgjsLine19984" x1="123.75787564015204" y1="48.571672081444774" x2="395.3946741472526" y2="120.6170336824521" stroke="black"></line><line id="SvgjsLine19985" x1="126.42179850849041" y1="47.07846911890954" x2="392.20745024102894" y2="115.40704372868538" stroke="black"></line><line id="SvgjsLine19986" x1="129.10818273436837" y1="45.626064241909205" x2="388.8628240224893" y2="110.29667515048966" stroke="black"></line><line id="SvgjsLine19987" x1="131.81640354081063" y1="44.214795238730744" x2="385.3639067724896" y2="105.29068178009776" stroke="black"></line><line id="SvgjsLine19988" x1="134.54583107227157" y1="42.84499033062039" x2="381.7139532984569" y2="100.39372035650563" stroke="black"></line><line id="SvgjsLine19989" x1="137.29583054112058" y1="41.51696809544913" x2="377.91635890666066" y2="95.61034619362108" stroke="black"></line><line id="SvgjsLine19990" x1="140.06576237527702" y1="40.231037393619914" x2="373.9746562437881" y2="90.94500894276177" stroke="black"></line><line id="SvgjsLine19991" x1="142.8549823669553" y1="38.987497296236114" x2="369.8925120107597" y2="86.40204845344357" stroke="black"></line><line id="SvgjsLine19992" x1="145.6628418224907" y1="37.78663701554535" x2="365.6737235518449" y2="81.98569073631057" stroke="black"></line><line id="SvgjsLine19993" x1="148.48868771320582" y1="36.628735837677596" x2="361.32221532224725" y2="77.70004403196157" stroke="black"></line><line id="SvgjsLine19994" x1="151.33186282728798" y1="35.51406305769052" x2="356.84203523744833" y2="73.54909498933" stroke="black"></line><line id="SvgjsLine19995" x1="154.1917059226367" y1="34.44287791693961" x2="352.2373509077036" y2="69.53670495717253" stroke="black"></line><line id="SvgjsLine19996" x1="157.06755188065114" y1="33.41542954278535" x2="347.5124457611952" y2="65.66660639211614" stroke="black"></line><line id="SvgjsLine19997" x1="159.95873186091694" y1="32.431956890653936" x2="342.6717150594466" y2="61.942399386604535" stroke="black"></line><line id="SvgjsLine19998" x1="162.86457345675993" y1="31.49268868846258" x2="337.7196618087065" y2="58.36754831997422" stroke="black"></line><line id="SvgjsLine19999" x1="165.78440085162939" y1="30.597843383423736" x2="332.66089257110485" y2="54.945378635775626" stroke="black"></line><line id="SvgjsLine20000" x1="168.7175349762727" y1="29.747629091240952" x2="327.5001131794778" y2="51.67907374833629" stroke="black"></line><line id="SvgjsLine20001" x1="171.66329366666912" y1="28.942243547706568" x2="322.24212435984794" y2="48.571672081444774" stroke="black"></line><line id="SvgjsLine20002" x1="174.62099182268028" y1="28.181874062714286" x2="316.89181726563174" y2="45.62606424190923" stroke="black"></line><line id="SvgjsLine20003" x1="177.58994156738655" y1="27.46669747669597" x2="311.45416892772846" y2="42.84499033062042" stroke="black"></line><line id="SvgjsLine20004" x1="180.56945240706642" y1="26.79688011949375" x2="305.934237624723" y2="40.231037393619914" stroke="black"></line><line id="SvgjsLine20005" x1="183.5588313917871" y1="26.17257777167623" x2="300.3371581775093" y2="37.78663701554535" stroke="black"></line><line id="SvgjsLine20006" x1="186.5573832765638" y1="25.593935628308486" x2="294.668137172712" y2="35.51406305769052" stroke="black"></line><line id="SvgjsLine20007" x1="189.5644106830553" y1="25.061088265183628" x2="288.93244811934886" y2="33.41542954278535" stroke="black"></line><line id="SvgjsLine20008" x1="192.57921426175335" y1="24.57415960752448" x2="283.13542654324004" y2="31.49268868846255" stroke="black"></line><line id="SvgjsLine20009" x1="195.60109285463193" y1="24.133262901162027" x2="277.28246502372724" y2="29.747629091240924" stroke="black"></line><line id="SvgjsLine20010" x1="198.62934365821746" y1="23.738500686197455" x2="271.37900817731963" y2="28.181874062714257" stroke="black"></line><line id="SvgjsLine20011" x1="201.66326238703974" y1="23.389964773154418" x2="265.4305475929335" y2="26.79688011949375" stroke="black"></line><line id="SvgjsLine20012" x1="204.70214343743007" y1="23.0877362216265" x2="259.4426167234361" y2="25.593935628308458" stroke="black"></line><line id="SvgjsLine20013" x1="207.74528005162358" y1="22.83188532142492" x2="253.4207857382467" y2="24.574159607524507" stroke="black"></line><line id="SvgjsLine20014" x1="210.7919644821323" y1="22.62247157623125" x2="247.37065634178254" y2="23.738500686197455" stroke="black"></line><line id="SvgjsLine20015" x1="213.8414881563458" y1="22.459543689758476" x2="241.29785656256993" y2="23.0877362216265" stroke="black"></line><line id="SvgjsLine20016" x1="216.89314184132667" y1="22.343139554423857" x2="235.2080355178677" y2="22.62247157623125" stroke="black"></line><line id="SvgjsLine20017" x1="219.94621580875645" y1="22.273286242536273" x2="229.1068581586733" y2="22.343139554423857" stroke="black"></line></svg>