<svg id="SvgjsSvg1001" width="446" height="445" xmlns="http://www.w3.org/2000/svg" version="1.1" xmlns:xlink="http://www.w3.org/1999/xlink" xmlns:svgjs="http://svgjs.com/svgjs"><circle id="SvgjsCircle12790" r="200.25" cx="223" cy="222.5" stroke="black" fill="transparent"></circle><line id="SvgjsLine12791" x1="235.573801535745" y1="22.645147632238633" x2="272.8001499047622" y2="28.54122198399162" stroke="black"></line><line id="SvgjsLine12792" x1="248.09798002125194" y1="23.829031061775794" x2="319.47117323886846" y2="47.01958732121631" stroke="black"></line><line id="SvgjsLine12793" x1="260.5231082457914" y1="25.796978041580076" x2="360.0805579622199" y2="76.52403235886234" stroke="black"></line><line id="SvgjsLine12794" x1="272.8001499047622" y1="28.54122198399162" x2="392.0766670817785" y2="115.20068430545594" stroke="black"></line><line id="SvgjsLine12795" x1="284.8806531235832" y1="32.05093261189552" x2="413.4490673881045" y2="160.61934687641678" stroke="black"></line><line id="SvgjsLine12796" x1="296.71694167510674" y1="36.312258700877635" x2="422.8548523677614" y2="209.92619846425498" stroke="black"></line><line id="SvgjsLine12797" x1="308.2623031359058" y1="41.3083827436796" x2="419.70302195841987" y2="260.0231082457914" stroke="black"></line><line id="SvgjsLine12798" x1="319.47117323886846" y1="47.01958732121631" x2="404.1916172563204" y2="307.7623031359058" stroke="black"></line><line id="SvgjsLine12799" x1="330.2993156945441" y1="53.42333291822149" x2="377.2952768658518" y2="350.14415394717514" stroke="black"></line><line id="SvgjsLine12800" x1="340.70399677156774" y1="60.494346876416785" x2="340.70399677156774" y2="384.5056531235832" stroke="black"></line><line id="SvgjsLine12801" x1="350.6441539471751" y1="68.2047231341482" x2="296.7169416751068" y2="408.6877412991223" stroke="black"></line><line id="SvgjsLine12802" x1="360.0805579622199" y1="76.52403235886234" x2="248.097980021252" y2="421.1709689382242" stroke="black"></line><line id="SvgjsLine12803" x1="368.9759676411377" y1="85.4194420377801" x2="197.90201997874806" y2="421.1709689382242" stroke="black"></line><line id="SvgjsLine12804" x1="377.2952768658518" y1="94.8558460528249" x2="149.28305832489318" y2="408.6877412991223" stroke="black"></line><line id="SvgjsLine12805" x1="385.0056531235832" y1="104.79600322843226" x2="105.29600322843228" y2="384.5056531235832" stroke="black"></line><line id="SvgjsLine12806" x1="392.0766670817785" y1="115.20068430545594" x2="68.70472313414817" y2="350.1441539471751" stroke="black"></line><line id="SvgjsLine12807" x1="398.4804126787837" y1="126.02882676113154" x2="41.808382743679545" y2="307.7623031359057" stroke="black"></line><line id="SvgjsLine12808" x1="404.19161725632046" y1="137.2376968640942" x2="26.296978041580076" y2="260.0231082457914" stroke="black"></line><line id="SvgjsLine12809" x1="409.1877412991223" y1="148.7830583248932" x2="23.145147632238633" y2="209.9261984642551" stroke="black"></line><line id="SvgjsLine12810" x1="413.4490673881045" y1="160.61934687641678" x2="32.55093261189549" y2="160.6193468764168" stroke="black"></line><line id="SvgjsLine12811" x1="416.9587780160084" y1="172.6998500952378" x2="53.923332918221405" y2="115.20068430545605" stroke="black"></line><line id="SvgjsLine12812" x1="419.70302195841987" y1="184.97689175420862" x2="85.91944203778004" y2="76.5240323588624" stroke="black"></line><line id="SvgjsLine12813" x1="421.6709689382242" y1="197.40201997874806" x2="126.52882676113151" y2="47.01958732121631" stroke="black"></line><line id="SvgjsLine12814" x1="422.8548523677614" y1="209.92619846425498" x2="173.1998500952377" y2="28.541221983991647" stroke="black"></line><line id="SvgjsLine12815" x1="423.25" y1="222.5" x2="223" y2="22.25" stroke="black"></line><line id="SvgjsLine12816" x1="422.8548523677614" y1="235.07380153574502" x2="272.8001499047622" y2="28.54122198399162" stroke="black"></line><line id="SvgjsLine12817" x1="421.6709689382242" y1="247.59798002125194" x2="319.47117323886846" y2="47.01958732121631" stroke="black"></line><line id="SvgjsLine12818" x1="419.70302195841987" y1="260.0231082457914" x2="360.0805579622199" y2="76.52403235886234" stroke="black"></line><line id="SvgjsLine12819" x1="416.9587780160084" y1="272.3001499047621" x2="392.0766670817785" y2="115.20068430545594" stroke="black"></line><line id="SvgjsLine12820" x1="413.4490673881045" y1="284.3806531235832" x2="413.4490673881045" y2="160.61934687641678" stroke="black"></line><line id="SvgjsLine12821" x1="409.1877412991223" y1="296.2169416751068" x2="422.8548523677614" y2="209.92619846425498" stroke="black"></line><line id="SvgjsLine12822" x1="404.1916172563204" y1="307.7623031359058" x2="419.70302195841987" y2="260.0231082457914" stroke="black"></line><line id="SvgjsLine12823" x1="398.48041267878364" y1="318.9711732388685" x2="404.1916172563204" y2="307.7623031359058" stroke="black"></line><line id="SvgjsLine12824" x1="392.0766670817785" y1="329.79931569454413" x2="377.2952768658518" y2="350.14415394717514" stroke="black"></line><line id="SvgjsLine12825" x1="385.0056531235832" y1="340.20399677156774" x2="340.70399677156774" y2="384.5056531235832" stroke="black"></line><line id="SvgjsLine12826" x1="377.2952768658518" y1="350.14415394717514" x2="296.7169416751068" y2="408.6877412991223" stroke="black"></line><line id="SvgjsLine12827" x1="368.97596764113763" y1="359.5805579622199" x2="248.097980021252" y2="421.1709689382242" stroke="black"></line><line id="SvgjsLine12828" x1="360.0805579622199" y1="368.47596764113763" x2="197.90201997874806" y2="421.1709689382242" stroke="black"></line><line id="SvgjsLine12829" x1="350.64415394717514" y1="376.79527686585175" x2="149.28305832489318" y2="408.6877412991223" stroke="black"></line><line id="SvgjsLine12830" x1="340.70399677156774" y1="384.5056531235832" x2="105.29600322843228" y2="384.5056531235832" stroke="black"></line><line id="SvgjsLine12831" x1="330.29931569454413" y1="391.5766670817785" x2="68.70472313414817" y2="350.1441539471751" stroke="black"></line><line id="SvgjsLine12832" x1="319.4711732388686" y1="397.98041267878364" x2="41.808382743679545" y2="307.7623031359057" stroke="black"></line><line id="SvgjsLine12833" x1="308.2623031359058" y1="403.69161725632034" x2="26.296978041580076" y2="260.0231082457914" stroke="black"></line><line id="SvgjsLine12834" x1="296.7169416751068" y1="408.6877412991223" x2="23.145147632238633" y2="209.9261984642551" stroke="black"></line><line id="SvgjsLine12835" x1="284.8806531235832" y1="412.9490673881045" x2="32.55093261189549" y2="160.6193468764168" stroke="black"></line><line id="SvgjsLine12836" x1="272.8001499047622" y1="416.4587780160084" x2="53.923332918221405" y2="115.20068430545605" stroke="black"></line><line id="SvgjsLine12837" x1="260.52310824579143" y1="419.20302195841987" x2="85.91944203778004" y2="76.5240323588624" stroke="black"></line><line id="SvgjsLine12838" x1="248.097980021252" y1="421.1709689382242" x2="126.52882676113151" y2="47.01958732121631" stroke="black"></line><line id="SvgjsLine12839" x1="235.57380153574505" y1="422.3548523677614" x2="173.1998500952377" y2="28.541221983991647" stroke="black"></line><line id="SvgjsLine12840" x1="223.00000000000003" y1="422.75" x2="223" y2="22.25" stroke="black"></line><line id="SvgjsLine12841" x1="210.426198464255" y1="422.3548523677614" x2="272.8001499047622" y2="28.54122198399162" stroke="black"></line><line id="SvgjsLine12842" x1="197.90201997874806" y1="421.1709689382242" x2="319.47117323886846" y2="47.01958732121631" stroke="black"></line><line id="SvgjsLine12843" x1="185.47689175420862" y1="419.20302195841987" x2="360.0805579622199" y2="76.52403235886234" stroke="black"></line><line id="SvgjsLine12844" x1="173.1998500952378" y1="416.4587780160084" x2="392.0766670817785" y2="115.20068430545594" stroke="black"></line><line id="SvgjsLine12845" x1="161.11934687641673" y1="412.9490673881045" x2="413.4490673881045" y2="160.61934687641678" stroke="black"></line><line id="SvgjsLine12846" x1="149.28305832489318" y1="408.6877412991223" x2="422.8548523677614" y2="209.92619846425498" stroke="black"></line><line id="SvgjsLine12847" x1="137.7376968640943" y1="403.69161725632046" x2="419.70302195841987" y2="260.0231082457914" stroke="black"></line><line id="SvgjsLine12848" x1="126.52882676113157" y1="397.9804126787837" x2="404.1916172563204" y2="307.7623031359058" stroke="black"></line><line id="SvgjsLine12849" x1="115.70068430545597" y1="391.5766670817785" x2="377.2952768658518" y2="350.14415394717514" stroke="black"></line><line id="SvgjsLine12850" x1="105.29600322843228" y1="384.5056531235832" x2="340.70399677156774" y2="384.5056531235832" stroke="black"></line><line id="SvgjsLine12851" x1="95.3558460528249" y1="376.7952768658518" x2="296.7169416751068" y2="408.6877412991223" stroke="black"></line><line id="SvgjsLine12852" x1="85.91944203778007" y1="368.4759676411377" x2="248.097980021252" y2="421.1709689382242" stroke="black"></line><line id="SvgjsLine12853" x1="77.02403235886237" y1="359.5805579622199" x2="197.90201997874806" y2="421.1709689382242" stroke="black"></line><line id="SvgjsLine12854" x1="68.70472313414817" y1="350.1441539471751" x2="149.28305832489318" y2="408.6877412991223" stroke="black"></line><line id="SvgjsLine12855" x1="60.994346876416785" y1="340.20399677156774" x2="105.29600322843228" y2="384.5056531235832" stroke="black"></line><line id="SvgjsLine12856" x1="53.92333291822143" y1="329.799315694544" x2="68.70472313414817" y2="350.1441539471751" stroke="black"></line><line id="SvgjsLine12857" x1="47.51958732121631" y1="318.97117323886846" x2="41.808382743679545" y2="307.7623031359057" stroke="black"></line><line id="SvgjsLine12858" x1="41.808382743679545" y1="307.7623031359057" x2="26.296978041580076" y2="260.0231082457914" stroke="black"></line><line id="SvgjsLine12859" x1="36.81225870087772" y1="296.2169416751069" x2="23.145147632238633" y2="209.9261984642551" stroke="black"></line><line id="SvgjsLine12860" x1="32.55093261189552" y1="284.3806531235833" x2="32.55093261189549" y2="160.6193468764168" stroke="black"></line><line id="SvgjsLine12861" x1="29.041221983991647" y1="272.3001499047623" x2="53.923332918221405" y2="115.20068430545605" stroke="black"></line><line id="SvgjsLine12862" x1="26.296978041580076" y1="260.0231082457914" x2="85.91944203778004" y2="76.5240323588624" stroke="black"></line><line id="SvgjsLine12863" x1="24.329031061775822" y1="247.597980021252" x2="126.52882676113151" y2="47.01958732121631" stroke="black"></line><line id="SvgjsLine12864" x1="23.145147632238633" y1="235.07380153574496" x2="173.1998500952377" y2="28.541221983991647" stroke="black"></line><line id="SvgjsLine12865" x1="22.75" y1="222.50000000000003" x2="223" y2="22.25" stroke="black"></line><line id="SvgjsLine12866" x1="23.145147632238633" y1="209.9261984642551" x2="272.8001499047622" y2="28.54122198399162" stroke="black"></line><line id="SvgjsLine12867" x1="24.329031061775794" y1="197.4020199787481" x2="319.47117323886846" y2="47.01958732121631" stroke="black"></line><line id="SvgjsLine12868" x1="26.296978041580076" y1="184.9768917542087" x2="360.0805579622199" y2="76.52403235886234" stroke="black"></line><line id="SvgjsLine12869" x1="29.04122198399162" y1="172.6998500952378" x2="392.0766670817785" y2="115.20068430545594" stroke="black"></line><line id="SvgjsLine12870" x1="32.55093261189549" y1="160.6193468764168" x2="413.4490673881045" y2="160.61934687641678" stroke="black"></line><line id="SvgjsLine12871" x1="36.81225870087769" y1="148.78305832489318" x2="422.8548523677614" y2="209.92619846425498" stroke="black"></line><line id="SvgjsLine12872" x1="41.808382743679516" y1="137.23769686409435" x2="419.70302195841987" y2="260.0231082457914" stroke="black"></line><line id="SvgjsLine12873" x1="47.51958732121628" y1="126.02882676113158" x2="404.1916172563204" y2="307.7623031359058" stroke="black"></line><line id="SvgjsLine12874" x1="53.923332918221405" y1="115.20068430545605" x2="377.2952768658518" y2="350.14415394717514" stroke="black"></line><line id="SvgjsLine12875" x1="60.994346876416756" y1="104.7960032284323" x2="340.70399677156774" y2="384.5056531235832" stroke="black"></line><line id="SvgjsLine12876" x1="68.70472313414814" y1="94.85584605282497" x2="296.7169416751068" y2="408.6877412991223" stroke="black"></line><line id="SvgjsLine12877" x1="77.02403235886234" y1="85.4194420377801" x2="248.097980021252" y2="421.1709689382242" stroke="black"></line><line id="SvgjsLine12878" x1="85.91944203778004" y1="76.5240323588624" x2="197.90201997874806" y2="421.1709689382242" stroke="black"></line><line id="SvgjsLine12879" x1="95.3558460528249" y1="68.20472313414817" x2="149.28305832489318" y2="408.6877412991223" stroke="black"></line><line id="SvgjsLine12880" x1="105.29600322843221" y1="60.494346876416785" x2="105.29600322843228" y2="384.5056531235832" stroke="black"></line><line id="SvgjsLine12881" x1="115.70068430545598" y1="53.42333291822143" x2="68.70472313414817" y2="350.1441539471751" stroke="black"></line><line id="SvgjsLine12882" x1="126.52882676113151" y1="47.01958732121631" x2="41.808382743679545" y2="307.7623031359057" stroke="black"></line><line id="SvgjsLine12883" x1="137.7376968640943" y1="41.308382743679545" x2="26.296978041580076" y2="260.0231082457914" stroke="black"></line><line id="SvgjsLine12884" x1="149.2830583248931" y1="36.31225870087772" x2="23.145147632238633" y2="209.9261984642551" stroke="black"></line><line id="SvgjsLine12885" x1="161.11934687641673" y1="32.05093261189552" x2="32.55093261189549" y2="160.6193468764168" stroke="black"></line><line id="SvgjsLine12886" x1="173.1998500952377" y1="28.541221983991647" x2="53.923332918221405" y2="115.20068430545605" stroke="black"></line><line id="SvgjsLine12887" x1="185.47689175420862" y1="25.796978041580076" x2="85.91944203778004" y2="76.5240323588624" stroke="black"></line><line id="SvgjsLine12888" x1="197.902019978748" y1="23.829031061775822" x2="126.52882676113151" y2="47.01958732121631" stroke="black"></line><line id="SvgjsLine12889" x1="210.426198464255" y1="22.645147632238633" x2="173.1998500952377" y2="28.541221983991647" stroke="black"></line></svg>