<svg id="SvgjsSvg1001" width="446" height="445" xmlns="http://www.w3.org/2000/svg" version="1.1" xmlns:xlink="http://www.w3.org/1999/xlink" xmlns:svgjs="http://svgjs.com/svgjs"><circle id="SvgjsCircle52650" r="200.25" cx="223" cy="222.5" stroke="black" fill="transparent"></circle><line id="SvgjsLine52651" x1="227.03244491640442" y1="22.29060489578376" x2="47.597355305230764" y2="319.11249781514056" stroke="black"></line><line id="SvgjsLine52652" x1="231.06325450691037" y1="22.412403116143196" x2="392.2493146301449" y2="329.5267816820922" stroke="black"></line><line id="SvgjsLine52653" x1="235.0907941088128" y1="22.61534526678068" x2="223" y2="22.25" stroke="black"></line><line id="SvgjsLine52654" x1="239.11343038552437" y1="22.899349046124428" x2="42.08405046927095" y2="308.34568542096156" stroke="black"></line><line id="SvgjsLine52655" x1="243.1295319889623" y1="23.264299278705238" x2="385.4784121709538" y2="339.5505364293802" stroke="black"></line><line id="SvgjsLine52656" x1="247.13747022112844" y1="23.71004796186469" x2="223" y2="22.25" stroke="black"></line><line id="SvgjsLine52657" x1="251.1356196946148" y1="24.236414325776906" x2="37.23088831342292" y2="297.2656314303574" stroke="black"></line><line id="SvgjsLine52658" x1="255.12235899176648" y1="24.843184906757955" x2="378.1146436059878" y2="349.1471864629743" stroke="black"></line><line id="SvgjsLine52659" x1="259.09607132223465" y1="25.530113633834475" x2="223" y2="22.25" stroke="black"></line><line id="SvgjsLine52660" x1="263.0551451786529" y1="26.29692192853591" x2="33.05557750008413" y2="285.91276575874497" stroke="black"></line><line id="SvgjsLine52661" x1="266.9979749901715" y1="27.143298817869464" x2="370.18487852816475" y2="358.28171464762613" stroke="black"></line><line id="SvgjsLine52662" x1="270.92296177358344" y1="28.06890106043309" x2="223" y2="22.25" stroke="black"></line><line id="SvgjsLine52663" x1="274.82851378177975" y1="29.073353285614076" x2="29.573353285614076" y2="274.32851378177975" stroke="black"></line><line id="SvgjsLine52664" x1="278.71304714926964" y1="30.1562481458177" x2="361.7180517902973" y2="366.92079008059886" stroke="black"></line><line id="SvgjsLine52665" x1="282.5749865345044" y1="31.31714648166374" x2="223" y2="22.25" stroke="black"></line><line id="SvgjsLine52666" x1="286.41276575874485" y1="32.55557750008413" x2="26.79692192853591" y2="262.55514517865294" stroke="black"></line><line id="SvgjsLine52667" x1="290.2248284412126" y1="33.8710389652492" x2="352.7450579249529" y2="375.0328897125162" stroke="black"></line><line id="SvgjsLine52668" x1="294.00962863026774" y1="35.262997402245674" x2="223" y2="22.25" stroke="black"></line><line id="SvgjsLine52669" x1="297.76563143035736" y1="36.730888313422895" x2="24.736414325776906" y2="250.6356196946149" stroke="black"></line><line id="SvgjsLine52670" x1="301.49131362448003" y1="38.27411640732046" x2="343.29863841365534" y2="382.58841337155104" stroke="black"></line><line id="SvgjsLine52671" x1="305.18516429191453" y1="39.89205584008397" x2="223" y2="22.25" stroke="black"></line><line id="SvgjsLine52672" x1="308.8456854209616" y1="41.58405046927095" x2="23.399349046124428" y2="238.6134303855243" stroke="black"></line><line id="SvgjsLine52673" x1="312.4713925164506" y1="43.34941411994424" x2="333.41326221676877" y2="389.559791771243" stroke="black"></line><line id="SvgjsLine52674" x1="316.0608152017646" y1="45.18743086294472" x2="223" y2="22.25" stroke="black"></line><line id="SvgjsLine52675" x1="319.6124978151405" y1="47.09735530523071" x2="22.79060489578376" y2="226.53244491640444" stroke="black"></line><line id="SvgjsLine52676" x1="323.125" y1="49.07841289216614" x2="323.125" y2="395.92158710783383" stroke="black"></line><line id="SvgjsLine52677" x1="326.59689728907574" y1="51.12980022163512" x2="223" y2="22.25" stroke="black"></line><line id="SvgjsLine52678" x1="330.0267816820922" y1="53.25068536985512" x2="22.912403116143167" y2="214.4367454930897" stroke="black"></line><line id="SvgjsLine52679" x1="333.41326221676877" y1="55.44020822875703" x2="312.4713925164506" y2="401.6505858800557" stroke="black"></line><line id="SvgjsLine52680" x1="336.75496553291396" y1="57.697480854795316" x2="223" y2="22.25" stroke="black"></line><line id="SvgjsLine52681" x1="340.0505364293802" y1="60.02158782904624" x2="23.764299278705238" y2="202.37046801103764" stroke="black"></line><line id="SvgjsLine52682" x1="343.2986384136552" y1="62.4115866284489" x2="301.49131362448003" y2="406.72588359267957" stroke="black"></line><line id="SvgjsLine52683" x1="346.49795424386576" y1="64.8665080080377" x2="223" y2="22.25" stroke="black"></line><line id="SvgjsLine52684" x1="349.64718646297433" y1="67.38535639401218" x2="25.343184906757955" y2="190.37764100823352" stroke="black"></line><line id="SvgjsLine52685" x1="352.7450579249529" y1="69.96711028748382" x2="290.2248284412126" y2="411.1289610347508" stroke="black"></line><line id="SvgjsLine52686" x1="355.79031231271927" y1="72.610722678737" x2="223" y2="22.25" stroke="black"></line><line id="SvgjsLine52687" x1="358.78171464762613" y1="75.3151214718352" x2="27.643298817869436" y2="178.5020250098286" stroke="black"></line><line id="SvgjsLine52688" x1="361.7180517902973" y1="78.07920991940114" x2="278.71304714926964" y2="414.8437518541823" stroke="black"></line><line id="SvgjsLine52689" x1="364.5981329326061" y1="80.90186706739385" x2="223" y2="22.25" stroke="black"></line><line id="SvgjsLine52690" x1="367.42079008059886" y1="83.7819482097027" x2="30.65624814581767" y2="166.78695285073047" stroke="black"></line><line id="SvgjsLine52691" x1="370.1848785281648" y1="86.71828535237384" x2="266.9979749901715" y2="417.85670118213056" stroke="black"></line><line id="SvgjsLine52692" x1="372.88927732126297" y1="89.70968768728073" x2="223" y2="22.25" stroke="black"></line><line id="SvgjsLine52693" x1="375.5328897125162" y1="92.7549420750471" x2="34.3710389652492" y2="155.27517155878738" stroke="black"></line><line id="SvgjsLine52694" x1="378.1146436059878" y1="95.8528135370257" x2="255.12235899176653" y2="420.156815093242" stroke="black"></line><line id="SvgjsLine52695" x1="380.6334919919623" y1="99.00204575613422" x2="223" y2="22.25" stroke="black"></line><line id="SvgjsLine52696" x1="383.0884133715511" y1="102.20136158634472" x2="38.774116407320435" y2="144.00868637552003" stroke="black"></line><line id="SvgjsLine52697" x1="385.47841217095373" y1="105.44946357061976" x2="243.1295319889623" y2="421.73570072129473" stroke="black"></line><line id="SvgjsLine52698" x1="387.8025191452047" y1="108.74503446708604" x2="223" y2="22.25" stroke="black"></line><line id="SvgjsLine52699" x1="390.059791771243" y1="112.08673778323123" x2="43.849414119944186" y2="133.02860748354954" stroke="black"></line><line id="SvgjsLine52700" x1="392.2493146301449" y1="115.47321831790785" x2="231.06325450691037" y2="422.5875968838568" stroke="black"></line><line id="SvgjsLine52701" x1="394.37019977836485" y1="118.90310271092423" x2="223" y2="22.25" stroke="black"></line><line id="SvgjsLine52702" x1="396.42158710783383" y1="122.37499999999997" x2="49.57841289216617" y2="122.37499999999997" stroke="black"></line><line id="SvgjsLine52703" x1="398.40264469476926" y1="125.88750218485953" x2="218.9675550835956" y2="422.70939510421624" stroke="black"></line><line id="SvgjsLine52704" x1="400.3125691370553" y1="129.43918479823532" x2="223" y2="22.25" stroke="black"></line><line id="SvgjsLine52705" x1="402.15058588005576" y1="133.02860748354945" x2="55.940208228757" y2="112.08673778323127" stroke="black"></line><line id="SvgjsLine52706" x1="403.91594953072905" y1="136.65431457903838" x2="206.88656961447575" y2="422.1006509538756" stroke="black"></line><line id="SvgjsLine52707" x1="405.60794415991603" y1="140.3148357080854" x2="223" y2="22.25" stroke="black"></line><line id="SvgjsLine52708" x1="407.22588359267957" y1="144.00868637551997" x2="62.911586628448845" y2="102.2013615863448" stroke="black"></line><line id="SvgjsLine52709" x1="408.7691116865771" y1="147.73436856964264" x2="194.86438030538517" y2="420.7635856742231" stroke="black"></line><line id="SvgjsLine52710" x1="410.2370025977543" y1="151.49037136973226" x2="223" y2="22.25" stroke="black"></line><line id="SvgjsLine52711" x1="411.6289610347508" y1="155.27517155878738" x2="70.46711028748385" y2="92.7549420750471" stroke="black"></line><line id="SvgjsLine52712" x1="412.94442249991585" y1="159.0872342412551" x2="182.94485482134712" y2="418.7030780714641" stroke="black"></line><line id="SvgjsLine52713" x1="414.1828535183363" y1="162.9250134654956" x2="223" y2="22.25" stroke="black"></line><line id="SvgjsLine52714" x1="415.3437518541823" y1="166.78695285073033" x2="78.57920991940111" y2="83.78194820970273" stroke="black"></line><line id="SvgjsLine52715" x1="416.4266467143859" y1="170.67148621822022" x2="171.1714862182203" y2="415.9266467143859" stroke="black"></line><line id="SvgjsLine52716" x1="417.43109893956694" y1="174.57703822641656" x2="223" y2="22.25" stroke="black"></line><line id="SvgjsLine52717" x1="418.35670118213056" y1="178.50202500982851" x2="87.21828535237378" y2="75.31512147183525" stroke="black"></line><line id="SvgjsLine52718" x1="419.2030780714641" y1="182.4448548213471" x2="159.5872342412551" y2="412.44442249991585" stroke="black"></line><line id="SvgjsLine52719" x1="419.9698863661655" y1="186.40392867776535" x2="223" y2="22.25" stroke="black"></line><line id="SvgjsLine52720" x1="420.656815093242" y1="190.37764100823352" x2="96.35281353702574" y2="67.38535639401215" stroke="black"></line><line id="SvgjsLine52721" x1="421.2635856742231" y1="194.36438030538517" x2="148.23436856964267" y2="408.2691116865771" stroke="black"></line><line id="SvgjsLine52722" x1="421.7899520381353" y1="198.36252977887156" x2="223" y2="22.25" stroke="black"></line><line id="SvgjsLine52723" x1="422.23570072129473" y1="202.3704680110377" x2="105.94946357061976" y2="60.02158782904627" stroke="black"></line><line id="SvgjsLine52724" x1="422.6006509538755" y1="206.3865696144756" x2="137.15431457903847" y2="403.4159495307291" stroke="black"></line><line id="SvgjsLine52725" x1="422.88465473321935" y1="210.4092058911872" x2="223" y2="22.25" stroke="black"></line><line id="SvgjsLine52726" x1="423.0875968838568" y1="214.4367454930896" x2="115.97321831790778" y2="53.25068536985512" stroke="black"></line><line id="SvgjsLine52727" x1="423.20939510421624" y1="218.46755508359558" x2="126.38750218485949" y2="397.90264469476926" stroke="black"></line><line id="SvgjsLine52728" x1="423.25" y1="222.5" x2="223" y2="22.25" stroke="black"></line><line id="SvgjsLine52729" x1="423.20939510421624" y1="226.5324449164044" x2="126.38750218485943" y2="47.097355305230764" stroke="black"></line><line id="SvgjsLine52730" x1="423.0875968838568" y1="230.56325450691034" x2="115.97321831790785" y2="391.7493146301449" stroke="black"></line><line id="SvgjsLine52731" x1="422.88465473321935" y1="234.59079410881282" x2="223" y2="22.25" stroke="black"></line><line id="SvgjsLine52732" x1="422.6006509538755" y1="238.61343038552437" x2="137.15431457903838" y2="41.58405046927095" stroke="black"></line><line id="SvgjsLine52733" x1="422.2357007212948" y1="242.62953198896227" x2="105.94946357061983" y2="384.9784121709538" stroke="black"></line><line id="SvgjsLine52734" x1="421.7899520381353" y1="246.6374702211284" x2="223" y2="22.25" stroke="black"></line><line id="SvgjsLine52735" x1="421.2635856742231" y1="250.63561969461477" x2="148.23436856964258" y2="36.73088831342292" stroke="black"></line><line id="SvgjsLine52736" x1="420.656815093242" y1="254.6223589917665" x2="96.3528135370258" y2="377.6146436059879" stroke="black"></line><line id="SvgjsLine52737" x1="419.9698863661655" y1="258.5960713222346" x2="223" y2="22.25" stroke="black"></line><line id="SvgjsLine52738" x1="419.2030780714641" y1="262.5551451786529" x2="159.58723424125503" y2="32.55557750008413" stroke="black"></line><line id="SvgjsLine52739" x1="418.35670118213056" y1="266.49797499017143" x2="87.21828535237384" y2="369.6848785281648" stroke="black"></line><line id="SvgjsLine52740" x1="417.43109893956694" y1="270.4229617735834" x2="223" y2="22.25" stroke="black"></line><line id="SvgjsLine52741" x1="416.4266467143859" y1="274.3285137817798" x2="171.17148621822022" y2="29.073353285614076" stroke="black"></line><line id="SvgjsLine52742" x1="415.3437518541823" y1="278.21304714926964" x2="78.57920991940117" y2="361.2180517902973" stroke="black"></line><line id="SvgjsLine52743" x1="414.1828535183363" y1="282.0749865345044" x2="223" y2="22.25" stroke="black"></line><line id="SvgjsLine52744" x1="412.9444224999159" y1="285.91276575874485" x2="182.94485482134706" y2="26.29692192853591" stroke="black"></line><line id="SvgjsLine52745" x1="411.6289610347508" y1="289.72482844121254" x2="70.4671102874839" y2="352.245057924953" stroke="black"></line><line id="SvgjsLine52746" x1="410.2370025977543" y1="293.5096286302678" x2="223" y2="22.25" stroke="black"></line><line id="SvgjsLine52747" x1="408.7691116865771" y1="297.26563143035736" x2="194.86438030538508" y2="24.236414325776906" stroke="black"></line><line id="SvgjsLine52748" x1="407.22588359267957" y1="300.99131362448003" x2="62.9115866284489" y2="342.7986384136552" stroke="black"></line><line id="SvgjsLine52749" x1="405.6079441599161" y1="304.6851642919145" x2="223" y2="22.25" stroke="black"></line><line id="SvgjsLine52750" x1="403.91594953072905" y1="308.3456854209616" x2="206.88656961447566" y2="22.899349046124428" stroke="black"></line><line id="SvgjsLine52751" x1="402.15058588005576" y1="311.9713925164506" x2="55.94020822875706" y2="332.91326221676877" stroke="black"></line><line id="SvgjsLine52752" x1="400.3125691370553" y1="315.5608152017646" x2="223" y2="22.25" stroke="black"></line><line id="SvgjsLine52753" x1="398.40264469476926" y1="319.11249781514044" x2="218.96755508359556" y2="22.29060489578376" stroke="black"></line><line id="SvgjsLine52754" x1="396.42158710783383" y1="322.62499999999994" x2="49.57841289216623" y2="322.6250000000001" stroke="black"></line><line id="SvgjsLine52755" x1="394.37019977836485" y1="326.0968972890758" x2="223" y2="22.25" stroke="black"></line><line id="SvgjsLine52756" x1="392.2493146301449" y1="329.5267816820922" x2="231.06325450691037" y2="22.412403116143196" stroke="black"></line><line id="SvgjsLine52757" x1="390.059791771243" y1="332.91326221676877" x2="43.849414119944214" y2="311.9713925164505" stroke="black"></line><line id="SvgjsLine52758" x1="387.8025191452047" y1="336.25496553291396" x2="223" y2="22.25" stroke="black"></line><line id="SvgjsLine52759" x1="385.4784121709538" y1="339.5505364293802" x2="243.1295319889623" y2="23.264299278705238" stroke="black"></line><line id="SvgjsLine52760" x1="383.0884133715511" y1="342.79863841365534" x2="38.77411640732046" y2="300.9913136244801" stroke="black"></line><line id="SvgjsLine52761" x1="380.6334919919623" y1="345.99795424386576" x2="223" y2="22.25" stroke="black"></line><line id="SvgjsLine52762" x1="378.1146436059878" y1="349.1471864629743" x2="255.12235899176648" y2="24.843184906757955" stroke="black"></line><line id="SvgjsLine52763" x1="375.5328897125162" y1="352.2450579249529" x2="34.37103896524923" y2="289.7248284412127" stroke="black"></line><line id="SvgjsLine52764" x1="372.889277321263" y1="355.29031231271915" x2="223" y2="22.25" stroke="black"></line><line id="SvgjsLine52765" x1="370.18487852816475" y1="358.28171464762613" x2="266.9979749901715" y2="27.143298817869464" stroke="black"></line><line id="SvgjsLine52766" x1="367.42079008059886" y1="361.2180517902973" x2="30.6562481458177" y2="278.2130471492696" stroke="black"></line><line id="SvgjsLine52767" x1="364.5981329326062" y1="364.0981329326061" x2="223" y2="22.25" stroke="black"></line><line id="SvgjsLine52768" x1="361.7180517902973" y1="366.92079008059886" x2="278.71304714926964" y2="30.1562481458177" stroke="black"></line><line id="SvgjsLine52769" x1="358.7817146476262" y1="369.68487852816475" x2="27.643298817869464" y2="266.4979749901715" stroke="black"></line><line id="SvgjsLine52770" x1="355.79031231271927" y1="372.389277321263" x2="223" y2="22.25" stroke="black"></line><line id="SvgjsLine52771" x1="352.7450579249529" y1="375.0328897125162" x2="290.2248284412126" y2="33.8710389652492" stroke="black"></line><line id="SvgjsLine52772" x1="349.64718646297433" y1="377.6146436059878" x2="25.343184906757955" y2="254.62235899176656" stroke="black"></line><line id="SvgjsLine52773" x1="346.49795424386576" y1="380.1334919919623" x2="223" y2="22.25" stroke="black"></line><line id="SvgjsLine52774" x1="343.29863841365534" y1="382.58841337155104" x2="301.49131362448003" y2="38.27411640732046" stroke="black"></line><line id="SvgjsLine52775" x1="340.0505364293802" y1="384.9784121709538" x2="23.764299278705238" y2="242.6295319889624" stroke="black"></line><line id="SvgjsLine52776" x1="336.75496553291396" y1="387.30251914520466" x2="223" y2="22.25" stroke="black"></line><line id="SvgjsLine52777" x1="333.41326221676877" y1="389.559791771243" x2="312.4713925164506" y2="43.34941411994424" stroke="black"></line><line id="SvgjsLine52778" x1="330.0267816820922" y1="391.7493146301449" x2="22.912403116143196" y2="230.56325450691037" stroke="black"></line><line id="SvgjsLine52779" x1="326.5968972890758" y1="393.87019977836485" x2="223" y2="22.25" stroke="black"></line><line id="SvgjsLine52780" x1="323.125" y1="395.92158710783383" x2="323.125" y2="49.07841289216614" stroke="black"></line><line id="SvgjsLine52781" x1="319.6124978151405" y1="397.90264469476926" x2="22.79060489578376" y2="218.46755508359564" stroke="black"></line><line id="SvgjsLine52782" x1="316.0608152017647" y1="399.8125691370552" x2="223" y2="22.25" stroke="black"></line><line id="SvgjsLine52783" x1="312.4713925164506" y1="401.6505858800557" x2="333.41326221676877" y2="55.44020822875703" stroke="black"></line><line id="SvgjsLine52784" x1="308.8456854209617" y1="403.415949530729" x2="23.399349046124428" y2="206.38656961447575" stroke="black"></line><line id="SvgjsLine52785" x1="305.18516429191453" y1="405.10794415991603" x2="223" y2="22.25" stroke="black"></line><line id="SvgjsLine52786" x1="301.49131362448003" y1="406.72588359267957" x2="343.2986384136552" y2="62.4115866284489" stroke="black"></line><line id="SvgjsLine52787" x1="297.76563143035736" y1="408.2691116865771" x2="24.736414325776906" y2="194.36438030538517" stroke="black"></line><line id="SvgjsLine52788" x1="294.0096286302678" y1="409.7370025977543" x2="223" y2="22.25" stroke="black"></line><line id="SvgjsLine52789" x1="290.2248284412126" y1="411.1289610347508" x2="352.7450579249529" y2="69.96711028748382" stroke="black"></line><line id="SvgjsLine52790" x1="286.41276575874485" y1="412.44442249991585" x2="26.79692192853588" y2="182.44485482134715" stroke="black"></line><line id="SvgjsLine52791" x1="282.57498653450443" y1="413.6828535183363" x2="223" y2="22.25" stroke="black"></line><line id="SvgjsLine52792" x1="278.71304714926964" y1="414.8437518541823" x2="361.7180517902973" y2="78.07920991940114" stroke="black"></line><line id="SvgjsLine52793" x1="274.82851378177986" y1="415.9266467143859" x2="29.573353285614047" y2="170.6714862182203" stroke="black"></line><line id="SvgjsLine52794" x1="270.92296177358344" y1="416.93109893956694" x2="223" y2="22.25" stroke="black"></line><line id="SvgjsLine52795" x1="266.9979749901715" y1="417.85670118213056" x2="370.1848785281648" y2="86.71828535237384" stroke="black"></line><line id="SvgjsLine52796" x1="263.05514517865294" y1="418.7030780714641" x2="33.05557750008413" y2="159.08723424125512" stroke="black"></line><line id="SvgjsLine52797" x1="259.09607132223465" y1="419.4698863661655" x2="223" y2="22.25" stroke="black"></line><line id="SvgjsLine52798" x1="255.12235899176653" y1="420.156815093242" x2="378.1146436059878" y2="95.8528135370257" stroke="black"></line><line id="SvgjsLine52799" x1="251.1356196946148" y1="420.7635856742231" x2="37.23088831342287" y2="147.7343685696427" stroke="black"></line><line id="SvgjsLine52800" x1="247.13747022112844" y1="421.2899520381353" x2="223" y2="22.25" stroke="black"></line><line id="SvgjsLine52801" x1="243.1295319889623" y1="421.73570072129473" x2="385.47841217095373" y2="105.44946357061976" stroke="black"></line><line id="SvgjsLine52802" x1="239.1134303855244" y1="422.1006509538755" x2="42.08405046927092" y2="136.6543145790385" stroke="black"></line><line id="SvgjsLine52803" x1="235.09079410881284" y1="422.38465473321935" x2="223" y2="22.25" stroke="black"></line><line id="SvgjsLine52804" x1="231.06325450691037" y1="422.5875968838568" x2="392.2493146301449" y2="115.47321831790785" stroke="black"></line><line id="SvgjsLine52805" x1="227.03244491640444" y1="422.70939510421624" x2="47.597355305230735" y2="125.8875021848595" stroke="black"></line><line id="SvgjsLine52806" x1="223.00000000000003" y1="422.75" x2="223" y2="22.25" stroke="black"></line><line id="SvgjsLine52807" x1="218.9675550835956" y1="422.70939510421624" x2="398.40264469476926" y2="125.88750218485953" stroke="black"></line><line id="SvgjsLine52808" x1="214.9367454930897" y1="422.5875968838568" x2="53.75068536985509" y2="115.47321831790785" stroke="black"></line><line id="SvgjsLine52809" x1="210.9092058911873" y1="422.38465473321935" x2="223" y2="22.25" stroke="black"></line><line id="SvgjsLine52810" x1="206.88656961447575" y1="422.1006509538756" x2="403.91594953072905" y2="136.65431457903838" stroke="black"></line><line id="SvgjsLine52811" x1="202.87046801103764" y1="421.73570072129473" x2="60.52158782904621" y2="105.44946357061983" stroke="black"></line><line id="SvgjsLine52812" x1="198.8625297788715" y1="421.2899520381353" x2="223" y2="22.25" stroke="black"></line><line id="SvgjsLine52813" x1="194.86438030538517" y1="420.7635856742231" x2="408.7691116865771" y2="147.73436856964264" stroke="black"></line><line id="SvgjsLine52814" x1="190.8776410082335" y1="420.156815093242" x2="67.88535639401209" y2="95.85281353702581" stroke="black"></line><line id="SvgjsLine52815" x1="186.90392867776538" y1="419.4698863661655" x2="223" y2="22.25" stroke="black"></line><line id="SvgjsLine52816" x1="182.94485482134712" y1="418.7030780714641" x2="412.94442249991585" y2="159.0872342412551" stroke="black"></line><line id="SvgjsLine52817" x1="179.00202500982857" y1="417.85670118213056" x2="75.8151214718352" y2="86.71828535237387" stroke="black"></line><line id="SvgjsLine52818" x1="175.07703822641662" y1="416.93109893956694" x2="223" y2="22.25" stroke="black"></line><line id="SvgjsLine52819" x1="171.1714862182203" y1="415.9266467143859" x2="416.4266467143859" y2="170.67148621822022" stroke="black"></line><line id="SvgjsLine52820" x1="167.28695285073047" y1="414.8437518541823" x2="84.28194820970268" y2="78.07920991940117" stroke="black"></line><line id="SvgjsLine52821" x1="163.42501346549554" y1="413.6828535183363" x2="223" y2="22.25" stroke="black"></line><line id="SvgjsLine52822" x1="159.5872342412551" y1="412.44442249991585" x2="419.2030780714641" y2="182.4448548213471" stroke="black"></line><line id="SvgjsLine52823" x1="155.77517155878735" y1="411.1289610347508" x2="93.25494207504701" y2="69.9671102874839" stroke="black"></line><line id="SvgjsLine52824" x1="151.99037136973226" y1="409.7370025977543" x2="223" y2="22.25" stroke="black"></line><line id="SvgjsLine52825" x1="148.23436856964267" y1="408.2691116865771" x2="421.2635856742231" y2="194.36438030538517" stroke="black"></line><line id="SvgjsLine52826" x1="144.50868637552" y1="406.72588359267957" x2="102.70136158634472" y2="62.4115866284489" stroke="black"></line><line id="SvgjsLine52827" x1="140.8148357080855" y1="405.1079441599161" x2="223" y2="22.25" stroke="black"></line><line id="SvgjsLine52828" x1="137.15431457903847" y1="403.4159495307291" x2="422.6006509538755" y2="206.3865696144756" stroke="black"></line><line id="SvgjsLine52829" x1="133.52860748354954" y1="401.6505858800558" x2="112.5867377832312" y2="55.44020822875706" stroke="black"></line><line id="SvgjsLine52830" x1="129.93918479823543" y1="399.81256913705533" x2="223" y2="22.25" stroke="black"></line><line id="SvgjsLine52831" x1="126.38750218485949" y1="397.90264469476926" x2="423.20939510421624" y2="218.46755508359558" stroke="black"></line><line id="SvgjsLine52832" x1="122.87499999999997" y1="395.92158710783383" x2="122.87499999999991" y2="49.07841289216623" stroke="black"></line><line id="SvgjsLine52833" x1="119.40310271092423" y1="393.87019977836485" x2="223" y2="22.25" stroke="black"></line><line id="SvgjsLine52834" x1="115.97321831790785" y1="391.7493146301449" x2="423.0875968838568" y2="230.56325450691034" stroke="black"></line><line id="SvgjsLine52835" x1="112.58673778323124" y1="389.559791771243" x2="133.52860748354945" y2="43.34941411994424" stroke="black"></line><line id="SvgjsLine52836" x1="109.2450344670861" y1="387.3025191452047" x2="223" y2="22.25" stroke="black"></line><line id="SvgjsLine52837" x1="105.94946357061983" y1="384.9784121709538" x2="422.2357007212948" y2="242.62953198896227" stroke="black"></line><line id="SvgjsLine52838" x1="102.70136158634479" y1="382.58841337155116" x2="144.50868637551991" y2="38.27411640732046" stroke="black"></line><line id="SvgjsLine52839" x1="99.50204575613434" y1="380.1334919919624" x2="223" y2="22.25" stroke="black"></line><line id="SvgjsLine52840" x1="96.3528135370258" y1="377.6146436059879" x2="420.656815093242" y2="254.6223589917665" stroke="black"></line><line id="SvgjsLine52841" x1="93.2549420750471" y1="375.0328897125162" x2="155.7751715587873" y2="33.87103896524923" stroke="black"></line><line id="SvgjsLine52842" x1="90.20968768728073" y1="372.38927732126297" x2="223" y2="22.25" stroke="black"></line><line id="SvgjsLine52843" x1="87.21828535237384" y1="369.6848785281648" x2="418.35670118213056" y2="266.49797499017143" stroke="black"></line><line id="SvgjsLine52844" x1="84.28194820970273" y1="366.92079008059886" x2="167.2869528507304" y2="30.1562481458177" stroke="black"></line><line id="SvgjsLine52845" x1="81.40186706739388" y1="364.0981329326062" x2="223" y2="22.25" stroke="black"></line><line id="SvgjsLine52846" x1="78.57920991940117" y1="361.2180517902973" x2="415.3437518541823" y2="278.21304714926964" stroke="black"></line><line id="SvgjsLine52847" x1="75.81512147183525" y1="358.28171464762625" x2="179.00202500982851" y2="27.143298817869464" stroke="black"></line><line id="SvgjsLine52848" x1="73.11072267873706" y1="355.29031231271927" x2="223" y2="22.25" stroke="black"></line><line id="SvgjsLine52849" x1="70.4671102874839" y1="352.245057924953" x2="411.6289610347508" y2="289.72482844121254" stroke="black"></line><line id="SvgjsLine52850" x1="67.88535639401215" y1="349.1471864629743" x2="190.87764100823344" y2="24.843184906757955" stroke="black"></line><line id="SvgjsLine52851" x1="65.36650800803767" y1="345.9979542438657" x2="223" y2="22.25" stroke="black"></line><line id="SvgjsLine52852" x1="62.9115866284489" y1="342.7986384136552" x2="407.22588359267957" y2="300.99131362448003" stroke="black"></line><line id="SvgjsLine52853" x1="60.52158782904627" y1="339.55053642938026" x2="202.8704680110376" y2="23.264299278705238" stroke="black"></line><line id="SvgjsLine52854" x1="58.197480854795316" y1="336.25496553291396" x2="223" y2="22.25" stroke="black"></line><line id="SvgjsLine52855" x1="55.94020822875706" y1="332.91326221676877" x2="402.15058588005576" y2="311.9713925164506" stroke="black"></line><line id="SvgjsLine52856" x1="53.75068536985512" y1="329.52678168209223" x2="214.9367454930896" y2="22.412403116143196" stroke="black"></line><line id="SvgjsLine52857" x1="51.62980022163518" y1="326.09689728907586" x2="223" y2="22.25" stroke="black"></line><line id="SvgjsLine52858" x1="49.57841289216623" y1="322.6250000000001" x2="396.42158710783383" y2="322.62499999999994" stroke="black"></line><line id="SvgjsLine52859" x1="47.597355305230764" y1="319.11249781514056" x2="227.03244491640442" y2="22.29060489578376" stroke="black"></line><line id="SvgjsLine52860" x1="45.687430862944694" y1="315.5608152017646" x2="223" y2="22.25" stroke="black"></line><line id="SvgjsLine52861" x1="43.849414119944214" y1="311.9713925164505" x2="390.059791771243" y2="332.91326221676877" stroke="black"></line><line id="SvgjsLine52862" x1="42.08405046927095" y1="308.34568542096156" x2="239.11343038552437" y2="22.899349046124428" stroke="black"></line><line id="SvgjsLine52863" x1="40.39205584008397" y1="304.6851642919146" x2="223" y2="22.25" stroke="black"></line><line id="SvgjsLine52864" x1="38.77411640732046" y1="300.9913136244801" x2="383.0884133715511" y2="342.79863841365534" stroke="black"></line><line id="SvgjsLine52865" x1="37.23088831342292" y1="297.2656314303574" x2="251.1356196946148" y2="24.236414325776906" stroke="black"></line><line id="SvgjsLine52866" x1="35.7629974022457" y1="293.5096286302678" x2="223" y2="22.25" stroke="black"></line><line id="SvgjsLine52867" x1="34.37103896524923" y1="289.7248284412127" x2="375.5328897125162" y2="352.2450579249529" stroke="black"></line><line id="SvgjsLine52868" x1="33.05557750008413" y1="285.91276575874497" x2="263.0551451786529" y2="26.29692192853591" stroke="black"></line><line id="SvgjsLine52869" x1="31.81714648166377" y1="282.0749865345045" x2="223" y2="22.25" stroke="black"></line><line id="SvgjsLine52870" x1="30.6562481458177" y1="278.2130471492696" x2="367.42079008059886" y2="361.2180517902973" stroke="black"></line><line id="SvgjsLine52871" x1="29.573353285614076" y1="274.32851378177975" x2="274.82851378177975" y2="29.073353285614076" stroke="black"></line><line id="SvgjsLine52872" x1="28.56890106043309" y1="270.42296177358344" x2="223" y2="22.25" stroke="black"></line><line id="SvgjsLine52873" x1="27.643298817869464" y1="266.4979749901715" x2="358.7817146476262" y2="369.68487852816475" stroke="black"></line><line id="SvgjsLine52874" x1="26.79692192853591" y1="262.55514517865294" x2="286.41276575874485" y2="32.55557750008413" stroke="black"></line><line id="SvgjsLine52875" x1="26.030113633834503" y1="258.59607132223465" x2="223" y2="22.25" stroke="black"></line><line id="SvgjsLine52876" x1="25.343184906757955" y1="254.62235899176656" x2="349.64718646297433" y2="377.6146436059878" stroke="black"></line><line id="SvgjsLine52877" x1="24.736414325776906" y1="250.6356196946149" x2="297.76563143035736" y2="36.730888313422895" stroke="black"></line><line id="SvgjsLine52878" x1="24.21004796186469" y1="246.63747022112855" x2="223" y2="22.25" stroke="black"></line><line id="SvgjsLine52879" x1="23.764299278705238" y1="242.6295319889624" x2="340.0505364293802" y2="384.9784121709538" stroke="black"></line><line id="SvgjsLine52880" x1="23.399349046124428" y1="238.6134303855243" x2="308.8456854209616" y2="41.58405046927095" stroke="black"></line><line id="SvgjsLine52881" x1="23.11534526678068" y1="234.59079410881276" x2="223" y2="22.25" stroke="black"></line><line id="SvgjsLine52882" x1="22.912403116143196" y1="230.56325450691037" x2="330.0267816820922" y2="391.7493146301449" stroke="black"></line><line id="SvgjsLine52883" x1="22.79060489578376" y1="226.53244491640444" x2="319.6124978151405" y2="47.09735530523071" stroke="black"></line><line id="SvgjsLine52884" x1="22.75" y1="222.50000000000003" x2="223" y2="22.25" stroke="black"></line><line id="SvgjsLine52885" x1="22.79060489578376" y1="218.46755508359564" x2="319.6124978151405" y2="397.90264469476926" stroke="black"></line><line id="SvgjsLine52886" x1="22.912403116143167" y1="214.4367454930897" x2="330.0267816820922" y2="53.25068536985512" stroke="black"></line><line id="SvgjsLine52887" x1="23.11534526678068" y1="210.4092058911873" x2="223" y2="22.25" stroke="black"></line><line id="SvgjsLine52888" x1="23.399349046124428" y1="206.38656961447575" x2="308.8456854209617" y2="403.415949530729" stroke="black"></line><line id="SvgjsLine52889" x1="23.764299278705238" y1="202.37046801103764" x2="340.0505364293802" y2="60.02158782904624" stroke="black"></line><line id="SvgjsLine52890" x1="24.21004796186469" y1="198.36252977887153" x2="223" y2="22.25" stroke="black"></line><line id="SvgjsLine52891" x1="24.736414325776906" y1="194.36438030538517" x2="297.76563143035736" y2="408.2691116865771" stroke="black"></line><line id="SvgjsLine52892" x1="25.343184906757955" y1="190.37764100823352" x2="349.64718646297433" y2="67.38535639401218" stroke="black"></line><line id="SvgjsLine52893" x1="26.030113633834475" y1="186.4039286777654" x2="223" y2="22.25" stroke="black"></line><line id="SvgjsLine52894" x1="26.79692192853588" y1="182.44485482134715" x2="286.41276575874485" y2="412.44442249991585" stroke="black"></line><line id="SvgjsLine52895" x1="27.643298817869436" y1="178.5020250098286" x2="358.78171464762613" y2="75.3151214718352" stroke="black"></line><line id="SvgjsLine52896" x1="28.568901060433063" y1="174.57703822641662" x2="223" y2="22.25" stroke="black"></line><line id="SvgjsLine52897" x1="29.573353285614047" y1="170.6714862182203" x2="274.82851378177986" y2="415.9266467143859" stroke="black"></line><line id="SvgjsLine52898" x1="30.65624814581767" y1="166.78695285073047" x2="367.42079008059886" y2="83.7819482097027" stroke="black"></line><line id="SvgjsLine52899" x1="31.81714648166374" y1="162.92501346549557" x2="223" y2="22.25" stroke="black"></line><line id="SvgjsLine52900" x1="33.05557750008413" y1="159.08723424125512" x2="263.05514517865294" y2="418.7030780714641" stroke="black"></line><line id="SvgjsLine52901" x1="34.3710389652492" y1="155.27517155878738" x2="375.5328897125162" y2="92.7549420750471" stroke="black"></line><line id="SvgjsLine52902" x1="35.762997402245674" y1="151.49037136973226" x2="223" y2="22.25" stroke="black"></line><line id="SvgjsLine52903" x1="37.23088831342287" y1="147.7343685696427" x2="251.1356196946148" y2="420.7635856742231" stroke="black"></line><line id="SvgjsLine52904" x1="38.774116407320435" y1="144.00868637552003" x2="383.0884133715511" y2="102.20136158634472" stroke="black"></line><line id="SvgjsLine52905" x1="40.39205584008394" y1="140.31483570808552" x2="223" y2="22.25" stroke="black"></line><line id="SvgjsLine52906" x1="42.08405046927092" y1="136.6543145790385" x2="239.1134303855244" y2="422.1006509538755" stroke="black"></line><line id="SvgjsLine52907" x1="43.849414119944186" y1="133.02860748354954" x2="390.059791771243" y2="112.08673778323123" stroke="black"></line><line id="SvgjsLine52908" x1="45.687430862944666" y1="129.43918479823546" x2="223" y2="22.25" stroke="black"></line><line id="SvgjsLine52909" x1="47.597355305230735" y1="125.8875021848595" x2="227.03244491640444" y2="422.70939510421624" stroke="black"></line><line id="SvgjsLine52910" x1="49.57841289216617" y1="122.37499999999997" x2="396.42158710783383" y2="122.37499999999997" stroke="black"></line><line id="SvgjsLine52911" x1="51.62980022163512" y1="118.90310271092423" x2="223" y2="22.25" stroke="black"></line><line id="SvgjsLine52912" x1="53.75068536985509" y1="115.47321831790785" x2="214.9367454930897" y2="422.5875968838568" stroke="black"></line><line id="SvgjsLine52913" x1="55.940208228757" y1="112.08673778323127" x2="402.15058588005576" y2="133.02860748354945" stroke="black"></line><line id="SvgjsLine52914" x1="58.19748085479526" y1="108.7450344670861" x2="223" y2="22.25" stroke="black"></line><line id="SvgjsLine52915" x1="60.52158782904621" y1="105.44946357061983" x2="202.87046801103764" y2="421.73570072129473" stroke="black"></line><line id="SvgjsLine52916" x1="62.911586628448845" y1="102.2013615863448" x2="407.22588359267957" y2="144.00868637551997" stroke="black"></line><line id="SvgjsLine52917" x1="65.36650800803764" y1="99.00204575613434" x2="223" y2="22.25" stroke="black"></line><line id="SvgjsLine52918" x1="67.88535639401209" y1="95.85281353702581" x2="190.8776410082335" y2="420.156815093242" stroke="black"></line><line id="SvgjsLine52919" x1="70.46711028748385" y1="92.7549420750471" x2="411.6289610347508" y2="155.27517155878738" stroke="black"></line><line id="SvgjsLine52920" x1="73.110722678737" y1="89.70968768728076" x2="223" y2="22.25" stroke="black"></line><line id="SvgjsLine52921" x1="75.8151214718352" y1="86.71828535237387" x2="179.00202500982857" y2="417.85670118213056" stroke="black"></line><line id="SvgjsLine52922" x1="78.57920991940111" y1="83.78194820970273" x2="415.3437518541823" y2="166.78695285073033" stroke="black"></line><line id="SvgjsLine52923" x1="81.40186706739382" y1="80.90186706739388" x2="223" y2="22.25" stroke="black"></line><line id="SvgjsLine52924" x1="84.28194820970268" y1="78.07920991940117" x2="167.28695285073047" y2="414.8437518541823" stroke="black"></line><line id="SvgjsLine52925" x1="87.21828535237378" y1="75.31512147183525" x2="418.35670118213056" y2="178.50202500982851" stroke="black"></line><line id="SvgjsLine52926" x1="90.2096876872807" y1="72.61072267873706" x2="223" y2="22.25" stroke="black"></line><line id="SvgjsLine52927" x1="93.25494207504701" y1="69.9671102874839" x2="155.77517155878735" y2="411.1289610347508" stroke="black"></line><line id="SvgjsLine52928" x1="96.35281353702574" y1="67.38535639401215" x2="420.656815093242" y2="190.37764100823352" stroke="black"></line><line id="SvgjsLine52929" x1="99.50204575613427" y1="64.86650800803767" x2="223" y2="22.25" stroke="black"></line><line id="SvgjsLine52930" x1="102.70136158634472" y1="62.4115866284489" x2="144.50868637552" y2="406.72588359267957" stroke="black"></line><line id="SvgjsLine52931" x1="105.94946357061976" y1="60.02158782904627" x2="422.23570072129473" y2="202.3704680110377" stroke="black"></line><line id="SvgjsLine52932" x1="109.24503446708603" y1="57.697480854795316" x2="223" y2="22.25" stroke="black"></line><line id="SvgjsLine52933" x1="112.5867377832312" y1="55.44020822875706" x2="133.52860748354954" y2="401.6505858800558" stroke="black"></line><line id="SvgjsLine52934" x1="115.97321831790778" y1="53.25068536985512" x2="423.0875968838568" y2="214.4367454930896" stroke="black"></line><line id="SvgjsLine52935" x1="119.40310271092416" y1="51.12980022163518" x2="223" y2="22.25" stroke="black"></line><line id="SvgjsLine52936" x1="122.87499999999991" y1="49.07841289216623" x2="122.87499999999997" y2="395.92158710783383" stroke="black"></line><line id="SvgjsLine52937" x1="126.38750218485943" y1="47.097355305230764" x2="423.20939510421624" y2="226.5324449164044" stroke="black"></line><line id="SvgjsLine52938" x1="129.93918479823537" y1="45.187430862944694" x2="223" y2="22.25" stroke="black"></line><line id="SvgjsLine52939" x1="133.52860748354945" y1="43.34941411994424" x2="112.58673778323124" y2="389.559791771243" stroke="black"></line><line id="SvgjsLine52940" x1="137.15431457903838" y1="41.58405046927095" x2="422.6006509538755" y2="238.61343038552437" stroke="black"></line><line id="SvgjsLine52941" x1="140.81483570808544" y1="39.89205584008397" x2="223" y2="22.25" stroke="black"></line><line id="SvgjsLine52942" x1="144.50868637551991" y1="38.27411640732046" x2="102.70136158634479" y2="382.58841337155116" stroke="black"></line><line id="SvgjsLine52943" x1="148.23436856964258" y1="36.73088831342292" x2="421.2635856742231" y2="250.63561969461477" stroke="black"></line><line id="SvgjsLine52944" x1="151.99037136973217" y1="35.2629974022457" x2="223" y2="22.25" stroke="black"></line><line id="SvgjsLine52945" x1="155.7751715587873" y1="33.87103896524923" x2="93.2549420750471" y2="375.0328897125162" stroke="black"></line><line id="SvgjsLine52946" x1="159.58723424125503" y1="32.55557750008413" x2="419.2030780714641" y2="262.5551451786529" stroke="black"></line><line id="SvgjsLine52947" x1="163.42501346549548" y1="31.31714648166377" x2="223" y2="22.25" stroke="black"></line><line id="SvgjsLine52948" x1="167.2869528507304" y1="30.1562481458177" x2="84.28194820970273" y2="366.92079008059886" stroke="black"></line><line id="SvgjsLine52949" x1="171.17148621822022" y1="29.073353285614076" x2="416.4266467143859" y2="274.3285137817798" stroke="black"></line><line id="SvgjsLine52950" x1="175.07703822641656" y1="28.06890106043309" x2="223" y2="22.25" stroke="black"></line><line id="SvgjsLine52951" x1="179.00202500982851" y1="27.143298817869464" x2="75.81512147183525" y2="358.28171464762625" stroke="black"></line><line id="SvgjsLine52952" x1="182.94485482134706" y1="26.29692192853591" x2="412.9444224999159" y2="285.91276575874485" stroke="black"></line><line id="SvgjsLine52953" x1="186.90392867776532" y1="25.530113633834503" x2="223" y2="22.25" stroke="black"></line><line id="SvgjsLine52954" x1="190.87764100823344" y1="24.843184906757955" x2="67.88535639401215" y2="349.1471864629743" stroke="black"></line><line id="SvgjsLine52955" x1="194.86438030538508" y1="24.236414325776906" x2="408.7691116865771" y2="297.26563143035736" stroke="black"></line><line id="SvgjsLine52956" x1="198.86252977887145" y1="23.71004796186469" x2="223" y2="22.25" stroke="black"></line><line id="SvgjsLine52957" x1="202.8704680110376" y1="23.264299278705238" x2="60.52158782904627" y2="339.55053642938026" stroke="black"></line><line id="SvgjsLine52958" x1="206.88656961447566" y1="22.899349046124428" x2="403.91594953072905" y2="308.3456854209616" stroke="black"></line><line id="SvgjsLine52959" x1="210.9092058911872" y1="22.61534526678068" x2="223" y2="22.25" stroke="black"></line><line id="SvgjsLine52960" x1="214.9367454930896" y1="22.412403116143196" x2="53.75068536985512" y2="329.52678168209223" stroke="black"></line><line id="SvgjsLine52961" x1="218.96755508359556" y1="22.29060489578376" x2="398.40264469476926" y2="319.11249781514044" stroke="black"></line></svg>