<svg id="SvgjsSvg1001" width="446" height="445" xmlns="http://www.w3.org/2000/svg" version="1.1" xmlns:xlink="http://www.w3.org/1999/xlink" xmlns:svgjs="http://svgjs.com/svgjs"><circle id="SvgjsCircle33986" r="200.25" cx="223" cy="222.5" stroke="black" fill="transparent"></circle><line id="SvgjsLine33987" x1="227.08480711262894" y1="22.291666380111394" x2="406.8127961970653" y2="143.04612373070694" stroke="black"></line><line id="SvgjsLine33988" x1="231.16791435883252" y1="22.416648181247268" x2="368.86406158056843" y2="359.69962842231075" stroke="black"></line><line id="SvgjsLine33989" x1="235.247622579574" y1="22.62489339302826" x2="154.937167358081" y2="410.82820636526577" stroke="black"></line><line id="SvgjsLine33990" x1="239.3222340302994" y1="22.91631535553782" x2="23.12489339302826" y2="234.747622579574" stroke="black"></line><line id="SvgjsLine33991" x1="243.39005308744302" y1="23.29079279538493" x2="132.4525755666421" y2="43.89085569746061" stroke="black"></line><line id="SvgjsLine33992" x1="247.4493869540505" y1="23.748169876171715" x2="351.02148505959417" y2="68.51765730079276" stroke="black"></line><line id="SvgjsLine33993" x1="251.49854636422535" y1="24.288256263343243" x2="415.1384679663031" y2="278.9169445074963" stroke="black"></line><line id="SvgjsLine33994" x1="255.53584628610622" y1="24.910827203394405" x2="247.44938695405057" y2="421.2518301238283" stroke="black"></line><line id="SvgjsLine33995" x1="259.5596066230822" y1="25.615623617399535" x2="50.26326552590365" y2="323.8019400763161" stroke="black"></line><line id="SvgjsLine33996" x1="263.5681529129542" y1="26.402352208826414" x2="61.47592512518463" y2="104.1360032111325" stroke="black"></line><line id="SvgjsLine33997" x1="267.55981702475196" y1="27.27068558558983" x2="223" y2="22.25" stroke="black"></line><line id="SvgjsLine33998" x1="271.5329378529158" y1="28.220262396293577" x2="419.88437638260046" y2="185.94039337691783" stroke="black"></line><line id="SvgjsLine33999" x1="275.4858620085552" y1="29.25068748060471" x2="334.6771555641126" y2="388.7175545034549" stroke="black"></line><line id="SvgjsLine34000" x1="279.4169445074963" y1="30.361532033696903" x2="114.73667630451659" y2="390.961019949444" stroke="black"></line><line id="SvgjsLine34001" x1="283.3245494548312" y1="31.552333784694753" x2="25.410827203394405" y2="189.96415371389378" stroke="black"></line><line id="SvgjsLine34002" x1="287.2070507256853" y1="32.82259718904501" x2="174.46706214708414" y2="28.220262396293606" stroke="black"></line><line id="SvgjsLine34003" x1="291.062832641919" y1="34.17179363473423" x2="382.0760138537755" y2="100.86577654133103" stroke="black"></line><line id="SvgjsLine34004" x1="294.89029064448164" y1="35.59936166226731" x2="397.76720424143247" y2="320.2572852611683" stroke="black"></line><line id="SvgjsLine34005" x1="298.6878319611385" y1="37.10470719831517" x2="202.60994691255692" y2="421.70920720461504" stroke="black"></line><line id="SvgjsLine34006" x1="302.45387626929306" y1="38.687203802934675" x2="32.05233378469475" y2="282.8245494548312" stroke="black"></line><line id="SvgjsLine34007" x1="306.1868563536277" y1="40.34619293025767" x2="91.86413802745656" y2="71.16114773555987" stroke="black"></line><line id="SvgjsLine34008" x1="309.885218758291" y1="42.08098420254058" x2="223" y2="22.25" stroke="black"></line><line id="SvgjsLine34009" x1="313.54742443335783" y1="43.89085569746055" x2="423.0833518187527" y2="230.66791435883252" stroke="black"></line><line id="SvgjsLine34010" x1="317.1719493752955" y1="45.77505424853916" x2="294.89029064448164" y2="409.4006383377327" stroke="black"></line><line id="SvgjsLine34011" x1="320.7572852611683" y1="47.73279575856753" x2="79.96496036931381" y2="362.64649456139824" stroke="black"></line><line id="SvgjsLine34012" x1="324.301940076316" y1="49.76326552590362" x2="37.60470719831517" y2="146.81216803886147" stroke="black"></line><line id="SvgjsLine34013" x1="327.80443873524655" y1="51.86561858350484" x2="218.91519288737098" y2="22.291666380111394" stroke="black"></line><line id="SvgjsLine34014" x1="331.2633236954834" y1="54.03898005055598" x2="405.1538070697423" y2="139.31314364637223" stroke="black"></line><line id="SvgjsLine34015" x1="334.6771555641126" y1="56.28244549654511" x2="371.6323831316051" y2="356.69566753297124" stroke="black"></line><line id="SvgjsLine34016" x1="338.0445136967768" y1="58.59508131763667" x2="158.79294927431468" y2="412.17740281095496" stroke="black"></line><line id="SvgjsLine34017" x1="341.3639967888675" y1="60.9759251251846" x2="23.41631535553782" y2="238.82223403029946" stroke="black"></line><line id="SvgjsLine34018" x1="344.63422345866894" y1="63.42398614622445" x2="128.82805062470433" y2="45.77505424853922" stroke="black"></line><line id="SvgjsLine34019" x1="347.85383282221136" y1="65.93824563577704" x2="223" y2="22.25" stroke="black"></line><line id="SvgjsLine34020" x1="351.02148505959417" y1="68.51765730079276" x2="416.2493125193953" y2="274.98586200855516" stroke="black"></line><line id="SvgjsLine34021" x1="354.13586197254335" y1="71.16114773555975" x2="251.49854636422535" y2="420.7117437366568" stroke="black"></line><line id="SvgjsLine34022" x1="357.1956675329713" y1="73.86761686839495" x2="52.36561858350487" y2="327.30443873524666" stroke="black"></line><line id="SvgjsLine34023" x1="360.19962842231075" y1="76.6359384194316" x2="59.09508131763667" y2="107.45548630322322" stroke="black"></line><line id="SvgjsLine34024" x1="363.14649456139824" y1="79.46496036931381" x2="263.5681529129542" y2="26.402352208826414" stroke="black"></line><line id="SvgjsLine34025" x1="366.0350396306862" y1="82.35350543860173" x2="419.0976477911736" y2="181.93184708704578" stroke="black"></line><line id="SvgjsLine34026" x1="368.8640615805684" y1="85.30037157768919" x2="338.0445136967768" y2="386.40491868236336" stroke="black"></line><line id="SvgjsLine34027" x1="371.632383131605" y1="88.3043324670287" x2="118.1955612647535" y2="393.1343814164952" stroke="black"></line><line id="SvgjsLine34028" x1="374.3388522644402" y1="91.36413802745665" x2="24.788256263343214" y2="194.0014536357747" stroke="black"></line><line id="SvgjsLine34029" x1="376.98234269920727" y1="94.4785149404058" x2="170.51413799144467" y2="29.250687480604768" stroke="black"></line><line id="SvgjsLine34030" x1="379.56175436422296" y1="97.6461671777886" x2="223" y2="22.25" stroke="black"></line><line id="SvgjsLine34031" x1="382.0760138537755" y1="100.86577654133103" x2="399.72494575146084" y2="316.6719493752955" stroke="black"></line><line id="SvgjsLine34032" x1="384.52407487481537" y1="104.1360032111325" x2="206.6777659697006" y2="422.0836846444622" stroke="black"></line><line id="SvgjsLine34033" x1="386.90491868236336" y1="107.4554863032232" x2="33.32259718904504" y2="286.70705072568535" stroke="black"></line><line id="SvgjsLine34034" x1="389.2175545034549" y1="110.82284443588739" x2="88.8043324670287" y2="73.86761686839498" stroke="black"></line><line id="SvgjsLine34035" x1="391.461019949444" y1="114.23667630451656" x2="306.1868563536277" y2="40.34619293025767" stroke="black"></line><line id="SvgjsLine34036" x1="393.6343814164951" y1="117.69556126475344" x2="423.2083336198886" y2="226.58480711262888" stroke="black"></line><line id="SvgjsLine34037" x1="395.73673447409635" y1="121.19805992368396" x2="298.6878319611386" y2="407.89529280168483" stroke="black"></line><line id="SvgjsLine34038" x1="397.7672042414324" y1="124.74271473883165" x2="82.85350543860179" y2="365.53503963068624" stroke="black"></line><line id="SvgjsLine34039" x1="399.72494575146084" y1="128.32805062470445" x2="36.099361662267285" y2="150.60970935551842" stroke="black"></line><line id="SvgjsLine34040" x1="401.60914430253945" y1="131.95257556664217" x2="214.8320856411675" y2="22.416648181247268" stroke="black"></line><line id="SvgjsLine34041" x1="403.41901579745945" y1="135.61478124170895" x2="223" y2="22.25" stroke="black"></line><line id="SvgjsLine34042" x1="405.1538070697423" y1="139.31314364637223" x2="374.3388522644402" y2="353.63586197254335" stroke="black"></line><line id="SvgjsLine34043" x1="406.8127961970653" y1="143.04612373070694" x2="162.67545054516884" y2="413.4476662153053" stroke="black"></line><line id="SvgjsLine34044" x1="408.39529280168483" y1="146.81216803886147" x2="23.79079279538496" y2="242.89005308744314" stroke="black"></line><line id="SvgjsLine34045" x1="409.9006383377327" y1="150.60970935551836" x2="125.24271473883151" y2="47.73279575856765" stroke="black"></line><line id="SvgjsLine34046" x1="411.32820636526577" y1="154.437167358081" x2="344.63422345866894" y2="63.42398614622445" stroke="black"></line><line id="SvgjsLine34047" x1="412.67740281095496" y1="158.29294927431474" x2="417.2797376037064" y2="271.0329378529158" stroke="black"></line><line id="SvgjsLine34048" x1="413.9476662153053" y1="162.17545054516887" x2="255.53584628610628" y2="420.08917279660557" stroke="black"></line><line id="SvgjsLine34049" x1="415.1384679663031" y1="166.08305549250372" x2="54.53898005055606" y2="330.76332369548356" stroke="black"></line><line id="SvgjsLine34050" x1="416.2493125193953" y1="170.0141379914448" x2="56.78244549654508" y2="110.82284443588746" stroke="black"></line><line id="SvgjsLine34051" x1="417.2797376037064" y1="173.96706214708422" x2="259.5596066230822" y2="25.615623617399535" stroke="black"></line><line id="SvgjsLine34052" x1="418.22931441441017" y1="177.94018297524804" x2="223" y2="22.25" stroke="black"></line><line id="SvgjsLine34053" x1="419.0976477911736" y1="181.93184708704578" x2="341.3639967888675" y2="384.02407487481537" stroke="black"></line><line id="SvgjsLine34054" x1="419.88437638260046" y1="185.94039337691783" x2="121.69805992368407" y2="395.23673447409647" stroke="black"></line><line id="SvgjsLine34055" x1="420.58917279660557" y1="189.96415371389375" x2="24.248169876171687" y2="198.05061304594958" stroke="black"></line><line id="SvgjsLine34056" x1="421.2117437366568" y1="194.00145363577462" x2="166.5830554925037" y2="30.361532033696903" stroke="black"></line><line id="SvgjsLine34057" x1="421.7518301238283" y1="198.05061304594946" x2="376.98234269920727" y2="94.4785149404058" stroke="black"></line><line id="SvgjsLine34058" x1="422.20920720461504" y1="202.10994691255695" x2="401.60914430253945" y2="313.0474244333578" stroke="black"></line><line id="SvgjsLine34059" x1="422.5836846444622" y1="206.17776596970057" x2="210.75237742042606" y2="422.3751066069717" stroke="black"></line><line id="SvgjsLine34060" x1="422.8751066069717" y1="210.25237742042597" x2="34.671793634734286" y2="290.56283264191916" stroke="black"></line><line id="SvgjsLine34061" x1="423.0833518187527" y1="214.33208564116748" x2="85.80037157768916" y2="76.63593841943165" stroke="black"></line><line id="SvgjsLine34062" x1="423.2083336198886" y1="218.41519288737106" x2="302.45387626929306" y2="38.687203802934675" stroke="black"></line><line id="SvgjsLine34063" x1="423.25" y1="222.5" x2="223" y2="22.25" stroke="black"></line><line id="SvgjsLine34064" x1="423.2083336198886" y1="226.58480711262888" x2="302.45387626929306" y2="406.31279619706527" stroke="black"></line><line id="SvgjsLine34065" x1="423.0833518187527" y1="230.66791435883252" x2="85.80037157768928" y2="368.36406158056843" stroke="black"></line><line id="SvgjsLine34066" x1="422.8751066069717" y1="234.74762257957394" x2="34.67179363473426" y2="154.43716735808093" stroke="black"></line><line id="SvgjsLine34067" x1="422.5836846444622" y1="238.8222340302994" x2="210.75237742042597" y2="22.624893393028287" stroke="black"></line><line id="SvgjsLine34068" x1="422.20920720461504" y1="242.890053087443" x2="401.60914430253945" y2="131.95257556664217" stroke="black"></line><line id="SvgjsLine34069" x1="421.7518301238283" y1="246.9493869540505" x2="376.98234269920727" y2="350.52148505959417" stroke="black"></line><line id="SvgjsLine34070" x1="421.2117437366568" y1="250.99854636422532" x2="166.58305549250377" y2="414.6384679663031" stroke="black"></line><line id="SvgjsLine34071" x1="420.58917279660557" y1="255.03584628610622" x2="24.248169876171687" y2="246.94938695405048" stroke="black"></line><line id="SvgjsLine34072" x1="419.88437638260046" y1="259.0596066230822" x2="121.69805992368393" y2="49.76326552590365" stroke="black"></line><line id="SvgjsLine34073" x1="419.0976477911736" y1="263.0681529129542" x2="341.3639967888675" y2="60.9759251251846" stroke="black"></line><line id="SvgjsLine34074" x1="418.22931441441017" y1="267.05981702475196" x2="223" y2="22.25" stroke="black"></line><line id="SvgjsLine34075" x1="417.2797376037064" y1="271.0329378529158" x2="259.5596066230822" y2="419.38437638260046" stroke="black"></line><line id="SvgjsLine34076" x1="416.2493125193953" y1="274.98586200855516" x2="56.78244549654511" y2="334.1771555641126" stroke="black"></line><line id="SvgjsLine34077" x1="415.1384679663031" y1="278.9169445074963" x2="54.538980050556006" y2="114.23667630451652" stroke="black"></line><line id="SvgjsLine34078" x1="413.9476662153053" y1="282.82454945483113" x2="255.53584628610622" y2="24.910827203394405" stroke="black"></line><line id="SvgjsLine34079" x1="412.67740281095496" y1="286.7070507256853" x2="417.2797376037064" y2="173.96706214708422" stroke="black"></line><line id="SvgjsLine34080" x1="411.32820636526577" y1="290.56283264191893" x2="344.63422345866894" y2="381.5760138537755" stroke="black"></line><line id="SvgjsLine34081" x1="409.9006383377327" y1="294.39029064448164" x2="125.24271473883164" y2="397.2672042414324" stroke="black"></line><line id="SvgjsLine34082" x1="408.39529280168483" y1="298.1878319611385" x2="23.79079279538493" y2="202.10994691255695" stroke="black"></line><line id="SvgjsLine34083" x1="406.81279619706527" y1="301.95387626929306" x2="162.6754505451688" y2="31.55233378469478" stroke="black"></line><line id="SvgjsLine34084" x1="405.15380706974236" y1="305.6868563536277" x2="374.3388522644402" y2="91.36413802745665" stroke="black"></line><line id="SvgjsLine34085" x1="403.41901579745945" y1="309.385218758291" x2="223" y2="22.25" stroke="black"></line><line id="SvgjsLine34086" x1="401.60914430253945" y1="313.0474244333578" x2="214.8320856411676" y2="422.5833518187527" stroke="black"></line><line id="SvgjsLine34087" x1="399.72494575146084" y1="316.6719493752955" x2="36.09936166226731" y2="294.39029064448164" stroke="black"></line><line id="SvgjsLine34088" x1="397.76720424143247" y1="320.2572852611683" x2="82.85350543860167" y2="79.46496036931387" stroke="black"></line><line id="SvgjsLine34089" x1="395.73673447409647" y1="323.80194007631593" x2="298.6878319611385" y2="37.10470719831517" stroke="black"></line><line id="SvgjsLine34090" x1="393.6343814164952" y1="327.30443873524655" x2="423.2083336198886" y2="218.41519288737106" stroke="black"></line><line id="SvgjsLine34091" x1="391.4610199494441" y1="330.76332369548334" x2="306.1868563536277" y2="404.65380706974236" stroke="black"></line><line id="SvgjsLine34092" x1="389.21755450345495" y1="334.1771555641126" x2="88.8043324670287" y2="371.132383131605" stroke="black"></line><line id="SvgjsLine34093" x1="386.90491868236336" y1="337.54451369677673" x2="33.32259718904501" y2="158.2929492743147" stroke="black"></line><line id="SvgjsLine34094" x1="384.52407487481537" y1="340.86399678886744" x2="206.67776596970054" y2="22.91631535553782" stroke="black"></line><line id="SvgjsLine34095" x1="382.0760138537756" y1="344.1342234586689" x2="399.72494575146084" y2="128.32805062470445" stroke="black"></line><line id="SvgjsLine34096" x1="379.561754364223" y1="347.35383282221136" x2="223" y2="22.25" stroke="black"></line><line id="SvgjsLine34097" x1="376.98234269920727" y1="350.52148505959417" x2="170.51413799144473" y2="415.7493125193953" stroke="black"></line><line id="SvgjsLine34098" x1="374.3388522644402" y1="353.63586197254335" x2="24.788256263343243" y2="250.99854636422538" stroke="black"></line><line id="SvgjsLine34099" x1="371.6323831316051" y1="356.69566753297124" x2="118.19556126475334" y2="51.86561858350487" stroke="black"></line><line id="SvgjsLine34100" x1="368.86406158056843" y1="359.69962842231075" x2="338.0445136967768" y2="58.59508131763667" stroke="black"></line><line id="SvgjsLine34101" x1="366.03503963068624" y1="362.6464945613982" x2="419.0976477911736" y2="263.0681529129542" stroke="black"></line><line id="SvgjsLine34102" x1="363.14649456139824" y1="365.5350396306862" x2="263.56815291295425" y2="418.5976477911736" stroke="black"></line><line id="SvgjsLine34103" x1="360.1996284223108" y1="368.3640615805684" x2="59.0950813176367" y2="337.54451369677685" stroke="black"></line><line id="SvgjsLine34104" x1="357.1956675329713" y1="371.132383131605" x2="52.36561858350484" y2="117.69556126475344" stroke="black"></line><line id="SvgjsLine34105" x1="354.13586197254335" y1="373.8388522644402" x2="251.49854636422535" y2="24.288256263343243" stroke="black"></line><line id="SvgjsLine34106" x1="351.02148505959417" y1="376.48234269920727" x2="416.2493125193953" y2="170.0141379914448" stroke="black"></line><line id="SvgjsLine34107" x1="347.8538328222114" y1="379.06175436422296" x2="223" y2="22.25" stroke="black"></line><line id="SvgjsLine34108" x1="344.63422345866894" y1="381.5760138537755" x2="128.82805062470447" y2="399.22494575146084" stroke="black"></line><line id="SvgjsLine34109" x1="341.3639967888675" y1="384.02407487481537" x2="23.41631535553782" y2="206.17776596970063" stroke="black"></line><line id="SvgjsLine34110" x1="338.0445136967768" y1="386.40491868236336" x2="158.7929492743146" y2="32.82259718904504" stroke="black"></line><line id="SvgjsLine34111" x1="334.6771555641126" y1="388.7175545034549" x2="371.632383131605" y2="88.3043324670287" stroke="black"></line><line id="SvgjsLine34112" x1="331.2633236954834" y1="390.96101994944405" x2="405.15380706974236" y2="305.6868563536277" stroke="black"></line><line id="SvgjsLine34113" x1="327.80443873524655" y1="393.13438141649516" x2="218.91519288737106" y2="422.7083336198886" stroke="black"></line><line id="SvgjsLine34114" x1="324.301940076316" y1="395.2367344740964" x2="37.6047071983152" y2="298.1878319611386" stroke="black"></line><line id="SvgjsLine34115" x1="320.7572852611683" y1="397.26720424143247" x2="79.96496036931381" y2="82.35350543860173" stroke="black"></line><line id="SvgjsLine34116" x1="317.1719493752956" y1="399.22494575146084" x2="294.89029064448164" y2="35.59936166226731" stroke="black"></line><line id="SvgjsLine34117" x1="313.54742443335783" y1="401.10914430253945" x2="423.0833518187527" y2="214.33208564116748" stroke="black"></line><line id="SvgjsLine34118" x1="309.88521875829105" y1="402.91901579745945" x2="223" y2="22.25" stroke="black"></line><line id="SvgjsLine34119" x1="306.1868563536277" y1="404.65380706974236" x2="91.86413802745668" y2="373.8388522644402" stroke="black"></line><line id="SvgjsLine34120" x1="302.45387626929306" y1="406.31279619706527" x2="32.052333784694724" y2="162.17545054516887" stroke="black"></line><line id="SvgjsLine34121" x1="298.6878319611386" y1="407.89529280168483" x2="202.60994691255684" y2="23.29079279538496" stroke="black"></line><line id="SvgjsLine34122" x1="294.89029064448164" y1="409.4006383377327" x2="397.7672042414324" y2="124.74271473883165" stroke="black"></line><line id="SvgjsLine34123" x1="291.06283264191904" y1="410.8282063652657" x2="382.0760138537756" y2="344.1342234586689" stroke="black"></line><line id="SvgjsLine34124" x1="287.20705072568535" y1="412.17740281095496" x2="174.46706214708422" y2="416.7797376037064" stroke="black"></line><line id="SvgjsLine34125" x1="283.3245494548312" y1="413.4476662153053" x2="25.410827203394405" y2="255.03584628610628" stroke="black"></line><line id="SvgjsLine34126" x1="279.4169445074964" y1="414.6384679663031" x2="114.73667630451645" y2="54.03898005055606" stroke="black"></line><line id="SvgjsLine34127" x1="275.4858620085553" y1="415.7493125193953" x2="334.6771555641126" y2="56.28244549654511" stroke="black"></line><line id="SvgjsLine34128" x1="271.53293785291584" y1="416.7797376037064" x2="419.88437638260046" y2="259.0596066230822" stroke="black"></line><line id="SvgjsLine34129" x1="267.55981702475196" y1="417.72931441441017" x2="223" y2="22.25" stroke="black"></line><line id="SvgjsLine34130" x1="263.56815291295425" y1="418.5976477911736" x2="61.47592512518469" y2="340.86399678886755" stroke="black"></line><line id="SvgjsLine34131" x1="259.5596066230822" y1="419.38437638260046" x2="50.26326552590359" y2="121.198059923684" stroke="black"></line><line id="SvgjsLine34132" x1="255.53584628610628" y1="420.08917279660557" x2="247.4493869540505" y2="23.748169876171715" stroke="black"></line><line id="SvgjsLine34133" x1="251.49854636422535" y1="420.7117437366568" x2="415.1384679663031" y2="166.08305549250372" stroke="black"></line><line id="SvgjsLine34134" x1="247.44938695405057" y1="421.2518301238283" x2="351.02148505959417" y2="376.48234269920727" stroke="black"></line><line id="SvgjsLine34135" x1="243.39005308744305" y1="421.70920720461504" x2="132.45257556664225" y2="401.10914430253945" stroke="black"></line><line id="SvgjsLine34136" x1="239.32223403029946" y1="422.0836846444622" x2="23.12489339302826" y2="210.25237742042606" stroke="black"></line><line id="SvgjsLine34137" x1="235.247622579574" y1="422.3751066069717" x2="154.93716735808084" y2="34.171793634734314" stroke="black"></line><line id="SvgjsLine34138" x1="231.16791435883255" y1="422.5833518187527" x2="368.8640615805684" y2="85.30037157768919" stroke="black"></line><line id="SvgjsLine34139" x1="227.0848071126289" y1="422.7083336198886" x2="406.81279619706527" y2="301.95387626929306" stroke="black"></line><line id="SvgjsLine34140" x1="223.00000000000003" y1="422.75" x2="223" y2="22.25" stroke="black"></line><line id="SvgjsLine34141" x1="218.91519288737106" y1="422.7083336198886" x2="39.18720380293473" y2="301.9538762692932" stroke="black"></line><line id="SvgjsLine34142" x1="214.8320856411676" y1="422.5833518187527" x2="77.1359384194316" y2="85.30037157768922" stroke="black"></line><line id="SvgjsLine34143" x1="210.75237742042606" y1="422.3751066069717" x2="291.062832641919" y2="34.17179363473423" stroke="black"></line><line id="SvgjsLine34144" x1="206.6777659697006" y1="422.0836846444622" x2="422.8751066069717" y2="210.25237742042597" stroke="black"></line><line id="SvgjsLine34145" x1="202.60994691255692" y1="421.70920720461504" x2="313.54742443335783" y2="401.10914430253945" stroke="black"></line><line id="SvgjsLine34146" x1="198.55061304594958" y1="421.2518301238283" x2="94.97851494040586" y2="376.48234269920727" stroke="black"></line><line id="SvgjsLine34147" x1="194.50145363577468" y1="420.7117437366568" x2="30.861532033696875" y2="166.08305549250377" stroke="black"></line><line id="SvgjsLine34148" x1="190.46415371389378" y1="420.08917279660557" x2="198.5506130459495" y2="23.748169876171687" stroke="black"></line><line id="SvgjsLine34149" x1="186.44039337691777" y1="419.38437638260046" x2="395.73673447409635" y2="121.19805992368396" stroke="black"></line><line id="SvgjsLine34150" x1="182.43184708704587" y1="418.5976477911736" x2="384.52407487481537" y2="340.86399678886744" stroke="black"></line><line id="SvgjsLine34151" x1="178.44018297524806" y1="417.72931441441017" x2="223" y2="22.25" stroke="black"></line><line id="SvgjsLine34152" x1="174.46706214708422" y1="416.7797376037064" x2="26.115623617399535" y2="259.0596066230823" stroke="black"></line><line id="SvgjsLine34153" x1="170.51413799144473" y1="415.7493125193953" x2="111.32284443588739" y2="56.28244549654514" stroke="black"></line><line id="SvgjsLine34154" x1="166.58305549250377" y1="414.6384679663031" x2="331.2633236954834" y2="54.03898005055598" stroke="black"></line><line id="SvgjsLine34155" x1="162.67545054516884" y1="413.4476662153053" x2="420.58917279660557" y2="255.03584628610622" stroke="black"></line><line id="SvgjsLine34156" x1="158.79294927431468" y1="412.17740281095496" x2="271.53293785291584" y2="416.7797376037064" stroke="black"></line><line id="SvgjsLine34157" x1="154.937167358081" y1="410.82820636526577" x2="63.923986146224536" y2="344.1342234586691" stroke="black"></line><line id="SvgjsLine34158" x1="151.10970935551842" y1="409.40063833773274" x2="48.23279575856762" y2="124.74271473883158" stroke="black"></line><line id="SvgjsLine34159" x1="147.31216803886144" y1="407.89529280168483" x2="243.39005308744302" y2="23.29079279538493" stroke="black"></line><line id="SvgjsLine34160" x1="143.54612373070697" y1="406.3127961970653" x2="413.9476662153053" y2="162.17545054516887" stroke="black"></line><line id="SvgjsLine34161" x1="139.81314364637223" y1="404.6538070697423" x2="354.13586197254335" y2="373.8388522644402" stroke="black"></line><line id="SvgjsLine34162" x1="136.114781241709" y1="402.91901579745945" x2="223" y2="22.25" stroke="black"></line><line id="SvgjsLine34163" x1="132.45257556664225" y1="401.10914430253945" x2="22.916648181247268" y2="214.3320856411676" stroke="black"></line><line id="SvgjsLine34164" x1="128.82805062470447" y1="399.22494575146084" x2="151.10970935551833" y2="35.59936166226731" stroke="black"></line><line id="SvgjsLine34165" x1="125.24271473883164" y1="397.2672042414324" x2="366.0350396306862" y2="82.35350543860173" stroke="black"></line><line id="SvgjsLine34166" x1="121.69805992368407" y1="395.23673447409647" x2="408.39529280168483" y2="298.1878319611385" stroke="black"></line><line id="SvgjsLine34167" x1="118.1955612647535" y1="393.1343814164952" x2="227.0848071126289" y2="422.7083336198886" stroke="black"></line><line id="SvgjsLine34168" x1="114.73667630451659" y1="390.961019949444" x2="40.84619293025776" y2="305.6868563536279" stroke="black"></line><line id="SvgjsLine34169" x1="111.32284443588752" y1="388.71755450345495" x2="74.36761686839489" y2="88.30433246702876" stroke="black"></line><line id="SvgjsLine34170" x1="107.95548630322328" y1="386.40491868236336" x2="287.2070507256853" y2="32.82259718904501" stroke="black"></line><line id="SvgjsLine34171" x1="104.63600321113256" y1="384.02407487481537" x2="422.5836846444622" y2="206.17776596970057" stroke="black"></line><line id="SvgjsLine34172" x1="101.36577654133106" y1="381.5760138537755" x2="317.1719493752956" y2="399.22494575146084" stroke="black"></line><line id="SvgjsLine34173" x1="98.14616717778871" y1="379.061754364223" x2="223" y2="22.25" stroke="black"></line><line id="SvgjsLine34174" x1="94.97851494040586" y1="376.48234269920727" x2="29.75068748060474" y2="170.01413799144473" stroke="black"></line><line id="SvgjsLine34175" x1="91.86413802745668" y1="373.8388522644402" x2="194.50145363577462" y2="24.288256263343243" stroke="black"></line><line id="SvgjsLine34176" x1="88.8043324670287" y1="371.132383131605" x2="393.6343814164951" y2="117.69556126475344" stroke="black"></line><line id="SvgjsLine34177" x1="85.80037157768928" y1="368.36406158056843" x2="386.90491868236336" y2="337.54451369677673" stroke="black"></line><line id="SvgjsLine34178" x1="82.85350543860179" y1="365.53503963068624" x2="182.43184708704587" y2="418.5976477911736" stroke="black"></line><line id="SvgjsLine34179" x1="79.96496036931381" y1="362.64649456139824" x2="26.902352208826414" y2="263.0681529129542" stroke="black"></line><line id="SvgjsLine34180" x1="77.1359384194316" y1="359.69962842231075" x2="107.95548630322315" y2="58.5950813176367" stroke="black"></line><line id="SvgjsLine34181" x1="74.367616868395" y1="356.69566753297136" x2="327.80443873524655" y2="51.86561858350484" stroke="black"></line><line id="SvgjsLine34182" x1="71.66114773555981" y1="353.63586197254335" x2="421.2117437366568" y2="250.99854636422532" stroke="black"></line><line id="SvgjsLine34183" x1="69.01765730079279" y1="350.5214850595943" x2="275.4858620085553" y2="415.7493125193953" stroke="black"></line><line id="SvgjsLine34184" x1="66.43824563577706" y1="347.3538328222114" x2="223" y2="22.25" stroke="black"></line><line id="SvgjsLine34185" x1="63.923986146224536" y1="344.1342234586691" x2="46.27505424853919" y2="128.32805062470442" stroke="black"></line><line id="SvgjsLine34186" x1="61.47592512518469" y1="340.86399678886755" x2="239.3222340302994" y2="22.91631535553782" stroke="black"></line><line id="SvgjsLine34187" x1="59.0950813176367" y1="337.54451369677685" x2="412.67740281095496" y2="158.29294927431474" stroke="black"></line><line id="SvgjsLine34188" x1="56.78244549654511" y1="334.1771555641126" x2="357.1956675329713" y2="371.132383131605" stroke="black"></line><line id="SvgjsLine34189" x1="54.53898005055606" y1="330.76332369548356" x2="139.81314364637223" y2="404.6538070697423" stroke="black"></line><line id="SvgjsLine34190" x1="52.36561858350487" y1="327.30443873524666" x2="22.791666380111394" y2="218.41519288737106" stroke="black"></line><line id="SvgjsLine34191" x1="50.26326552590365" y1="323.8019400763161" x2="147.3121680388614" y2="37.1047071983152" stroke="black"></line><line id="SvgjsLine34192" x1="48.23279575856765" y1="320.2572852611685" x2="363.14649456139824" y2="79.46496036931381" stroke="black"></line><line id="SvgjsLine34193" x1="46.27505424853922" y1="316.67194937529564" x2="409.9006383377327" y2="294.39029064448164" stroke="black"></line><line id="SvgjsLine34194" x1="44.39085569746061" y1="313.0474244333579" x2="231.16791435883255" y2="422.5833518187527" stroke="black"></line><line id="SvgjsLine34195" x1="42.58098420254058" y1="309.38521875829105" x2="223" y2="22.25" stroke="black"></line><line id="SvgjsLine34196" x1="40.84619293025776" y1="305.6868563536279" x2="71.66114773555981" y2="91.36413802745662" stroke="black"></line><line id="SvgjsLine34197" x1="39.18720380293473" y1="301.9538762692932" x2="283.3245494548312" y2="31.552333784694753" stroke="black"></line><line id="SvgjsLine34198" x1="37.6047071983152" y1="298.1878319611386" x2="422.20920720461504" y2="202.10994691255695" stroke="black"></line><line id="SvgjsLine34199" x1="36.09936166226731" y1="294.39029064448164" x2="320.7572852611683" y2="397.26720424143247" stroke="black"></line><line id="SvgjsLine34200" x1="34.671793634734286" y1="290.56283264191916" x2="101.36577654133106" y2="381.5760138537755" stroke="black"></line><line id="SvgjsLine34201" x1="33.32259718904504" y1="286.70705072568535" x2="28.720262396293577" y2="173.96706214708422" stroke="black"></line><line id="SvgjsLine34202" x1="32.05233378469475" y1="282.8245494548312" x2="190.46415371389372" y2="24.910827203394405" stroke="black"></line><line id="SvgjsLine34203" x1="30.861532033696903" y1="278.9169445074963" x2="391.461019949444" y2="114.23667630451656" stroke="black"></line><line id="SvgjsLine34204" x1="29.750687480604768" y1="274.98586200855533" x2="389.21755450345495" y2="334.1771555641126" stroke="black"></line><line id="SvgjsLine34205" x1="28.720262396293606" y1="271.03293785291584" x2="186.44039337691777" y2="419.38437638260046" stroke="black"></line><line id="SvgjsLine34206" x1="27.77068558558983" y1="267.05981702475196" x2="223" y2="22.25" stroke="black"></line><line id="SvgjsLine34207" x1="26.902352208826414" y1="263.0681529129542" x2="104.63600321113243" y2="60.97592512518469" stroke="black"></line><line id="SvgjsLine34208" x1="26.115623617399535" y1="259.0596066230823" x2="324.301940076316" y2="49.76326552590362" stroke="black"></line><line id="SvgjsLine34209" x1="25.410827203394405" y1="255.03584628610628" x2="421.7518301238283" y2="246.9493869540505" stroke="black"></line><line id="SvgjsLine34210" x1="24.788256263343243" y1="250.99854636422538" x2="279.4169445074964" y2="414.6384679663031" stroke="black"></line><line id="SvgjsLine34211" x1="24.248169876171687" y1="246.94938695405048" x2="69.01765730079279" y2="350.5214850595943" stroke="black"></line><line id="SvgjsLine34212" x1="23.79079279538496" y1="242.89005308744314" x2="44.39085569746058" y2="131.95257556664217" stroke="black"></line><line id="SvgjsLine34213" x1="23.41631535553782" y1="238.82223403029946" x2="235.247622579574" y2="22.62489339302826" stroke="black"></line><line id="SvgjsLine34214" x1="23.12489339302826" y1="234.747622579574" x2="411.32820636526577" y2="154.437167358081" stroke="black"></line><line id="SvgjsLine34215" x1="22.916648181247268" y1="230.66791435883246" x2="360.1996284223108" y2="368.3640615805684" stroke="black"></line><line id="SvgjsLine34216" x1="22.791666380111394" y1="226.584807112629" x2="143.54612373070697" y2="406.3127961970653" stroke="black"></line><line id="SvgjsLine34217" x1="22.75" y1="222.50000000000003" x2="223" y2="22.25" stroke="black"></line><line id="SvgjsLine34218" x1="22.791666380111394" y1="218.41519288737106" x2="143.54612373070682" y2="38.68720380293473" stroke="black"></line><line id="SvgjsLine34219" x1="22.916648181247268" y1="214.3320856411676" x2="360.19962842231075" y2="76.6359384194316" stroke="black"></line><line id="SvgjsLine34220" x1="23.12489339302826" y1="210.25237742042606" x2="411.32820636526577" y2="290.56283264191893" stroke="black"></line><line id="SvgjsLine34221" x1="23.41631535553782" y1="206.17776596970063" x2="235.247622579574" y2="422.3751066069717" stroke="black"></line><line id="SvgjsLine34222" x1="23.79079279538493" y1="202.10994691255695" x2="44.39085569746061" y2="313.0474244333579" stroke="black"></line><line id="SvgjsLine34223" x1="24.248169876171687" y1="198.05061304594958" x2="69.01765730079276" y2="94.4785149404058" stroke="black"></line><line id="SvgjsLine34224" x1="24.788256263343214" y1="194.0014536357747" x2="279.4169445074963" y2="30.361532033696903" stroke="black"></line><line id="SvgjsLine34225" x1="25.410827203394405" y1="189.96415371389378" x2="421.7518301238283" y2="198.05061304594946" stroke="black"></line><line id="SvgjsLine34226" x1="26.115623617399535" y1="185.94039337691777" x2="324.301940076316" y2="395.2367344740964" stroke="black"></line><line id="SvgjsLine34227" x1="26.902352208826386" y1="181.93184708704587" x2="104.63600321113256" y2="384.02407487481537" stroke="black"></line><line id="SvgjsLine34228" x1="27.77068558558983" y1="177.9401829752481" x2="223" y2="22.25" stroke="black"></line><line id="SvgjsLine34229" x1="28.720262396293577" y1="173.96706214708422" x2="186.4403933769177" y2="25.615623617399535" stroke="black"></line><line id="SvgjsLine34230" x1="29.75068748060474" y1="170.01413799144473" x2="389.2175545034549" y2="110.82284443588739" stroke="black"></line><line id="SvgjsLine34231" x1="30.861532033696875" y1="166.08305549250377" x2="391.4610199494441" y2="330.76332369548334" stroke="black"></line><line id="SvgjsLine34232" x1="32.052333784694724" y1="162.17545054516887" x2="190.46415371389378" y2="420.08917279660557" stroke="black"></line><line id="SvgjsLine34233" x1="33.32259718904501" y1="158.2929492743147" x2="28.720262396293606" y2="271.03293785291584" stroke="black"></line><line id="SvgjsLine34234" x1="34.67179363473426" y1="154.43716735808093" x2="101.36577654133092" y2="63.423986146224536" stroke="black"></line><line id="SvgjsLine34235" x1="36.099361662267285" y1="150.60970935551842" x2="320.7572852611683" y2="47.73279575856753" stroke="black"></line><line id="SvgjsLine34236" x1="37.60470719831517" y1="146.81216803886147" x2="422.20920720461504" y2="242.890053087443" stroke="black"></line><line id="SvgjsLine34237" x1="39.187203802934704" y1="143.04612373070688" x2="283.3245494548312" y2="413.4476662153053" stroke="black"></line><line id="SvgjsLine34238" x1="40.84619293025773" y1="139.31314364637217" x2="71.66114773555981" y2="353.63586197254335" stroke="black"></line><line id="SvgjsLine34239" x1="42.58098420254055" y1="135.614781241709" x2="223" y2="22.25" stroke="black"></line><line id="SvgjsLine34240" x1="44.39085569746058" y1="131.95257556664217" x2="231.16791435883252" y2="22.416648181247268" stroke="black"></line><line id="SvgjsLine34241" x1="46.27505424853919" y1="128.32805062470442" x2="409.9006383377327" y2="150.60970935551836" stroke="black"></line><line id="SvgjsLine34242" x1="48.23279575856762" y1="124.74271473883158" x2="363.14649456139824" y2="365.5350396306862" stroke="black"></line><line id="SvgjsLine34243" x1="50.26326552590359" y1="121.198059923684" x2="147.31216803886144" y2="407.89529280168483" stroke="black"></line><line id="SvgjsLine34244" x1="52.36561858350484" y1="117.69556126475344" x2="22.791666380111394" y2="226.584807112629" stroke="black"></line><line id="SvgjsLine34245" x1="54.538980050556006" y1="114.23667630451652" x2="139.81314364637208" y2="40.34619293025776" stroke="black"></line><line id="SvgjsLine34246" x1="56.78244549654508" y1="110.82284443588746" x2="357.1956675329713" y2="73.86761686839495" stroke="black"></line><line id="SvgjsLine34247" x1="59.09508131763667" y1="107.45548630322322" x2="412.67740281095496" y2="286.7070507256853" stroke="black"></line><line id="SvgjsLine34248" x1="61.47592512518463" y1="104.1360032111325" x2="239.32223403029946" y2="422.0836846444622" stroke="black"></line><line id="SvgjsLine34249" x1="63.92398614622451" y1="100.86577654133099" x2="46.27505424853922" y2="316.67194937529564" stroke="black"></line><line id="SvgjsLine34250" x1="66.43824563577701" y1="97.64616717778864" x2="223" y2="22.25" stroke="black"></line><line id="SvgjsLine34251" x1="69.01765730079276" y1="94.4785149404058" x2="275.4858620085552" y2="29.25068748060471" stroke="black"></line><line id="SvgjsLine34252" x1="71.66114773555981" y1="91.36413802745662" x2="421.2117437366568" y2="194.00145363577462" stroke="black"></line><line id="SvgjsLine34253" x1="74.36761686839489" y1="88.30433246702876" x2="327.80443873524655" y2="393.13438141649516" stroke="black"></line><line id="SvgjsLine34254" x1="77.1359384194316" y1="85.30037157768922" x2="107.95548630322328" y2="386.40491868236336" stroke="black"></line><line id="SvgjsLine34255" x1="79.96496036931381" y1="82.35350543860173" x2="26.902352208826386" y2="181.93184708704587" stroke="black"></line><line id="SvgjsLine34256" x1="82.85350543860167" y1="79.46496036931387" x2="182.43184708704578" y2="26.402352208826414" stroke="black"></line><line id="SvgjsLine34257" x1="85.80037157768916" y1="76.63593841943165" x2="386.90491868236336" y2="107.4554863032232" stroke="black"></line><line id="SvgjsLine34258" x1="88.8043324670287" y1="73.86761686839498" x2="393.6343814164952" y2="327.30443873524655" stroke="black"></line><line id="SvgjsLine34259" x1="91.86413802745656" y1="71.16114773555987" x2="194.50145363577468" y2="420.7117437366568" stroke="black"></line><line id="SvgjsLine34260" x1="94.97851494040574" y1="68.51765730079282" x2="29.750687480604768" y2="274.98586200855533" stroke="black"></line><line id="SvgjsLine34261" x1="98.14616717778857" y1="65.93824563577706" x2="223" y2="22.25" stroke="black"></line><line id="SvgjsLine34262" x1="101.36577654133092" y1="63.423986146224536" x2="317.1719493752955" y2="45.77505424853916" stroke="black"></line><line id="SvgjsLine34263" x1="104.63600321113243" y1="60.97592512518469" x2="422.5836846444622" y2="238.8222340302994" stroke="black"></line><line id="SvgjsLine34264" x1="107.95548630322315" y1="58.5950813176367" x2="287.20705072568535" y2="412.17740281095496" stroke="black"></line><line id="SvgjsLine34265" x1="111.32284443588739" y1="56.28244549654514" x2="74.367616868395" y2="356.69566753297136" stroke="black"></line><line id="SvgjsLine34266" x1="114.73667630451645" y1="54.03898005055606" x2="40.84619293025773" y2="139.31314364637217" stroke="black"></line><line id="SvgjsLine34267" x1="118.19556126475334" y1="51.86561858350487" x2="227.08480711262894" y2="22.291666380111394" stroke="black"></line><line id="SvgjsLine34268" x1="121.69805992368393" y1="49.76326552590365" x2="408.39529280168483" y2="146.81216803886147" stroke="black"></line><line id="SvgjsLine34269" x1="125.24271473883151" y1="47.73279575856765" x2="366.03503963068624" y2="362.6464945613982" stroke="black"></line><line id="SvgjsLine34270" x1="128.82805062470433" y1="45.77505424853922" x2="151.10970935551842" y2="409.40063833773274" stroke="black"></line><line id="SvgjsLine34271" x1="132.4525755666421" y1="43.89085569746061" x2="22.916648181247268" y2="230.66791435883246" stroke="black"></line><line id="SvgjsLine34272" x1="136.11478124170895" y1="42.08098420254058" x2="223" y2="22.25" stroke="black"></line><line id="SvgjsLine34273" x1="139.81314364637208" y1="40.34619293025776" x2="354.13586197254335" y2="71.16114773555975" stroke="black"></line><line id="SvgjsLine34274" x1="143.54612373070682" y1="38.68720380293473" x2="413.9476662153053" y2="282.82454945483113" stroke="black"></line><line id="SvgjsLine34275" x1="147.3121680388614" y1="37.1047071983152" x2="243.39005308744305" y2="421.70920720461504" stroke="black"></line><line id="SvgjsLine34276" x1="151.10970935551833" y1="35.59936166226731" x2="48.23279575856765" y2="320.2572852611685" stroke="black"></line><line id="SvgjsLine34277" x1="154.93716735808084" y1="34.171793634734314" x2="63.92398614622451" y2="100.86577654133099" stroke="black"></line><line id="SvgjsLine34278" x1="158.7929492743146" y1="32.82259718904504" x2="271.5329378529158" y2="28.220262396293577" stroke="black"></line><line id="SvgjsLine34279" x1="162.6754505451688" y1="31.55233378469478" x2="420.58917279660557" y2="189.96415371389375" stroke="black"></line><line id="SvgjsLine34280" x1="166.5830554925037" y1="30.361532033696903" x2="331.2633236954834" y2="390.96101994944405" stroke="black"></line><line id="SvgjsLine34281" x1="170.51413799144467" y1="29.250687480604768" x2="111.32284443588752" y2="388.71755450345495" stroke="black"></line><line id="SvgjsLine34282" x1="174.46706214708414" y1="28.220262396293606" x2="26.115623617399535" y2="185.94039337691777" stroke="black"></line><line id="SvgjsLine34283" x1="178.44018297524798" y1="27.27068558558983" x2="223" y2="22.25" stroke="black"></line><line id="SvgjsLine34284" x1="182.43184708704578" y1="26.402352208826414" x2="384.52407487481537" y2="104.1360032111325" stroke="black"></line><line id="SvgjsLine34285" x1="186.4403933769177" y1="25.615623617399535" x2="395.73673447409647" y2="323.80194007631593" stroke="black"></line><line id="SvgjsLine34286" x1="190.46415371389372" y1="24.910827203394405" x2="198.55061304594958" y2="421.2518301238283" stroke="black"></line><line id="SvgjsLine34287" x1="194.50145363577462" y1="24.288256263343243" x2="30.861532033696903" y2="278.9169445074963" stroke="black"></line><line id="SvgjsLine34288" x1="198.5506130459495" y1="23.748169876171687" x2="94.97851494040574" y2="68.51765730079282" stroke="black"></line><line id="SvgjsLine34289" x1="202.60994691255684" y1="23.29079279538496" x2="313.54742443335783" y2="43.89085569746055" stroke="black"></line><line id="SvgjsLine34290" x1="206.67776596970054" y1="22.91631535553782" x2="422.8751066069717" y2="234.74762257957394" stroke="black"></line><line id="SvgjsLine34291" x1="210.75237742042597" y1="22.624893393028287" x2="291.06283264191904" y2="410.8282063652657" stroke="black"></line><line id="SvgjsLine34292" x1="214.8320856411675" y1="22.416648181247268" x2="77.1359384194316" y2="359.69962842231075" stroke="black"></line><line id="SvgjsLine34293" x1="218.91519288737098" y1="22.291666380111394" x2="39.187203802934704" y2="143.04612373070688" stroke="black"></line></svg>