<svg id="SvgjsSvg1001" width="446" height="445" xmlns="http://www.w3.org/2000/svg" version="1.1" xmlns:xlink="http://www.w3.org/1999/xlink" xmlns:svgjs="http://svgjs.com/svgjs"><circle id="SvgjsCircle13116" r="200.25" cx="223" cy="222.5" stroke="black" fill="transparent"></circle><line id="SvgjsLine13117" x1="231.38559965927223" y1="22.425653272703613" x2="264.6343160862563" y2="26.625942953055414" stroke="black"></line><line id="SvgjsLine13118" x1="239.75648812729617" y1="22.952304935286747" x2="304.44901277592896" y2="39.562522107069185" stroke="black"></line><line id="SvgjsLine13119" x1="248.09798002125194" y1="23.829031061775794" x2="340.70399677156774" y2="60.494346876416785" stroke="black"></line><line id="SvgjsLine13120" x1="256.3954415298995" y1="25.05429357663141" x2="371.81475130184816" y2="88.50659607663863" stroke="black"></line><line id="SvgjsLine13121" x1="264.6343160862563" y1="26.625942953055414" x2="396.42158710783383" y2="122.37499999999997" stroke="black"></line><line id="SvgjsLine13122" x1="272.8001499047622" y1="28.54122198399162" x2="413.4490673881045" y2="160.61934687641678" stroke="black"></line><line id="SvgjsLine13123" x1="280.8786173381304" y1="30.796770619203528" x2="422.1530095474967" y2="201.5681752306524" stroke="black"></line><line id="SvgjsLine13124" x1="288.8555460094013" y1="33.38863185994444" x2="422.1530095474967" y2="243.43182476934757" stroke="black"></line><line id="SvgjsLine13125" x1="296.71694167510674" y1="36.312258700877635" x2="413.4490673881045" y2="284.3806531235832" stroke="black"></line><line id="SvgjsLine13126" x1="304.44901277592896" y1="39.562522107069185" x2="396.42158710783383" y2="322.62499999999994" stroke="black"></line><line id="SvgjsLine13127" x1="312.0381946317817" y1="43.13372001205758" x2="371.8147513018482" y2="356.49340392336126" stroke="black"></line><line id="SvgjsLine13128" x1="319.47117323886846" y1="47.01958732121631" x2="340.70399677156774" y2="384.5056531235832" stroke="black"></line><line id="SvgjsLine13129" x1="326.7349086269693" y1="51.21330690285856" x2="304.44901277592896" y2="405.4374778929308" stroke="black"></line><line id="SvgjsLine13130" x1="333.8166577359797" y1="55.7075215478026" x2="264.6343160862563" y2="418.3740570469446" stroke="black"></line><line id="SvgjsLine13131" x1="340.70399677156774" y1="60.494346876416785" x2="223.00000000000003" y2="422.75" stroke="black"></line><line id="SvgjsLine13132" x1="347.3848430007317" y1="65.5653851705006" x2="181.36568391374374" y2="418.3740570469446" stroke="black"></line><line id="SvgjsLine13133" x1="353.8474759490186" y1="70.91174010573579" x2="141.5509872240711" y2="405.4374778929309" stroke="black"></line><line id="SvgjsLine13134" x1="360.0805579622199" y1="76.52403235886234" x2="105.29600322843228" y2="384.5056531235832" stroke="black"></line><line id="SvgjsLine13135" x1="366.0731540964689" y1="82.39241606219858" x2="74.18524869815184" y2="356.49340392336137" stroke="black"></line><line id="SvgjsLine13136" x1="371.81475130184816" y1="88.50659607663863" x2="49.57841289216623" y2="322.6250000000001" stroke="black"></line><line id="SvgjsLine13137" x1="377.2952768658518" y1="94.8558460528249" x2="32.55093261189552" y2="284.3806531235833" stroke="black"></line><line id="SvgjsLine13138" x1="382.50511608434533" y1="101.42902724880942" x2="23.846990452503263" y2="243.43182476934777" stroke="black"></line><line id="SvgjsLine13139" x1="387.4351291290242" y1="108.21460807119253" x2="23.846990452503263" y2="201.56817523065232" stroke="black"></line><line id="SvgjsLine13140" x1="392.0766670817785" y1="115.20068430545594" x2="32.55093261189549" y2="160.6193468764168" stroke="black"></line><line id="SvgjsLine13141" x1="396.42158710783383" y1="122.37499999999997" x2="49.57841289216617" y2="122.37499999999997" stroke="black"></line><line id="SvgjsLine13142" x1="400.4622667410507" y1="129.72496896724766" x2="74.18524869815184" y2="88.5065960766386" stroke="black"></line><line id="SvgjsLine13143" x1="404.19161725632046" y1="137.2376968640942" x2="105.29600322843221" y2="60.494346876416785" stroke="black"></line><line id="SvgjsLine13144" x1="407.6030961055972" y1="144.9000038129664" x2="141.55098722407104" y2="39.56252210706916" stroke="black"></line><line id="SvgjsLine13145" x1="410.6907183957513" y1="152.6984475238065" x2="181.3656839137436" y2="26.625942953055443" stroke="black"></line><line id="SvgjsLine13146" x1="413.4490673881045" y1="160.61934687641678" x2="223" y2="22.25" stroke="black"></line><line id="SvgjsLine13147" x1="415.8733040012311" y1="168.64880592179304" x2="264.6343160862563" y2="26.625942953055414" stroke="black"></line><line id="SvgjsLine13148" x1="417.95917530035035" y1="176.7727382603412" x2="304.44901277592896" y2="39.562522107069185" stroke="black"></line><line id="SvgjsLine13149" x1="419.70302195841987" y1="184.97689175420862" x2="340.70399677156774" y2="60.494346876416785" stroke="black"></line><line id="SvgjsLine13150" x1="421.1017846758384" y1="193.24687353037706" x2="371.81475130184816" y2="88.50659607663863" stroke="black"></line><line id="SvgjsLine13151" x1="422.1530095474967" y1="201.5681752306524" x2="396.42158710783383" y2="122.37499999999997" stroke="black"></line><line id="SvgjsLine13152" x1="422.8548523677614" y1="209.92619846425498" x2="413.4490673881045" y2="160.61934687641678" stroke="black"></line><line id="SvgjsLine13153" x1="423.2060818658378" y1="218.30628041835774" x2="422.1530095474967" y2="201.5681752306524" stroke="black"></line><line id="SvgjsLine13154" x1="423.2060818658378" y1="226.69371958164223" x2="422.1530095474967" y2="243.43182476934757" stroke="black"></line><line id="SvgjsLine13155" x1="422.8548523677614" y1="235.07380153574502" x2="413.4490673881045" y2="284.3806531235832" stroke="black"></line><line id="SvgjsLine13156" x1="422.1530095474967" y1="243.43182476934757" x2="396.42158710783383" y2="322.62499999999994" stroke="black"></line><line id="SvgjsLine13157" x1="421.1017846758384" y1="251.7531264696229" x2="371.8147513018482" y2="356.49340392336126" stroke="black"></line><line id="SvgjsLine13158" x1="419.70302195841987" y1="260.0231082457914" x2="340.70399677156774" y2="384.5056531235832" stroke="black"></line><line id="SvgjsLine13159" x1="417.95917530035035" y1="268.22726173965884" x2="304.44901277592896" y2="405.4374778929308" stroke="black"></line><line id="SvgjsLine13160" x1="415.8733040012311" y1="276.35119407820696" x2="264.6343160862563" y2="418.3740570469446" stroke="black"></line><line id="SvgjsLine13161" x1="413.4490673881045" y1="284.3806531235832" x2="223.00000000000003" y2="422.75" stroke="black"></line><line id="SvgjsLine13162" x1="410.6907183957513" y1="292.3015524761935" x2="181.36568391374374" y2="418.3740570469446" stroke="black"></line><line id="SvgjsLine13163" x1="407.6030961055972" y1="300.09999618703364" x2="141.5509872240711" y2="405.4374778929309" stroke="black"></line><line id="SvgjsLine13164" x1="404.1916172563204" y1="307.7623031359058" x2="105.29600322843228" y2="384.5056531235832" stroke="black"></line><line id="SvgjsLine13165" x1="400.46226674105077" y1="315.2750310327523" x2="74.18524869815184" y2="356.49340392336137" stroke="black"></line><line id="SvgjsLine13166" x1="396.42158710783383" y1="322.62499999999994" x2="49.57841289216623" y2="322.6250000000001" stroke="black"></line><line id="SvgjsLine13167" x1="392.0766670817785" y1="329.79931569454413" x2="32.55093261189552" y2="284.3806531235833" stroke="black"></line><line id="SvgjsLine13168" x1="387.4351291290243" y1="336.7853919288074" x2="23.846990452503263" y2="243.43182476934777" stroke="black"></line><line id="SvgjsLine13169" x1="382.50511608434533" y1="343.57097275119054" x2="23.846990452503263" y2="201.56817523065232" stroke="black"></line><line id="SvgjsLine13170" x1="377.2952768658518" y1="350.14415394717514" x2="32.55093261189549" y2="160.6193468764168" stroke="black"></line><line id="SvgjsLine13171" x1="371.8147513018482" y1="356.49340392336126" x2="49.57841289216617" y2="122.37499999999997" stroke="black"></line><line id="SvgjsLine13172" x1="366.07315409646884" y1="362.60758393780145" x2="74.18524869815184" y2="88.5065960766386" stroke="black"></line><line id="SvgjsLine13173" x1="360.0805579622199" y1="368.47596764113763" x2="105.29600322843221" y2="60.494346876416785" stroke="black"></line><line id="SvgjsLine13174" x1="353.84747594901864" y1="374.0882598942642" x2="141.55098722407104" y2="39.56252210706916" stroke="black"></line><line id="SvgjsLine13175" x1="347.3848430007317" y1="379.4346148294994" x2="181.3656839137436" y2="26.625942953055443" stroke="black"></line><line id="SvgjsLine13176" x1="340.70399677156774" y1="384.5056531235832" x2="223" y2="22.25" stroke="black"></line><line id="SvgjsLine13177" x1="333.8166577359797" y1="389.29247845219743" x2="264.6343160862563" y2="26.625942953055414" stroke="black"></line><line id="SvgjsLine13178" x1="326.7349086269693" y1="393.78669309714144" x2="304.44901277592896" y2="39.562522107069185" stroke="black"></line><line id="SvgjsLine13179" x1="319.4711732388686" y1="397.98041267878364" x2="340.70399677156774" y2="60.494346876416785" stroke="black"></line><line id="SvgjsLine13180" x1="312.0381946317817" y1="401.86627998794245" x2="371.81475130184816" y2="88.50659607663863" stroke="black"></line><line id="SvgjsLine13181" x1="304.44901277592896" y1="405.4374778929308" x2="396.42158710783383" y2="122.37499999999997" stroke="black"></line><line id="SvgjsLine13182" x1="296.7169416751068" y1="408.6877412991223" x2="413.4490673881045" y2="160.61934687641678" stroke="black"></line><line id="SvgjsLine13183" x1="288.85554600940134" y1="411.61136814005556" x2="422.1530095474967" y2="201.5681752306524" stroke="black"></line><line id="SvgjsLine13184" x1="280.8786173381304" y1="414.2032293807965" x2="422.1530095474967" y2="243.43182476934757" stroke="black"></line><line id="SvgjsLine13185" x1="272.8001499047622" y1="416.4587780160084" x2="413.4490673881045" y2="284.3806531235832" stroke="black"></line><line id="SvgjsLine13186" x1="264.6343160862563" y1="418.3740570469446" x2="396.42158710783383" y2="322.62499999999994" stroke="black"></line><line id="SvgjsLine13187" x1="256.39544152989953" y1="419.9457064233686" x2="371.8147513018482" y2="356.49340392336126" stroke="black"></line><line id="SvgjsLine13188" x1="248.097980021252" y1="421.1709689382242" x2="340.70399677156774" y2="384.5056531235832" stroke="black"></line><line id="SvgjsLine13189" x1="239.75648812729614" y1="422.04769506471325" x2="304.44901277592896" y2="405.4374778929308" stroke="black"></line><line id="SvgjsLine13190" x1="231.38559965927226" y1="422.5743467272964" x2="264.6343160862563" y2="418.3740570469446" stroke="black"></line><line id="SvgjsLine13191" x1="223.00000000000003" y1="422.75" x2="223" y2="22.25" stroke="black"></line><line id="SvgjsLine13192" x1="214.6144003407278" y1="422.5743467272964" x2="181.36568391374374" y2="418.3740570469446" stroke="black"></line><line id="SvgjsLine13193" x1="206.24351187270392" y1="422.04769506471325" x2="141.5509872240711" y2="405.4374778929309" stroke="black"></line><line id="SvgjsLine13194" x1="197.90201997874806" y1="421.1709689382242" x2="105.29600322843228" y2="384.5056531235832" stroke="black"></line><line id="SvgjsLine13195" x1="189.60455847010059" y1="419.9457064233686" x2="74.18524869815184" y2="356.49340392336137" stroke="black"></line><line id="SvgjsLine13196" x1="181.36568391374374" y1="418.3740570469446" x2="49.57841289216623" y2="322.6250000000001" stroke="black"></line><line id="SvgjsLine13197" x1="173.1998500952378" y1="416.4587780160084" x2="32.55093261189552" y2="284.3806531235833" stroke="black"></line><line id="SvgjsLine13198" x1="165.12138266186957" y1="414.20322938079653" x2="23.846990452503263" y2="243.43182476934777" stroke="black"></line><line id="SvgjsLine13199" x1="157.14445399059872" y1="411.61136814005556" x2="23.846990452503263" y2="201.56817523065232" stroke="black"></line><line id="SvgjsLine13200" x1="149.28305832489318" y1="408.6877412991223" x2="32.55093261189549" y2="160.6193468764168" stroke="black"></line><line id="SvgjsLine13201" x1="141.5509872240711" y1="405.4374778929309" x2="49.57841289216617" y2="122.37499999999997" stroke="black"></line><line id="SvgjsLine13202" x1="133.96180536821825" y1="401.86627998794245" x2="74.18524869815184" y2="88.5065960766386" stroke="black"></line><line id="SvgjsLine13203" x1="126.52882676113157" y1="397.9804126787837" x2="105.29600322843221" y2="60.494346876416785" stroke="black"></line><line id="SvgjsLine13204" x1="119.26509137303073" y1="393.7866930971415" x2="141.55098722407104" y2="39.56252210706916" stroke="black"></line><line id="SvgjsLine13205" x1="112.1833422640203" y1="389.29247845219743" x2="181.3656839137436" y2="26.625942953055443" stroke="black"></line><line id="SvgjsLine13206" x1="105.29600322843228" y1="384.5056531235832" x2="223" y2="22.25" stroke="black"></line><line id="SvgjsLine13207" x1="98.61515699926836" y1="379.4346148294994" x2="264.6343160862563" y2="26.625942953055414" stroke="black"></line><line id="SvgjsLine13208" x1="92.15252405098147" y1="374.0882598942643" x2="304.44901277592896" y2="39.562522107069185" stroke="black"></line><line id="SvgjsLine13209" x1="85.91944203778007" y1="368.4759676411377" x2="340.70399677156774" y2="60.494346876416785" stroke="black"></line><line id="SvgjsLine13210" x1="79.9268459035311" y1="362.6075839378014" x2="371.81475130184816" y2="88.50659607663863" stroke="black"></line><line id="SvgjsLine13211" x1="74.18524869815184" y1="356.49340392336137" x2="396.42158710783383" y2="122.37499999999997" stroke="black"></line><line id="SvgjsLine13212" x1="68.70472313414817" y1="350.1441539471751" x2="413.4490673881045" y2="160.61934687641678" stroke="black"></line><line id="SvgjsLine13213" x1="63.49488391565475" y1="343.57097275119065" x2="422.1530095474967" y2="201.5681752306524" stroke="black"></line><line id="SvgjsLine13214" x1="58.564870870975824" y1="336.78539192880754" x2="422.1530095474967" y2="243.43182476934757" stroke="black"></line><line id="SvgjsLine13215" x1="53.92333291822143" y1="329.799315694544" x2="413.4490673881045" y2="284.3806531235832" stroke="black"></line><line id="SvgjsLine13216" x1="49.57841289216623" y1="322.6250000000001" x2="396.42158710783383" y2="322.62499999999994" stroke="black"></line><line id="SvgjsLine13217" x1="45.53773325894929" y1="315.2750310327524" x2="371.8147513018482" y2="356.49340392336126" stroke="black"></line><line id="SvgjsLine13218" x1="41.808382743679545" y1="307.7623031359057" x2="340.70399677156774" y2="384.5056531235832" stroke="black"></line><line id="SvgjsLine13219" x1="38.39690389440278" y1="300.09999618703364" x2="304.44901277592896" y2="405.4374778929308" stroke="black"></line><line id="SvgjsLine13220" x1="35.309281604248724" y1="292.30155247619354" x2="264.6343160862563" y2="418.3740570469446" stroke="black"></line><line id="SvgjsLine13221" x1="32.55093261189552" y1="284.3806531235833" x2="223.00000000000003" y2="422.75" stroke="black"></line><line id="SvgjsLine13222" x1="30.12669599876895" y1="276.35119407820696" x2="181.36568391374374" y2="418.3740570469446" stroke="black"></line><line id="SvgjsLine13223" x1="28.040824699649647" y1="268.22726173965884" x2="141.5509872240711" y2="405.4374778929309" stroke="black"></line><line id="SvgjsLine13224" x1="26.296978041580076" y1="260.0231082457914" x2="105.29600322843228" y2="384.5056531235832" stroke="black"></line><line id="SvgjsLine13225" x1="24.898215324161583" y1="251.7531264696229" x2="74.18524869815184" y2="356.49340392336137" stroke="black"></line><line id="SvgjsLine13226" x1="23.846990452503263" y1="243.43182476934777" x2="49.57841289216623" y2="322.6250000000001" stroke="black"></line><line id="SvgjsLine13227" x1="23.145147632238633" y1="235.07380153574496" x2="32.55093261189552" y2="284.3806531235833" stroke="black"></line><line id="SvgjsLine13228" x1="22.793918134162197" y1="226.6937195816422" x2="23.846990452503263" y2="243.43182476934777" stroke="black"></line><line id="SvgjsLine13229" x1="22.793918134162197" y1="218.3062804183579" x2="23.846990452503263" y2="201.56817523065232" stroke="black"></line><line id="SvgjsLine13230" x1="23.145147632238633" y1="209.9261984642551" x2="32.55093261189549" y2="160.6193468764168" stroke="black"></line><line id="SvgjsLine13231" x1="23.846990452503263" y1="201.56817523065232" x2="49.57841289216617" y2="122.37499999999997" stroke="black"></line><line id="SvgjsLine13232" x1="24.898215324161583" y1="193.24687353037714" x2="74.18524869815184" y2="88.5065960766386" stroke="black"></line><line id="SvgjsLine13233" x1="26.296978041580076" y1="184.9768917542087" x2="105.29600322843221" y2="60.494346876416785" stroke="black"></line><line id="SvgjsLine13234" x1="28.040824699649647" y1="176.77273826034124" x2="141.55098722407104" y2="39.56252210706916" stroke="black"></line><line id="SvgjsLine13235" x1="30.12669599876895" y1="168.6488059217931" x2="181.3656839137436" y2="26.625942953055443" stroke="black"></line><line id="SvgjsLine13236" x1="32.55093261189549" y1="160.6193468764168" x2="223" y2="22.25" stroke="black"></line><line id="SvgjsLine13237" x1="35.309281604248724" y1="152.69844752380652" x2="264.6343160862563" y2="26.625942953055414" stroke="black"></line><line id="SvgjsLine13238" x1="38.39690389440278" y1="144.90000381296642" x2="304.44901277592896" y2="39.562522107069185" stroke="black"></line><line id="SvgjsLine13239" x1="41.808382743679516" y1="137.23769686409435" x2="340.70399677156774" y2="60.494346876416785" stroke="black"></line><line id="SvgjsLine13240" x1="45.53773325894926" y1="129.72496896724766" x2="371.81475130184816" y2="88.50659607663863" stroke="black"></line><line id="SvgjsLine13241" x1="49.57841289216617" y1="122.37499999999997" x2="396.42158710783383" y2="122.37499999999997" stroke="black"></line><line id="SvgjsLine13242" x1="53.923332918221405" y1="115.20068430545605" x2="413.4490673881045" y2="160.61934687641678" stroke="black"></line><line id="SvgjsLine13243" x1="58.564870870975795" y1="108.21460807119253" x2="422.1530095474967" y2="201.5681752306524" stroke="black"></line><line id="SvgjsLine13244" x1="63.494883915654725" y1="101.42902724880939" x2="422.1530095474967" y2="243.43182476934757" stroke="black"></line><line id="SvgjsLine13245" x1="68.70472313414814" y1="94.85584605282497" x2="413.4490673881045" y2="284.3806531235832" stroke="black"></line><line id="SvgjsLine13246" x1="74.18524869815184" y1="88.5065960766386" x2="396.42158710783383" y2="322.62499999999994" stroke="black"></line><line id="SvgjsLine13247" x1="79.92684590353105" y1="82.39241606219863" x2="371.8147513018482" y2="356.49340392336126" stroke="black"></line><line id="SvgjsLine13248" x1="85.91944203778004" y1="76.5240323588624" x2="340.70399677156774" y2="384.5056531235832" stroke="black"></line><line id="SvgjsLine13249" x1="92.15252405098133" y1="70.91174010573582" x2="304.44901277592896" y2="405.4374778929308" stroke="black"></line><line id="SvgjsLine13250" x1="98.6151569992683" y1="65.5653851705006" x2="264.6343160862563" y2="418.3740570469446" stroke="black"></line><line id="SvgjsLine13251" x1="105.29600322843221" y1="60.494346876416785" x2="223.00000000000003" y2="422.75" stroke="black"></line><line id="SvgjsLine13252" x1="112.18334226402033" y1="55.7075215478026" x2="181.36568391374374" y2="418.3740570469446" stroke="black"></line><line id="SvgjsLine13253" x1="119.26509137303066" y1="51.21330690285856" x2="141.5509872240711" y2="405.4374778929309" stroke="black"></line><line id="SvgjsLine13254" x1="126.52882676113151" y1="47.01958732121631" x2="105.29600322843228" y2="384.5056531235832" stroke="black"></line><line id="SvgjsLine13255" x1="133.96180536821828" y1="43.13372001205758" x2="74.18524869815184" y2="356.49340392336137" stroke="black"></line><line id="SvgjsLine13256" x1="141.55098722407104" y1="39.56252210706916" x2="49.57841289216623" y2="322.6250000000001" stroke="black"></line><line id="SvgjsLine13257" x1="149.2830583248931" y1="36.31225870087772" x2="32.55093261189552" y2="284.3806531235833" stroke="black"></line><line id="SvgjsLine13258" x1="157.14445399059858" y1="33.38863185994447" x2="23.846990452503263" y2="243.43182476934777" stroke="black"></line><line id="SvgjsLine13259" x1="165.1213826618696" y1="30.7967706192035" x2="23.846990452503263" y2="201.56817523065232" stroke="black"></line><line id="SvgjsLine13260" x1="173.1998500952377" y1="28.541221983991647" x2="32.55093261189549" y2="160.6193468764168" stroke="black"></line><line id="SvgjsLine13261" x1="181.3656839137436" y1="26.625942953055443" x2="49.57841289216617" y2="122.37499999999997" stroke="black"></line><line id="SvgjsLine13262" x1="189.60455847010059" y1="25.05429357663138" x2="74.18524869815184" y2="88.5065960766386" stroke="black"></line><line id="SvgjsLine13263" x1="197.902019978748" y1="23.829031061775822" x2="105.29600322843221" y2="60.494346876416785" stroke="black"></line><line id="SvgjsLine13264" x1="206.24351187270375" y1="22.952304935286776" x2="141.55098722407104" y2="39.56252210706916" stroke="black"></line><line id="SvgjsLine13265" x1="214.6144003407277" y1="22.425653272703613" x2="181.3656839137436" y2="26.625942953055443" stroke="black"></line></svg>