<svg id="SvgjsSvg1001" width="446" height="445" xmlns="http://www.w3.org/2000/svg" version="1.1" xmlns:xlink="http://www.w3.org/1999/xlink" xmlns:svgjs="http://svgjs.com/svgjs"><circle id="SvgjsCircle13416" r="200.25" cx="223" cy="222.5" stroke="black" fill="transparent"></circle><line id="SvgjsLine13417" x1="231.38559965927223" y1="22.425653272703613" x2="272.8001499047622" y2="28.54122198399162" stroke="black"></line><line id="SvgjsLine13418" x1="239.75648812729617" y1="22.952304935286747" x2="319.47117323886846" y2="47.01958732121631" stroke="black"></line><line id="SvgjsLine13419" x1="248.09798002125194" y1="23.829031061775794" x2="360.0805579622199" y2="76.52403235886234" stroke="black"></line><line id="SvgjsLine13420" x1="256.3954415298995" y1="25.05429357663141" x2="392.0766670817785" y2="115.20068430545594" stroke="black"></line><line id="SvgjsLine13421" x1="264.6343160862563" y1="26.625942953055414" x2="413.4490673881045" y2="160.61934687641678" stroke="black"></line><line id="SvgjsLine13422" x1="272.8001499047622" y1="28.54122198399162" x2="422.8548523677614" y2="209.92619846425498" stroke="black"></line><line id="SvgjsLine13423" x1="280.8786173381304" y1="30.796770619203528" x2="419.70302195841987" y2="260.0231082457914" stroke="black"></line><line id="SvgjsLine13424" x1="288.8555460094013" y1="33.38863185994444" x2="404.1916172563204" y2="307.7623031359058" stroke="black"></line><line id="SvgjsLine13425" x1="296.71694167510674" y1="36.312258700877635" x2="377.2952768658518" y2="350.14415394717514" stroke="black"></line><line id="SvgjsLine13426" x1="304.44901277592896" y1="39.562522107069185" x2="340.70399677156774" y2="384.5056531235832" stroke="black"></line><line id="SvgjsLine13427" x1="312.0381946317817" y1="43.13372001205758" x2="296.7169416751068" y2="408.6877412991223" stroke="black"></line><line id="SvgjsLine13428" x1="319.47117323886846" y1="47.01958732121631" x2="248.097980021252" y2="421.1709689382242" stroke="black"></line><line id="SvgjsLine13429" x1="326.7349086269693" y1="51.21330690285856" x2="197.90201997874806" y2="421.1709689382242" stroke="black"></line><line id="SvgjsLine13430" x1="333.8166577359797" y1="55.7075215478026" x2="149.28305832489318" y2="408.6877412991223" stroke="black"></line><line id="SvgjsLine13431" x1="340.70399677156774" y1="60.494346876416785" x2="105.29600322843228" y2="384.5056531235832" stroke="black"></line><line id="SvgjsLine13432" x1="347.3848430007317" y1="65.5653851705006" x2="68.70472313414817" y2="350.1441539471751" stroke="black"></line><line id="SvgjsLine13433" x1="353.8474759490186" y1="70.91174010573579" x2="41.808382743679545" y2="307.7623031359057" stroke="black"></line><line id="SvgjsLine13434" x1="360.0805579622199" y1="76.52403235886234" x2="26.296978041580076" y2="260.0231082457914" stroke="black"></line><line id="SvgjsLine13435" x1="366.0731540964689" y1="82.39241606219858" x2="23.145147632238633" y2="209.9261984642551" stroke="black"></line><line id="SvgjsLine13436" x1="371.81475130184816" y1="88.50659607663863" x2="32.55093261189549" y2="160.6193468764168" stroke="black"></line><line id="SvgjsLine13437" x1="377.2952768658518" y1="94.8558460528249" x2="53.923332918221405" y2="115.20068430545605" stroke="black"></line><line id="SvgjsLine13438" x1="382.50511608434533" y1="101.42902724880942" x2="85.91944203778004" y2="76.5240323588624" stroke="black"></line><line id="SvgjsLine13439" x1="387.4351291290242" y1="108.21460807119253" x2="126.52882676113151" y2="47.01958732121631" stroke="black"></line><line id="SvgjsLine13440" x1="392.0766670817785" y1="115.20068430545594" x2="173.1998500952377" y2="28.541221983991647" stroke="black"></line><line id="SvgjsLine13441" x1="396.42158710783383" y1="122.37499999999997" x2="223" y2="22.25" stroke="black"></line><line id="SvgjsLine13442" x1="400.4622667410507" y1="129.72496896724766" x2="272.8001499047622" y2="28.54122198399162" stroke="black"></line><line id="SvgjsLine13443" x1="404.19161725632046" y1="137.2376968640942" x2="319.47117323886846" y2="47.01958732121631" stroke="black"></line><line id="SvgjsLine13444" x1="407.6030961055972" y1="144.9000038129664" x2="360.0805579622199" y2="76.52403235886234" stroke="black"></line><line id="SvgjsLine13445" x1="410.6907183957513" y1="152.6984475238065" x2="392.0766670817785" y2="115.20068430545594" stroke="black"></line><line id="SvgjsLine13446" x1="413.4490673881045" y1="160.61934687641678" x2="223" y2="22.25" stroke="black"></line><line id="SvgjsLine13447" x1="415.8733040012311" y1="168.64880592179304" x2="422.8548523677614" y2="209.92619846425498" stroke="black"></line><line id="SvgjsLine13448" x1="417.95917530035035" y1="176.7727382603412" x2="419.70302195841987" y2="260.0231082457914" stroke="black"></line><line id="SvgjsLine13449" x1="419.70302195841987" y1="184.97689175420862" x2="404.1916172563204" y2="307.7623031359058" stroke="black"></line><line id="SvgjsLine13450" x1="421.1017846758384" y1="193.24687353037706" x2="377.2952768658518" y2="350.14415394717514" stroke="black"></line><line id="SvgjsLine13451" x1="422.1530095474967" y1="201.5681752306524" x2="340.70399677156774" y2="384.5056531235832" stroke="black"></line><line id="SvgjsLine13452" x1="422.8548523677614" y1="209.92619846425498" x2="296.7169416751068" y2="408.6877412991223" stroke="black"></line><line id="SvgjsLine13453" x1="423.2060818658378" y1="218.30628041835774" x2="248.097980021252" y2="421.1709689382242" stroke="black"></line><line id="SvgjsLine13454" x1="423.2060818658378" y1="226.69371958164223" x2="197.90201997874806" y2="421.1709689382242" stroke="black"></line><line id="SvgjsLine13455" x1="422.8548523677614" y1="235.07380153574502" x2="149.28305832489318" y2="408.6877412991223" stroke="black"></line><line id="SvgjsLine13456" x1="422.1530095474967" y1="243.43182476934757" x2="105.29600322843228" y2="384.5056531235832" stroke="black"></line><line id="SvgjsLine13457" x1="421.1017846758384" y1="251.7531264696229" x2="68.70472313414817" y2="350.1441539471751" stroke="black"></line><line id="SvgjsLine13458" x1="419.70302195841987" y1="260.0231082457914" x2="41.808382743679545" y2="307.7623031359057" stroke="black"></line><line id="SvgjsLine13459" x1="417.95917530035035" y1="268.22726173965884" x2="26.296978041580076" y2="260.0231082457914" stroke="black"></line><line id="SvgjsLine13460" x1="415.8733040012311" y1="276.35119407820696" x2="23.145147632238633" y2="209.9261984642551" stroke="black"></line><line id="SvgjsLine13461" x1="413.4490673881045" y1="284.3806531235832" x2="32.55093261189549" y2="160.6193468764168" stroke="black"></line><line id="SvgjsLine13462" x1="410.6907183957513" y1="292.3015524761935" x2="53.923332918221405" y2="115.20068430545605" stroke="black"></line><line id="SvgjsLine13463" x1="407.6030961055972" y1="300.09999618703364" x2="85.91944203778004" y2="76.5240323588624" stroke="black"></line><line id="SvgjsLine13464" x1="404.1916172563204" y1="307.7623031359058" x2="126.52882676113151" y2="47.01958732121631" stroke="black"></line><line id="SvgjsLine13465" x1="400.46226674105077" y1="315.2750310327523" x2="173.1998500952377" y2="28.541221983991647" stroke="black"></line><line id="SvgjsLine13466" x1="396.42158710783383" y1="322.62499999999994" x2="223" y2="22.25" stroke="black"></line><line id="SvgjsLine13467" x1="392.0766670817785" y1="329.79931569454413" x2="272.8001499047622" y2="28.54122198399162" stroke="black"></line><line id="SvgjsLine13468" x1="387.4351291290243" y1="336.7853919288074" x2="319.47117323886846" y2="47.01958732121631" stroke="black"></line><line id="SvgjsLine13469" x1="382.50511608434533" y1="343.57097275119054" x2="360.0805579622199" y2="76.52403235886234" stroke="black"></line><line id="SvgjsLine13470" x1="377.2952768658518" y1="350.14415394717514" x2="392.0766670817785" y2="115.20068430545594" stroke="black"></line><line id="SvgjsLine13471" x1="371.8147513018482" y1="356.49340392336126" x2="413.4490673881045" y2="160.61934687641678" stroke="black"></line><line id="SvgjsLine13472" x1="366.07315409646884" y1="362.60758393780145" x2="422.8548523677614" y2="209.92619846425498" stroke="black"></line><line id="SvgjsLine13473" x1="360.0805579622199" y1="368.47596764113763" x2="419.70302195841987" y2="260.0231082457914" stroke="black"></line><line id="SvgjsLine13474" x1="353.84747594901864" y1="374.0882598942642" x2="404.1916172563204" y2="307.7623031359058" stroke="black"></line><line id="SvgjsLine13475" x1="347.3848430007317" y1="379.4346148294994" x2="377.2952768658518" y2="350.14415394717514" stroke="black"></line><line id="SvgjsLine13476" x1="340.70399677156774" y1="384.5056531235832" x2="223" y2="22.25" stroke="black"></line><line id="SvgjsLine13477" x1="333.8166577359797" y1="389.29247845219743" x2="296.7169416751068" y2="408.6877412991223" stroke="black"></line><line id="SvgjsLine13478" x1="326.7349086269693" y1="393.78669309714144" x2="248.097980021252" y2="421.1709689382242" stroke="black"></line><line id="SvgjsLine13479" x1="319.4711732388686" y1="397.98041267878364" x2="197.90201997874806" y2="421.1709689382242" stroke="black"></line><line id="SvgjsLine13480" x1="312.0381946317817" y1="401.86627998794245" x2="149.28305832489318" y2="408.6877412991223" stroke="black"></line><line id="SvgjsLine13481" x1="304.44901277592896" y1="405.4374778929308" x2="105.29600322843228" y2="384.5056531235832" stroke="black"></line><line id="SvgjsLine13482" x1="296.7169416751068" y1="408.6877412991223" x2="68.70472313414817" y2="350.1441539471751" stroke="black"></line><line id="SvgjsLine13483" x1="288.85554600940134" y1="411.61136814005556" x2="41.808382743679545" y2="307.7623031359057" stroke="black"></line><line id="SvgjsLine13484" x1="280.8786173381304" y1="414.2032293807965" x2="26.296978041580076" y2="260.0231082457914" stroke="black"></line><line id="SvgjsLine13485" x1="272.8001499047622" y1="416.4587780160084" x2="23.145147632238633" y2="209.9261984642551" stroke="black"></line><line id="SvgjsLine13486" x1="264.6343160862563" y1="418.3740570469446" x2="32.55093261189549" y2="160.6193468764168" stroke="black"></line><line id="SvgjsLine13487" x1="256.39544152989953" y1="419.9457064233686" x2="53.923332918221405" y2="115.20068430545605" stroke="black"></line><line id="SvgjsLine13488" x1="248.097980021252" y1="421.1709689382242" x2="85.91944203778004" y2="76.5240323588624" stroke="black"></line><line id="SvgjsLine13489" x1="239.75648812729614" y1="422.04769506471325" x2="126.52882676113151" y2="47.01958732121631" stroke="black"></line><line id="SvgjsLine13490" x1="231.38559965927226" y1="422.5743467272964" x2="173.1998500952377" y2="28.541221983991647" stroke="black"></line><line id="SvgjsLine13491" x1="223.00000000000003" y1="422.75" x2="223" y2="22.25" stroke="black"></line><line id="SvgjsLine13492" x1="214.6144003407278" y1="422.5743467272964" x2="272.8001499047622" y2="28.54122198399162" stroke="black"></line><line id="SvgjsLine13493" x1="206.24351187270392" y1="422.04769506471325" x2="319.47117323886846" y2="47.01958732121631" stroke="black"></line><line id="SvgjsLine13494" x1="197.90201997874806" y1="421.1709689382242" x2="360.0805579622199" y2="76.52403235886234" stroke="black"></line><line id="SvgjsLine13495" x1="189.60455847010059" y1="419.9457064233686" x2="392.0766670817785" y2="115.20068430545594" stroke="black"></line><line id="SvgjsLine13496" x1="181.36568391374374" y1="418.3740570469446" x2="413.4490673881045" y2="160.61934687641678" stroke="black"></line><line id="SvgjsLine13497" x1="173.1998500952378" y1="416.4587780160084" x2="422.8548523677614" y2="209.92619846425498" stroke="black"></line><line id="SvgjsLine13498" x1="165.12138266186957" y1="414.20322938079653" x2="419.70302195841987" y2="260.0231082457914" stroke="black"></line><line id="SvgjsLine13499" x1="157.14445399059872" y1="411.61136814005556" x2="404.1916172563204" y2="307.7623031359058" stroke="black"></line><line id="SvgjsLine13500" x1="149.28305832489318" y1="408.6877412991223" x2="377.2952768658518" y2="350.14415394717514" stroke="black"></line><line id="SvgjsLine13501" x1="141.5509872240711" y1="405.4374778929309" x2="340.70399677156774" y2="384.5056531235832" stroke="black"></line><line id="SvgjsLine13502" x1="133.96180536821825" y1="401.86627998794245" x2="296.7169416751068" y2="408.6877412991223" stroke="black"></line><line id="SvgjsLine13503" x1="126.52882676113157" y1="397.9804126787837" x2="248.097980021252" y2="421.1709689382242" stroke="black"></line><line id="SvgjsLine13504" x1="119.26509137303073" y1="393.7866930971415" x2="197.90201997874806" y2="421.1709689382242" stroke="black"></line><line id="SvgjsLine13505" x1="112.1833422640203" y1="389.29247845219743" x2="149.28305832489318" y2="408.6877412991223" stroke="black"></line><line id="SvgjsLine13506" x1="105.29600322843228" y1="384.5056531235832" x2="223" y2="22.25" stroke="black"></line><line id="SvgjsLine13507" x1="98.61515699926836" y1="379.4346148294994" x2="68.70472313414817" y2="350.1441539471751" stroke="black"></line><line id="SvgjsLine13508" x1="92.15252405098147" y1="374.0882598942643" x2="41.808382743679545" y2="307.7623031359057" stroke="black"></line><line id="SvgjsLine13509" x1="85.91944203778007" y1="368.4759676411377" x2="26.296978041580076" y2="260.0231082457914" stroke="black"></line><line id="SvgjsLine13510" x1="79.9268459035311" y1="362.6075839378014" x2="23.145147632238633" y2="209.9261984642551" stroke="black"></line><line id="SvgjsLine13511" x1="74.18524869815184" y1="356.49340392336137" x2="32.55093261189549" y2="160.6193468764168" stroke="black"></line><line id="SvgjsLine13512" x1="68.70472313414817" y1="350.1441539471751" x2="53.923332918221405" y2="115.20068430545605" stroke="black"></line><line id="SvgjsLine13513" x1="63.49488391565475" y1="343.57097275119065" x2="85.91944203778004" y2="76.5240323588624" stroke="black"></line><line id="SvgjsLine13514" x1="58.564870870975824" y1="336.78539192880754" x2="126.52882676113151" y2="47.01958732121631" stroke="black"></line><line id="SvgjsLine13515" x1="53.92333291822143" y1="329.799315694544" x2="173.1998500952377" y2="28.541221983991647" stroke="black"></line><line id="SvgjsLine13516" x1="49.57841289216623" y1="322.6250000000001" x2="223" y2="22.25" stroke="black"></line><line id="SvgjsLine13517" x1="45.53773325894929" y1="315.2750310327524" x2="272.8001499047622" y2="28.54122198399162" stroke="black"></line><line id="SvgjsLine13518" x1="41.808382743679545" y1="307.7623031359057" x2="319.47117323886846" y2="47.01958732121631" stroke="black"></line><line id="SvgjsLine13519" x1="38.39690389440278" y1="300.09999618703364" x2="360.0805579622199" y2="76.52403235886234" stroke="black"></line><line id="SvgjsLine13520" x1="35.309281604248724" y1="292.30155247619354" x2="392.0766670817785" y2="115.20068430545594" stroke="black"></line><line id="SvgjsLine13521" x1="32.55093261189552" y1="284.3806531235833" x2="413.4490673881045" y2="160.61934687641678" stroke="black"></line><line id="SvgjsLine13522" x1="30.12669599876895" y1="276.35119407820696" x2="422.8548523677614" y2="209.92619846425498" stroke="black"></line><line id="SvgjsLine13523" x1="28.040824699649647" y1="268.22726173965884" x2="419.70302195841987" y2="260.0231082457914" stroke="black"></line><line id="SvgjsLine13524" x1="26.296978041580076" y1="260.0231082457914" x2="404.1916172563204" y2="307.7623031359058" stroke="black"></line><line id="SvgjsLine13525" x1="24.898215324161583" y1="251.7531264696229" x2="377.2952768658518" y2="350.14415394717514" stroke="black"></line><line id="SvgjsLine13526" x1="23.846990452503263" y1="243.43182476934777" x2="340.70399677156774" y2="384.5056531235832" stroke="black"></line><line id="SvgjsLine13527" x1="23.145147632238633" y1="235.07380153574496" x2="296.7169416751068" y2="408.6877412991223" stroke="black"></line><line id="SvgjsLine13528" x1="22.793918134162197" y1="226.6937195816422" x2="248.097980021252" y2="421.1709689382242" stroke="black"></line><line id="SvgjsLine13529" x1="22.793918134162197" y1="218.3062804183579" x2="197.90201997874806" y2="421.1709689382242" stroke="black"></line><line id="SvgjsLine13530" x1="23.145147632238633" y1="209.9261984642551" x2="149.28305832489318" y2="408.6877412991223" stroke="black"></line><line id="SvgjsLine13531" x1="23.846990452503263" y1="201.56817523065232" x2="105.29600322843228" y2="384.5056531235832" stroke="black"></line><line id="SvgjsLine13532" x1="24.898215324161583" y1="193.24687353037714" x2="68.70472313414817" y2="350.1441539471751" stroke="black"></line><line id="SvgjsLine13533" x1="26.296978041580076" y1="184.9768917542087" x2="41.808382743679545" y2="307.7623031359057" stroke="black"></line><line id="SvgjsLine13534" x1="28.040824699649647" y1="176.77273826034124" x2="26.296978041580076" y2="260.0231082457914" stroke="black"></line><line id="SvgjsLine13535" x1="30.12669599876895" y1="168.6488059217931" x2="23.145147632238633" y2="209.9261984642551" stroke="black"></line><line id="SvgjsLine13536" x1="32.55093261189549" y1="160.6193468764168" x2="223" y2="22.25" stroke="black"></line><line id="SvgjsLine13537" x1="35.309281604248724" y1="152.69844752380652" x2="53.923332918221405" y2="115.20068430545605" stroke="black"></line><line id="SvgjsLine13538" x1="38.39690389440278" y1="144.90000381296642" x2="85.91944203778004" y2="76.5240323588624" stroke="black"></line><line id="SvgjsLine13539" x1="41.808382743679516" y1="137.23769686409435" x2="126.52882676113151" y2="47.01958732121631" stroke="black"></line><line id="SvgjsLine13540" x1="45.53773325894926" y1="129.72496896724766" x2="173.1998500952377" y2="28.541221983991647" stroke="black"></line><line id="SvgjsLine13541" x1="49.57841289216617" y1="122.37499999999997" x2="223" y2="22.25" stroke="black"></line><line id="SvgjsLine13542" x1="53.923332918221405" y1="115.20068430545605" x2="272.8001499047622" y2="28.54122198399162" stroke="black"></line><line id="SvgjsLine13543" x1="58.564870870975795" y1="108.21460807119253" x2="319.47117323886846" y2="47.01958732121631" stroke="black"></line><line id="SvgjsLine13544" x1="63.494883915654725" y1="101.42902724880939" x2="360.0805579622199" y2="76.52403235886234" stroke="black"></line><line id="SvgjsLine13545" x1="68.70472313414814" y1="94.85584605282497" x2="392.0766670817785" y2="115.20068430545594" stroke="black"></line><line id="SvgjsLine13546" x1="74.18524869815184" y1="88.5065960766386" x2="413.4490673881045" y2="160.61934687641678" stroke="black"></line><line id="SvgjsLine13547" x1="79.92684590353105" y1="82.39241606219863" x2="422.8548523677614" y2="209.92619846425498" stroke="black"></line><line id="SvgjsLine13548" x1="85.91944203778004" y1="76.5240323588624" x2="419.70302195841987" y2="260.0231082457914" stroke="black"></line><line id="SvgjsLine13549" x1="92.15252405098133" y1="70.91174010573582" x2="404.1916172563204" y2="307.7623031359058" stroke="black"></line><line id="SvgjsLine13550" x1="98.6151569992683" y1="65.5653851705006" x2="377.2952768658518" y2="350.14415394717514" stroke="black"></line><line id="SvgjsLine13551" x1="105.29600322843221" y1="60.494346876416785" x2="340.70399677156774" y2="384.5056531235832" stroke="black"></line><line id="SvgjsLine13552" x1="112.18334226402033" y1="55.7075215478026" x2="296.7169416751068" y2="408.6877412991223" stroke="black"></line><line id="SvgjsLine13553" x1="119.26509137303066" y1="51.21330690285856" x2="248.097980021252" y2="421.1709689382242" stroke="black"></line><line id="SvgjsLine13554" x1="126.52882676113151" y1="47.01958732121631" x2="197.90201997874806" y2="421.1709689382242" stroke="black"></line><line id="SvgjsLine13555" x1="133.96180536821828" y1="43.13372001205758" x2="149.28305832489318" y2="408.6877412991223" stroke="black"></line><line id="SvgjsLine13556" x1="141.55098722407104" y1="39.56252210706916" x2="105.29600322843228" y2="384.5056531235832" stroke="black"></line><line id="SvgjsLine13557" x1="149.2830583248931" y1="36.31225870087772" x2="68.70472313414817" y2="350.1441539471751" stroke="black"></line><line id="SvgjsLine13558" x1="157.14445399059858" y1="33.38863185994447" x2="41.808382743679545" y2="307.7623031359057" stroke="black"></line><line id="SvgjsLine13559" x1="165.1213826618696" y1="30.7967706192035" x2="26.296978041580076" y2="260.0231082457914" stroke="black"></line><line id="SvgjsLine13560" x1="173.1998500952377" y1="28.541221983991647" x2="23.145147632238633" y2="209.9261984642551" stroke="black"></line><line id="SvgjsLine13561" x1="181.3656839137436" y1="26.625942953055443" x2="32.55093261189549" y2="160.6193468764168" stroke="black"></line><line id="SvgjsLine13562" x1="189.60455847010059" y1="25.05429357663138" x2="53.923332918221405" y2="115.20068430545605" stroke="black"></line><line id="SvgjsLine13563" x1="197.902019978748" y1="23.829031061775822" x2="85.91944203778004" y2="76.5240323588624" stroke="black"></line><line id="SvgjsLine13564" x1="206.24351187270375" y1="22.952304935286776" x2="126.52882676113151" y2="47.01958732121631" stroke="black"></line><line id="SvgjsLine13565" x1="214.6144003407277" y1="22.425653272703613" x2="173.1998500952377" y2="28.541221983991647" stroke="black"></line></svg>