<svg id="SvgjsSvg1001" width="446" height="445" xmlns="http://www.w3.org/2000/svg" version="1.1" xmlns:xlink="http://www.w3.org/1999/xlink" xmlns:svgjs="http://svgjs.com/svgjs"><circle id="SvgjsCircle25037" r="200.25" cx="223" cy="222.5" stroke="black" fill="transparent"></circle><line id="SvgjsLine25038" x1="225.18434532171003" y1="22.261913873720005" x2="407.1599566361197" y2="301.1458700236859" stroke="black"></line><line id="SvgjsLine25039" x1="227.36843072817086" y1="22.297654077248183" x2="78.34661659753397" y2="360.97548942039947" stroke="black"></line><line id="SvgjsLine25040" x1="229.55199633506066" y1="22.357216357857766" x2="152.46192790377307" y2="35.084838166845486" stroke="black"></line><line id="SvgjsLine25041" x1="231.73478231990853" y1="22.44059362823299" x2="423.059406371767" y2="231.2347823199085" stroke="black"></line><line id="SvgjsLine25042" x1="233.91652895301075" y1="22.547775967312447" x2="136.39603893238422" y2="403.0541924946604" stroke="black"></line><line id="SvgjsLine25043" x1="236.09697662833614" y1="22.678750621469646" x2="90.9660005262111" y2="71.94407855233487" stroke="black"></line><line id="SvgjsLine25044" x1="238.27586589441646" y1="22.833502006030557" x2="413.31361161765835" y2="160.20399906058907" stroke="black"></line><line id="SvgjsLine25045" x1="240.45293748521854" y1="23.012011707127954" x2="205.5470625147815" y2="421.98798829287205" stroke="black"></line><line id="SvgjsLine25046" x1="242.6279323509945" y1="23.214258483892564" x2="46.39526681424189" y2="128.10280345059397" stroke="black"></line><line id="SvgjsLine25047" x1="244.80059168910591" y1="23.440218270980495" x2="379.1718677393495" y2="97.15882469514217" stroke="black"></line><line id="SvgjsLine25048" x1="246.97065697481875" y1="23.689864181436718" x2="276.93534580413353" y2="415.3497886257295" stroke="black"></line><line id="SvgjsLine25049" x1="249.13786999206533" y1="23.963166509894478" x2="24.46316650989445" y2="196.36213000793472" stroke="black"></line><line id="SvgjsLine25050" x1="251.3019728641694" y1="24.260092736109726" x2="325.0107416023786" y2="50.18090327032019" stroke="black"></line><line id="SvgjsLine25051" x1="253.46270808453082" y1="24.58060752883094" x2="341.4097570848073" y2="383.9905320045634" stroke="black"></line><line id="SvgjsLine25052" x1="255.6198185472664" y1="24.924672750002998" x2="27.981134899713965" y2="267.97202167263333" stroke="black"></line><line id="SvgjsLine25053" x1="257.7730475778028" y1="25.292247459305344" x2="223" y2="22.25" stroke="black"></line><line id="SvgjsLine25054" x1="259.9221389634183" y1="25.683287919023428" x2="390.7054410789994" y2="331.93010341079946" stroke="black"></line><line id="SvgjsLine25055" x1="262.0668369837297" y1="26.097747599253097" x2="56.49821013641531" y2="333.7529391621753" stroke="black"></line><line id="SvgjsLine25056" x1="264.20688644112005" y1="26.535577183437113" x2="186.07786103658168" y2="25.683287919023428" stroke="black"></line><line id="SvgjsLine25057" x1="266.3420326911051" y1="26.996724574233355" x2="418.5032754257667" y2="265.8420326911051" stroke="black"></line><line id="SvgjsLine25058" x1="268.4720216726332" y1="27.481134899713936" x2="106.35884120222258" y2="385.27254858947094" stroke="black"></line><line id="SvgjsLine25059" x1="270.59659993831616" y1="27.98875051989441" x2="119.11565505335558" y2="51.303897897742445" stroke="black"></line><line id="SvgjsLine25060" x1="272.7155146845867" y1="28.519511033592238" x2="421.23990726389025" y2="194.19802713583059" stroke="black"></line><line id="SvgjsLine25061" x1="274.82851378177975" y1="29.073353285614076" x2="171.1714862182203" y2="415.9266467143859" stroke="black"></line><line id="SvgjsLine25062" x1="276.9353458041335" y1="29.650211374270526" x2="65.47019069768442" y2="98.86981889046638" stroke="black"></line><line id="SvgjsLine25063" x1="279.03576005970615" y1="30.250016659217778" x2="398.56453283042845" y2="126.18199902389264" stroke="black"></line><line id="SvgjsLine25064" x1="281.1295066202061" y1="30.872697769625177" x2="242.62793235099457" y2="421.7857415161074" stroke="black"></line><line id="SvgjsLine25065" x1="283.21633635073067" y1="31.51818061266755" x2="32.01818061266758" y2="162.28366364926924" stroke="black"></line><line id="SvgjsLine25066" x1="285.296000939411" y1="32.18638838234165" x2="353.3838663448678" y2="70.51279693025583" stroke="black"></line><line id="SvgjsLine25067" x1="287.3682529269581" y1="32.877241568605086" x2="311.56831021635503" y2="402.09876649192086" stroke="black"></line><line id="SvgjsLine25068" x1="289.4328457361088" y1="33.59065796683751" x2="23.047775967312447" y2="233.41652895301075" stroke="black"></line><line id="SvgjsLine25069" x1="291.4895337009651" y1="34.32655268762184" x2="223" y2="22.25" stroke="black"></line><line id="SvgjsLine25070" x1="293.538072096227" y1="35.084838166845515" x2="369.15528055774155" y2="359.38935848008" stroke="black"></line><line id="SvgjsLine25071" x1="295.5782171663112" y1="35.8654241761196" x2="39.70887630633072" y2="303.1500246442122" stroke="black"></line><line id="SvgjsLine25072" x1="297.6097261543566" y1="36.66821783351503" x2="220.8156546782898" y2="22.261913873720005" stroke="black"></line><line id="SvgjsLine25073" x1="299.63235733110923" y1="37.49312361461483" x2="408.00687638538517" y2="299.13235733110923" stroke="black"></line><line id="SvgjsLine25074" x1="301.645870023686" y1="38.340043363880284" x2="79.8657260588572" y2="362.54514316227426" stroke="black"></line><line id="SvgjsLine25075" x1="303.6500246442121" y1="39.20887630633072" x2="150.42178283368872" y2="35.8654241761196" stroke="black"></line><line id="SvgjsLine25076" x1="305.64458271833" y1="40.09951905953454" x2="423.14278364214226" y2="229.05199633506066" stroke="black"></line><line id="SvgjsLine25077" x1="307.6293069135751" y1="41.01186564591086" x2="138.37069308642498" y2="403.9881343540892" stroke="black"></line><line id="SvgjsLine25078" x1="309.6039610676158" y1="41.94580750533959" x2="89.33157812284799" y2="73.39327482346172" stroke="black"></line><line id="SvgjsLine25079" x1="311.56831021635503" y1="42.90123350807917" x2="412.6227584313949" y2="158.13174707304188" stroke="black"></line><line id="SvgjsLine25080" x1="313.5221206218881" y1="43.87802996798982" x2="207.72413410558354" y2="422.1664979939694" stroke="black"></line><line id="SvgjsLine25081" x1="315.4651598003155" y1="44.876080656061106" x2="45.37608065606105" y2="130.0348401996846" stroke="black"></line><line id="SvgjsLine25082" x1="317.39719654940603" y1="45.89526681424189" x2="377.79534328588807" y2="95.46274484623" stroke="black"></line><line id="SvgjsLine25083" x1="319.3180009761074" y1="46.93546716957158" x2="279.0357600597062" y2="414.7499833407822" stroke="black"></line><line id="SvgjsLine25084" x1="321.2273445239014" y1="47.99655794861016" x2="24.189864181436718" y2="198.52934302518128" stroke="black"></line><line id="SvgjsLine25085" x1="323.125" y1="49.07841289216614" x2="223" y2="22.25" stroke="black"></line><line id="SvgjsLine25086" x1="325.0107416023786" y1="50.18090327032019" x2="343.16426579487734" y2="382.689299661301" stroke="black"></line><line id="SvgjsLine25087" x1="326.8843449466444" y1="51.303897897742445" x2="28.48875051989441" y2="270.0965999383162" stroke="black"></line><line id="SvgjsLine25088" x1="328.7455870927362" y1="52.447263149302586" x2="255.6198185472664" y2="24.924672750002998" stroke="black"></line><line id="SvgjsLine25089" x1="330.5942465714515" y1="53.61086297596964" x2="391.88913702403033" y2="330.0942465714515" stroke="black"></line><line id="SvgjsLine25090" x1="332.43010341079946" y1="54.7945589210006" x2="57.7216733997561" y2="335.5625369263538" stroke="black"></line><line id="SvgjsLine25091" x1="334.2529391621753" y1="55.99821013641531" x2="183.9331630162702" y2="26.097747599253125" stroke="black"></line><line id="SvgjsLine25092" x1="336.0625369263537" y1="57.22167339975604" x2="418.9644228165629" y2="263.70688644112" stroke="black"></line><line id="SvgjsLine25093" x1="337.85868137929697" y1="58.4648031311294" x2="108.14131862070307" y2="386.5351968688707" stroke="black"></line><line id="SvgjsLine25094" x1="339.6411587977774" y1="59.727451410529056" x2="117.25441290726383" y2="52.44726314930256" stroke="black"></line><line id="SvgjsLine25095" x1="341.4097570848074" y1="61.00946799543661" x2="420.9193924711691" y2="192.03729191546915" stroke="black"></line><line id="SvgjsLine25096" x1="343.1642657948773" y1="62.31070033869901" x2="173.28448531541335" y2="416.4804889664078" stroke="black"></line><line id="SvgjsLine25097" x1="344.9044761589963" y1="63.630993606680164" x2="64.13099360668016" y2="100.59552384100371" stroke="black"></line><line id="SvgjsLine25098" x1="346.6301811095337" y1="64.97019069768444" x2="397.50344205138987" y2="124.27265547609859" stroke="black"></line><line id="SvgjsLine25099" x1="348.3411753048578" y1="66.32813226065042" x2="244.80059168910591" y2="421.5597817290195" stroke="black"></line><line id="SvgjsLine25100" x1="350.03725515377" y1="67.7046567141119" x2="31.372697769625148" y2="164.37049337979397" stroke="black"></line><line id="SvgjsLine25101" x1="351.7182188397295" y1="69.09960026542464" x2="223" y2="22.25" stroke="black"></line><line id="SvgjsLine25102" x1="353.3838663448678" y1="70.51279693025583" x2="313.5221206218881" y2="401.12197003201015" stroke="black"></line><line id="SvgjsLine25103" x1="355.03399947378875" y1="71.94407855233479" x2="23.178750621469646" y2="235.59697662833608" stroke="black"></line><line id="SvgjsLine25104" x1="356.66842187715196" y1="73.39327482346167" x2="289.4328457361088" y2="33.59065796683751" stroke="black"></line><line id="SvgjsLine25105" x1="358.28693907503595" y1="74.86021330377264" x2="370.63978669622736" y2="357.786939075036" stroke="black"></line><line id="SvgjsLine25106" x1="359.88935848008" y1="76.34471944225842" x2="40.59951905953463" y2="305.1445827183302" stroke="black"></line><line id="SvgjsLine25107" x1="361.4754894203994" y1="77.84661659753394" x2="218.6315692718292" y2="22.297654077248183" stroke="black"></line><line id="SvgjsLine25108" x1="363.04514316227426" y1="79.3657260588572" x2="408.83178216648497" y2="297.1097261543566" stroke="black"></line><line id="SvgjsLine25109" x1="364.5981329326061" y1="80.90186706739385" x2="81.40186706739388" y2="364.0981329326062" stroke="black"></line><line id="SvgjsLine25110" x1="366.1342739411428" y1="82.45485683772574" x2="148.39027384564338" y2="36.66821783351503" stroke="black"></line><line id="SvgjsLine25111" x1="367.65338340246603" y1="84.02451057960056" x2="423.2023459227518" y2="226.86843072817084" stroke="black"></line><line id="SvgjsLine25112" x1="369.1552805577416" y1="85.61064151992002" x2="140.35541728166993" y2="404.90048094046546" stroke="black"></line><line id="SvgjsLine25113" x1="370.63978669622736" y1="87.21306092496403" x2="87.713060924964" y2="74.8602133037727" stroke="black"></line><line id="SvgjsLine25114" x1="372.1067251765383" y1="88.83157812284804" x2="411.9093420331625" y2="156.0671542638912" stroke="black"></line><line id="SvgjsLine25115" x1="373.55592144766524" y1="90.46600052621119" x2="209.9030233716639" y2="422.32124937853035" stroke="black"></line><line id="SvgjsLine25116" x1="374.98720306974417" y1="92.11613365513219" x2="44.37802996798979" y2="131.977879378112" stroke="black"></line><line id="SvgjsLine25117" x1="376.40039973457533" y1="93.7817811602705" x2="223" y2="22.25" stroke="black"></line><line id="SvgjsLine25118" x1="377.79534328588807" y1="95.46274484623" x2="281.1295066202061" y2="414.1273022303748" stroke="black"></line><line id="SvgjsLine25119" x1="379.1718677393495" y1="97.15882469514217" x2="23.940218270980495" y2="200.69940831089406" stroke="black"></line><line id="SvgjsLine25120" x1="380.5298093023156" y1="98.86981889046632" x2="321.2273445239014" y2="47.99655794861016" stroke="black"></line><line id="SvgjsLine25121" x1="381.86900639331986" y1="100.59552384100368" x2="344.9044761589964" y2="381.3690063933198" stroke="black"></line><line id="SvgjsLine25122" x1="383.189299661301" y1="102.33573420512269" x2="29.019511033592238" y2="272.2155146845867" stroke="black"></line><line id="SvgjsLine25123" x1="384.4905320045634" y1="104.09024291519262" x2="253.46270808453082" y2="24.58060752883094" stroke="black"></line><line id="SvgjsLine25124" x1="385.77254858947094" y1="105.85884120222259" x2="393.05273685069744" y2="328.2455870927362" stroke="black"></line><line id="SvgjsLine25125" x1="387.03519686887057" y1="107.641318620703" x2="58.96480313112943" y2="337.358681379297" stroke="black"></line><line id="SvgjsLine25126" x1="388.278326600244" y1="109.43746307364633" x2="181.79311355887992" y2="26.535577183437113" stroke="black"></line><line id="SvgjsLine25127" x1="389.5017898635847" y1="111.24706083782465" x2="419.4022524007469" y2="261.5668369837297" stroke="black"></line><line id="SvgjsLine25128" x1="390.7054410789994" y1="113.06989658920055" x2="109.9374630736463" y2="387.778326600244" stroke="black"></line><line id="SvgjsLine25129" x1="391.88913702403033" y1="114.90575342854852" x2="115.40575342854845" y2="53.61086297596967" stroke="black"></line><line id="SvgjsLine25130" x1="393.05273685069744" y1="116.75441290726378" x2="420.57532724999703" y2="189.88018145273358" stroke="black"></line><line id="SvgjsLine25131" x1="394.19610210225756" y1="118.61565505335555" x2="175.40340006168393" y2="417.0112494801056" stroke="black"></line><line id="SvgjsLine25132" x1="395.3190967296798" y1="120.48925839762141" x2="62.810700338699036" y2="102.33573420512266" stroke="black"></line><line id="SvgjsLine25133" x1="396.42158710783383" y1="122.37499999999997" x2="223" y2="22.25" stroke="black"></line><line id="SvgjsLine25134" x1="397.50344205138987" y1="124.27265547609859" x2="246.97065697481878" y2="421.31013581856325" stroke="black"></line><line id="SvgjsLine25135" x1="398.56453283042845" y1="126.18199902389264" x2="30.750016659217778" y2="166.46423994029385" stroke="black"></line><line id="SvgjsLine25136" x1="399.60473318575805" y1="128.10280345059394" x2="350.03725515377" y2="67.7046567141119" stroke="black"></line><line id="SvgjsLine25137" x1="400.62391934393884" y1="130.03484019968442" x2="315.4651598003155" y2="400.1239193439389" stroke="black"></line><line id="SvgjsLine25138" x1="401.62197003201015" y1="131.97787937811185" x2="23.333502006030557" y2="237.7758658944165" stroke="black"></line><line id="SvgjsLine25139" x1="402.59876649192086" y1="133.931689783645" x2="287.3682529269581" y2="32.877241568605086" stroke="black"></line><line id="SvgjsLine25140" x1="403.5541924946604" y1="135.89603893238422" x2="372.10672517653836" y2="356.1684218771519" stroke="black"></line><line id="SvgjsLine25141" x1="404.48813435408914" y1="137.87069308642492" x2="41.51186564591083" y2="307.129306913575" stroke="black"></line><line id="SvgjsLine25142" x1="405.40048094046546" y1="139.85541728166996" x2="216.44800366493925" y2="22.357216357857766" stroke="black"></line><line id="SvgjsLine25143" x1="406.2911236936693" y1="141.84997535578788" x2="409.63457582388037" y2="295.0782171663112" stroke="black"></line><line id="SvgjsLine25144" x1="407.1599566361197" y1="143.85412997631403" x2="82.9548568377258" y2="365.63427394114285" stroke="black"></line><line id="SvgjsLine25145" x1="408.00687638538517" y1="145.86764266889077" x2="146.36764266889065" y2="37.49312361461489" stroke="black"></line><line id="SvgjsLine25146" x1="408.8317821664849" y1="147.89027384564338" x2="423.23808612628" y2="224.68434532171" stroke="black"></line><line id="SvgjsLine25147" x1="409.63457582388037" y1="149.92178283368872" x2="142.3499753557879" y2="405.7911236936693" stroke="black"></line><line id="SvgjsLine25148" x1="410.41516183315446" y1="151.96192790377296" x2="86.11064151992002" y2="76.34471944225842" stroke="black"></line><line id="SvgjsLine25149" x1="411.17344731237813" y1="154.01046629903482" x2="223" y2="22.25" stroke="black"></line><line id="SvgjsLine25150" x1="411.9093420331625" y1="156.0671542638912" x2="212.08347104698922" y2="422.4522240326876" stroke="black"></line><line id="SvgjsLine25151" x1="412.6227584313949" y1="158.13174707304188" x2="43.401233508079144" y2="133.93168978364503" stroke="black"></line><line id="SvgjsLine25152" x1="413.31361161765835" y1="160.20399906058907" x2="374.98720306974417" y2="92.11613365513219" stroke="black"></line><line id="SvgjsLine25153" x1="413.98181938733245" y1="162.28366364926933" x2="283.2163363507307" y2="413.4818193873324" stroke="black"></line><line id="SvgjsLine25154" x1="414.6273022303749" y1="164.3704933797939" x2="23.714258483892564" y2="202.8720676490056" stroke="black"></line><line id="SvgjsLine25155" x1="415.2499833407822" y1="166.46423994029382" x2="319.3180009761074" y2="46.93546716957158" stroke="black"></line><line id="SvgjsLine25156" x1="415.84978862572945" y1="168.56465419586647" x2="346.6301811095337" y2="380.0298093023156" stroke="black"></line><line id="SvgjsLine25157" x1="416.4266467143859" y1="170.67148621822022" x2="29.573353285614076" y2="274.32851378177975" stroke="black"></line><line id="SvgjsLine25158" x1="416.98048896640773" y1="172.78448531541332" x2="251.3019728641694" y2="24.260092736109726" stroke="black"></line><line id="SvgjsLine25159" x1="417.51124948010556" y1="174.90340006168384" x2="394.19610210225756" y2="326.38434494664443" stroke="black"></line><line id="SvgjsLine25160" x1="418.01886510028606" y1="177.02797832736675" x2="60.227451410529056" y2="339.1411587977774" stroke="black"></line><line id="SvgjsLine25161" x1="418.5032754257667" y1="179.1579673088949" x2="179.6579673088949" y2="26.996724574233355" stroke="black"></line><line id="SvgjsLine25162" x1="418.9644228165629" y1="181.29311355887995" x2="419.8167120809766" y2="259.4221389634183" stroke="black"></line><line id="SvgjsLine25163" x1="419.4022524007469" y1="183.4331630162703" x2="111.7470608378247" y2="389.0017898635847" stroke="black"></line><line id="SvgjsLine25164" x1="419.8167120809766" y1="185.57786103658165" x2="113.56989658920051" y2="54.7945589210006" stroke="black"></line><line id="SvgjsLine25165" x1="420.2077525406946" y1="187.7269524221972" x2="223" y2="22.25" stroke="black"></line><line id="SvgjsLine25166" x1="420.57532724999703" y1="189.88018145273358" x2="177.52797832736672" y2="417.51886510028606" stroke="black"></line><line id="SvgjsLine25167" x1="420.9193924711691" y1="192.03729191546915" x2="61.50946799543655" y2="104.0902429151927" stroke="black"></line><line id="SvgjsLine25168" x1="421.23990726389025" y1="194.19802713583059" x2="395.3190967296798" y2="120.48925839762141" stroke="black"></line><line id="SvgjsLine25169" x1="421.53683349010555" y1="196.36213000793464" x2="249.13786999206533" y2="421.03683349010555" stroke="black"></line><line id="SvgjsLine25170" x1="421.81013581856325" y1="198.52934302518128" x2="30.150211374270555" y2="168.56465419586647" stroke="black"></line><line id="SvgjsLine25171" x1="422.0597817290195" y1="200.6994083108941" x2="348.3411753048578" y2="66.32813226065042" stroke="black"></line><line id="SvgjsLine25172" x1="422.2857415161074" y1="202.87206764900546" x2="317.3971965494061" y2="399.10473318575805" stroke="black"></line><line id="SvgjsLine25173" x1="422.48798829287205" y1="205.0470625147814" x2="23.512011707127954" y2="239.95293748521857" stroke="black"></line><line id="SvgjsLine25174" x1="422.6664979939694" y1="207.22413410558352" x2="285.296000939411" y2="32.18638838234165" stroke="black"></line><line id="SvgjsLine25175" x1="422.82124937853035" y1="209.40302337166386" x2="373.55592144766524" y2="354.53399947378875" stroke="black"></line><line id="SvgjsLine25176" x1="422.9522240326876" y1="211.58347104698925" x2="42.445807505339616" y2="309.10396106761584" stroke="black"></line><line id="SvgjsLine25177" x1="423.059406371767" y1="213.76521768009147" x2="214.26521768009144" y2="22.44059362823299" stroke="black"></line><line id="SvgjsLine25178" x1="423.14278364214226" y1="215.94800366493934" x2="410.41516183315446" y2="293.038072096227" stroke="black"></line><line id="SvgjsLine25179" x1="423.2023459227518" y1="218.13156927182914" x2="84.52451057960059" y2="367.15338340246603" stroke="black"></line><line id="SvgjsLine25180" x1="423.23808612628" y1="220.31565467828997" x2="144.35412997631397" y2="38.34004336388031" stroke="black"></line><line id="SvgjsLine25181" x1="423.25" y1="222.5" x2="223" y2="22.25" stroke="black"></line><line id="SvgjsLine25182" x1="423.23808612628" y1="224.68434532171" x2="144.35412997631403" y2="406.65995663611966" stroke="black"></line><line id="SvgjsLine25183" x1="423.2023459227518" y1="226.86843072817084" x2="84.52451057960047" y2="77.84661659753405" stroke="black"></line><line id="SvgjsLine25184" x1="423.14278364214226" y1="229.05199633506066" x2="410.41516183315446" y2="151.96192790377296" stroke="black"></line><line id="SvgjsLine25185" x1="423.059406371767" y1="231.2347823199085" x2="214.2652176800915" y2="422.559406371767" stroke="black"></line><line id="SvgjsLine25186" x1="422.9522240326876" y1="233.41652895301078" x2="42.44580750533959" y2="135.89603893238422" stroke="black"></line><line id="SvgjsLine25187" x1="422.82124937853035" y1="235.59697662833617" x2="373.55592144766524" y2="90.46600052621119" stroke="black"></line><line id="SvgjsLine25188" x1="422.6664979939694" y1="237.77586589441646" x2="285.29600093941093" y2="412.81361161765835" stroke="black"></line><line id="SvgjsLine25189" x1="422.48798829287205" y1="239.95293748521857" x2="23.512011707127954" y2="205.04706251478152" stroke="black"></line><line id="SvgjsLine25190" x1="422.28574151610746" y1="242.1279323509945" x2="317.39719654940603" y2="45.89526681424189" stroke="black"></line><line id="SvgjsLine25191" x1="422.0597817290195" y1="244.30059168910586" x2="348.34117530485787" y2="378.6718677393495" stroke="black"></line><line id="SvgjsLine25192" x1="421.81013581856325" y1="246.4706569748187" x2="30.150211374270555" y2="276.4353458041336" stroke="black"></line><line id="SvgjsLine25193" x1="421.53683349010555" y1="248.63786999206528" x2="249.13786999206533" y2="23.963166509894478" stroke="black"></line><line id="SvgjsLine25194" x1="421.2399072638903" y1="250.80197286416933" x2="395.3190967296798" y2="324.5107416023786" stroke="black"></line><line id="SvgjsLine25195" x1="420.9193924711691" y1="252.96270808453082" x2="61.50946799543661" y2="340.9097570848073" stroke="black"></line><line id="SvgjsLine25196" x1="420.57532724999703" y1="255.1198185472664" x2="177.52797832736664" y2="27.481134899713965" stroke="black"></line><line id="SvgjsLine25197" x1="420.2077525406946" y1="257.2730475778028" x2="223" y2="22.25" stroke="black"></line><line id="SvgjsLine25198" x1="419.8167120809766" y1="259.4221389634183" x2="113.56989658920064" y2="390.20544107899946" stroke="black"></line><line id="SvgjsLine25199" x1="419.4022524007469" y1="261.5668369837297" x2="111.74706083782466" y2="55.99821013641531" stroke="black"></line><line id="SvgjsLine25200" x1="418.9644228165629" y1="263.70688644112" x2="419.8167120809766" y2="185.57786103658165" stroke="black"></line><line id="SvgjsLine25201" x1="418.5032754257667" y1="265.8420326911051" x2="179.65796730889497" y2="418.0032754257667" stroke="black"></line><line id="SvgjsLine25202" x1="418.01886510028606" y1="267.9720216726332" x2="60.22745141052903" y2="105.85884120222266" stroke="black"></line><line id="SvgjsLine25203" x1="417.51124948010556" y1="270.09659993831616" x2="394.19610210225756" y2="118.61565505335555" stroke="black"></line><line id="SvgjsLine25204" x1="416.98048896640773" y1="272.2155146845867" x2="251.30197286416944" y2="420.73990726389025" stroke="black"></line><line id="SvgjsLine25205" x1="416.4266467143859" y1="274.3285137817798" x2="29.573353285614047" y2="170.6714862182203" stroke="black"></line><line id="SvgjsLine25206" x1="415.8497886257295" y1="276.43534580413353" x2="346.6301811095337" y2="64.97019069768444" stroke="black"></line><line id="SvgjsLine25207" x1="415.24998334078225" y1="278.53576005970615" x2="319.3180009761074" y2="398.06453283042845" stroke="black"></line><line id="SvgjsLine25208" x1="414.6273022303749" y1="280.62950662020603" x2="23.714258483892564" y2="242.12793235099448" stroke="black"></line><line id="SvgjsLine25209" x1="413.98181938733245" y1="282.71633635073067" x2="283.21633635073067" y2="31.51818061266755" stroke="black"></line><line id="SvgjsLine25210" x1="413.31361161765835" y1="284.79600093941093" x2="374.98720306974417" y2="352.8838663448678" stroke="black"></line><line id="SvgjsLine25211" x1="412.6227584313949" y1="286.86825292695806" x2="43.40123350807917" y2="311.06831021635503" stroke="black"></line><line id="SvgjsLine25212" x1="411.9093420331625" y1="288.93284573610873" x2="212.08347104698925" y2="22.547775967312447" stroke="black"></line><line id="SvgjsLine25213" x1="411.17344731237813" y1="290.9895337009651" x2="223" y2="22.25" stroke="black"></line><line id="SvgjsLine25214" x1="410.41516183315446" y1="293.038072096227" x2="86.11064151992008" y2="368.65528055774166" stroke="black"></line><line id="SvgjsLine25215" x1="409.63457582388037" y1="295.0782171663112" x2="142.34997535578782" y2="39.20887630633072" stroke="black"></line><line id="SvgjsLine25216" x1="408.83178216648497" y1="297.1097261543566" x2="423.23808612628" y2="220.31565467828997" stroke="black"></line><line id="SvgjsLine25217" x1="408.00687638538517" y1="299.13235733110923" x2="146.3676426688908" y2="407.5068763853852" stroke="black"></line><line id="SvgjsLine25218" x1="407.1599566361197" y1="301.1458700236859" x2="82.9548568377258" y2="79.36572605885715" stroke="black"></line><line id="SvgjsLine25219" x1="406.2911236936693" y1="303.1500246442121" x2="409.63457582388037" y2="149.92178283368872" stroke="black"></line><line id="SvgjsLine25220" x1="405.4004809404655" y1="305.14458271833" x2="216.4480036649393" y2="422.64278364214226" stroke="black"></line><line id="SvgjsLine25221" x1="404.4881343540892" y1="307.129306913575" x2="41.511865645910774" y2="137.87069308642506" stroke="black"></line><line id="SvgjsLine25222" x1="403.5541924946604" y1="309.1039610676158" x2="372.1067251765383" y2="88.83157812284804" stroke="black"></line><line id="SvgjsLine25223" x1="402.59876649192086" y1="311.068310216355" x2="287.3682529269581" y2="412.1227584313949" stroke="black"></line><line id="SvgjsLine25224" x1="401.62197003201015" y1="313.0221206218881" x2="23.333502006030557" y2="207.22413410558357" stroke="black"></line><line id="SvgjsLine25225" x1="400.62391934393895" y1="314.9651598003155" x2="315.4651598003155" y2="44.876080656061106" stroke="black"></line><line id="SvgjsLine25226" x1="399.6047331857581" y1="316.89719654940603" x2="350.03725515377" y2="377.29534328588807" stroke="black"></line><line id="SvgjsLine25227" x1="398.56453283042845" y1="318.8180009761073" x2="30.750016659217806" y2="278.5357600597062" stroke="black"></line><line id="SvgjsLine25228" x1="397.5034420513898" y1="320.7273445239014" x2="246.97065697481875" y2="23.689864181436718" stroke="black"></line><line id="SvgjsLine25229" x1="396.42158710783383" y1="322.62499999999994" x2="223" y2="22.25" stroke="black"></line><line id="SvgjsLine25230" x1="395.3190967296798" y1="324.5107416023786" x2="62.81070033869909" y2="342.6642657948774" stroke="black"></line><line id="SvgjsLine25231" x1="394.19610210225756" y1="326.38434494664443" x2="175.40340006168375" y2="27.98875051989441" stroke="black"></line><line id="SvgjsLine25232" x1="393.05273685069744" y1="328.2455870927362" x2="420.57532724999703" y2="255.1198185472664" stroke="black"></line><line id="SvgjsLine25233" x1="391.88913702403033" y1="330.0942465714515" x2="115.40575342854852" y2="391.38913702403033" stroke="black"></line><line id="SvgjsLine25234" x1="390.7054410789994" y1="331.93010341079946" x2="109.93746307364623" y2="57.2216733997561" stroke="black"></line><line id="SvgjsLine25235" x1="389.5017898635847" y1="333.75293916217527" x2="419.4022524007469" y2="183.4331630162703" stroke="black"></line><line id="SvgjsLine25236" x1="388.278326600244" y1="335.5625369263537" x2="181.7931135588799" y2="418.4644228165629" stroke="black"></line><line id="SvgjsLine25237" x1="387.0351968688707" y1="337.3586813792969" x2="58.9648031311294" y2="107.64131862070303" stroke="black"></line><line id="SvgjsLine25238" x1="385.77254858947094" y1="339.1411587977774" x2="393.05273685069744" y2="116.75441290726378" stroke="black"></line><line id="SvgjsLine25239" x1="384.4905320045634" y1="340.9097570848073" x2="253.4627080845309" y2="420.4193924711691" stroke="black"></line><line id="SvgjsLine25240" x1="383.189299661301" y1="342.6642657948773" x2="29.01951103359221" y2="172.78448531541335" stroke="black"></line><line id="SvgjsLine25241" x1="381.86900639331986" y1="344.4044761589963" x2="344.9044761589963" y2="63.630993606680164" stroke="black"></line><line id="SvgjsLine25242" x1="380.5298093023156" y1="346.1301811095336" x2="321.2273445239015" y2="397.0034420513898" stroke="black"></line><line id="SvgjsLine25243" x1="379.1718677393496" y1="347.8411753048578" x2="23.940218270980523" y2="244.300591689106" stroke="black"></line><line id="SvgjsLine25244" x1="377.79534328588807" y1="349.53725515377" x2="281.1295066202061" y2="30.872697769625177" stroke="black"></line><line id="SvgjsLine25245" x1="376.40039973457533" y1="351.2182188397295" x2="223" y2="22.25" stroke="black"></line><line id="SvgjsLine25246" x1="374.98720306974417" y1="352.8838663448678" x2="44.37802996798982" y2="313.0221206218881" stroke="black"></line><line id="SvgjsLine25247" x1="373.55592144766524" y1="354.53399947378875" x2="209.9030233716639" y2="22.678750621469646" stroke="black"></line><line id="SvgjsLine25248" x1="372.10672517653836" y1="356.1684218771519" x2="411.9093420331625" y2="288.93284573610873" stroke="black"></line><line id="SvgjsLine25249" x1="370.63978669622736" y1="357.786939075036" x2="87.71306092496405" y2="370.13978669622736" stroke="black"></line><line id="SvgjsLine25250" x1="369.15528055774155" y1="359.38935848008" x2="140.35541728166982" y2="40.09951905953463" stroke="black"></line><line id="SvgjsLine25251" x1="367.65338340246603" y1="360.9754894203994" x2="423.2023459227518" y2="218.13156927182914" stroke="black"></line><line id="SvgjsLine25252" x1="366.13427394114274" y1="362.54514316227426" x2="148.39027384564343" y2="408.33178216648497" stroke="black"></line><line id="SvgjsLine25253" x1="364.5981329326062" y1="364.0981329326061" x2="81.40186706739382" y2="80.90186706739388" stroke="black"></line><line id="SvgjsLine25254" x1="363.04514316227426" y1="365.63427394114274" x2="408.8317821664849" y2="147.89027384564338" stroke="black"></line><line id="SvgjsLine25255" x1="361.47548942039947" y1="367.15338340246603" x2="218.63156927182916" y2="422.7023459227518" stroke="black"></line><line id="SvgjsLine25256" x1="359.88935848008003" y1="368.65528055774155" x2="40.59951905953457" y2="139.85541728166987" stroke="black"></line><line id="SvgjsLine25257" x1="358.286939075036" y1="370.13978669622736" x2="370.63978669622736" y2="87.21306092496403" stroke="black"></line><line id="SvgjsLine25258" x1="356.6684218771519" y1="371.60672517653836" x2="289.43284573610873" y2="411.4093420331625" stroke="black"></line><line id="SvgjsLine25259" x1="355.0339994737888" y1="373.05592144766524" x2="23.178750621469618" y2="209.403023371664" stroke="black"></line><line id="SvgjsLine25260" x1="353.3838663448678" y1="374.48720306974417" x2="313.5221206218881" y2="43.87802996798982" stroke="black"></line><line id="SvgjsLine25261" x1="351.7182188397295" y1="375.90039973457533" x2="223" y2="22.25" stroke="black"></line><line id="SvgjsLine25262" x1="350.03725515377" y1="377.29534328588807" x2="31.372697769625177" y2="280.6295066202061" stroke="black"></line><line id="SvgjsLine25263" x1="348.34117530485787" y1="378.6718677393495" x2="244.80059168910591" y2="23.440218270980495" stroke="black"></line><line id="SvgjsLine25264" x1="346.6301811095337" y1="380.0298093023156" x2="397.5034420513898" y2="320.7273445239014" stroke="black"></line><line id="SvgjsLine25265" x1="344.9044761589964" y1="381.3690063933198" x2="64.13099360668019" y2="344.4044761589964" stroke="black"></line><line id="SvgjsLine25266" x1="343.16426579487734" y1="382.689299661301" x2="173.2844853154133" y2="28.519511033592238" stroke="black"></line><line id="SvgjsLine25267" x1="341.4097570848073" y1="383.9905320045634" x2="420.9193924711691" y2="252.96270808453082" stroke="black"></line><line id="SvgjsLine25268" x1="339.6411587977774" y1="385.27254858947094" x2="117.2544129072639" y2="392.5527368506975" stroke="black"></line><line id="SvgjsLine25269" x1="337.85868137929697" y1="386.5351968688706" x2="108.14131862070295" y2="58.46480313112943" stroke="black"></line><line id="SvgjsLine25270" x1="336.0625369263537" y1="387.778326600244" x2="418.9644228165629" y2="181.29311355887995" stroke="black"></line><line id="SvgjsLine25271" x1="334.2529391621753" y1="389.0017898635847" x2="183.9331630162703" y2="418.9022524007469" stroke="black"></line><line id="SvgjsLine25272" x1="332.43010341079946" y1="390.2054410789994" x2="57.72167339975604" y2="109.4374630736463" stroke="black"></line><line id="SvgjsLine25273" x1="330.59424657145155" y1="391.38913702403033" x2="391.88913702403033" y2="114.90575342854852" stroke="black"></line><line id="SvgjsLine25274" x1="328.74558709273623" y1="392.55273685069744" x2="255.61981854726642" y2="420.07532724999703" stroke="black"></line><line id="SvgjsLine25275" x1="326.8843449466445" y1="393.69610210225756" x2="28.48875051989441" y2="174.90340006168384" stroke="black"></line><line id="SvgjsLine25276" x1="325.0107416023786" y1="394.8190967296798" x2="343.1642657948773" y2="62.31070033869901" stroke="black"></line><line id="SvgjsLine25277" x1="323.125" y1="395.92158710783383" x2="223" y2="22.25" stroke="black"></line><line id="SvgjsLine25278" x1="321.2273445239015" y1="397.0034420513898" x2="24.189864181436718" y2="246.4706569748188" stroke="black"></line><line id="SvgjsLine25279" x1="319.3180009761074" y1="398.06453283042845" x2="279.03576005970615" y2="30.250016659217778" stroke="black"></line><line id="SvgjsLine25280" x1="317.3971965494061" y1="399.10473318575805" x2="377.79534328588807" y2="349.53725515377" stroke="black"></line><line id="SvgjsLine25281" x1="315.4651598003155" y1="400.1239193439389" x2="45.37608065606108" y2="314.96515980031546" stroke="black"></line><line id="SvgjsLine25282" x1="313.5221206218881" y1="401.12197003201015" x2="207.72413410558346" y2="22.833502006030557" stroke="black"></line><line id="SvgjsLine25283" x1="311.56831021635503" y1="402.09876649192086" x2="412.6227584313949" y2="286.86825292695806" stroke="black"></line><line id="SvgjsLine25284" x1="309.60396106761584" y1="403.05419249466036" x2="89.3315781228481" y2="371.60672517653836" stroke="black"></line><line id="SvgjsLine25285" x1="307.6293069135751" y1="403.98813435408914" x2="138.37069308642498" y2="41.01186564591083" stroke="black"></line><line id="SvgjsLine25286" x1="305.64458271833" y1="404.9004809404655" x2="423.14278364214226" y2="215.94800366493934" stroke="black"></line><line id="SvgjsLine25287" x1="303.6500246442121" y1="405.7911236936693" x2="150.42178283368878" y2="409.13457582388037" stroke="black"></line><line id="SvgjsLine25288" x1="301.6458700236859" y1="406.6599566361197" x2="79.86572605885709" y2="82.45485683772586" stroke="black"></line><line id="SvgjsLine25289" x1="299.63235733110923" y1="407.50687638538517" x2="408.00687638538517" y2="145.86764266889077" stroke="black"></line><line id="SvgjsLine25290" x1="297.6097261543567" y1="408.3317821664849" x2="220.81565467828997" y2="422.73808612628" stroke="black"></line><line id="SvgjsLine25291" x1="295.5782171663113" y1="409.13457582388037" x2="39.708876306330694" y2="141.84997535578793" stroke="black"></line><line id="SvgjsLine25292" x1="293.5380720962271" y1="409.91516183315446" x2="369.1552805577416" y2="85.61064151992002" stroke="black"></line><line id="SvgjsLine25293" x1="291.4895337009652" y1="410.67344731237813" x2="223" y2="22.25" stroke="black"></line><line id="SvgjsLine25294" x1="289.43284573610873" y1="411.4093420331625" x2="23.047775967312447" y2="211.58347104698933" stroke="black"></line><line id="SvgjsLine25295" x1="287.3682529269581" y1="412.1227584313949" x2="311.56831021635503" y2="42.90123350807917" stroke="black"></line><line id="SvgjsLine25296" x1="285.29600093941093" y1="412.81361161765835" x2="353.3838663448678" y2="374.48720306974417" stroke="black"></line><line id="SvgjsLine25297" x1="283.2163363507307" y1="413.4818193873324" x2="32.01818061266761" y2="282.71633635073084" stroke="black"></line><line id="SvgjsLine25298" x1="281.1295066202061" y1="414.1273022303748" x2="242.6279323509945" y2="23.214258483892564" stroke="black"></line><line id="SvgjsLine25299" x1="279.0357600597062" y1="414.7499833407822" x2="398.56453283042845" y2="318.8180009761073" stroke="black"></line><line id="SvgjsLine25300" x1="276.93534580413353" y1="415.3497886257295" x2="65.47019069768444" y2="346.1301811095337" stroke="black"></line><line id="SvgjsLine25301" x1="274.82851378177986" y1="415.9266467143859" x2="171.17148621822022" y2="29.073353285614076" stroke="black"></line><line id="SvgjsLine25302" x1="272.7155146845867" y1="416.48048896640773" x2="421.2399072638903" y2="250.80197286416933" stroke="black"></line><line id="SvgjsLine25303" x1="270.5965999383161" y1="417.01124948010556" x2="119.11565505335555" y2="393.69610210225756" stroke="black"></line><line id="SvgjsLine25304" x1="268.4720216726332" y1="417.51886510028606" x2="106.35884120222259" y2="59.727451410529056" stroke="black"></line><line id="SvgjsLine25305" x1="266.3420326911051" y1="418.0032754257667" x2="418.5032754257667" y2="179.1579673088949" stroke="black"></line><line id="SvgjsLine25306" x1="264.20688644112005" y1="418.4644228165629" x2="186.07786103658177" y2="419.3167120809766" stroke="black"></line><line id="SvgjsLine25307" x1="262.06683698372973" y1="418.9022524007469" x2="56.49821013641528" y2="111.24706083782473" stroke="black"></line><line id="SvgjsLine25308" x1="259.9221389634184" y1="419.3167120809766" x2="390.7054410789994" y2="113.06989658920055" stroke="black"></line><line id="SvgjsLine25309" x1="257.77304757780286" y1="419.7077525406946" x2="223" y2="22.25" stroke="black"></line><line id="SvgjsLine25310" x1="255.61981854726642" y1="420.07532724999703" x2="27.981134899713936" y2="177.02797832736672" stroke="black"></line><line id="SvgjsLine25311" x1="253.4627080845309" y1="420.4193924711691" x2="341.4097570848074" y2="61.00946799543661" stroke="black"></line><line id="SvgjsLine25312" x1="251.30197286416944" y1="420.73990726389025" x2="325.0107416023786" y2="394.8190967296798" stroke="black"></line><line id="SvgjsLine25313" x1="249.13786999206533" y1="421.03683349010555" x2="24.463166509894478" y2="248.63786999206533" stroke="black"></line><line id="SvgjsLine25314" x1="246.97065697481878" y1="421.31013581856325" x2="276.9353458041335" y2="29.650211374270526" stroke="black"></line><line id="SvgjsLine25315" x1="244.80059168910591" y1="421.5597817290195" x2="379.1718677393496" y2="347.8411753048578" stroke="black"></line><line id="SvgjsLine25316" x1="242.62793235099457" y1="421.7857415161074" x2="46.39526681424192" y2="316.8971965494061" stroke="black"></line><line id="SvgjsLine25317" x1="240.45293748521854" y1="421.98798829287205" x2="205.54706251478143" y2="23.012011707127954" stroke="black"></line><line id="SvgjsLine25318" x1="238.2758658944165" y1="422.1664979939694" x2="413.31361161765835" y2="284.79600093941093" stroke="black"></line><line id="SvgjsLine25319" x1="236.09697662833617" y1="422.32124937853035" x2="90.96600052621122" y2="373.05592144766524" stroke="black"></line><line id="SvgjsLine25320" x1="233.9165289530108" y1="422.4522240326876" x2="136.39603893238416" y2="41.945807505339616" stroke="black"></line><line id="SvgjsLine25321" x1="231.73478231990856" y1="422.559406371767" x2="423.059406371767" y2="213.76521768009147" stroke="black"></line><line id="SvgjsLine25322" x1="229.55199633506064" y1="422.64278364214226" x2="152.46192790377305" y2="409.9151618331545" stroke="black"></line><line id="SvgjsLine25323" x1="227.3684307281709" y1="422.7023459227518" x2="78.346616597534" y2="84.02451057960053" stroke="black"></line><line id="SvgjsLine25324" x1="225.18434532171" y1="422.73808612628" x2="407.1599566361197" y2="143.85412997631403" stroke="black"></line><line id="SvgjsLine25325" x1="223.00000000000003" y1="422.75" x2="223" y2="22.25" stroke="black"></line><line id="SvgjsLine25326" x1="220.81565467828997" y1="422.73808612628" x2="38.840043363880284" y2="143.85412997631403" stroke="black"></line><line id="SvgjsLine25327" x1="218.63156927182916" y1="422.7023459227518" x2="367.65338340246603" y2="84.02451057960056" stroke="black"></line><line id="SvgjsLine25328" x1="216.4480036649393" y1="422.64278364214226" x2="293.5380720962271" y2="409.91516183315446" stroke="black"></line><line id="SvgjsLine25329" x1="214.2652176800915" y1="422.559406371767" x2="22.94059362823299" y2="213.76521768009152" stroke="black"></line><line id="SvgjsLine25330" x1="212.08347104698922" y1="422.4522240326876" x2="309.6039610676158" y2="41.94580750533959" stroke="black"></line><line id="SvgjsLine25331" x1="209.9030233716639" y1="422.32124937853035" x2="355.0339994737888" y2="373.05592144766524" stroke="black"></line><line id="SvgjsLine25332" x1="207.72413410558354" y1="422.1664979939694" x2="32.68638838234165" y2="284.79600093941104" stroke="black"></line><line id="SvgjsLine25333" x1="205.5470625147815" y1="421.98798829287205" x2="240.45293748521854" y2="23.012011707127954" stroke="black"></line><line id="SvgjsLine25334" x1="203.3720676490055" y1="421.78574151610746" x2="399.6047331857581" y2="316.89719654940603" stroke="black"></line><line id="SvgjsLine25335" x1="201.19940831089406" y1="421.5597817290195" x2="66.82813226065039" y2="347.8411753048578" stroke="black"></line><line id="SvgjsLine25336" x1="199.02934302518128" y1="421.31013581856325" x2="169.06465419586638" y2="29.650211374270555" stroke="black"></line><line id="SvgjsLine25337" x1="196.86213000793464" y1="421.03683349010555" x2="421.53683349010555" y2="248.63786999206528" stroke="black"></line><line id="SvgjsLine25338" x1="194.6980271358306" y1="420.73990726389025" x2="120.98925839762146" y2="394.8190967296798" stroke="black"></line><line id="SvgjsLine25339" x1="192.53729191546915" y1="420.4193924711691" x2="104.59024291519263" y2="61.00946799543661" stroke="black"></line><line id="SvgjsLine25340" x1="190.38018145273372" y1="420.07532724999703" x2="418.01886510028606" y2="177.02797832736675" stroke="black"></line><line id="SvgjsLine25341" x1="188.22695242219717" y1="419.7077525406946" x2="223" y2="22.25" stroke="black"></line><line id="SvgjsLine25342" x1="186.07786103658177" y1="419.3167120809766" x2="55.29455892100057" y2="113.0698965892006" stroke="black"></line><line id="SvgjsLine25343" x1="183.9331630162703" y1="418.9022524007469" x2="389.5017898635847" y2="111.24706083782465" stroke="black"></line><line id="SvgjsLine25344" x1="181.7931135588799" y1="418.4644228165629" x2="259.9221389634184" y2="419.3167120809766" stroke="black"></line><line id="SvgjsLine25345" x1="179.65796730889497" y1="418.0032754257667" x2="27.496724574233326" y2="179.15796730889497" stroke="black"></line><line id="SvgjsLine25346" x1="177.52797832736672" y1="417.51886510028606" x2="339.6411587977774" y2="59.727451410529056" stroke="black"></line><line id="SvgjsLine25347" x1="175.40340006168393" y1="417.0112494801056" x2="326.8843449466445" y2="393.69610210225756" stroke="black"></line><line id="SvgjsLine25348" x1="173.28448531541335" y1="416.4804889664078" x2="24.760092736109698" y2="250.80197286416936" stroke="black"></line><line id="SvgjsLine25349" x1="171.1714862182203" y1="415.9266467143859" x2="274.82851378177975" y2="29.073353285614076" stroke="black"></line><line id="SvgjsLine25350" x1="169.06465419586652" y1="415.3497886257295" x2="380.5298093023156" y2="346.1301811095336" stroke="black"></line><line id="SvgjsLine25351" x1="166.9642399402939" y1="414.74998334078225" x2="47.43546716957158" y2="318.8180009761074" stroke="black"></line><line id="SvgjsLine25352" x1="164.87049337979397" y1="414.1273022303749" x2="203.37206764900552" y2="23.214258483892564" stroke="black"></line><line id="SvgjsLine25353" x1="162.78366364926933" y1="413.48181938733245" x2="413.98181938733245" y2="282.71633635073067" stroke="black"></line><line id="SvgjsLine25354" x1="160.7039990605891" y1="412.81361161765835" x2="92.61613365513224" y2="374.48720306974417" stroke="black"></line><line id="SvgjsLine25355" x1="158.6317470730419" y1="412.1227584313949" x2="134.43168978364497" y2="42.90123350807917" stroke="black"></line><line id="SvgjsLine25356" x1="156.5671542638913" y1="411.4093420331625" x2="422.9522240326876" y2="211.58347104698925" stroke="black"></line><line id="SvgjsLine25357" x1="154.51046629903485" y1="410.67344731237813" x2="223" y2="22.25" stroke="black"></line><line id="SvgjsLine25358" x1="152.46192790377305" y1="409.9151618331545" x2="76.84471944225837" y2="85.61064151992008" stroke="black"></line><line id="SvgjsLine25359" x1="150.42178283368878" y1="409.13457582388037" x2="406.2911236936693" y2="141.84997535578788" stroke="black"></line><line id="SvgjsLine25360" x1="148.39027384564343" y1="408.33178216648497" x2="225.18434532171" y2="422.73808612628" stroke="black"></line><line id="SvgjsLine25361" x1="146.3676426688908" y1="407.5068763853852" x2="37.99312361461486" y2="145.8676426688907" stroke="black"></line><line id="SvgjsLine25362" x1="144.35412997631403" y1="406.65995663611966" x2="366.1342739411428" y2="82.45485683772574" stroke="black"></line><line id="SvgjsLine25363" x1="142.3499753557879" y1="405.7911236936693" x2="295.5782171663113" y2="409.13457582388037" stroke="black"></line><line id="SvgjsLine25364" x1="140.35541728166993" y1="404.90048094046546" x2="22.857216357857766" y2="215.94800366493934" stroke="black"></line><line id="SvgjsLine25365" x1="138.37069308642498" y1="403.9881343540892" x2="307.6293069135751" y2="41.01186564591086" stroke="black"></line><line id="SvgjsLine25366" x1="136.39603893238422" y1="403.0541924946604" x2="356.6684218771519" y2="371.60672517653836" stroke="black"></line><line id="SvgjsLine25367" x1="134.43168978364503" y1="402.09876649192086" x2="33.377241568605115" y2="286.8682529269581" stroke="black"></line><line id="SvgjsLine25368" x1="132.47787937811188" y1="401.12197003201015" x2="238.27586589441646" y2="22.833502006030557" stroke="black"></line><line id="SvgjsLine25369" x1="130.53484019968448" y1="400.12391934393895" x2="400.62391934393895" y2="314.9651598003155" stroke="black"></line><line id="SvgjsLine25370" x1="128.60280345059397" y1="399.1047331857581" x2="68.20465671411199" y2="349.5372551537701" stroke="black"></line><line id="SvgjsLine25371" x1="126.68199902389259" y1="398.0645328304284" x2="166.96423994029377" y2="30.250016659217806" stroke="black"></line><line id="SvgjsLine25372" x1="124.77265547609859" y1="397.0034420513898" x2="421.81013581856325" y2="246.4706569748187" stroke="black"></line><line id="SvgjsLine25373" x1="122.87499999999997" y1="395.92158710783383" x2="223" y2="22.25" stroke="black"></line><line id="SvgjsLine25374" x1="120.98925839762146" y1="394.8190967296798" x2="102.83573420512259" y2="62.31070033869912" stroke="black"></line><line id="SvgjsLine25375" x1="119.11565505335555" y1="393.69610210225756" x2="417.51124948010556" y2="174.90340006168384" stroke="black"></line><line id="SvgjsLine25376" x1="117.2544129072639" y1="392.5527368506975" x2="190.38018145273372" y2="420.07532724999703" stroke="black"></line><line id="SvgjsLine25377" x1="115.40575342854852" y1="391.38913702403033" x2="54.11086297596964" y2="114.90575342854852" stroke="black"></line><line id="SvgjsLine25378" x1="113.56989658920064" y1="390.20544107899946" x2="388.278326600244" y2="109.43746307364633" stroke="black"></line><line id="SvgjsLine25379" x1="111.7470608378247" y1="389.0017898635847" x2="262.06683698372973" y2="418.9022524007469" stroke="black"></line><line id="SvgjsLine25380" x1="109.9374630736463" y1="387.778326600244" x2="27.035577183437113" y2="181.29311355888" stroke="black"></line><line id="SvgjsLine25381" x1="108.14131862070307" y1="386.5351968688707" x2="337.85868137929697" y2="58.4648031311294" stroke="black"></line><line id="SvgjsLine25382" x1="106.35884120222258" y1="385.27254858947094" x2="328.74558709273623" y2="392.55273685069744" stroke="black"></line><line id="SvgjsLine25383" x1="104.5902429151927" y1="383.9905320045634" x2="25.08060752883094" y2="252.9627080845309" stroke="black"></line><line id="SvgjsLine25384" x1="102.83573420512273" y1="382.689299661301" x2="272.7155146845867" y2="28.519511033592238" stroke="black"></line><line id="SvgjsLine25385" x1="101.09552384100375" y1="381.36900639331986" x2="381.86900639331986" y2="344.4044761589963" stroke="black"></line><line id="SvgjsLine25386" x1="99.36981889046638" y1="380.0298093023156" x2="48.49655794861013" y2="320.72734452390137" stroke="black"></line><line id="SvgjsLine25387" x1="97.65882469514223" y1="378.67186773934964" x2="201.19940831089397" y2="23.440218270980523" stroke="black"></line><line id="SvgjsLine25388" x1="95.96274484623004" y1="377.29534328588807" x2="414.6273022303749" y2="280.62950662020603" stroke="black"></line><line id="SvgjsLine25389" x1="94.28178116027053" y1="375.90039973457533" x2="223" y2="22.25" stroke="black"></line><line id="SvgjsLine25390" x1="92.61613365513224" y1="374.48720306974417" x2="132.47787937811188" y2="43.87802996798982" stroke="black"></line><line id="SvgjsLine25391" x1="90.96600052621122" y1="373.05592144766524" x2="422.82124937853035" y2="209.40302337166386" stroke="black"></line><line id="SvgjsLine25392" x1="89.3315781228481" y1="371.60672517653836" x2="156.5671542638913" y2="411.4093420331625" stroke="black"></line><line id="SvgjsLine25393" x1="87.71306092496405" y1="370.13978669622736" x2="75.36021330377264" y2="87.21306092496405" stroke="black"></line><line id="SvgjsLine25394" x1="86.11064151992008" y1="368.65528055774166" x2="405.40048094046546" y2="139.85541728166996" stroke="black"></line><line id="SvgjsLine25395" x1="84.52451057960059" y1="367.15338340246603" x2="227.3684307281709" y2="422.7023459227518" stroke="black"></line><line id="SvgjsLine25396" x1="82.9548568377258" y1="365.63427394114285" x2="37.16821783351503" y2="147.89027384564343" stroke="black"></line><line id="SvgjsLine25397" x1="81.40186706739388" y1="364.0981329326062" x2="364.5981329326061" y2="80.90186706739385" stroke="black"></line><line id="SvgjsLine25398" x1="79.8657260588572" y1="362.54514316227426" x2="297.6097261543567" y2="408.3317821664849" stroke="black"></line><line id="SvgjsLine25399" x1="78.34661659753397" y1="360.97548942039947" x2="22.797654077248183" y2="218.13156927182928" stroke="black"></line><line id="SvgjsLine25400" x1="76.8447194422584" y1="359.38935848008" x2="305.64458271833" y2="40.09951905953454" stroke="black"></line><line id="SvgjsLine25401" x1="75.3602133037727" y1="357.786939075036" x2="358.286939075036" y2="370.13978669622736" stroke="black"></line><line id="SvgjsLine25402" x1="73.89327482346167" y1="356.16842187715196" x2="34.09065796683751" y2="288.9328457361088" stroke="black"></line><line id="SvgjsLine25403" x1="72.44407855233479" y1="354.53399947378887" x2="236.09697662833614" y2="22.678750621469646" stroke="black"></line><line id="SvgjsLine25404" x1="71.01279693025583" y1="352.8838663448678" x2="401.62197003201015" y2="313.0221206218881" stroke="black"></line><line id="SvgjsLine25405" x1="69.59960026542467" y1="351.2182188397295" x2="223" y2="22.25" stroke="black"></line><line id="SvgjsLine25406" x1="68.20465671411199" y1="349.5372551537701" x2="164.87049337979388" y2="30.872697769625177" stroke="black"></line><line id="SvgjsLine25407" x1="66.82813226065039" y1="347.8411753048578" x2="422.0597817290195" y2="244.30059168910586" stroke="black"></line><line id="SvgjsLine25408" x1="65.47019069768444" y1="346.1301811095337" x2="124.77265547609859" y2="397.0034420513898" stroke="black"></line><line id="SvgjsLine25409" x1="64.13099360668019" y1="344.4044761589964" x2="101.09552384100364" y2="63.63099360668019" stroke="black"></line><line id="SvgjsLine25410" x1="62.81070033869909" y1="342.6642657948774" x2="416.98048896640773" y2="172.78448531541332" stroke="black"></line><line id="SvgjsLine25411" x1="61.50946799543661" y1="340.9097570848073" x2="192.53729191546915" y2="420.4193924711691" stroke="black"></line><line id="SvgjsLine25412" x1="60.227451410529056" y1="339.1411587977774" x2="52.9472631493025" y2="116.75441290726393" stroke="black"></line><line id="SvgjsLine25413" x1="58.96480313112943" y1="337.358681379297" x2="387.03519686887057" y2="107.641318620703" stroke="black"></line><line id="SvgjsLine25414" x1="57.7216733997561" y1="335.5625369263538" x2="264.20688644112005" y2="418.4644228165629" stroke="black"></line><line id="SvgjsLine25415" x1="56.49821013641531" y1="333.7529391621753" x2="26.597747599253097" y2="183.4331630162703" stroke="black"></line><line id="SvgjsLine25416" x1="55.2945589210006" y1="331.93010341079946" x2="336.0625369263537" y2="57.22167339975604" stroke="black"></line><line id="SvgjsLine25417" x1="54.11086297596967" y1="330.09424657145155" x2="330.59424657145155" y2="391.38913702403033" stroke="black"></line><line id="SvgjsLine25418" x1="52.94726314930256" y1="328.2455870927362" x2="25.424672750002998" y2="255.11981854726645" stroke="black"></line><line id="SvgjsLine25419" x1="51.803897897742445" y1="326.38434494664443" x2="270.59659993831616" y2="27.98875051989441" stroke="black"></line><line id="SvgjsLine25420" x1="50.680903270320215" y1="324.51074160237863" x2="383.189299661301" y2="342.6642657948773" stroke="black"></line><line id="SvgjsLine25421" x1="49.57841289216623" y1="322.6250000000001" x2="223" y2="22.25" stroke="black"></line><line id="SvgjsLine25422" x1="48.49655794861013" y1="320.72734452390137" x2="199.0293430251812" y2="23.689864181436747" stroke="black"></line><line id="SvgjsLine25423" x1="47.43546716957158" y1="318.8180009761074" x2="415.24998334078225" y2="278.53576005970615" stroke="black"></line><line id="SvgjsLine25424" x1="46.39526681424192" y1="316.8971965494061" x2="95.96274484623004" y2="377.29534328588807" stroke="black"></line><line id="SvgjsLine25425" x1="45.37608065606108" y1="314.96515980031546" x2="130.5348401996845" y2="44.87608065606108" stroke="black"></line><line id="SvgjsLine25426" x1="44.37802996798982" y1="313.0221206218881" x2="422.6664979939694" y2="207.22413410558352" stroke="black"></line><line id="SvgjsLine25427" x1="43.40123350807917" y1="311.06831021635503" x2="158.6317470730419" y2="412.1227584313949" stroke="black"></line><line id="SvgjsLine25428" x1="42.445807505339616" y1="309.10396106761584" x2="73.8932748234617" y2="88.83157812284804" stroke="black"></line><line id="SvgjsLine25429" x1="41.51186564591083" y1="307.129306913575" x2="404.48813435408914" y2="137.87069308642492" stroke="black"></line><line id="SvgjsLine25430" x1="40.59951905953463" y1="305.1445827183302" x2="229.55199633506064" y2="422.64278364214226" stroke="black"></line><line id="SvgjsLine25431" x1="39.70887630633072" y1="303.1500246442122" x2="36.3654241761196" y2="149.92178283368878" stroke="black"></line><line id="SvgjsLine25432" x1="38.84004336388031" y1="301.14587002368603" x2="363.04514316227426" y2="79.3657260588572" stroke="black"></line><line id="SvgjsLine25433" x1="37.99312361461489" y1="299.13235733110935" x2="299.63235733110923" y2="407.50687638538517" stroke="black"></line><line id="SvgjsLine25434" x1="37.16821783351503" y1="297.1097261543566" x2="22.761913873720005" y2="220.3156546782899" stroke="black"></line><line id="SvgjsLine25435" x1="36.3654241761196" y1="295.0782171663113" x2="303.6500246442121" y2="39.20887630633072" stroke="black"></line><line id="SvgjsLine25436" x1="35.584838166845486" y1="293.0380720962269" x2="359.88935848008003" y2="368.65528055774155" stroke="black"></line><line id="SvgjsLine25437" x1="34.82655268762187" y1="290.9895337009653" x2="223" y2="22.25" stroke="black"></line><line id="SvgjsLine25438" x1="34.09065796683751" y1="288.9328457361088" x2="233.91652895301075" y2="22.547775967312447" stroke="black"></line><line id="SvgjsLine25439" x1="33.377241568605115" y1="286.8682529269581" x2="402.59876649192086" y2="311.068310216355" stroke="black"></line><line id="SvgjsLine25440" x1="32.68638838234165" y1="284.79600093941104" x2="71.01279693025583" y2="352.8838663448678" stroke="black"></line><line id="SvgjsLine25441" x1="32.01818061266761" y1="282.71633635073084" x2="162.78366364926916" y2="31.518180612667607" stroke="black"></line><line id="SvgjsLine25442" x1="31.372697769625177" y1="280.6295066202061" x2="422.28574151610746" y2="242.1279323509945" stroke="black"></line><line id="SvgjsLine25443" x1="30.750016659217806" y1="278.5357600597062" x2="126.68199902389259" y2="398.0645328304284" stroke="black"></line><line id="SvgjsLine25444" x1="30.150211374270555" y1="276.4353458041336" x2="99.36981889046632" y2="64.97019069768444" stroke="black"></line><line id="SvgjsLine25445" x1="29.573353285614076" y1="274.32851378177975" x2="416.4266467143859" y2="170.67148621822022" stroke="black"></line><line id="SvgjsLine25446" x1="29.019511033592238" y1="272.2155146845867" x2="194.6980271358306" y2="420.73990726389025" stroke="black"></line><line id="SvgjsLine25447" x1="28.48875051989441" y1="270.0965999383162" x2="51.80389789774239" y2="118.61565505335565" stroke="black"></line><line id="SvgjsLine25448" x1="27.981134899713965" y1="267.97202167263333" x2="385.77254858947094" y2="105.85884120222259" stroke="black"></line><line id="SvgjsLine25449" x1="27.496724574233355" y1="265.8420326911051" x2="266.3420326911051" y2="418.0032754257667" stroke="black"></line><line id="SvgjsLine25450" x1="27.035577183437113" y1="263.70688644112005" x2="26.1832879190234" y2="185.5778610365818" stroke="black"></line><line id="SvgjsLine25451" x1="26.597747599253125" y1="261.5668369837298" x2="334.2529391621753" y2="55.99821013641531" stroke="black"></line><line id="SvgjsLine25452" x1="26.183287919023428" y1="259.4221389634183" x2="332.43010341079946" y2="390.2054410789994" stroke="black"></line><line id="SvgjsLine25453" x1="25.792247459305344" y1="257.2730475778028" x2="223" y2="22.25" stroke="black"></line><line id="SvgjsLine25454" x1="25.424672750002998" y1="255.11981854726645" x2="268.4720216726332" y2="27.481134899713936" stroke="black"></line><line id="SvgjsLine25455" x1="25.08060752883094" y1="252.9627080845309" x2="384.4905320045634" y2="340.9097570848073" stroke="black"></line><line id="SvgjsLine25456" x1="24.760092736109698" y1="250.80197286416936" x2="50.680903270320215" y2="324.51074160237863" stroke="black"></line><line id="SvgjsLine25457" x1="24.463166509894478" y1="248.63786999206533" x2="196.86213000793464" y2="23.963166509894478" stroke="black"></line><line id="SvgjsLine25458" x1="24.189864181436718" y1="246.4706569748188" x2="415.8497886257295" y2="276.43534580413353" stroke="black"></line><line id="SvgjsLine25459" x1="23.940218270980523" y1="244.300591689106" x2="97.65882469514223" y2="378.67186773934964" stroke="black"></line><line id="SvgjsLine25460" x1="23.714258483892564" y1="242.12793235099448" x2="128.6028034505939" y2="45.89526681424195" stroke="black"></line><line id="SvgjsLine25461" x1="23.512011707127954" y1="239.95293748521857" x2="422.48798829287205" y2="205.0470625147814" stroke="black"></line><line id="SvgjsLine25462" x1="23.333502006030557" y1="237.7758658944165" x2="160.7039990605891" y2="412.81361161765835" stroke="black"></line><line id="SvgjsLine25463" x1="23.178750621469646" y1="235.59697662833608" x2="72.44407855233482" y2="90.46600052621116" stroke="black"></line><line id="SvgjsLine25464" x1="23.047775967312447" y1="233.41652895301075" x2="403.5541924946604" y2="135.89603893238422" stroke="black"></line><line id="SvgjsLine25465" x1="22.94059362823299" y1="231.23478231990856" x2="231.73478231990856" y2="422.559406371767" stroke="black"></line><line id="SvgjsLine25466" x1="22.857216357857766" y1="229.05199633506075" x2="35.584838166845486" y2="151.96192790377313" stroke="black"></line><line id="SvgjsLine25467" x1="22.797654077248183" y1="226.8684307281708" x2="361.4754894203994" y2="77.84661659753394" stroke="black"></line><line id="SvgjsLine25468" x1="22.761913873720005" y1="224.6843453217102" x2="301.6458700236859" y2="406.6599566361197" stroke="black"></line><line id="SvgjsLine25469" x1="22.75" y1="222.50000000000003" x2="223" y2="22.25" stroke="black"></line><line id="SvgjsLine25470" x1="22.761913873720005" y1="220.3156546782899" x2="301.645870023686" y2="38.340043363880284" stroke="black"></line><line id="SvgjsLine25471" x1="22.797654077248183" y1="218.13156927182928" x2="361.47548942039947" y2="367.15338340246603" stroke="black"></line><line id="SvgjsLine25472" x1="22.857216357857766" y1="215.94800366493934" x2="35.584838166845486" y2="293.0380720962269" stroke="black"></line><line id="SvgjsLine25473" x1="22.94059362823299" y1="213.76521768009152" x2="231.73478231990853" y2="22.44059362823299" stroke="black"></line><line id="SvgjsLine25474" x1="23.047775967312447" y1="211.58347104698933" x2="403.5541924946604" y2="309.1039610676158" stroke="black"></line><line id="SvgjsLine25475" x1="23.178750621469618" y1="209.403023371664" x2="72.44407855233479" y2="354.53399947378887" stroke="black"></line><line id="SvgjsLine25476" x1="23.333502006030557" y1="207.22413410558357" x2="160.70399906058893" y2="32.18638838234165" stroke="black"></line><line id="SvgjsLine25477" x1="23.512011707127954" y1="205.04706251478152" x2="422.48798829287205" y2="239.95293748521857" stroke="black"></line><line id="SvgjsLine25478" x1="23.714258483892564" y1="202.8720676490056" x2="128.60280345059397" y2="399.1047331857581" stroke="black"></line><line id="SvgjsLine25479" x1="23.940218270980495" y1="200.69940831089406" x2="97.65882469514219" y2="66.32813226065042" stroke="black"></line><line id="SvgjsLine25480" x1="24.189864181436718" y1="198.52934302518128" x2="415.84978862572945" y2="168.56465419586647" stroke="black"></line><line id="SvgjsLine25481" x1="24.46316650989445" y1="196.36213000793472" x2="196.86213000793464" y2="421.03683349010555" stroke="black"></line><line id="SvgjsLine25482" x1="24.760092736109698" y1="194.19802713583073" x2="50.68090327032016" y2="120.48925839762146" stroke="black"></line><line id="SvgjsLine25483" x1="25.08060752883094" y1="192.03729191546915" x2="384.4905320045634" y2="104.09024291519262" stroke="black"></line><line id="SvgjsLine25484" x1="25.424672750002998" y1="189.88018145273364" x2="268.4720216726332" y2="417.51886510028606" stroke="black"></line><line id="SvgjsLine25485" x1="25.792247459305315" y1="187.72695242219726" x2="223" y2="22.25" stroke="black"></line><line id="SvgjsLine25486" x1="26.1832879190234" y1="185.5778610365818" x2="332.43010341079946" y2="54.7945589210006" stroke="black"></line><line id="SvgjsLine25487" x1="26.597747599253097" y1="183.4331630162703" x2="334.2529391621753" y2="389.0017898635847" stroke="black"></line><line id="SvgjsLine25488" x1="27.035577183437113" y1="181.29311355888" x2="26.183287919023428" y2="259.4221389634183" stroke="black"></line><line id="SvgjsLine25489" x1="27.496724574233326" y1="179.15796730889497" x2="266.3420326911051" y2="26.996724574233355" stroke="black"></line><line id="SvgjsLine25490" x1="27.981134899713936" y1="177.02797832736672" x2="385.77254858947094" y2="339.1411587977774" stroke="black"></line><line id="SvgjsLine25491" x1="28.48875051989441" y1="174.90340006168384" x2="51.803897897742445" y2="326.38434494664443" stroke="black"></line><line id="SvgjsLine25492" x1="29.01951103359221" y1="172.78448531541335" x2="194.69802713583064" y2="24.260092736109726" stroke="black"></line><line id="SvgjsLine25493" x1="29.573353285614047" y1="170.6714862182203" x2="416.4266467143859" y2="274.3285137817798" stroke="black"></line><line id="SvgjsLine25494" x1="30.150211374270555" y1="168.56465419586647" x2="99.36981889046638" y2="380.0298093023156" stroke="black"></line><line id="SvgjsLine25495" x1="30.750016659217778" y1="166.46423994029385" x2="126.6819990238926" y2="46.93546716957158" stroke="black"></line><line id="SvgjsLine25496" x1="31.372697769625148" y1="164.37049337979397" x2="422.2857415161074" y2="202.87206764900546" stroke="black"></line><line id="SvgjsLine25497" x1="32.01818061266758" y1="162.28366364926924" x2="162.78366364926933" y2="413.48181938733245" stroke="black"></line><line id="SvgjsLine25498" x1="32.68638838234165" y1="160.203999060589" x2="71.0127969302558" y2="92.11613365513224" stroke="black"></line><line id="SvgjsLine25499" x1="33.377241568605086" y1="158.1317470730419" x2="402.59876649192086" y2="133.931689783645" stroke="black"></line><line id="SvgjsLine25500" x1="34.09065796683748" y1="156.06715426389133" x2="233.9165289530108" y2="422.4522240326876" stroke="black"></line><line id="SvgjsLine25501" x1="34.82655268762187" y1="154.0104662990348" x2="223" y2="22.25" stroke="black"></line><line id="SvgjsLine25502" x1="35.584838166845486" y1="151.96192790377313" x2="359.88935848008" y2="76.34471944225842" stroke="black"></line><line id="SvgjsLine25503" x1="36.3654241761196" y1="149.92178283368878" x2="303.6500246442121" y2="405.7911236936693" stroke="black"></line><line id="SvgjsLine25504" x1="37.16821783351503" y1="147.89027384564343" x2="22.761913873720005" y2="224.6843453217102" stroke="black"></line><line id="SvgjsLine25505" x1="37.99312361461486" y1="145.8676426688907" x2="299.63235733110923" y2="37.49312361461483" stroke="black"></line><line id="SvgjsLine25506" x1="38.840043363880284" y1="143.85412997631403" x2="363.04514316227426" y2="365.63427394114274" stroke="black"></line><line id="SvgjsLine25507" x1="39.708876306330694" y1="141.84997535578793" x2="36.3654241761196" y2="295.0782171663113" stroke="black"></line><line id="SvgjsLine25508" x1="40.59951905953457" y1="139.85541728166987" x2="229.55199633506066" y2="22.357216357857766" stroke="black"></line><line id="SvgjsLine25509" x1="41.511865645910774" y1="137.87069308642506" x2="404.4881343540892" y2="307.129306913575" stroke="black"></line><line id="SvgjsLine25510" x1="42.44580750533959" y1="135.89603893238422" x2="73.89327482346167" y2="356.16842187715196" stroke="black"></line><line id="SvgjsLine25511" x1="43.401233508079144" y1="133.93168978364503" x2="158.63174707304182" y2="32.877241568605115" stroke="black"></line><line id="SvgjsLine25512" x1="44.37802996798979" y1="131.977879378112" x2="422.6664979939694" y2="237.77586589441646" stroke="black"></line><line id="SvgjsLine25513" x1="45.37608065606105" y1="130.0348401996846" x2="130.53484019968448" y2="400.12391934393895" stroke="black"></line><line id="SvgjsLine25514" x1="46.39526681424189" y1="128.10280345059397" x2="95.9627448462299" y2="67.70465671411199" stroke="black"></line><line id="SvgjsLine25515" x1="47.43546716957155" y1="126.18199902389269" x2="415.2499833407822" y2="166.46423994029382" stroke="black"></line><line id="SvgjsLine25516" x1="48.4965579486101" y1="124.27265547609866" x2="199.02934302518128" y2="421.31013581856325" stroke="black"></line><line id="SvgjsLine25517" x1="49.57841289216617" y1="122.37499999999997" x2="223" y2="22.25" stroke="black"></line><line id="SvgjsLine25518" x1="50.68090327032016" y1="120.48925839762146" x2="383.189299661301" y2="102.33573420512269" stroke="black"></line><line id="SvgjsLine25519" x1="51.80389789774239" y1="118.61565505335565" x2="270.5965999383161" y2="417.01124948010556" stroke="black"></line><line id="SvgjsLine25520" x1="52.9472631493025" y1="116.75441290726393" x2="25.424672750002998" y2="189.88018145273364" stroke="black"></line><line id="SvgjsLine25521" x1="54.11086297596964" y1="114.90575342854852" x2="330.5942465714515" y2="53.61086297596964" stroke="black"></line><line id="SvgjsLine25522" x1="55.29455892100057" y1="113.0698965892006" x2="336.0625369263537" y2="387.778326600244" stroke="black"></line><line id="SvgjsLine25523" x1="56.49821013641528" y1="111.24706083782473" x2="26.597747599253125" y2="261.5668369837298" stroke="black"></line><line id="SvgjsLine25524" x1="57.72167339975604" y1="109.4374630736463" x2="264.20688644112005" y2="26.535577183437113" stroke="black"></line><line id="SvgjsLine25525" x1="58.9648031311294" y1="107.64131862070303" x2="387.0351968688707" y2="337.3586813792969" stroke="black"></line><line id="SvgjsLine25526" x1="60.22745141052903" y1="105.85884120222266" x2="52.94726314930256" y2="328.2455870927362" stroke="black"></line><line id="SvgjsLine25527" x1="61.50946799543655" y1="104.0902429151927" x2="192.5372919154691" y2="24.58060752883094" stroke="black"></line><line id="SvgjsLine25528" x1="62.810700338699036" y1="102.33573420512266" x2="416.98048896640773" y2="272.2155146845867" stroke="black"></line><line id="SvgjsLine25529" x1="64.13099360668016" y1="100.59552384100371" x2="101.09552384100375" y2="381.36900639331986" stroke="black"></line><line id="SvgjsLine25530" x1="65.47019069768442" y1="98.86981889046638" x2="124.7726554760986" y2="47.99655794861013" stroke="black"></line><line id="SvgjsLine25531" x1="66.82813226065034" y1="97.15882469514226" x2="422.0597817290195" y2="200.6994083108941" stroke="black"></line><line id="SvgjsLine25532" x1="68.20465671411193" y1="95.46274484622997" x2="164.87049337979397" y2="414.1273022303749" stroke="black"></line><line id="SvgjsLine25533" x1="69.59960026542464" y1="93.78178116027053" x2="223" y2="22.25" stroke="black"></line><line id="SvgjsLine25534" x1="71.0127969302558" y1="92.11613365513224" x2="401.62197003201015" y2="131.97787937811185" stroke="black"></line><line id="SvgjsLine25535" x1="72.44407855233482" y1="90.46600052621116" x2="236.09697662833617" y2="422.32124937853035" stroke="black"></line><line id="SvgjsLine25536" x1="73.8932748234617" y1="88.83157812284804" x2="34.09065796683748" y2="156.06715426389133" stroke="black"></line><line id="SvgjsLine25537" x1="75.36021330377264" y1="87.21306092496405" x2="358.28693907503595" y2="74.86021330377264" stroke="black"></line><line id="SvgjsLine25538" x1="76.84471944225837" y1="85.61064151992008" x2="305.64458271833" y2="404.9004809404655" stroke="black"></line><line id="SvgjsLine25539" x1="78.346616597534" y1="84.02451057960053" x2="22.797654077248183" y2="226.8684307281708" stroke="black"></line><line id="SvgjsLine25540" x1="79.86572605885709" y1="82.45485683772586" x2="297.6097261543566" y2="36.66821783351503" stroke="black"></line><line id="SvgjsLine25541" x1="81.40186706739382" y1="80.90186706739388" x2="364.5981329326062" y2="364.0981329326061" stroke="black"></line><line id="SvgjsLine25542" x1="82.9548568377258" y1="79.36572605885715" x2="37.16821783351503" y2="297.1097261543566" stroke="black"></line><line id="SvgjsLine25543" x1="84.52451057960047" y1="77.84661659753405" x2="227.36843072817086" y2="22.297654077248183" stroke="black"></line><line id="SvgjsLine25544" x1="86.11064151992002" y1="76.34471944225842" x2="405.4004809404655" y2="305.14458271833" stroke="black"></line><line id="SvgjsLine25545" x1="87.713060924964" y1="74.8602133037727" x2="75.3602133037727" y2="357.786939075036" stroke="black"></line><line id="SvgjsLine25546" x1="89.33157812284799" y1="73.39327482346172" x2="156.56715426389124" y2="33.59065796683751" stroke="black"></line><line id="SvgjsLine25547" x1="90.9660005262111" y1="71.94407855233487" x2="422.82124937853035" y2="235.59697662833617" stroke="black"></line><line id="SvgjsLine25548" x1="92.61613365513219" y1="70.51279693025586" x2="132.47787937811188" y2="401.12197003201015" stroke="black"></line><line id="SvgjsLine25549" x1="94.28178116027044" y1="69.0996002654247" x2="223" y2="22.25" stroke="black"></line><line id="SvgjsLine25550" x1="95.9627448462299" y1="67.70465671411199" x2="414.6273022303749" y2="164.3704933797939" stroke="black"></line><line id="SvgjsLine25551" x1="97.65882469514219" y1="66.32813226065042" x2="201.19940831089406" y2="421.5597817290195" stroke="black"></line><line id="SvgjsLine25552" x1="99.36981889046632" y1="64.97019069768444" x2="48.4965579486101" y2="124.27265547609866" stroke="black"></line><line id="SvgjsLine25553" x1="101.09552384100364" y1="63.63099360668019" x2="381.86900639331986" y2="100.59552384100368" stroke="black"></line><line id="SvgjsLine25554" x1="102.83573420512259" y1="62.31070033869912" x2="272.7155146845867" y2="416.48048896640773" stroke="black"></line><line id="SvgjsLine25555" x1="104.59024291519263" y1="61.00946799543661" x2="25.08060752883094" y2="192.03729191546915" stroke="black"></line><line id="SvgjsLine25556" x1="106.35884120222259" y1="59.727451410529056" x2="328.7455870927362" y2="52.447263149302586" stroke="black"></line><line id="SvgjsLine25557" x1="108.14131862070295" y1="58.46480313112943" x2="337.85868137929697" y2="386.5351968688706" stroke="black"></line><line id="SvgjsLine25558" x1="109.93746307364623" y1="57.2216733997561" x2="27.035577183437113" y2="263.70688644112005" stroke="black"></line><line id="SvgjsLine25559" x1="111.74706083782466" y1="55.99821013641531" x2="262.0668369837297" y2="26.097747599253097" stroke="black"></line><line id="SvgjsLine25560" x1="113.56989658920051" y1="54.7945589210006" x2="388.278326600244" y2="335.5625369263537" stroke="black"></line><line id="SvgjsLine25561" x1="115.40575342854845" y1="53.61086297596967" x2="54.11086297596967" y2="330.09424657145155" stroke="black"></line><line id="SvgjsLine25562" x1="117.25441290726383" y1="52.44726314930256" x2="190.38018145273355" y2="24.924672750002998" stroke="black"></line><line id="SvgjsLine25563" x1="119.11565505335558" y1="51.303897897742445" x2="417.51124948010556" y2="270.09659993831616" stroke="black"></line><line id="SvgjsLine25564" x1="120.98925839762138" y1="50.180903270320215" x2="102.83573420512273" y2="382.689299661301" stroke="black"></line><line id="SvgjsLine25565" x1="122.87499999999991" y1="49.07841289216623" x2="223" y2="22.25" stroke="black"></line><line id="SvgjsLine25566" x1="124.7726554760986" y1="47.99655794861013" x2="421.81013581856325" y2="198.52934302518128" stroke="black"></line><line id="SvgjsLine25567" x1="126.6819990238926" y1="46.93546716957158" x2="166.9642399402939" y2="414.74998334078225" stroke="black"></line><line id="SvgjsLine25568" x1="128.6028034505939" y1="45.89526681424195" x2="68.20465671411193" y2="95.46274484622997" stroke="black"></line><line id="SvgjsLine25569" x1="130.5348401996845" y1="44.87608065606108" x2="400.62391934393884" y2="130.03484019968442" stroke="black"></line><line id="SvgjsLine25570" x1="132.47787937811188" y1="43.87802996798982" x2="238.2758658944165" y2="422.1664979939694" stroke="black"></line><line id="SvgjsLine25571" x1="134.43168978364497" y1="42.90123350807917" x2="33.377241568605086" y2="158.1317470730419" stroke="black"></line><line id="SvgjsLine25572" x1="136.39603893238416" y1="41.945807505339616" x2="356.66842187715196" y2="73.39327482346167" stroke="black"></line><line id="SvgjsLine25573" x1="138.37069308642498" y1="41.01186564591083" x2="307.6293069135751" y2="403.98813435408914" stroke="black"></line><line id="SvgjsLine25574" x1="140.35541728166982" y1="40.09951905953463" x2="22.857216357857766" y2="229.05199633506075" stroke="black"></line><line id="SvgjsLine25575" x1="142.34997535578782" y1="39.20887630633072" x2="295.5782171663112" y2="35.8654241761196" stroke="black"></line><line id="SvgjsLine25576" x1="144.35412997631397" y1="38.34004336388031" x2="366.13427394114274" y2="362.54514316227426" stroke="black"></line><line id="SvgjsLine25577" x1="146.36764266889065" y1="37.49312361461489" x2="37.99312361461489" y2="299.13235733110935" stroke="black"></line><line id="SvgjsLine25578" x1="148.39027384564338" y1="36.66821783351503" x2="225.18434532171003" y2="22.261913873720005" stroke="black"></line><line id="SvgjsLine25579" x1="150.42178283368872" y1="35.8654241761196" x2="406.2911236936693" y2="303.1500246442121" stroke="black"></line><line id="SvgjsLine25580" x1="152.46192790377307" y1="35.084838166845486" x2="76.8447194422584" y2="359.38935848008" stroke="black"></line><line id="SvgjsLine25581" x1="154.5104662990347" y1="34.3265526876219" x2="223" y2="22.25" stroke="black"></line><line id="SvgjsLine25582" x1="156.56715426389124" y1="33.59065796683751" x2="422.9522240326876" y2="233.41652895301078" stroke="black"></line><line id="SvgjsLine25583" x1="158.63174707304182" y1="32.877241568605115" x2="134.43168978364503" y2="402.09876649192086" stroke="black"></line><line id="SvgjsLine25584" x1="160.70399906058893" y1="32.18638838234165" x2="92.61613365513219" y2="70.51279693025586" stroke="black"></line><line id="SvgjsLine25585" x1="162.78366364926916" y1="31.518180612667607" x2="413.98181938733245" y2="162.28366364926933" stroke="black"></line><line id="SvgjsLine25586" x1="164.87049337979388" y1="30.872697769625177" x2="203.3720676490055" y2="421.78574151610746" stroke="black"></line><line id="SvgjsLine25587" x1="166.96423994029377" y1="30.250016659217806" x2="47.43546716957155" y2="126.18199902389269" stroke="black"></line><line id="SvgjsLine25588" x1="169.06465419586638" y1="29.650211374270555" x2="380.5298093023156" y2="98.86981889046632" stroke="black"></line><line id="SvgjsLine25589" x1="171.17148621822022" y1="29.073353285614076" x2="274.82851378177986" y2="415.9266467143859" stroke="black"></line><line id="SvgjsLine25590" x1="173.2844853154133" y1="28.519511033592238" x2="24.760092736109698" y2="194.19802713583073" stroke="black"></line><line id="SvgjsLine25591" x1="175.40340006168375" y1="27.98875051989441" x2="326.8843449466444" y2="51.303897897742445" stroke="black"></line><line id="SvgjsLine25592" x1="177.52797832736664" y1="27.481134899713965" x2="339.6411587977774" y2="385.27254858947094" stroke="black"></line><line id="SvgjsLine25593" x1="179.6579673088949" y1="26.996724574233355" x2="27.496724574233355" y2="265.8420326911051" stroke="black"></line><line id="SvgjsLine25594" x1="181.79311355887992" y1="26.535577183437113" x2="259.9221389634183" y2="25.683287919023428" stroke="black"></line><line id="SvgjsLine25595" x1="183.9331630162702" y1="26.097747599253125" x2="389.5017898635847" y2="333.75293916217527" stroke="black"></line><line id="SvgjsLine25596" x1="186.07786103658168" y1="25.683287919023428" x2="55.2945589210006" y2="331.93010341079946" stroke="black"></line><line id="SvgjsLine25597" x1="188.2269524221972" y1="25.292247459305344" x2="223" y2="22.25" stroke="black"></line><line id="SvgjsLine25598" x1="190.38018145273355" y1="24.924672750002998" x2="418.01886510028606" y2="267.9720216726332" stroke="black"></line><line id="SvgjsLine25599" x1="192.5372919154691" y1="24.58060752883094" x2="104.5902429151927" y2="383.9905320045634" stroke="black"></line><line id="SvgjsLine25600" x1="194.69802713583064" y1="24.260092736109726" x2="120.98925839762138" y2="50.180903270320215" stroke="black"></line><line id="SvgjsLine25601" x1="196.86213000793464" y1="23.963166509894478" x2="421.53683349010555" y2="196.36213000793464" stroke="black"></line><line id="SvgjsLine25602" x1="199.0293430251812" y1="23.689864181436747" x2="169.06465419586652" y2="415.3497886257295" stroke="black"></line><line id="SvgjsLine25603" x1="201.19940831089397" y1="23.440218270980523" x2="66.82813226065034" y2="97.15882469514226" stroke="black"></line><line id="SvgjsLine25604" x1="203.37206764900552" y1="23.214258483892564" x2="399.60473318575805" y2="128.10280345059394" stroke="black"></line><line id="SvgjsLine25605" x1="205.54706251478143" y1="23.012011707127954" x2="240.45293748521854" y2="421.98798829287205" stroke="black"></line><line id="SvgjsLine25606" x1="207.72413410558346" y1="22.833502006030557" x2="32.68638838234165" y2="160.203999060589" stroke="black"></line><line id="SvgjsLine25607" x1="209.9030233716639" y1="22.678750621469646" x2="355.03399947378875" y2="71.94407855233479" stroke="black"></line><line id="SvgjsLine25608" x1="212.08347104698925" y1="22.547775967312447" x2="309.60396106761584" y2="403.05419249466036" stroke="black"></line><line id="SvgjsLine25609" x1="214.26521768009144" y1="22.44059362823299" x2="22.94059362823299" y2="231.23478231990856" stroke="black"></line><line id="SvgjsLine25610" x1="216.44800366493925" y1="22.357216357857766" x2="293.538072096227" y2="35.084838166845515" stroke="black"></line><line id="SvgjsLine25611" x1="218.6315692718292" y1="22.297654077248183" x2="367.65338340246603" y2="360.9754894203994" stroke="black"></line><line id="SvgjsLine25612" x1="220.8156546782898" y1="22.261913873720005" x2="38.84004336388031" y2="301.14587002368603" stroke="black"></line></svg>